<svg width="375" height="808" viewBox="0 0 375 808" fill="none" xmlns="http://www.w3.org/2000/svg">
<g style="mix-blend-mode:multiply">
<path d="M0.672607 545.531L-12.5732 537.887V553.175L0.672607 545.531Z" fill="#F4F8FE"/>
<path d="M7.18237 556.388L-6.4172 564.244L7.18237 572.086V556.388Z" fill="#F4F8FE"/>
<path d="M6.24829 595.441L-4.54931 601.67L6.24829 607.912V595.441Z" fill="#F4F8FE"/>
<path d="M2.34253 508.105L-13.4081 499.004V517.193L2.34253 508.105Z" fill="#F4F8FE"/>
<path d="M7.98901 517.575L-8.03049 526.818L7.98901 536.061V517.575Z" fill="#F4F8FE"/>
<path d="M35.174 564.244L18.7865 554.774V573.699L35.174 564.244Z" fill="#F4F8FE"/>
<path d="M40.594 573.36L23.9801 582.957L40.594 592.554V573.36Z" fill="#F4F8FE"/>
<path d="M33.3767 601.67L19.6922 593.771V609.582L33.3767 601.67Z" fill="#F4F8FE"/>
<path d="M5.04541 634.948L-2.14358 639.109L5.04541 643.257V634.948Z" fill="#F4F8FE"/>
<path d="M3.00757 470.666L-13.7337 460.998V480.347L3.00757 470.666Z" fill="#F4F8FE"/>
<path d="M8.45593 479.328L-8.96456 489.379L8.45593 499.443V479.328Z" fill="#F4F8FE"/>
<path d="M36.5042 526.818L18.1214 516.188V537.434L36.5042 526.818Z" fill="#F4F8FE"/>
<path d="M41.2875 534.731L22.5934 545.531L41.2875 556.331V534.731Z" fill="#F4F8FE"/>
<path d="M69.5197 582.957L50.2312 571.817V594.097L69.5197 582.957Z" fill="#F4F8FE"/>
<path d="M39.4619 612.767L26.2444 620.382L39.4619 628.012V612.767Z" fill="#F4F8FE"/>
<path d="M30.8152 639.109L20.9658 633.419V644.785L30.8152 639.109Z" fill="#F4F8FE"/>
<path d="M3.91333 674.327L0.106573 676.535L3.91333 678.743V674.327Z" fill="#F4F8FE"/>
<path d="M2.83777 433.24L-13.6487 423.714V442.766L2.83777 433.24Z" fill="#F4F8FE"/>
<path d="M8.38525 442.002L-8.83714 451.953L8.38525 461.904V442.002Z" fill="#F4F8FE"/>
<path d="M37.0985 489.378L17.8242 478.253V500.518L37.0985 489.378Z" fill="#F4F8FE"/>
<path d="M41.7402 496.512L21.6734 508.105L41.7402 519.684V496.512Z" fill="#F4F8FE"/>
<path d="M70.6094 545.531L49.6935 533.443V557.605L70.6094 545.531Z" fill="#F4F8FE"/>
<path d="M74.6284 551.816L53.1181 564.244L74.6284 576.672V551.816Z" fill="#F4F8FE"/>
<path d="M73.8643 590.586L54.6748 601.67L73.8643 612.753V590.586Z" fill="#F4F8FE"/>
<path d="M67.2837 620.382L51.3491 611.196V629.583L67.2837 620.382Z" fill="#F4F8FE"/>
<path d="M38.0468 652.641L29.0747 657.822L38.0468 663.003V652.641Z" fill="#F4F8FE"/>
<path d="M28.1265 676.535L22.3102 673.166V679.89L28.1265 676.535Z" fill="#F4F8FE"/>
<path d="M3.14917 713.083L1.63499 713.961L3.14917 714.838V713.083Z" fill="#F4F8FE"/>
<path d="M2.11609 395.814L-13.2949 386.911V404.704L2.11609 395.814Z" fill="#F4F8FE"/>
<path d="M8.04553 405.171L-8.14379 414.527L8.04553 423.869V405.171Z" fill="#F4F8FE"/>
<path d="M36.4193 451.953L18.1639 441.407V462.498L36.4193 451.953Z" fill="#F4F8FE"/>
<path d="M41.5563 459.398L22.0413 470.666L41.5563 481.933V459.398Z" fill="#F4F8FE"/>
<path d="M71.1895 508.105L49.3961 495.508V520.689L71.1895 508.105Z" fill="#F4F8FE"/>
<path d="M75.0105 513.725L52.354 526.818L75.0105 539.897V513.725Z" fill="#F4F8FE"/>
<path d="M104.615 564.244L81.2937 550.768V577.719L104.615 564.244Z" fill="#F4F8FE"/>
<path d="M107.7 569.382L84.1947 582.957L107.7 596.531V569.382Z" fill="#F4F8FE"/>
<path d="M103.455 601.67L81.8739 589.199V614.14L103.455 601.67Z" fill="#F4F8FE"/>
<path d="M72.5339 630.319L57.3211 639.109L72.5339 647.885V630.319Z" fill="#F4F8FE"/>
<path d="M64.312 657.822L52.8351 651.198V664.447L64.312 657.822Z" fill="#F4F8FE"/>
<path d="M36.7731 692.275L31.6078 695.248L36.7731 698.234V692.275Z" fill="#F4F8FE"/>
<path d="M26.2444 713.961L23.2584 712.234V715.687L26.2444 713.961Z" fill="#F4F8FE"/>
<path d="M0.389526 358.375L-12.4317 350.972V365.778L0.389526 358.375Z" fill="#F4F8FE"/>
<path d="M7.45117 368.764L-6.96921 377.087L7.45117 385.425V368.764Z" fill="#F4F8FE"/>
<path d="M35.2589 414.527L18.7441 404.987V424.068L35.2589 414.527Z" fill="#F4F8FE"/>
<path d="M40.9619 423.006L23.2442 433.24L40.9619 443.474V423.006Z" fill="#F4F8FE"/>
<path d="M70.397 470.666L49.7924 458.761V482.57L70.397 470.666Z" fill="#F4F8FE"/>
<path d="M74.8123 476.653L52.7642 489.379L74.8123 502.104V476.653Z" fill="#F4F8FE"/>
<path d="M105.125 526.818L81.0389 512.904V540.718L105.125 526.818Z" fill="#F4F8FE"/>
<path d="M107.983 531.461L83.6287 545.531L107.983 559.587V531.461Z" fill="#F4F8FE"/>
<path d="M137.857 582.957L113.276 568.759V597.154L137.857 582.957Z" fill="#F4F8FE"/>
<path d="M106.766 608.45L86.0769 620.382L106.766 632.329V608.45Z" fill="#F4F8FE"/>
<path d="M100.795 639.109L83.2042 628.946V649.258L100.795 639.109Z" fill="#F4F8FE"/>
<path d="M70.9207 670.547L60.5476 676.535L70.9207 682.522V670.547Z" fill="#F4F8FE"/>
<path d="M61.4532 695.248L54.2643 691.1V699.395L61.4532 695.248Z" fill="#F4F8FE"/>
<path d="M35.825 731.329L33.5041 732.673L35.825 734.032V731.329Z" fill="#F4F8FE"/>
<path d="M24.6453 751.386L24.0509 751.047V751.74L24.6453 751.386Z" fill="#F4F8FE"/>
<path d="M6.34741 333.264L-4.74736 339.662L6.34741 346.06V333.264Z" fill="#F4F8FE"/>
<path d="M33.8013 377.087L19.4658 368.821V385.368L33.8013 377.087Z" fill="#F4F8FE"/>
<path d="M40.2686 386.784L24.6312 395.814L40.2686 404.831V386.784Z" fill="#F4F8FE"/>
<path d="M68.7979 433.24L50.5849 422.723V443.757L68.7979 433.24Z" fill="#F4F8FE"/>
<path d="M74.0339 440.558L54.3067 451.953L74.0339 463.347V440.558Z" fill="#F4F8FE"/>
<path d="M104.262 489.378L81.4635 476.229V502.543L104.262 489.378Z" fill="#F4F8FE"/>
<path d="M107.899 494.191L83.8127 508.105L107.899 522.006V494.191Z" fill="#F4F8FE"/>
<path d="M138.197 545.531L113.12 531.051V560.012L138.197 545.531Z" fill="#F4F8FE"/>
<path d="M140.702 549.65L115.441 564.244L140.702 578.838V549.65Z" fill="#F4F8FE"/>
<path d="M140.22 587.911L116.389 601.67L140.22 615.428V587.911Z" fill="#F4F8FE"/>
<path d="M136.074 620.382L114.168 607.742V633.037L136.074 620.382Z" fill="#F4F8FE"/>
<path d="M105.181 648.607L89.2327 657.822L105.181 667.023V648.607Z" fill="#F4F8FE"/>
<path d="M97.4122 676.535L84.8881 669.302V683.768L97.4122 676.535Z" fill="#F4F8FE"/>
<path d="M69.647 710.167L63.0807 713.961L69.647 717.754V710.167Z" fill="#F4F8FE"/>
<path d="M59.2456 732.673L55.3681 730.451V734.91L59.2456 732.673Z" fill="#F4F8FE"/>
<path d="M35.0608 770.099L35.0466 770.113H35.0608V770.099Z" fill="#F4F8FE"/>
<path d="M5.24353 297.735L-2.55396 302.236L5.24353 306.737V297.735Z" fill="#F4F8FE"/>
<path d="M31.537 339.662L20.6121 333.349V345.975L31.537 339.662Z" fill="#F4F8FE"/>
<path d="M39.2355 351.127L26.6831 358.375L39.2355 365.636V351.127Z" fill="#F4F8FE"/>
<path d="M67.1846 395.814L51.4056 386.699V404.916L67.1846 395.814Z" fill="#F4F8FE"/>
<path d="M73.1283 404.718L56.1465 414.527L73.1283 424.336V404.718Z" fill="#F4F8FE"/>
<path d="M102.408 451.953L82.3975 440.388V463.517L102.408 451.953Z" fill="#F4F8FE"/>
<path d="M107.064 458.209L85.4826 470.666L107.064 483.122V458.209Z" fill="#F4F8FE"/>
<path d="M137.702 508.105L113.361 494.035V522.161L137.702 508.105Z" fill="#F4F8FE"/>
<path d="M140.659 512.295L115.512 526.818L140.659 541.327V512.295Z" fill="#F4F8FE"/>
<path d="M170.731 564.244L145.457 549.65V578.838L170.731 564.244Z" fill="#F4F8FE"/>
<path d="M172.939 568.66L148.174 582.957L172.939 597.267V568.66Z" fill="#F4F8FE"/>
<path d="M169.91 601.67L145.867 587.798V615.556L169.91 601.67Z" fill="#F4F8FE"/>
<path d="M138.961 627.531L118.923 639.109L138.961 650.674V627.531Z" fill="#F4F8FE"/>
<path d="M132.862 657.822L115.781 647.956V667.674L132.862 657.822Z" fill="#F4F8FE"/>
<path d="M103.497 688.963L92.6148 695.248L103.497 701.533V688.963Z" fill="#F4F8FE"/>
<path d="M94.582 713.961L86.3034 709.176V718.745L94.582 713.961Z" fill="#F4F8FE"/>
<path d="M68.4017 749.758L65.5714 751.386L68.4017 753.028V749.758Z" fill="#F4F8FE"/>
<path d="M57.2502 770.113L56.3587 769.59V770.623L57.2502 770.113Z" fill="#F4F8FE"/>
<path d="M4.39453 261.767L-0.855663 264.81L4.39453 267.84V261.767Z" fill="#F4F8FE"/>
<path d="M29.4285 302.236L21.6593 297.749V306.723L29.4285 302.236Z" fill="#F4F8FE"/>
<path d="M38.1599 315.556L28.8341 320.949L38.1599 326.328V315.556Z" fill="#F4F8FE"/>
<path d="M64.9487 358.375L52.5096 351.198V365.551L64.9487 358.375Z" fill="#F4F8FE"/>
<path d="M72.1943 368.906L58.0004 377.087L72.1943 385.283V368.906Z" fill="#F4F8FE"/>
<path d="M100.228 414.527L83.4872 404.845V424.195L100.228 414.527Z" fill="#F4F8FE"/>
<path d="M105.875 422.836L87.86 433.24L105.875 443.644V422.836Z" fill="#F4F8FE"/>
<path d="M135.72 470.666L114.352 458.337V483.009L135.72 470.666Z" fill="#F4F8FE"/>
<path d="M139.909 476.144L116.998 489.378L139.909 502.613V476.144Z" fill="#F4F8FE"/>
<path d="M170.519 526.818L145.57 512.409V541.228L170.519 526.818Z" fill="#F4F8FE"/>
<path d="M173.024 531.079L148.018 545.531L173.024 559.969V531.079Z" fill="#F4F8FE"/>
<path d="M202.36 582.957L178.246 569.028V596.885L202.36 582.957Z" fill="#F4F8FE"/>
<path d="M172.061 607.601L149.928 620.382L172.061 633.164V607.601Z" fill="#F4F8FE"/>
<path d="M167.292 639.109L147.183 627.488V650.716L167.292 639.109Z" fill="#F4F8FE"/>
<path d="M137.065 668.254L122.715 676.535L137.065 684.816V668.254Z" fill="#F4F8FE"/>
<path d="M129.324 695.248L117.55 688.453V702.042L129.324 695.248Z" fill="#F4F8FE"/>
<path d="M102.096 728.823L95.4169 732.673L102.096 736.538V728.823Z" fill="#F4F8FE"/>
<path d="M91.7234 751.386L87.7327 749.093V753.694L91.7234 751.386Z" fill="#F4F8FE"/>
<path d="M67.5243 788.713L67.3403 788.826L67.5243 788.925V788.713Z" fill="#F4F8FE"/>
<path d="M27.9142 264.81L22.4234 261.626V267.981L27.9142 264.81Z" fill="#F4F8FE"/>
<path d="M37.226 279.744L30.7021 283.523L37.226 287.289V279.744Z" fill="#F4F8FE"/>
<path d="M62.8401 320.949L53.5709 315.584V326.299L62.8401 320.949Z" fill="#F4F8FE"/>
<path d="M71.0056 333.533L60.3778 339.662L71.0056 345.791V333.533Z" fill="#F4F8FE"/>
<path d="M98.1906 377.087L84.506 369.189V385L98.1906 377.087Z" fill="#F4F8FE"/>
<path d="M104.842 387.18L89.912 395.814L104.842 404.435V387.18Z" fill="#F4F8FE"/>
<path d="M133.102 433.24L115.653 423.162V443.304L133.102 433.24Z" fill="#F4F8FE"/>
<path d="M138.664 440.884L119.503 451.953L138.664 463.022V440.884Z" fill="#F4F8FE"/>
<path d="M168.849 489.378L146.405 476.412V502.344L168.849 489.378Z" fill="#F4F8FE"/>
<path d="M172.585 494.403L148.881 508.105L172.585 521.793V494.403Z" fill="#F4F8FE"/>
<path d="M202.459 545.531L178.203 531.518V559.53L202.459 545.531Z" fill="#F4F8FE"/>
<path d="M205.133 550.315L181.019 564.244L205.133 578.172V550.315Z" fill="#F4F8FE"/>
<path d="M204.61 588.647L182.052 601.67L204.61 614.692V588.647Z" fill="#F4F8FE"/>
<path d="M200.605 620.382L179.137 607.997V632.782L200.605 620.382Z" fill="#F4F8FE"/>
<path d="M170.448 647.829L153.141 657.822L170.448 667.815V647.829Z" fill="#F4F8FE"/>
<path d="M163.556 676.535L149.037 668.141V684.915L163.556 676.535Z" fill="#F4F8FE"/>
<path d="M135.494 708.384L125.828 713.961L135.494 719.538V708.384Z" fill="#F4F8FE"/>
<path d="M126.197 732.673L119.107 728.583V736.778L126.197 732.673Z" fill="#F4F8FE"/>
<path d="M100.695 768.669L98.2048 770.113L100.695 771.557V768.669Z" fill="#F4F8FE"/>
<path d="M89.6572 788.826L88.7657 788.302V789.336L89.6572 788.826Z" fill="#F4F8FE"/>
<path d="M3.80005 225.375L0.34708 227.371L3.80005 229.366V225.375Z" fill="#F4F8FE"/>
<path d="M26.8103 227.371L22.9753 225.163V229.593L26.8103 227.371Z" fill="#F4F8FE"/>
<path d="M36.6741 243.295L31.8343 246.083L36.6741 248.886V243.295Z" fill="#F4F8FE"/>
<path d="M61.1561 283.523L54.4059 279.616V287.416L61.1561 283.523Z" fill="#F4F8FE"/>
<path d="M70.0857 297.692L62.2174 302.236L70.0857 306.766V297.692Z" fill="#F4F8FE"/>
<path d="M95.8981 339.662L85.6524 333.745V345.579L95.8981 339.662Z" fill="#F4F8FE"/>
<path d="M103.696 351.75L92.2187 358.374L103.696 364.999V351.75Z" fill="#F4F8FE"/>
<path d="M130.965 395.814L116.729 387.59V404.024L130.965 395.814Z" fill="#F4F8FE"/>
<path d="M137.376 405.68L122.064 414.527L137.376 423.374V405.68Z" fill="#F4F8FE"/>
<path d="M166.174 451.953L147.735 441.294V462.611L166.174 451.953Z" fill="#F4F8FE"/>
<path d="M171.41 459.016L151.23 470.666L171.41 482.315V459.016Z" fill="#F4F8FE"/>
<path d="M201.567 508.105L178.642 494.856V521.34L201.567 508.105Z" fill="#F4F8FE"/>
<path d="M204.935 513.215L181.401 526.818L204.935 540.407V513.215Z" fill="#F4F8FE"/>
<path d="M234.102 564.244L210.992 550.896V577.592L234.102 564.244Z" fill="#F4F8FE"/>
<path d="M236.889 570.146L214.7 582.957L236.889 595.781V570.146Z" fill="#F4F8FE"/>
<path d="M232.969 601.67L211.558 589.312V614.041L232.969 601.67Z" fill="#F4F8FE"/>
<path d="M203.308 628.337L184.656 639.109L203.308 649.867V628.337Z" fill="#F4F8FE"/>
<path d="M197.35 657.822L180.765 648.239V667.405L197.35 657.822Z" fill="#F4F8FE"/>
<path d="M168.623 688.425L156.806 695.248L168.623 702.071V688.425Z" fill="#F4F8FE"/>
<path d="M160.259 713.961L150.693 708.44V719.481L160.259 713.961Z" fill="#F4F8FE"/>
<path d="M133.852 748.683L129.14 751.386L133.852 754.104V748.683Z" fill="#F4F8FE"/>
<path d="M123.352 770.113L120.536 768.485V771.727L123.352 770.113Z" fill="#F4F8FE"/>
<path d="M36.1929 206.69L32.7824 208.658L36.1929 210.625V206.69Z" fill="#F4F8FE"/>
<path d="M60.0381 246.084L54.9718 243.153V249.014L60.0381 246.084Z" fill="#F4F8FE"/>
<path d="M69.4913 261.3L63.4062 264.81L69.4913 268.307V261.3Z" fill="#F4F8FE"/>
<path d="M94.2281 302.236L86.4873 297.763V306.695L94.2281 302.236Z" fill="#F4F8FE"/>
<path d="M102.761 315.938L94.0866 320.949L102.761 325.96V315.938Z" fill="#F4F8FE"/>
<path d="M128.616 358.375L117.904 352.189V364.574L128.616 358.375Z" fill="#F4F8FE"/>
<path d="M136.286 370.151L124.258 377.087L136.286 384.037V370.151Z" fill="#F4F8FE"/>
<path d="M163.401 414.527L149.122 406.275V422.765L163.401 414.527Z" fill="#F4F8FE"/>
<path d="M169.91 424.167L154.216 433.24L169.91 442.299V424.167Z" fill="#F4F8FE"/>
<path d="M199.119 470.666L179.873 459.554V481.777L199.119 470.666Z" fill="#F4F8FE"/>
<path d="M204.044 477.347L183.199 489.378L204.044 501.424V477.347Z" fill="#F4F8FE"/>
<path d="M233.804 526.818L211.148 513.725V539.897L233.804 526.818Z" fill="#F4F8FE"/>
<path d="M237.059 532.424L214.374 545.531L237.059 558.624V532.424Z" fill="#F4F8FE"/>
<path d="M265.15 582.957L244.078 570.784V595.13L265.15 582.957Z" fill="#F4F8FE"/>
<path d="M235.757 609.54L216.978 620.382L235.757 631.239V609.54Z" fill="#F4F8FE"/>
<path d="M230.083 639.109L213.002 629.243V648.961L230.083 639.109Z" fill="#F4F8FE"/>
<path d="M201.454 668.962L188.35 676.535L201.454 684.108V668.962Z" fill="#F4F8FE"/>
<path d="M193.812 695.248L182.519 688.722V701.773L193.812 695.248Z" fill="#F4F8FE"/>
<path d="M167.038 728.597L159.976 732.673L167.038 736.764V728.597Z" fill="#F4F8FE"/>
<path d="M156.99 751.386L152.334 748.697V754.09L156.99 751.386Z" fill="#F4F8FE"/>
<path d="M132.678 788.118L131.475 788.826L132.678 789.52V788.118Z" fill="#F4F8FE"/>
<path d="M3.43213 188.586L1.08297 189.945L3.43213 191.29V188.586Z" fill="#F4F8FE"/>
<path d="M26.1454 189.945L23.301 188.303V191.587L26.1454 189.945Z" fill="#F4F8FE"/>
<path d="M59.2456 208.658L55.3681 206.421V210.894L59.2456 208.658Z" fill="#F4F8FE"/>
<path d="M68.9819 224.738L64.411 227.371L68.9819 230.003V224.738Z" fill="#F4F8FE"/>
<path d="M93.1951 264.81L86.9967 261.229V268.377L93.1951 264.81Z" fill="#F4F8FE"/>
<path d="M102.167 279.532L95.2753 283.523L102.167 287.501V279.532Z" fill="#F4F8FE"/>
<path d="M126.89 320.949L118.767 316.249V325.634L126.89 320.949Z" fill="#F4F8FE"/>
<path d="M135.197 334.594L126.437 339.662L135.197 344.729V334.594Z" fill="#F4F8FE"/>
<path d="M161.122 377.087L150.254 370.817V383.372L161.122 377.087Z" fill="#F4F8FE"/>
<path d="M168.679 388.878L156.693 395.814L168.679 402.736V388.878Z" fill="#F4F8FE"/>
<path d="M195.907 433.24L181.486 424.917V441.563L195.907 433.24Z" fill="#F4F8FE"/>
<path d="M202.53 442.54L186.213 451.953L202.53 461.366V442.54Z" fill="#F4F8FE"/>
<path d="M231.936 489.378L212.082 477.913V500.858L231.936 489.378Z" fill="#F4F8FE"/>
<path d="M236.55 495.876L215.379 508.105L236.55 520.321V495.876Z" fill="#F4F8FE"/>
<path d="M265.645 545.531L243.838 532.919V558.129L265.645 545.531Z" fill="#F4F8FE"/>
<path d="M268.999 551.957L247.715 564.244L268.999 576.53V551.957Z" fill="#F4F8FE"/>
<path d="M268.15 590.841L249.413 601.67L268.15 612.498V590.841Z" fill="#F4F8FE"/>
<path d="M262.56 620.382L245.38 610.46V630.305L262.56 620.382Z" fill="#F4F8FE"/>
<path d="M234.087 649.881L220.332 657.822L234.087 665.749V649.881Z" fill="#F4F8FE"/>
<path d="M226.488 676.535L214.799 669.783V683.287L226.488 676.535Z" fill="#F4F8FE"/>
<path d="M199.869 709.148L191.52 713.961L199.869 718.787V709.148Z" fill="#F4F8FE"/>
<path d="M190.586 732.673L184.133 728.951V736.41L190.586 732.673Z" fill="#F4F8FE"/>
<path d="M165.566 768.584L162.92 770.113L165.566 771.628V768.584Z" fill="#F4F8FE"/>
<path d="M154.613 788.826L153.509 788.189V789.463L154.613 788.826Z" fill="#F4F8FE"/>
<path d="M36.0089 169.562L33.122 171.232L36.0089 172.888V169.562Z" fill="#F4F8FE"/>
<path d="M58.906 171.232L55.538 169.279V173.186L58.906 171.232Z" fill="#F4F8FE"/>
<path d="M68.7413 187.737L64.9063 189.945L68.7413 192.153V187.737Z" fill="#F4F8FE"/>
<path d="M92.4451 227.371L87.3789 224.455V230.287L92.4451 227.371Z" fill="#F4F8FE"/>
<path d="M101.757 242.8L96.082 246.084L101.757 249.367V242.8Z" fill="#F4F8FE"/>
<path d="M125.998 283.523L119.22 279.602V287.43L125.998 283.523Z" fill="#F4F8FE"/>
<path d="M134.588 298.23L127.668 302.236L134.588 306.228V298.23Z" fill="#F4F8FE"/>
<path d="M159.014 339.662L151.315 335.217V344.106L159.014 339.662Z" fill="#F4F8FE"/>
<path d="M167.519 353.463L159.014 358.375L167.519 363.3V353.463Z" fill="#F4F8FE"/>
<path d="M193.402 395.814L182.732 389.643V401.972L193.402 395.814Z" fill="#F4F8FE"/>
<path d="M200.987 407.775L189.298 414.527L200.987 421.265V407.775Z" fill="#F4F8FE"/>
<path d="M228.865 451.953L213.61 443.134V460.771L228.865 451.953Z" fill="#F4F8FE"/>
<path d="M235.234 460.715L218.011 470.666L235.234 480.617V460.715Z" fill="#F4F8FE"/>
<path d="M264.74 508.105L244.291 496.286V519.911L264.74 508.105Z" fill="#F4F8FE"/>
<path d="M268.971 514.588L247.786 526.818L268.971 539.034V514.588Z" fill="#F4F8FE"/>
<path d="M297.302 564.244L276.613 552.297V576.191L297.302 564.244Z" fill="#F4F8FE"/>
<path d="M300.826 571.675L281.283 582.957L300.826 594.238V571.675Z" fill="#F4F8FE"/>
<path d="M295.406 601.67L277.561 591.365V611.974L295.406 601.67Z" fill="#F4F8FE"/>
<path d="M266.509 631.126L252.697 639.109L266.509 647.079V631.126Z" fill="#F4F8FE"/>
<path d="M259.107 657.822L247.107 650.886V664.744L259.107 657.822Z" fill="#F4F8FE"/>
<path d="M232.389 690.223L223.7 695.248L232.389 700.273V690.223Z" fill="#F4F8FE"/>
<path d="M223.46 713.961L216.313 709.842V718.094L223.46 713.961Z" fill="#F4F8FE"/>
<path d="M198.327 749.263L194.619 751.386L198.327 753.538V749.263Z" fill="#F4F8FE"/>
<path d="M187.84 770.113L185.505 768.754V771.458L187.84 770.113Z" fill="#F4F8FE"/>
<path d="M3.37549 151.26L1.19619 152.505L3.37549 153.779V151.26Z" fill="#F4F8FE"/>
<path d="M26.032 152.505L23.3573 150.962V154.062L26.032 152.505Z" fill="#F4F8FE"/>
<path d="M68.6282 150.495L65.1469 152.505L68.6282 154.529V150.495Z" fill="#F4F8FE"/>
<path d="M91.879 189.945L87.6619 187.51V192.38L91.879 189.945Z" fill="#F4F8FE"/>
<path d="M101.445 205.926L96.7188 208.658L101.445 211.39V205.926Z" fill="#F4F8FE"/>
<path d="M125.376 246.083L119.517 242.7V249.466L125.376 246.083Z" fill="#F4F8FE"/>
<path d="M134.333 261.229L128.149 264.81L134.333 268.377V261.229Z" fill="#F4F8FE"/>
<path d="M157.938 302.236L151.853 298.726V305.747L157.938 302.236Z" fill="#F4F8FE"/>
<path d="M166.755 317.368L160.542 320.949L166.755 324.53V317.368Z" fill="#F4F8FE"/>
<path d="M191.095 358.375L183.892 354.213V362.536L191.095 358.375Z" fill="#F4F8FE"/>
<path d="M199.812 372.374L191.647 377.087L199.812 381.801V372.374Z" fill="#F4F8FE"/>
<path d="M225.611 414.527L215.238 408.54V420.515L225.611 414.527Z" fill="#F4F8FE"/>
<path d="M233.493 426.304L221.493 433.24L233.493 440.162V426.304Z" fill="#F4F8FE"/>
<path d="M262.065 470.666L245.621 461.168V480.178L262.065 470.666Z" fill="#F4F8FE"/>
<path d="M268.023 478.791L249.668 489.378L268.023 499.98V478.791Z" fill="#F4F8FE"/>
<path d="M297.316 526.818L276.613 514.857V538.765L297.316 526.818Z" fill="#F4F8FE"/>
<path d="M301.236 533.542L280.476 545.531L301.236 557.52V533.542Z" fill="#F4F8FE"/>
<path d="M328.789 582.957L309.487 571.803V594.111L328.789 582.957Z" fill="#F4F8FE"/>
<path d="M299.312 611.72L284.311 620.382L299.312 629.059V611.72Z" fill="#F4F8FE"/>
<path d="M291.911 639.109L279.316 631.834V646.385L291.911 639.109Z" fill="#F4F8FE"/>
<path d="M264.768 671.581L256.192 676.535L264.768 681.489V671.581Z" fill="#F4F8FE"/>
<path d="M255.867 695.248L248.72 691.129V699.367L255.867 695.248Z" fill="#F4F8FE"/>
<path d="M230.96 730.154L226.587 732.673L230.96 735.207V730.154Z" fill="#F4F8FE"/>
<path d="M220.615 751.386L217.742 749.73V753.057L220.615 751.386Z" fill="#F4F8FE"/>
<path d="M197.336 788.387L196.6 788.826L197.336 789.251V788.387Z" fill="#F4F8FE"/>
<path d="M35.9664 132.221L33.2352 133.792L35.9664 135.378V132.221Z" fill="#F4F8FE"/>
<path d="M58.6938 133.792L55.6371 132.037V135.562L58.6938 133.792Z" fill="#F4F8FE"/>
<path d="M91.6526 152.505L87.7751 150.269V154.756L91.6526 152.505Z" fill="#F4F8FE"/>
<path d="M101.276 168.798L97.0585 171.232L101.276 173.667V168.798Z" fill="#F4F8FE"/>
<path d="M124.838 208.658L119.786 205.742V211.574L124.838 208.658Z" fill="#F4F8FE"/>
<path d="M134.093 224.214L128.631 227.371L134.093 230.527V224.214Z" fill="#F4F8FE"/>
<path d="M157.57 264.81L152.037 261.611V267.995L157.57 264.81Z" fill="#F4F8FE"/>
<path d="M166.457 280.438L161.122 283.523L166.457 286.595V280.438Z" fill="#F4F8FE"/>
<path d="M189.652 320.949L184.614 318.033V323.851L189.652 320.949Z" fill="#F4F8FE"/>
<path d="M198.822 336.675L193.642 339.662L198.822 342.648V336.675Z" fill="#F4F8FE"/>
<path d="M223.191 377.087L216.441 373.195V380.994L223.191 377.087Z" fill="#F4F8FE"/>
<path d="M232.135 391.242L224.224 395.814L232.135 400.372V391.242Z" fill="#F4F8FE"/>
<path d="M258.385 433.24L247.461 426.927V439.539L258.385 433.24Z" fill="#F4F8FE"/>
<path d="M266.367 444.238L252.994 451.953L266.367 459.667V444.238Z" fill="#F4F8FE"/>
<path d="M295.42 489.378L277.561 479.074V499.697L295.42 489.378Z" fill="#F4F8FE"/>
<path d="M300.783 496.895L281.368 508.105L300.783 519.302V496.895Z" fill="#F4F8FE"/>
<path d="M329.681 545.531L309.034 533.599V557.45L329.681 545.531Z" fill="#F4F8FE"/>
<path d="M333.544 552.425L313.081 564.244L333.544 576.063V552.425Z" fill="#F4F8FE"/>
<path d="M332.398 591.832L315.359 601.67L332.398 611.521V591.832Z" fill="#F4F8FE"/>
<path d="M325.534 620.382L311.114 612.059V628.72L325.534 620.382Z" fill="#F4F8FE"/>
<path d="M297.515 652.259L287.906 657.822L297.515 663.371V652.259Z" fill="#F4F8FE"/>
<path d="M288.5 676.535L281.014 672.218V680.852L288.5 676.535Z" fill="#F4F8FE"/>
<path d="M263.423 711.342L258.881 713.961L263.423 716.579V711.342Z" fill="#F4F8FE"/>
<path d="M253.234 732.673L250.036 730.833V734.528L253.234 732.673Z" fill="#F4F8FE"/>
<path d="M229.856 769.505L228.795 770.113L229.856 770.722V769.505Z" fill="#F4F8FE"/>
<path d="M218.889 788.826L218.606 788.656V788.996L218.889 788.826Z" fill="#F4F8FE"/>
<path d="M3.31897 113.919L1.29527 115.08L3.31897 116.254V113.919Z" fill="#F4F8FE"/>
<path d="M25.8481 115.08L23.4565 113.692V116.467L25.8481 115.08Z" fill="#F4F8FE"/>
<path d="M68.4583 113.353L65.4581 115.08L68.4583 116.821V113.353Z" fill="#F4F8FE"/>
<path d="M91.2139 115.08L87.9873 113.225V116.934L91.2139 115.08Z" fill="#F4F8FE"/>
<path d="M101.106 131.655L97.398 133.792L101.106 135.944V131.655Z" fill="#F4F8FE"/>
<path d="M124.512 171.232L119.956 168.599V173.851L124.512 171.232Z" fill="#F4F8FE"/>
<path d="M133.909 187.114L129.013 189.945L133.909 192.762V187.114Z" fill="#F4F8FE"/>
<path d="M157.301 227.371L152.179 224.412V230.329L157.301 227.371Z" fill="#F4F8FE"/>
<path d="M166.344 243.21L161.363 246.084L166.344 248.957V243.21Z" fill="#F4F8FE"/>
<path d="M189.142 283.523L184.869 281.046V285.986L189.142 283.523Z" fill="#F4F8FE"/>
<path d="M198.397 299.971L194.492 302.236L198.397 304.487V299.971Z" fill="#F4F8FE"/>
<path d="M221.337 339.662L217.374 337.369V341.955L221.337 339.662Z" fill="#F4F8FE"/>
<path d="M231.002 355.784L226.502 358.375L231.002 360.979V355.784Z" fill="#F4F8FE"/>
<path d="M255.541 395.814L248.89 391.964V399.65L255.541 395.814Z" fill="#F4F8FE"/>
<path d="M264.612 409.842L256.503 414.527L264.612 419.198V409.842Z" fill="#F4F8FE"/>
<path d="M291.995 451.953L279.273 444.606V459.299L291.995 451.953Z" fill="#F4F8FE"/>
<path d="M299.425 461.805L284.085 470.666L299.425 479.527V461.805Z" fill="#F4F8FE"/>
<path d="M328.747 508.105L309.501 496.98V519.217L328.747 508.105Z" fill="#F4F8FE"/>
<path d="M333.544 514.985L313.067 526.818L333.544 538.638V514.985Z" fill="#F4F8FE"/>
<path d="M362.286 564.244L341.342 552.141V576.346L362.286 564.244Z" fill="#F4F8FE"/>
<path d="M365.781 571.449L345.828 582.957L365.781 594.479V571.449Z" fill="#F4F8FE"/>
<path d="M359.894 601.67L342.545 591.648V611.691L359.894 601.67Z" fill="#F4F8FE"/>
<path d="M330.53 632.499L319.095 639.109L330.53 645.706V632.499Z" fill="#F4F8FE"/>
<path d="M321.883 657.822L312.94 652.656V662.975L321.883 657.822Z" fill="#F4F8FE"/>
<path d="M296 692.332L290.948 695.248L296 698.164V692.332Z" fill="#F4F8FE"/>
<path d="M285.868 713.961L282.33 711.922V716.013L285.868 713.961Z" fill="#F4F8FE"/>
<path d="M262.277 750.749L261.173 751.386L262.277 752.023V750.749Z" fill="#F4F8FE"/>
<path d="M251.395 770.113L250.956 769.858V770.354L251.395 770.113Z" fill="#F4F8FE"/>
<path d="M35.8391 95.0079L33.49 96.3668L35.8391 97.7257V95.0079Z" fill="#F4F8FE"/>
<path d="M58.4248 96.3668L55.7785 94.8381V97.8955L58.4248 96.3668Z" fill="#F4F8FE"/>
<path d="M100.922 94.555L97.7661 96.3668L100.922 98.1786V94.555Z" fill="#F4F8FE"/>
<path d="M124.159 133.792L120.125 131.471V136.128L124.159 133.792Z" fill="#F4F8FE"/>
<path d="M133.739 149.986L129.352 152.505L133.739 155.039V149.986Z" fill="#F4F8FE"/>
<path d="M157.033 189.945L152.306 187.213V192.663L157.033 189.945Z" fill="#F4F8FE"/>
<path d="M166.231 205.997L161.603 208.658L166.231 211.319V205.997Z" fill="#F4F8FE"/>
<path d="M189.043 246.083L184.911 243.705V248.476L189.043 246.083Z" fill="#F4F8FE"/>
<path d="M198.327 262.645L194.605 264.81L198.327 266.948V262.645Z" fill="#F4F8FE"/>
<path d="M220.559 302.236L217.771 300.622V303.836L220.559 302.236Z" fill="#F4F8FE"/>
<path d="M230.38 319.42L227.733 320.949L230.38 322.478V319.42Z" fill="#F4F8FE"/>
<path d="M253.305 358.375L250.008 356.478V360.285L253.305 358.375Z" fill="#F4F8FE"/>
<path d="M263.324 374.639L259.079 377.087L263.324 379.55V374.639Z" fill="#F4F8FE"/>
<path d="M288.274 414.527L281.127 410.408V418.646L288.274 414.527Z" fill="#F4F8FE"/>
<path d="M297.401 427.889L288.146 433.24L297.401 438.591V427.889Z" fill="#F4F8FE"/>
<path d="M325.917 470.666L310.916 462.017V479.328L325.917 470.666Z" fill="#F4F8FE"/>
<path d="M332.525 479.328L315.105 489.379L332.525 499.443V479.328Z" fill="#F4F8FE"/>
<path d="M362.314 526.818L341.342 514.702V538.921L362.314 526.818Z" fill="#F4F8FE"/>
<path d="M366.319 533.075L344.752 545.531L366.319 557.987V533.075Z" fill="#F4F8FE"/>
<path d="M394.48 582.957L373.862 571.052V594.861L394.48 582.957Z" fill="#F4F8FE"/>
<path d="M364.012 611.918L349.351 620.382L364.012 628.861V611.918Z" fill="#F4F8FE"/>
<path d="M355.946 639.109L344.512 632.499V645.706L355.946 639.109Z" fill="#F4F8FE"/>
<path d="M328.761 672.996L322.633 676.535L328.761 680.074V672.996Z" fill="#F4F8FE"/>
<path d="M318.827 695.248L314.468 692.728V697.767L318.827 695.248Z" fill="#F4F8FE"/>
<path d="M294.882 731.711L293.184 732.673L294.882 733.65V731.711Z" fill="#F4F8FE"/>
<path d="M283.901 751.386L283.321 751.047V751.74L283.901 751.386Z" fill="#F4F8FE"/>
<path d="M3.26233 76.5782L1.40849 77.654L3.26233 78.7297V76.5782Z" fill="#F4F8FE"/>
<path d="M25.6925 77.654L23.5273 76.3942V78.8996L25.6925 77.654Z" fill="#F4F8FE"/>
<path d="M68.3451 76.1252L65.6988 77.6539L68.3451 79.1827V76.1252Z" fill="#F4F8FE"/>
<path d="M90.9592 77.654L88.1148 76.012V79.2818L90.9592 77.654Z" fill="#F4F8FE"/>
<path d="M123.677 96.3668L120.366 94.4559V98.2777L123.677 96.3668Z" fill="#F4F8FE"/>
<path d="M133.513 112.942L129.805 115.08L133.513 117.217V112.942Z" fill="#F4F8FE"/>
<path d="M156.792 152.505L152.433 149.986V155.025L156.792 152.505Z" fill="#F4F8FE"/>
<path d="M166.146 168.698L161.759 171.232L166.146 173.766V168.698Z" fill="#F4F8FE"/>
<path d="M189.029 208.658L184.911 206.28V211.036L189.029 208.658Z" fill="#F4F8FE"/>
<path d="M198.355 225.177L194.562 227.371L198.355 229.565V225.177Z" fill="#F4F8FE"/>
<path d="M220.587 264.81L217.742 263.154V266.438L220.587 264.81Z" fill="#F4F8FE"/>
<path d="M230.252 282.207L227.974 283.523L230.252 284.84V282.207Z" fill="#F4F8FE"/>
<path d="M252.131 320.949L250.602 320.071V321.827L252.131 320.949Z" fill="#F4F8FE"/>
<path d="M262.49 338.643L260.735 339.662L262.49 340.681V338.643Z" fill="#F4F8FE"/>
<path d="M285.726 377.087L282.401 375.176V379.012L285.726 377.087Z" fill="#F4F8FE"/>
<path d="M295.901 393.054L291.132 395.814L295.901 398.56V393.054Z" fill="#F4F8FE"/>
<path d="M321.742 433.24L313.01 428.187V438.279L321.742 433.24Z" fill="#F4F8FE"/>
<path d="M330.672 445.116L318.827 451.953L330.672 458.79V445.116Z" fill="#F4F8FE"/>
<path d="M360.107 489.378L342.431 479.173V499.584L360.107 489.378Z" fill="#F4F8FE"/>
<path d="M365.767 496.597L345.856 508.105L365.767 519.599V496.597Z" fill="#F4F8FE"/>
<path d="M395.556 545.531L373.324 532.678V558.37L395.556 545.531Z" fill="#F4F8FE"/>
<path d="M361.989 652.854L353.399 657.822L361.989 662.776V652.854Z" fill="#F4F8FE"/>
<path d="M352.295 676.535L346.337 673.095V679.975L352.295 676.535Z" fill="#F4F8FE"/>
<path d="M327.516 712.573L325.124 713.961L327.516 715.348V712.573Z" fill="#F4F8FE"/>
<path d="M316.732 732.673L315.515 731.98V733.381L316.732 732.673Z" fill="#F4F8FE"/>
<path d="M35.7825 57.6814L33.6032 58.9412L35.7825 60.2009V57.6814Z" fill="#F4F8FE"/>
<path d="M58.2268 58.9411L55.8777 57.5823V60.3L58.2268 58.9411Z" fill="#F4F8FE"/>
<path d="M100.78 57.3699L98.049 58.9411L100.78 60.5123V57.3699Z" fill="#F4F8FE"/>
<path d="M123.394 58.9411L120.507 57.2708V60.5973L123.394 58.9411Z" fill="#F4F8FE"/>
<path d="M133.329 75.828L130.159 77.654L133.329 79.4799V75.828Z" fill="#F4F8FE"/>
<path d="M156.353 115.08L152.646 112.942V117.231L156.353 115.08Z" fill="#F4F8FE"/>
<path d="M166.033 131.457L161.986 133.792L166.033 136.128V131.457Z" fill="#F4F8FE"/>
<path d="M188.987 171.232L184.939 168.897V173.568L188.987 171.232Z" fill="#F4F8FE"/>
<path d="M198.383 187.709L194.506 189.945L198.383 192.182V187.709Z" fill="#F4F8FE"/>
<path d="M220.757 227.371L217.672 225.587V229.154L220.757 227.371Z" fill="#F4F8FE"/>
<path d="M230.366 244.583L227.762 246.084L230.366 247.598V244.583Z" fill="#F4F8FE"/>
<path d="M252.046 283.523L250.631 282.688V284.344L252.046 283.523Z" fill="#F4F8FE"/>
<path d="M262.206 301.712L261.315 302.236L262.206 302.746V301.712Z" fill="#F4F8FE"/>
<path d="M284.127 339.662L283.193 339.124V340.2L284.127 339.662Z" fill="#F4F8FE"/>
<path d="M294.797 357.525L293.34 358.375L294.797 359.224V357.525Z" fill="#F4F8FE"/>
<path d="M318.643 395.814L314.553 393.436V398.178L318.643 395.814Z" fill="#F4F8FE"/>
<path d="M328.704 411.102L322.761 414.527L328.704 417.953V411.102Z" fill="#F4F8FE"/>
<path d="M356.158 451.953L344.413 445.173V458.733L356.158 451.953Z" fill="#F4F8FE"/>
<path d="M364.154 461.974L349.097 470.666L364.154 479.371V461.974Z" fill="#F4F8FE"/>
<path d="M394.297 508.105L373.947 496.357V519.84L394.297 508.105Z" fill="#F4F8FE"/>
<path d="M360.418 692.997L356.54 695.248L360.418 697.498V692.997Z" fill="#F4F8FE"/>
<path d="M349.776 713.961L347.597 712.715V715.22L349.776 713.961Z" fill="#F4F8FE"/>
<path d="M3.23401 39.2091L1.47924 40.2283L3.23401 41.2333V39.2091Z" fill="#F4F8FE"/>
<path d="M25.5934 40.2283L23.5839 39.0535V41.389L25.5934 40.2283Z" fill="#F4F8FE"/>
<path d="M68.2603 38.8411L65.8686 40.2283L68.2603 41.6013V38.8411Z" fill="#F4F8FE"/>
<path d="M90.7751 40.2283L88.2137 38.7421V41.7004L90.7751 40.2283Z" fill="#F4F8FE"/>
<path d="M133.244 38.558L130.357 40.2283L133.244 41.8845V38.558Z" fill="#F4F8FE"/>
<path d="M156.028 77.654L152.801 75.7997V79.5082L156.028 77.654Z" fill="#F4F8FE"/>
<path d="M165.849 94.3568L162.368 96.3667L165.849 98.3767V94.3568Z" fill="#F4F8FE"/>
<path d="M188.873 133.792L184.996 131.556V136.043L188.873 133.792Z" fill="#F4F8FE"/>
<path d="M198.383 150.269L194.506 152.505L198.383 154.756V150.269Z" fill="#F4F8FE"/>
<path d="M220.969 189.945L217.558 187.977V191.898L220.969 189.945Z" fill="#F4F8FE"/>
<path d="M230.521 206.874L227.436 208.658L230.521 210.441V206.874Z" fill="#F4F8FE"/>
<path d="M252.428 246.084L250.447 244.951V247.23L252.428 246.084Z" fill="#F4F8FE"/>
<path d="M262.362 264.018L261.004 264.81L262.362 265.589V264.018Z" fill="#F4F8FE"/>
<path d="M283.674 302.236L283.434 302.094V302.378L283.674 302.236Z" fill="#F4F8FE"/>
<path d="M294.373 320.85L294.203 320.949L294.373 321.048V320.85Z" fill="#F4F8FE"/>
<path d="M316.52 358.375L315.614 357.851V358.898L316.52 358.375Z" fill="#F4F8FE"/>
<path d="M327.402 375.898L325.35 377.087L327.402 378.291V375.898Z" fill="#F4F8FE"/>
<path d="M352.097 414.527L346.436 411.257V417.797L352.097 414.527Z" fill="#F4F8FE"/>
<path d="M361.89 428.47L353.625 433.24L361.89 438.01V428.47Z" fill="#F4F8FE"/>
<path d="M359.399 732.206L358.592 732.673L359.399 733.141V732.206Z" fill="#F4F8FE"/>
<path d="M35.7258 20.3406L33.7022 21.5155L35.7258 22.6762V20.3406Z" fill="#F4F8FE"/>
<path d="M58.1418 21.5155L55.9201 20.2132V22.7894L58.1418 21.5155Z" fill="#F4F8FE"/>
<path d="M100.752 19.9584L98.0916 21.5155L100.752 23.0584V19.9584Z" fill="#F4F8FE"/>
<path d="M123.366 21.5155L120.522 19.8735V23.1433L123.366 21.5155Z" fill="#F4F8FE"/>
<path d="M155.886 40.2283L152.886 38.4872V41.9552L155.886 40.2283Z" fill="#F4F8FE"/>
<path d="M165.736 57.1151L162.566 58.9411L165.736 60.7671V57.1151Z" fill="#F4F8FE"/>
<path d="M188.619 96.3668L185.123 94.3427V98.391L188.619 96.3668Z" fill="#F4F8FE"/>
<path d="M198.312 112.985L194.661 115.08L198.312 117.189V112.985Z" fill="#F4F8FE"/>
<path d="M221.167 152.505L217.459 150.368V154.657L221.167 152.505Z" fill="#F4F8FE"/>
<path d="M230.635 169.265L227.238 171.232L230.635 173.186V169.265Z" fill="#F4F8FE"/>
<path d="M252.838 208.658L250.234 207.157V210.158L252.838 208.658Z" fill="#F4F8FE"/>
<path d="M262.56 226.224L260.579 227.371L262.56 228.517V226.224Z" fill="#F4F8FE"/>
<path d="M284.014 264.81L283.264 264.372V265.235L284.014 264.81Z" fill="#F4F8FE"/>
<path d="M294.401 283.368L294.132 283.523L294.401 283.679V283.368Z" fill="#F4F8FE"/>
<path d="M326.723 339.662H326.709L326.723 339.676V339.662Z" fill="#F4F8FE"/>
<path d="M349.535 377.087L347.724 376.054V378.135L349.535 377.087Z" fill="#F4F8FE"/>
<path d="M360.234 393.889L356.908 395.814L360.234 397.725V393.889Z" fill="#F4F8FE"/>
<path d="M3.21997 1.81183L1.50765 2.78852L3.21997 3.77936V1.81183Z" fill="#F4F8FE"/>
<path d="M25.5934 2.78854L23.5839 1.62784V3.9634L25.5934 2.78854Z" fill="#F4F8FE"/>
<path d="M68.2461 1.44382L65.8969 2.78854L68.2461 4.14741V1.44382Z" fill="#F4F8FE"/>
<path d="M90.7328 2.78853L88.228 1.34473V4.24649L90.7328 2.78853Z" fill="#F4F8FE"/>
<path d="M133.23 1.14655L130.385 2.78852L133.23 4.43049V1.14655Z" fill="#F4F8FE"/>
<path d="M155.886 2.78852L152.886 1.06161V4.52957L155.886 2.78852Z" fill="#F4F8FE"/>
<path d="M165.736 19.6754L162.566 21.5155L165.736 23.3415V19.6754Z" fill="#F4F8FE"/>
<path d="M188.505 58.9412L185.18 57.0161V60.8662L188.505 58.9412Z" fill="#F4F8FE"/>
<path d="M198.213 75.7006L194.831 77.6539L198.213 79.6073V75.7006Z" fill="#F4F8FE"/>
<path d="M221.054 115.08L217.516 113.027V117.132L221.054 115.08Z" fill="#F4F8FE"/>
<path d="M230.719 131.698L227.068 133.792L230.719 135.902V131.698Z" fill="#F4F8FE"/>
<path d="M253.22 171.232L250.05 169.392V173.058L253.22 171.232Z" fill="#F4F8FE"/>
<path d="M262.815 188.374L260.098 189.945L262.815 191.502V188.374Z" fill="#F4F8FE"/>
<path d="M284.58 227.371L282.981 226.436V228.305L284.58 227.371Z" fill="#F4F8FE"/>
<path d="M294.642 245.517L293.651 246.083L294.642 246.664V245.517Z" fill="#F4F8FE"/>
<path d="M359.229 358.205L358.918 358.375L359.229 358.559V358.205Z" fill="#F4F8FE"/>
<path d="M188.505 21.5155L185.18 19.5763V23.4264L188.505 21.5155Z" fill="#F4F8FE"/>
<path d="M198.199 38.3032L194.874 40.2283L198.199 42.1392V38.3032Z" fill="#F4F8FE"/>
<path d="M221.026 77.6539L217.53 75.6298V79.6781L221.026 77.6539Z" fill="#F4F8FE"/>
<path d="M230.677 94.3143L227.139 96.3668L230.677 98.4193V94.3143Z" fill="#F4F8FE"/>
<path d="M253.475 133.792L249.923 131.754V135.845L253.475 133.792Z" fill="#F4F8FE"/>
<path d="M263.013 150.594L259.687 152.505L263.013 154.444V150.594Z" fill="#F4F8FE"/>
<path d="M285.132 189.945L282.698 188.544V191.346L285.132 189.945Z" fill="#F4F8FE"/>
<path d="M294.953 207.554L293.043 208.658L294.953 209.762V207.554Z" fill="#F4F8FE"/>
<path d="M316.492 246.084L315.628 245.588V246.579L316.492 246.084Z" fill="#F4F8FE"/>
<path d="M326.85 264.584L326.468 264.81L326.85 265.023V264.584Z" fill="#F4F8FE"/>
<path d="M198.213 0.835144L194.831 2.78852L198.213 4.74191V0.835144Z" fill="#F4F8FE"/>
<path d="M221.026 40.2283L217.53 38.2042V42.2383L221.026 40.2283Z" fill="#F4F8FE"/>
<path d="M230.663 56.917L227.167 58.9411L230.663 60.9512V56.917Z" fill="#F4F8FE"/>
<path d="M253.532 96.3668L249.881 94.2577V98.4759L253.532 96.3668Z" fill="#F4F8FE"/>
<path d="M263.084 113.027L259.546 115.08L263.084 117.132V113.027Z" fill="#F4F8FE"/>
<path d="M285.627 152.505L282.457 150.679V154.345L285.627 152.505Z" fill="#F4F8FE"/>
<path d="M295.236 169.633L292.477 171.232L295.236 172.818V169.633Z" fill="#F4F8FE"/>
<path d="M317.157 208.658L315.289 207.582V209.734L317.157 208.658Z" fill="#F4F8FE"/>
<path d="M327.19 226.564L325.789 227.371L327.19 228.178V226.564Z" fill="#F4F8FE"/>
<path d="M348.573 264.81L348.205 264.584V265.023L348.573 264.81Z" fill="#F4F8FE"/>
<path d="M221.054 2.78852L217.516 0.750214V4.84099L221.054 2.78852Z" fill="#F4F8FE"/>
<path d="M230.719 19.4064L227.068 21.5155L230.719 23.6104V19.4064Z" fill="#F4F8FE"/>
<path d="M253.546 58.9411L249.88 56.8179V61.0502L253.546 58.9411Z" fill="#F4F8FE"/>
<path d="M263.126 75.5449L259.461 77.6539L263.126 79.763V75.5449Z" fill="#F4F8FE"/>
<path d="M285.882 115.08L282.33 113.027V117.132L285.882 115.08Z" fill="#F4F8FE"/>
<path d="M295.448 131.839L292.052 133.792L295.448 135.76V131.839Z" fill="#F4F8FE"/>
<path d="M317.723 171.232L315.02 169.661V172.789L317.723 171.232Z" fill="#F4F8FE"/>
<path d="M327.516 188.572L325.138 189.945L327.516 191.318V188.572Z" fill="#F4F8FE"/>
<path d="M349.281 227.371L347.851 226.55V228.192L349.281 227.371Z" fill="#F4F8FE"/>
<path d="M359.441 245.56L358.507 246.084L359.441 246.621V245.56Z" fill="#F4F8FE"/>
<path d="M253.659 21.5155L249.824 19.2932V23.7236L253.659 21.5155Z" fill="#F4F8FE"/>
<path d="M263.183 38.006L259.348 40.2283L263.183 42.4365V38.006Z" fill="#F4F8FE"/>
<path d="M286.066 77.6539L282.231 75.4458V79.8621L286.066 77.6539Z" fill="#F4F8FE"/>
<path d="M295.547 94.2294L291.84 96.3668L295.547 98.5183V94.2294Z" fill="#F4F8FE"/>
<path d="M318.246 133.792L314.751 131.782V135.817L318.246 133.792Z" fill="#F4F8FE"/>
<path d="M327.785 150.665L324.6 152.505L327.785 154.345V150.665Z" fill="#F4F8FE"/>
<path d="M349.988 189.945L347.498 188.501V191.389L349.988 189.945Z" fill="#F4F8FE"/>
<path d="M359.809 207.469L357.772 208.658L359.809 209.847V207.469Z" fill="#F4F8FE"/>
<path d="M263.197 0.552032L259.32 2.78851L263.197 5.03915V0.552032Z" fill="#F4F8FE"/>
<path d="M286.179 40.2283L282.174 37.9069V42.5356L286.179 40.2283Z" fill="#F4F8FE"/>
<path d="M295.646 56.6339L291.656 58.9411L295.646 61.2484V56.6339Z" fill="#F4F8FE"/>
<path d="M318.473 96.3668L314.638 94.1586V98.575L318.473 96.3668Z" fill="#F4F8FE"/>
<path d="M327.969 112.928L324.233 115.08L327.969 117.245V112.928Z" fill="#F4F8FE"/>
<path d="M350.568 152.505L347.215 150.58V154.444L350.568 152.505Z" fill="#F4F8FE"/>
<path d="M360.121 169.505L357.135 171.232L360.121 172.959V169.505Z" fill="#F4F8FE"/>
<path d="M286.179 2.78852L282.174 0.481262V5.09577L286.179 2.78852Z" fill="#F4F8FE"/>
<path d="M295.703 19.1092L291.542 21.5155L295.703 23.9077V19.1092Z" fill="#F4F8FE"/>
<path d="M318.699 58.9411L314.525 56.5348V61.3475L318.699 58.9411Z" fill="#F4F8FE"/>
<path d="M328.053 75.3467L324.049 77.6539L328.053 79.9612V75.3467Z" fill="#F4F8FE"/>
<path d="M350.88 115.08L347.045 112.871V117.288L350.88 115.08Z" fill="#F4F8FE"/>
<path d="M360.361 131.669L356.682 133.792L360.361 135.93V131.669Z" fill="#F4F8FE"/>
<path d="M318.812 21.5155L314.482 19.0101V24.0068L318.812 21.5155Z" fill="#F4F8FE"/>
<path d="M328.167 37.7229L323.836 40.2283L328.167 42.7196V37.7229Z" fill="#F4F8FE"/>
<path d="M351.106 77.6539L346.932 75.2476V80.0603L351.106 77.6539Z" fill="#F4F8FE"/>
<path d="M360.517 93.9604L356.356 96.3668L360.517 98.7731V93.9604Z" fill="#F4F8FE"/>
<path d="M328.167 0.297241L323.836 2.78851L328.167 5.29393V0.297241Z" fill="#F4F8FE"/>
<path d="M351.318 40.2283L346.832 37.6379V42.8045L351.318 40.2283Z" fill="#F4F8FE"/>
<path d="M360.588 56.4074L356.201 58.9411L360.588 61.4749V56.4074Z" fill="#F4F8FE"/>
<path d="M351.333 2.78853L346.832 0.198181V5.39304L351.333 2.78853Z" fill="#F4F8FE"/>
<path d="M360.673 18.826L356.031 21.5155L360.673 24.1908V18.826Z" fill="#F4F8FE"/>
</g>
</svg>
