<svg width="890" height="1149" viewBox="0 0 890 1149" fill="none" xmlns="http://www.w3.org/2000/svg">
<path d="M551.158 802.394L551.279 802.475L551.158 802.555V802.394Z" fill="#F4F8FE"/>
<path d="M520.002 802.475L520.707 802.072V802.877L520.002 802.475Z" fill="#F4F8FE"/>
<path d="M565.81 775.861L566.917 775.217V776.505L565.81 775.861Z" fill="#F4F8FE"/>
<path d="M504.203 774.311L506.88 775.861L504.203 777.411V774.311Z" fill="#F4F8FE"/>
<path d="M474.174 829.088L474.476 828.907V829.269L474.174 829.088Z" fill="#F4F8FE"/>
<path d="M550.132 747.395L553.312 749.247L550.132 751.079V747.395Z" fill="#F4F8FE"/>
<path d="M517.688 749.248L521.854 746.832V751.643L517.688 749.248Z" fill="#F4F8FE"/>
<path d="M472.021 775.861L475.543 773.808V777.894L472.021 775.861Z" fill="#F4F8FE"/>
<path d="M458.234 801.146L460.549 802.475L458.234 803.803V801.146Z" fill="#F4F8FE"/>
<path d="M597.167 775.66L597.509 775.861L597.167 776.042V775.66Z" fill="#F4F8FE"/>
<path d="M596.201 720.742L599.462 722.634L596.201 724.506V720.742Z" fill="#F4F8FE"/>
<path d="M563.415 722.634L568.125 719.896V725.352L563.415 722.634Z" fill="#F4F8FE"/>
<path d="M502.694 718.447L509.919 722.634L502.694 726.801V718.447Z" fill="#F4F8FE"/>
<path d="M468.7 722.634L477.214 717.702V727.546L468.7 722.634Z" fill="#F4F8FE"/>
<path d="M456.846 745.503L463.326 749.247L456.846 752.972V745.503Z" fill="#F4F8FE"/>
<path d="M425.71 802.475L429.574 800.24V804.709L425.71 802.475Z" fill="#F4F8FE"/>
<path d="M411.964 827.438L414.842 829.088L411.964 830.739V827.438Z" fill="#F4F8FE"/>
<path d="M427.984 855.702L428.427 855.46V855.964L427.984 855.702Z" fill="#F4F8FE"/>
<path d="M612 749.247L612.966 748.684V749.811L612 749.247Z" fill="#F4F8FE"/>
<path d="M609.867 696L614.033 693.584V698.416L609.867 696Z" fill="#F4F8FE"/>
<path d="M548.582 691.471L556.431 696L548.582 700.55V691.471Z" fill="#F4F8FE"/>
<path d="M514.125 696L523.645 690.524V701.496L514.125 696Z" fill="#F4F8FE"/>
<path d="M454.913 688.914L467.211 696L454.913 703.106V688.914Z" fill="#F4F8FE"/>
<path d="M423.013 749.247L430.923 744.678V753.817L423.013 749.247Z" fill="#F4F8FE"/>
<path d="M410.756 772.097L417.257 775.861L410.756 779.606V772.097Z" fill="#F4F8FE"/>
<path d="M378.976 829.088L383.807 826.31V831.887L378.976 829.088Z" fill="#F4F8FE"/>
<path d="M643.357 749.227L643.377 749.247H643.357V749.227Z" fill="#F4F8FE"/>
<path d="M594.973 665.38L601.917 669.387L594.973 673.393V665.38Z" fill="#F4F8FE"/>
<path d="M560.436 669.387L569.614 664.092V674.701L560.436 669.387Z" fill="#F4F8FE"/>
<path d="M500.842 661.998L513.642 669.387L500.842 676.795V661.998Z" fill="#F4F8FE"/>
<path d="M464.956 669.387L479.085 661.233V677.56L464.956 669.387Z" fill="#F4F8FE"/>
<path d="M419.048 696L432.895 688.008V704.012L419.048 696Z" fill="#F4F8FE"/>
<path d="M409.025 715.87L420.719 722.634L409.025 729.378V715.87Z" fill="#F4F8FE"/>
<path d="M376.42 775.861L385.075 770.848V780.874L376.42 775.861Z" fill="#F4F8FE"/>
<path d="M364.123 797.764L372.254 802.475L364.123 807.185V797.764Z" fill="#F4F8FE"/>
<path d="M365.411 853.226L369.698 855.702L365.411 858.178V853.226Z" fill="#F4F8FE"/>
<path d="M381.251 882.315L382.659 881.51V883.141L381.251 882.315Z" fill="#F4F8FE"/>
<path d="M658.311 722.634L658.955 722.251V722.996L658.311 722.634Z" fill="#F4F8FE"/>
<path d="M642.532 694.551L645.048 696L642.532 697.47V694.551Z" fill="#F4F8FE"/>
<path d="M641.546 639.612L647.02 642.773L641.546 645.934V639.612Z" fill="#F4F8FE"/>
<path d="M607.693 642.773L615.12 638.485V647.061L607.693 642.773Z" fill="#F4F8FE"/>
<path d="M547.133 635.747L559.309 642.773L547.133 649.799V635.747Z" fill="#F4F8FE"/>
<path d="M511.066 642.773L525.175 634.62V650.926L511.066 642.773Z" fill="#F4F8FE"/>
<path d="M453.344 632.949L470.35 642.773L453.344 652.597V632.949Z" fill="#F4F8FE"/>
<path d="M416.17 642.773L434.344 632.264V653.282L416.17 642.773Z" fill="#F4F8FE"/>
<path d="M407.294 659.643L424.18 669.387L407.294 679.13V659.643Z" fill="#F4F8FE"/>
<path d="M373.079 722.634L386.765 714.722V730.525L373.079 722.634Z" fill="#F4F8FE"/>
<path d="M362.714 742.121L375.052 749.247L362.714 756.374V742.121Z" fill="#F4F8FE"/>
<path d="M328.519 802.475L339.911 795.892V809.058L328.519 802.475Z" fill="#F4F8FE"/>
<path d="M317.027 822.646L328.177 829.088L317.027 835.53V822.646Z" fill="#F4F8FE"/>
<path d="M331.176 855.702L338.562 851.434V859.97L331.176 855.702Z" fill="#F4F8FE"/>
<path d="M366.478 908.325L367.524 908.949L366.478 909.553V908.325Z" fill="#F4F8FE"/>
<path d="M656.6 669.387L659.801 667.534V671.239L656.6 669.387Z" fill="#F4F8FE"/>
<path d="M654.87 616.159L660.666 612.818V619.501L654.87 616.159Z" fill="#F4F8FE"/>
<path d="M593.826 610.18L604.191 616.159L593.826 622.138V610.18Z" fill="#F4F8FE"/>
<path d="M558.041 616.159L570.822 608.791V623.527L558.041 616.159Z" fill="#F4F8FE"/>
<path d="M499.554 606.537L516.198 616.159L499.554 625.762V606.537Z" fill="#F4F8FE"/>
<path d="M462.34 616.159L480.393 605.731V626.587L462.34 616.159Z" fill="#F4F8FE"/>
<path d="M406.308 604.684L426.173 616.159L406.308 627.634V604.684Z" fill="#F4F8FE"/>
<path d="M369.96 669.387L388.315 658.797V679.976L369.96 669.387Z" fill="#F4F8FE"/>
<path d="M361.044 685.975L378.413 696L361.044 706.046V685.975Z" fill="#F4F8FE"/>
<path d="M325.843 749.247L341.239 740.349V758.125L325.843 749.247Z" fill="#F4F8FE"/>
<path d="M315.759 767.245L330.693 775.861L315.759 784.477V767.245Z" fill="#F4F8FE"/>
<path d="M279.874 829.088L295.089 820.311V837.866L279.874 829.088Z" fill="#F4F8FE"/>
<path d="M318.416 878.289L325.4 882.316L318.416 886.362V878.289Z" fill="#F4F8FE"/>
<path d="M333.752 908.949L337.274 906.916V910.982L333.752 908.949Z" fill="#F4F8FE"/>
<path d="M688.944 668.481L690.513 669.387L688.944 670.292V668.481Z" fill="#F4F8FE"/>
<path d="M640.68 584.875L648.751 589.546L640.68 594.196V584.875Z" fill="#F4F8FE"/>
<path d="M605.781 589.546L616.086 583.587V595.484L605.781 589.546Z" fill="#F4F8FE"/>
<path d="M546.147 580.809L561.262 589.546L546.147 598.263V580.809Z" fill="#F4F8FE"/>
<path d="M509.094 589.546L526.141 579.681V599.39L509.094 589.546Z" fill="#F4F8FE"/>
<path d="M452.498 578.252L472.061 589.546L452.498 600.839V578.252Z" fill="#F4F8FE"/>
<path d="M414.801 589.546L435.028 577.849V601.222L414.801 589.546Z" fill="#F4F8FE"/>
<path d="M368.269 616.159L389.16 604.101V628.218L368.269 616.159Z" fill="#F4F8FE"/>
<path d="M359.997 630.936L380.506 642.773L359.997 654.61V630.936Z" fill="#F4F8FE"/>
<path d="M323.045 696L342.628 684.686V707.314L323.045 696Z" fill="#F4F8FE"/>
<path d="M314.371 711.582L333.491 722.634L314.371 733.666V711.582Z" fill="#F4F8FE"/>
<path d="M277.459 775.861L296.297 764.99V786.732L277.459 775.861Z" fill="#F4F8FE"/>
<path d="M268.2 791.302L287.542 802.475L268.2 813.628V791.302Z" fill="#F4F8FE"/>
<path d="M269.529 846.844L284.885 855.702L269.529 864.58V846.844Z" fill="#F4F8FE"/>
<path d="M282.893 882.315L293.58 876.155V888.496L282.893 882.315Z" fill="#F4F8FE"/>
<path d="M319.704 933.771L322.803 935.563L319.704 937.334V933.771Z" fill="#F4F8FE"/>
<path d="M335.684 962.176L336.308 961.814V962.539L335.684 962.176Z" fill="#F4F8FE"/>
<path d="M703.515 642.773L705.488 641.646V643.9L703.515 642.773Z" fill="#F4F8FE"/>
<path d="M688.139 613.844L692.124 616.159L688.139 618.474V613.844Z" fill="#F4F8FE"/>
<path d="M687.414 559.389L693.553 562.932L687.414 566.455V559.389Z" fill="#F4F8FE"/>
<path d="M653.28 562.932L661.471 558.201V567.663L653.28 562.932Z" fill="#F4F8FE"/>
<path d="M593.061 555.624L605.721 562.932L593.061 570.22V555.624Z" fill="#F4F8FE"/>
<path d="M556.532 562.932L571.566 554.235V571.609L556.532 562.932Z" fill="#F4F8FE"/>
<path d="M498.97 552.303L517.366 562.932L498.97 573.541V552.303Z" fill="#F4F8FE"/>
<path d="M461.294 562.932L480.917 551.598V574.246L461.294 562.932Z" fill="#F4F8FE"/>
<path d="M405.986 550.894L426.797 562.932L405.986 574.951V550.894Z" fill="#F4F8FE"/>
<path d="M368.068 562.932L389.261 550.692V575.152L368.068 562.932Z" fill="#F4F8FE"/>
<path d="M359.655 577.084L381.21 589.546L359.655 601.987V577.084Z" fill="#F4F8FE"/>
<path d="M321.616 642.773L343.353 630.231V655.315L321.616 642.773Z" fill="#F4F8FE"/>
<path d="M313.485 656.804L335.262 669.387L313.485 681.969V656.804Z" fill="#F4F8FE"/>
<path d="M275.084 722.634L297.484 709.689V735.558L275.084 722.634Z" fill="#F4F8FE"/>
<path d="M267.053 736.102L289.836 749.247L267.053 762.393V736.102Z" fill="#F4F8FE"/>
<path d="M228.39 802.475L251.697 789.007V815.922L228.39 802.475Z" fill="#F4F8FE"/>
<path d="M220.682 815.439L244.31 829.088L220.682 842.737V815.439Z" fill="#F4F8FE"/>
<path d="M230.946 855.702L250.409 844.469V866.955L230.946 855.702Z" fill="#F4F8FE"/>
<path d="M271.24 903.031L281.464 908.949L271.24 914.848V903.031Z" fill="#F4F8FE"/>
<path d="M285.932 935.563L292.05 932.02V939.086L285.932 935.563Z" fill="#F4F8FE"/>
<path d="M320.61 988.548L321.012 988.79L320.61 989.032V988.548Z" fill="#F4F8FE"/>
<path d="M735.295 642.33L736.06 642.773L735.295 643.196V642.33Z" fill="#F4F8FE"/>
<path d="M702.086 589.546L706.212 587.15V591.921L702.086 589.546Z" fill="#F4F8FE"/>
<path d="M700.677 536.298L706.896 532.715V539.902L700.677 536.298Z" fill="#F4F8FE"/>
<path d="M639.936 530.34L650.261 536.298L639.936 542.277V530.34Z" fill="#F4F8FE"/>
<path d="M604.413 536.298L616.77 529.172V543.445L604.413 536.298Z" fill="#F4F8FE"/>
<path d="M545.664 526.716L562.268 536.298L545.664 545.901V526.716Z" fill="#F4F8FE"/>
<path d="M508.248 536.298L526.564 525.729V546.887L508.248 536.298Z" fill="#F4F8FE"/>
<path d="M452.277 524.642L472.464 536.298L452.277 547.954V524.642Z" fill="#F4F8FE"/>
<path d="M414.6 536.298L435.129 524.441V548.176L414.6 536.298Z" fill="#F4F8FE"/>
<path d="M359.856 524.22L380.788 536.298L359.856 548.397V524.22Z" fill="#F4F8FE"/>
<path d="M321.415 589.546L343.453 576.823V602.249L321.415 589.546Z" fill="#F4F8FE"/>
<path d="M313.223 603.134L335.785 616.159L313.223 629.184V603.134Z" fill="#F4F8FE"/>
<path d="M274.138 669.387L297.947 655.637V683.156L274.138 669.387Z" fill="#F4F8FE"/>
<path d="M266.389 681.707L291.165 696L266.389 710.313V681.707Z" fill="#F4F8FE"/>
<path d="M226.498 749.247L252.643 734.129V764.346L226.498 749.247Z" fill="#F4F8FE"/>
<path d="M219.696 760.501L246.283 775.861L219.696 791.221V760.501Z" fill="#F4F8FE"/>
<path d="M179.543 829.088L206.976 813.245V844.932L179.543 829.088Z" fill="#F4F8FE"/>
<path d="M222.292 871.485L241.09 882.316L222.292 893.166V871.485Z" fill="#F4F8FE"/>
<path d="M234.589 908.949L248.597 900.856V917.022L234.589 908.949Z" fill="#F4F8FE"/>
<path d="M272.85 959.036L278.264 962.176L272.85 965.317V959.036Z" fill="#F4F8FE"/>
<path d="M288.407 988.79L290.823 987.401V990.179L288.407 988.79Z" fill="#F4F8FE"/>
<path d="M750.088 616.159L751.336 615.435V616.884L750.088 616.159Z" fill="#F4F8FE"/>
<path d="M734.651 587.955L737.388 589.546L734.651 591.116V587.955Z" fill="#F4F8FE"/>
<path d="M686.71 504.894L695.002 509.685L686.71 514.476V504.894Z" fill="#F4F8FE"/>
<path d="M651.83 509.685L662.196 503.706V515.664L651.83 509.685Z" fill="#F4F8FE"/>
<path d="M592.518 501.431L606.808 509.685L592.518 517.939V501.431Z" fill="#F4F8FE"/>
<path d="M555.686 509.685L571.989 500.283V519.086L555.686 509.685Z" fill="#F4F8FE"/>
<path d="M498.89 498.915L517.547 509.685L498.89 520.475V498.915Z" fill="#F4F8FE"/>
<path d="M461.394 509.685L480.856 498.452V520.938L461.394 509.685Z" fill="#F4F8FE"/>
<path d="M406.389 498.391L425.972 509.685L406.389 520.978V498.391Z" fill="#F4F8FE"/>
<path d="M369.255 509.685L388.657 498.472V520.898L369.255 509.685Z" fill="#F4F8FE"/>
<path d="M322.32 536.298L342.99 524.381V548.236L322.32 536.298Z" fill="#F4F8FE"/>
<path d="M313.525 550.431L335.161 562.932L313.525 575.413V550.431Z" fill="#F4F8FE"/>
<path d="M274.379 616.159L297.827 602.611V629.708L274.379 616.159Z" fill="#F4F8FE"/>
<path d="M266.49 628.621L290.984 642.773L266.49 656.925V628.621Z" fill="#F4F8FE"/>
<path d="M225.653 696L253.065 680.177V711.843L225.653 696Z" fill="#F4F8FE"/>
<path d="M219.052 706.146L247.591 722.634L219.052 739.101V706.146Z" fill="#F4F8FE"/>
<path d="M177.994 775.861L207.741 758.669V793.033L177.994 775.861Z" fill="#F4F8FE"/>
<path d="M172.278 784.799L202.87 802.475L172.278 820.15V784.799Z" fill="#F4F8FE"/>
<path d="M173.365 839.939L200.656 855.702L173.365 871.465V839.939Z" fill="#F4F8FE"/>
<path d="M182.723 882.316L205.386 869.25V895.401L182.723 882.316Z" fill="#F4F8FE"/>
<path d="M224.305 928.195L237.065 935.563L224.305 942.931V928.195Z" fill="#F4F8FE"/>
<path d="M238.413 962.176L246.685 957.385V966.948L238.413 962.176Z" fill="#F4F8FE"/>
<path d="M273.936 1014.16L276.09 1015.4L273.936 1016.65V1014.16Z" fill="#F4F8FE"/>
<path d="M781.505 615.918L781.928 616.159L781.505 616.401V615.918Z" fill="#F4F8FE"/>
<path d="M748.88 562.932L751.939 561.161V564.684L748.88 562.932Z" fill="#F4F8FE"/>
<path d="M733.987 533.601L738.676 536.298L733.987 539.016V533.601Z" fill="#F4F8FE"/>
<path d="M733.383 479.327L739.884 483.071L733.383 486.836V479.327Z" fill="#F4F8FE"/>
<path d="M699.389 483.071L707.541 478.36V487.782L699.389 483.071Z" fill="#F4F8FE"/>
<path d="M639.433 476.247L651.267 483.071L639.433 489.896V476.247Z" fill="#F4F8FE"/>
<path d="M603.648 483.071L617.153 475.28V490.862L603.648 483.071Z" fill="#F4F8FE"/>
<path d="M545.684 473.509L562.228 483.071L545.684 492.634V473.509Z" fill="#F4F8FE"/>
<path d="M508.832 483.071L526.282 473.005V493.137L508.832 483.071Z" fill="#F4F8FE"/>
<path d="M453.001 472.643L471.055 483.071L453.001 493.499V472.643Z" fill="#F4F8FE"/>
<path d="M416.391 483.071L434.223 472.764V493.378L416.391 483.071Z" fill="#F4F8FE"/>
<path d="M361.084 473.126L378.312 483.071L361.084 493.016V473.126Z" fill="#F4F8FE"/>
<path d="M325.037 483.071L341.642 473.489V492.654L325.037 483.071Z" fill="#F4F8FE"/>
<path d="M314.511 498.915L333.189 509.685L314.511 520.475V498.915Z" fill="#F4F8FE"/>
<path d="M275.406 562.932L297.323 550.269V575.575L275.406 562.932Z" fill="#F4F8FE"/>
<path d="M266.973 576.239L289.997 589.546L266.973 602.832V576.239Z" fill="#F4F8FE"/>
<path d="M226.619 642.773L252.582 627.775V657.771L226.619 642.773Z" fill="#F4F8FE"/>
<path d="M219.313 653.362L247.068 669.387L219.313 685.411V653.362Z" fill="#F4F8FE"/>
<path d="M177.169 722.634L208.163 704.717V740.531L177.169 722.634Z" fill="#F4F8FE"/>
<path d="M171.734 730.626L203.957 749.247L171.734 767.849V730.626Z" fill="#F4F8FE"/>
<path d="M129.63 802.475L162.798 783.31V821.64L129.63 802.475Z" fill="#F4F8FE"/>
<path d="M125.242 809.782L158.672 829.088L125.242 848.394V809.782Z" fill="#F4F8FE"/>
<path d="M131.28 855.702L161.973 837.966V873.438L131.28 855.702Z" fill="#F4F8FE"/>
<path d="M175.257 896.448L196.892 908.949L175.257 921.431V896.448Z" fill="#F4F8FE"/>
<path d="M186.95 935.563L203.273 926.141V944.984L186.95 935.563Z" fill="#F4F8FE"/>
<path d="M226.116 984.562L233.462 988.79L226.116 993.038V984.562Z" fill="#F4F8FE"/>
<path d="M241.09 1015.4L245.337 1012.95V1017.86L241.09 1015.4Z" fill="#F4F8FE"/>
<path d="M796.439 589.546L797.284 589.063V590.029L796.439 589.546Z" fill="#F4F8FE"/>
<path d="M781.002 561.805L782.934 562.932L781.002 564.039V561.805Z" fill="#F4F8FE"/>
<path d="M747.532 509.685L752.604 506.766V512.624L747.532 509.685Z" fill="#F4F8FE"/>
<path d="M746.686 456.458L753.046 452.794V460.121L746.686 456.458Z" fill="#F4F8FE"/>
<path d="M686.347 451.062L695.686 456.458L686.347 461.853V451.062Z" fill="#F4F8FE"/>
<path d="M651.448 456.458L662.377 450.136V462.779L651.448 456.458Z" fill="#F4F8FE"/>
<path d="M592.719 448.566L606.405 456.458L592.719 464.349V448.566Z" fill="#F4F8FE"/>
<path d="M556.693 456.458L571.486 447.922V464.993L556.693 456.458Z" fill="#F4F8FE"/>
<path d="M499.896 447.419L515.534 456.458L499.896 465.497V447.419Z" fill="#F4F8FE"/>
<path d="M463.749 456.458L479.689 447.258V465.658L463.749 456.458Z" fill="#F4F8FE"/>
<path d="M407.878 447.721L423.013 456.458L407.878 465.195V447.721Z" fill="#F4F8FE"/>
<path d="M372.254 456.458L387.168 447.841V465.054L372.254 456.458Z" fill="#F4F8FE"/>
<path d="M316.182 448.566L329.848 456.458L316.182 464.349V448.566Z" fill="#F4F8FE"/>
<path d="M277.861 509.685L296.096 499.156V520.214L277.861 509.685Z" fill="#F4F8FE"/>
<path d="M267.818 524.461L288.327 536.298L267.818 548.156V524.461Z" fill="#F4F8FE"/>
<path d="M228.27 589.546L251.757 575.977V603.114L228.27 589.546Z" fill="#F4F8FE"/>
<path d="M220.159 601.604L245.357 616.159L220.159 630.714V601.604Z" fill="#F4F8FE"/>
<path d="M178.296 669.387L207.6 652.456V686.317L178.296 669.387Z" fill="#F4F8FE"/>
<path d="M172.016 677.902L203.373 696L172.016 714.098V677.902Z" fill="#F4F8FE"/>
<path d="M128.905 749.247L163.161 729.458V769.016L128.905 749.247Z" fill="#F4F8FE"/>
<path d="M124.84 755.851L159.477 775.861L124.84 795.851V755.851Z" fill="#F4F8FE"/>
<path d="M82.3529 829.088L117.313 808.897V849.28L82.3529 829.088Z" fill="#F4F8FE"/>
<path d="M126.571 865.345L155.996 882.315L126.571 899.306V865.345Z" fill="#F4F8FE"/>
<path d="M135.064 908.949L160.081 894.495V923.383L135.064 908.949Z" fill="#F4F8FE"/>
<path d="M177.551 953.661L192.304 962.176L177.551 970.692V953.661Z" fill="#F4F8FE"/>
<path d="M191.016 988.79L201.24 982.892V994.689L191.016 988.79Z" fill="#F4F8FE"/>
<path d="M227.464 1040.1L230.765 1042.02L227.464 1043.95V1040.1Z" fill="#F4F8FE"/>
<path d="M243.364 1068.63L244.21 1068.15V1069.13L243.364 1068.63Z" fill="#F4F8FE"/>
<path d="M827.595 589.304L827.997 589.546L827.595 589.787V589.304Z" fill="#F4F8FE"/>
<path d="M795.473 536.298L797.767 534.97V537.647L795.473 536.298Z" fill="#F4F8FE"/>
<path d="M780.418 507.551L784.101 509.685L780.418 511.819V507.551Z" fill="#F4F8FE"/>
<path d="M733.141 425.677L740.367 429.844L733.141 434.011V425.677Z" fill="#F4F8FE"/>
<path d="M699.228 429.844L707.621 424.992V434.696L699.228 429.844Z" fill="#F4F8FE"/>
<path d="M639.734 423.523L650.663 429.844L639.734 436.165V423.523Z" fill="#F4F8FE"/>
<path d="M604.714 429.844L616.609 422.959V436.709L604.714 429.844Z" fill="#F4F8FE"/>
<path d="M546.73 422.093L560.114 429.844L546.73 437.574V422.093Z" fill="#F4F8FE"/>
<path d="M511.388 429.844L525.014 421.973V437.695L511.388 429.844Z" fill="#F4F8FE"/>
<path d="M454.551 422.093L467.955 429.844L454.551 437.574V422.093Z" fill="#F4F8FE"/>
<path d="M419.652 429.844L432.593 422.355V437.313L419.652 429.844Z" fill="#F4F8FE"/>
<path d="M362.815 422.879L374.871 429.844L362.815 436.809V422.879Z" fill="#F4F8FE"/>
<path d="M328.519 429.844L339.891 423.261V436.407L328.519 429.844Z" fill="#F4F8FE"/>
<path d="M281.102 456.458L294.486 448.727V464.188L281.102 456.458Z" fill="#F4F8FE"/>
<path d="M269.388 473.972L285.167 483.071L269.388 492.171V473.972Z" fill="#F4F8FE"/>
<path d="M230.343 536.298L250.731 524.542V548.075L230.343 536.298Z" fill="#F4F8FE"/>
<path d="M221.145 550.088L243.385 562.932L221.145 575.756V550.088Z" fill="#F4F8FE"/>
<path d="M180.57 616.159L206.473 601.202V631.117L180.57 616.159Z" fill="#F4F8FE"/>
<path d="M173.123 626.567L201.179 642.773L173.123 658.979V626.567Z" fill="#F4F8FE"/>
<path d="M130.133 696L162.557 677.298V714.722L130.133 696Z" fill="#F4F8FE"/>
<path d="M124.961 702.845L159.216 722.634L124.961 742.403V702.845Z" fill="#F4F8FE"/>
<path d="M81.8699 775.861L117.534 755.267V796.455L81.8699 775.861Z" fill="#F4F8FE"/>
<path d="M78.3075 781.719L114.233 802.475L78.3075 823.23V781.719Z" fill="#F4F8FE"/>
<path d="M78.9918 836.134L112.885 855.702L78.9918 875.27V836.134Z" fill="#F4F8FE"/>
<path d="M84.8889 882.316L116.045 864.338V900.313L84.8889 882.316Z" fill="#F4F8FE"/>
<path d="M128.825 922.457L151.507 935.563L128.825 948.648V922.457Z" fill="#F4F8FE"/>
<path d="M139.874 962.176L157.686 951.889V972.464L139.874 962.176Z" fill="#F4F8FE"/>
<path d="M179.362 1010.01L188.701 1015.4L179.362 1020.8V1010.01Z" fill="#F4F8FE"/>
<path d="M194.155 1042.02L199.67 1038.86V1045.2L194.155 1042.02Z" fill="#F4F8FE"/>
<path d="M228.551 1095.24L228.571 1095.26H228.551V1095.24Z" fill="#F4F8FE"/>
<path d="M842.609 562.932L843.354 562.489V563.355L842.609 562.932Z" fill="#F4F8FE"/>
<path d="M827.232 535.453L828.742 536.298L827.232 537.164V535.453Z" fill="#F4F8FE"/>
<path d="M794.507 483.071L798.25 480.897V485.245L794.507 483.071Z" fill="#F4F8FE"/>
<path d="M779.996 453.599L784.947 456.458L779.996 459.316V453.599Z" fill="#F4F8FE"/>
<path d="M779.875 400.15L785.208 403.23L779.875 406.31V400.15Z" fill="#F4F8FE"/>
<path d="M746.686 403.23L753.046 399.546V406.894L746.686 403.23Z" fill="#F4F8FE"/>
<path d="M686.669 398.379L695.062 403.23L686.669 408.062V398.379Z" fill="#F4F8FE"/>
<path d="M652.495 403.23L661.853 397.815V408.626L652.495 403.23Z" fill="#F4F8FE"/>
<path d="M593.685 397.01L604.473 403.23L593.685 409.451V397.01Z" fill="#F4F8FE"/>
<path d="M559.108 403.23L570.278 396.768V409.672L559.108 403.23Z" fill="#F4F8FE"/>
<path d="M501.345 396.728L512.616 403.23L501.345 409.713V396.728Z" fill="#F4F8FE"/>
<path d="M467.03 403.23L478.059 396.849V409.592L467.03 403.23Z" fill="#F4F8FE"/>
<path d="M409.488 397.271L419.793 403.23L409.488 409.169V397.271Z" fill="#F4F8FE"/>
<path d="M375.656 403.23L385.457 397.553V408.887L375.656 403.23Z" fill="#F4F8FE"/>
<path d="M317.752 398.057L326.708 403.23L317.752 408.404V398.057Z" fill="#F4F8FE"/>
<path d="M284.02 403.23L293.016 398.036V408.424L284.02 403.23Z" fill="#F4F8FE"/>
<path d="M270.958 423.442L282.047 429.844L270.958 436.246V423.442Z" fill="#F4F8FE"/>
<path d="M233.563 483.071L249.1 474.093V492.05L233.563 483.071Z" fill="#F4F8FE"/>
<path d="M222.614 499.378L240.466 509.685L222.614 520.012V499.378Z" fill="#F4F8FE"/>
<path d="M182.864 562.932L205.305 549.968V575.877L182.864 562.932Z" fill="#F4F8FE"/>
<path d="M174.411 575.595L198.563 589.546L174.411 603.497V575.595Z" fill="#F4F8FE"/>
<path d="M132.77 642.773L161.228 626.326V659.22L132.77 642.773Z" fill="#F4F8FE"/>
<path d="M126.148 651.671L156.841 669.386L126.148 687.102V651.671Z" fill="#F4F8FE"/>
<path d="M82.5743 722.634L117.192 702.623V742.624L82.5743 722.634Z" fill="#F4F8FE"/>
<path d="M78.3679 728.593L114.133 749.247L78.3679 769.882V728.593Z" fill="#F4F8FE"/>
<path d="M35.5992 802.475L71.545 781.719V823.23L35.5992 802.475Z" fill="#F4F8FE"/>
<path d="M32.4595 808.756L67.6807 829.088L32.4595 849.441V808.756Z" fill="#F4F8FE"/>
<path d="M36.7665 855.702L70.9614 835.973V875.451L36.7665 855.702Z" fill="#F4F8FE"/>
<path d="M80.7831 892.482L109.282 908.949L80.7831 925.396V892.482Z" fill="#F4F8FE"/>
<path d="M89.4575 935.563L113.75 921.531V949.574L89.4575 935.563Z" fill="#F4F8FE"/>
<path d="M131.22 979.852L146.697 988.79L131.22 997.728V979.852Z" fill="#F4F8FE"/>
<path d="M143.9 1015.4L155.674 1008.6V1022.21L143.9 1015.4Z" fill="#F4F8FE"/>
<path d="M181.133 1066.32L185.159 1068.63L181.133 1070.97V1066.32Z" fill="#F4F8FE"/>
<path d="M196.993 1095.26L198.261 1094.52V1095.99L196.993 1095.26Z" fill="#F4F8FE"/>
<path d="M889.182 589.546L889.202 589.526V589.546H889.182Z" fill="#F4F8FE"/>
<path d="M873.684 562.691L874.107 562.932L873.684 563.154V562.691Z" fill="#F4F8FE"/>
<path d="M841.864 509.685L843.716 508.618V510.752L841.864 509.685Z" fill="#F4F8FE"/>
<path d="M826.81 481.481L829.567 483.071L826.81 484.682V481.481Z" fill="#F4F8FE"/>
<path d="M793.923 429.844L798.552 427.167V432.501L793.923 429.844Z" fill="#F4F8FE"/>
<path d="M793.863 376.617L798.592 373.879V379.334L793.863 376.617Z" fill="#F4F8FE"/>
<path d="M733.443 372.933L739.783 376.617L733.443 380.281V372.933Z" fill="#F4F8FE"/>
<path d="M700.134 376.617L707.178 372.53V380.683L700.134 376.617Z" fill="#F4F8FE"/>
<path d="M640.56 371.725L649.013 376.617L640.56 381.489V371.725Z" fill="#F4F8FE"/>
<path d="M606.687 376.617L615.623 371.463V381.75L606.687 376.617Z" fill="#F4F8FE"/>
<path d="M548.038 371.141L557.498 376.617L548.038 382.072V371.141Z" fill="#F4F8FE"/>
<path d="M514.286 376.617L523.565 371.242V381.972L514.286 376.617Z" fill="#F4F8FE"/>
<path d="M456.041 371.443L464.977 376.617L456.041 381.77V371.443Z" fill="#F4F8FE"/>
<path d="M422.611 376.617L431.124 371.685V381.529L422.611 376.617Z" fill="#F4F8FE"/>
<path d="M364.244 372.127L371.993 376.617L364.244 381.086V372.127Z" fill="#F4F8FE"/>
<path d="M331.257 376.617L338.522 372.409V380.804L331.257 376.617Z" fill="#F4F8FE"/>
<path d="M272.165 372.288L279.632 376.617L272.165 380.925V372.288Z" fill="#F4F8FE"/>
<path d="M236.562 429.844L247.611 423.462V436.226L236.562 429.844Z" fill="#F4F8FE"/>
<path d="M224.144 448.788L237.407 456.458L224.144 464.107V448.788Z" fill="#F4F8FE"/>
<path d="M186.044 509.685L203.735 499.478V519.891L186.044 509.685Z" fill="#F4F8FE"/>
<path d="M175.74 524.662L195.926 536.298L175.74 547.954V524.662Z" fill="#F4F8FE"/>
<path d="M135.869 589.546L159.679 575.776V603.295L135.869 589.546Z" fill="#F4F8FE"/>
<path d="M127.839 601.363L153.46 616.159L127.839 630.956V601.363Z" fill="#F4F8FE"/>
<path d="M85.392 669.387L115.783 651.852V686.941L85.392 669.387Z" fill="#F4F8FE"/>
<path d="M79.4346 677.177L112.019 696L79.4346 714.823V677.177Z" fill="#F4F8FE"/>
<path d="M35.9011 749.247L71.384 728.754V769.741L35.9011 749.247Z" fill="#F4F8FE"/>
<path d="M32.3387 755.307L67.9022 775.861L32.3387 796.395V755.307Z" fill="#F4F8FE"/>
<path d="M-9.38342 829.088L24.912 809.279V848.897L-9.38342 829.088Z" fill="#F4F8FE"/>
<path d="M33.7073 864.137L65.185 882.316L33.7073 900.494V864.137Z" fill="#F4F8FE"/>
<path d="M40.49 908.949L69.0896 892.421V925.457L40.49 908.949Z" fill="#F4F8FE"/>
<path d="M83.48 950.4L103.888 962.176L83.48 973.953V950.4Z" fill="#F4F8FE"/>
<path d="M94.4891 988.79L111.234 979.127V998.453L94.4891 988.79Z" fill="#F4F8FE"/>
<path d="M133.212 1036.54L142.712 1042.02L133.212 1047.51V1036.54Z" fill="#F4F8FE"/>
<path d="M147.965 1068.63L153.641 1065.37V1071.91L147.965 1068.63Z" fill="#F4F8FE"/>
<path d="M182.381 1121.72L182.643 1121.88L182.381 1122.02V1121.72Z" fill="#F4F8FE"/>
<path d="M888.699 536.298L889.443 535.876V536.741L888.699 536.298Z" fill="#F4F8FE"/>
<path d="M873.402 508.96L874.67 509.685L873.402 510.43V508.96Z" fill="#F4F8FE"/>
<path d="M841.2 456.458L844.058 454.807V458.108L841.2 456.458Z" fill="#F4F8FE"/>
<path d="M826.548 427.791L830.11 429.844L826.548 431.897V427.791Z" fill="#F4F8FE"/>
<path d="M780.016 347.185L784.886 349.983L780.016 352.801V347.185Z" fill="#F4F8FE"/>
<path d="M747.31 349.983L752.724 346.863V353.103L747.31 349.983Z" fill="#F4F8FE"/>
<path d="M687.354 346.339L693.673 349.983L687.354 353.647V346.339Z" fill="#F4F8FE"/>
<path d="M654.205 349.983L661.008 346.057V353.909L654.205 349.983Z" fill="#F4F8FE"/>
<path d="M594.812 345.715L602.219 349.983L594.812 354.271V345.715Z" fill="#F4F8FE"/>
<path d="M561.583 349.983L569.05 345.675V354.311L561.583 349.983Z" fill="#F4F8FE"/>
<path d="M502.653 345.735L510.02 349.983L502.653 354.251V345.735Z" fill="#F4F8FE"/>
<path d="M469.626 349.983L476.751 345.876V354.11L469.626 349.983Z" fill="#F4F8FE"/>
<path d="M410.716 346.158L417.357 349.983L410.716 353.828V346.158Z" fill="#F4F8FE"/>
<path d="M378.071 349.983L384.25 346.42V353.566L378.071 349.983Z" fill="#F4F8FE"/>
<path d="M318.839 346.681L324.554 349.983L318.839 353.285V346.681Z" fill="#F4F8FE"/>
<path d="M286.133 349.983L291.95 346.621V353.365L286.133 349.983Z" fill="#F4F8FE"/>
<path d="M238.715 376.617L246.524 372.087V381.126L238.715 376.617Z" fill="#F4F8FE"/>
<path d="M225.472 397.855L234.75 403.23L225.472 408.585V397.855Z" fill="#F4F8FE"/>
<path d="M189.043 456.458L202.226 448.828V464.067L189.043 456.458Z" fill="#F4F8FE"/>
<path d="M177.43 474.354L192.545 483.071L177.43 491.788V474.354Z" fill="#F4F8FE"/>
<path d="M138.767 536.298L158.23 525.065V547.552L138.767 536.298Z" fill="#F4F8FE"/>
<path d="M129.308 550.652L150.541 562.932L129.308 575.192V550.652Z" fill="#F4F8FE"/>
<path d="M89.1154 616.159L113.931 601.826V630.473L89.1154 616.159Z" fill="#F4F8FE"/>
<path d="M81.2057 627.03L108.457 642.773L81.2057 658.516V627.03Z" fill="#F4F8FE"/>
<path d="M38.276 696L70.1965 677.56V714.44L38.276 696Z" fill="#F4F8FE"/>
<path d="M32.9626 703.147L66.6744 722.634L32.9626 742.101V703.147Z" fill="#F4F8FE"/>
<path d="M-9.52429 775.861L24.9724 755.931V795.771L-9.52429 775.861Z" fill="#F4F8FE"/>
<path d="M-13.3282 782.665L20.9673 802.475L-13.3282 822.284V782.665Z" fill="#F4F8FE"/>
<path d="M-12.5835 837.181L19.4981 855.702L-12.5835 874.223V837.181Z" fill="#F4F8FE"/>
<path d="M-6.8877 882.316L23.6441 864.701V899.951L-6.8877 882.316Z" fill="#F4F8FE"/>
<path d="M36.0017 921.35L60.6164 935.563L36.0017 949.776V921.35Z" fill="#F4F8FE"/>
<path d="M45.8033 962.177L66.453 950.239V974.094L45.8033 962.177Z" fill="#F4F8FE"/>
<path d="M85.714 1007.47L99.4604 1015.4L85.714 1023.34V1007.47Z" fill="#F4F8FE"/>
<path d="M98.9371 1042.02L109.02 1036.2V1047.86L98.9371 1042.02Z" fill="#F4F8FE"/>
<path d="M135.205 1093.21L138.747 1095.26L135.205 1097.32V1093.21Z" fill="#F4F8FE"/>
<path d="M150.904 1121.88L152.172 1121.13V1122.6L150.904 1121.88Z" fill="#F4F8FE"/>
<path d="M888.195 483.071L889.685 482.206V483.937L888.195 483.071Z" fill="#F4F8FE"/>
<path d="M873.121 455.25L875.234 456.458L873.121 457.665V455.25Z" fill="#F4F8FE"/>
<path d="M840.878 403.23L844.199 401.298V405.143L840.878 403.23Z" fill="#F4F8FE"/>
<path d="M826.468 374.422L830.251 376.617L826.468 378.791V374.422Z" fill="#F4F8FE"/>
<path d="M826.629 321.457L829.95 323.369L826.629 325.282V321.457Z" fill="#F4F8FE"/>
<path d="M794.326 323.369L798.351 321.054V325.685L794.326 323.369Z" fill="#F4F8FE"/>
<path d="M733.987 320.652L738.676 323.369L733.987 326.087V320.652Z" fill="#F4F8FE"/>
<path d="M701.543 323.369L706.474 320.531V326.208L701.543 323.369Z" fill="#F4F8FE"/>
<path d="M641.586 320.269L646.96 323.369L641.586 326.47V320.269Z" fill="#F4F8FE"/>
<path d="M608.921 323.369L614.516 320.148V326.59L608.921 323.369Z" fill="#F4F8FE"/>
<path d="M549.327 320.148L554.922 323.369L549.327 326.59V320.148Z" fill="#F4F8FE"/>
<path d="M516.762 323.369L522.317 320.148V326.59L516.762 323.369Z" fill="#F4F8FE"/>
<path d="M457.248 320.289L462.562 323.369L457.248 326.45V320.289Z" fill="#F4F8FE"/>
<path d="M424.804 323.369L430.017 320.35V326.389L424.804 323.369Z" fill="#F4F8FE"/>
<path d="M365.29 320.692L369.92 323.369L365.29 326.047V320.692Z" fill="#F4F8FE"/>
<path d="M333.169 323.369L337.576 320.833V325.926L333.169 323.369Z" fill="#F4F8FE"/>
<path d="M273.011 320.531L277.922 323.369L273.011 326.208V320.531Z" fill="#F4F8FE"/>
<path d="M240.285 323.369L245.739 320.229V326.53L240.285 323.369Z" fill="#F4F8FE"/>
<path d="M226.257 346.017L233.14 349.983L226.257 353.969V346.017Z" fill="#F4F8FE"/>
<path d="M191.438 403.23L201.039 397.674V408.766L191.438 403.23Z" fill="#F4F8FE"/>
<path d="M178.738 423.382L189.929 429.844L178.738 436.286V423.382Z" fill="#F4F8FE"/>
<path d="M142.028 483.071L156.599 474.656V491.486L142.028 483.071Z" fill="#F4F8FE"/>
<path d="M130.938 500.263L147.261 509.685L130.938 519.106V500.263Z" fill="#F4F8FE"/>
<path d="M92.1545 562.932L112.402 551.236V574.608L92.1545 562.932Z" fill="#F4F8FE"/>
<path d="M83.0372 576.964L104.814 589.546L83.0372 602.128V576.964Z" fill="#F4F8FE"/>
<path d="M42.08 642.773L68.3047 627.614V657.932L42.08 642.773Z" fill="#F4F8FE"/>
<path d="M34.6332 652.818L63.3335 669.387L34.6332 685.955V652.818Z" fill="#F4F8FE"/>
<path d="M-8.25629 722.634L24.3485 703.791V741.457L-8.25629 722.634Z" fill="#F4F8FE"/>
<path d="M-13.0464 729.901L20.4239 749.247L-13.0464 768.574V729.901Z" fill="#F4F8FE"/>
<path d="M-10.7319 893.629L15.7948 908.949L-10.7319 924.249V893.629Z" fill="#F4F8FE"/>
<path d="M-2.25867 935.563L21.3295 921.934V949.192L-2.25867 935.563Z" fill="#F4F8FE"/>
<path d="M38.598 979.087L55.4036 988.79L38.598 998.493V979.087Z" fill="#F4F8FE"/>
<path d="M50.4927 1015.4L64.0982 1007.55V1023.25L50.4927 1015.4Z" fill="#F4F8FE"/>
<path d="M88.0487 1064.79L94.7508 1068.63L88.0487 1072.5V1064.79Z" fill="#F4F8FE"/>
<path d="M102.983 1095.26L106.988 1092.95V1097.56L102.983 1095.26Z" fill="#F4F8FE"/>
<path d="M887.793 429.844L889.886 428.636V431.032L887.793 429.844Z" fill="#F4F8FE"/>
<path d="M872.98 401.741L875.536 403.23L872.98 404.7V401.741Z" fill="#F4F8FE"/>
<path d="M840.878 349.983L844.199 348.07V351.916L840.878 349.983Z" fill="#F4F8FE"/>
<path d="M841.341 296.756L843.978 295.246V298.266L841.341 296.756Z" fill="#F4F8FE"/>
<path d="M780.539 294.843L783.86 296.756L780.539 298.668V294.843Z" fill="#F4F8FE"/>
<path d="M748.558 296.756L752.101 294.723V298.789L748.558 296.756Z" fill="#F4F8FE"/>
<path d="M688.279 294.723L691.822 296.756L688.279 298.789V294.723Z" fill="#F4F8FE"/>
<path d="M656.299 296.756L659.962 294.642V298.87L656.299 296.756Z" fill="#F4F8FE"/>
<path d="M596.04 294.602L599.763 296.756L596.04 298.91V294.602Z" fill="#F4F8FE"/>
<path d="M564.079 296.756L567.782 294.622V298.89L564.079 296.756Z" fill="#F4F8FE"/>
<path d="M503.861 294.622L507.584 296.756L503.861 298.89V294.622Z" fill="#F4F8FE"/>
<path d="M472.061 296.756L475.523 294.743V298.769L472.061 296.756Z" fill="#F4F8FE"/>
<path d="M411.762 294.743L415.244 296.756L411.762 298.769V294.743Z" fill="#F4F8FE"/>
<path d="M380.043 296.756L383.263 294.884V298.628L380.043 296.756Z" fill="#F4F8FE"/>
<path d="M319.664 294.884L322.904 296.756L319.664 298.628V294.884Z" fill="#F4F8FE"/>
<path d="M287.643 296.756L291.205 294.702V298.809L287.643 296.756Z" fill="#F4F8FE"/>
<path d="M226.941 293.958L231.792 296.756L226.941 299.554V293.958Z" fill="#F4F8FE"/>
<path d="M193.028 349.983L200.233 345.816V354.15L193.028 349.983Z" fill="#F4F8FE"/>
<path d="M179.584 371.624L188.238 376.617L179.584 381.589V371.624Z" fill="#F4F8FE"/>
<path d="M144.403 429.844L155.412 423.482V436.185L144.403 429.844Z" fill="#F4F8FE"/>
<path d="M132.266 449.331L144.604 456.458L132.266 463.584V449.331Z" fill="#F4F8FE"/>
<path d="M95.4955 509.685L110.731 500.887V518.502L95.4955 509.685Z" fill="#F4F8FE"/>
<path d="M84.5869 526.434L101.694 536.298L84.5869 546.183V526.434Z" fill="#F4F8FE"/>
<path d="M46.0247 589.546L66.3323 577.809V601.262L46.0247 589.546Z" fill="#F4F8FE"/>
<path d="M36.7665 603.255L59.0868 616.159L36.7665 629.043V603.255Z" fill="#F4F8FE"/>
<path d="M-4.77441 669.387L22.5976 653.583V685.19L-4.77441 669.387Z" fill="#F4F8FE"/>
<path d="M-11.7784 678.888L17.8678 696L-11.7784 713.132V678.888Z" fill="#F4F8FE"/>
<path d="M-8.09528 951.406L10.5418 962.177L-8.09528 972.947V951.406Z" fill="#F4F8FE"/>
<path d="M2.77295 988.79L18.8338 979.509V998.071L2.77295 988.79Z" fill="#F4F8FE"/>
<path d="M40.8522 1036.22L50.8953 1042.02L40.8522 1047.84V1036.22Z" fill="#F4F8FE"/>
<path d="M55.142 1068.63L61.7636 1064.81V1072.48L55.142 1068.63Z" fill="#F4F8FE"/>
<path d="M89.7192 1120.87L91.4299 1121.88L89.7192 1122.86V1120.87Z" fill="#F4F8FE"/>
<path d="M887.652 376.617L889.967 375.268V377.925L887.652 376.617Z" fill="#F4F8FE"/>
<path d="M872.96 348.473L875.576 349.983L872.96 351.513V348.473Z" fill="#F4F8FE"/>
<path d="M827.011 268.894L829.185 270.142L827.011 271.39V268.894Z" fill="#F4F8FE"/>
<path d="M795.412 270.142L797.808 268.753V271.531L795.412 270.142Z" fill="#F4F8FE"/>
<path d="M734.751 268.753L737.167 270.142L734.751 271.531V268.753Z" fill="#F4F8FE"/>
<path d="M703.254 270.142L705.628 268.773V271.511L703.254 270.142Z" fill="#F4F8FE"/>
<path d="M642.653 268.894L644.806 270.142L642.653 271.37V268.894Z" fill="#F4F8FE"/>
<path d="M611.215 270.142L613.369 268.894V271.37L611.215 270.142Z" fill="#F4F8FE"/>
<path d="M550.494 268.914L552.607 270.142L550.494 271.37V268.914Z" fill="#F4F8FE"/>
<path d="M519.056 270.142L521.17 268.914V271.37L519.056 270.142Z" fill="#F4F8FE"/>
<path d="M458.234 268.793L460.569 270.142L458.234 271.471V268.793Z" fill="#F4F8FE"/>
<path d="M426.716 270.142L429.071 268.793V271.491L426.716 270.142Z" fill="#F4F8FE"/>
<path d="M366.055 268.793L368.39 270.142L366.055 271.491V268.793Z" fill="#F4F8FE"/>
<path d="M334.497 270.142L336.912 268.753V271.531L334.497 270.142Z" fill="#F4F8FE"/>
<path d="M273.534 268.21L276.875 270.142L273.534 272.055V268.21Z" fill="#F4F8FE"/>
<path d="M241.231 270.142L245.276 267.807V272.477L241.231 270.142Z" fill="#F4F8FE"/>
<path d="M194.155 296.756L199.67 293.575V299.937L194.155 296.756Z" fill="#F4F8FE"/>
<path d="M180.308 319.625L186.809 323.369L180.308 327.114V319.625Z" fill="#F4F8FE"/>
<path d="M145.872 376.617L154.687 371.524V381.69L145.872 376.617Z" fill="#F4F8FE"/>
<path d="M133.112 397.553L142.913 403.23L133.112 408.887V397.553Z" fill="#F4F8FE"/>
<path d="M97.9509 456.458L109.503 449.774V463.121L97.9509 456.458Z" fill="#F4F8FE"/>
<path d="M86.1367 475.864L98.595 483.071L86.1367 490.278V475.864Z" fill="#F4F8FE"/>
<path d="M49.265 536.298L64.7221 527.38V545.237L49.265 536.298Z" fill="#F4F8FE"/>
<path d="M38.5175 553.068L55.5646 562.932L38.5175 572.776V553.068Z" fill="#F4F8FE"/>
<path d="M-0.205688 616.159L20.3031 604.322V627.997L-0.205688 616.159Z" fill="#F4F8FE"/>
<path d="M-9.62488 629.386L13.5809 642.773L-9.62488 656.16V629.386Z" fill="#F4F8FE"/>
<path d="M-5.84113 1008.56L6.03346 1015.4L-5.84113 1022.27V1008.56Z" fill="#F4F8FE"/>
<path d="M7.36182 1042.02L16.5395 1036.72V1047.33L7.36182 1042.02Z" fill="#F4F8FE"/>
<path d="M42.9453 1093.09L46.709 1095.26L42.9453 1097.42V1093.09Z" fill="#F4F8FE"/>
<path d="M58.5232 1121.88L60.0931 1120.97V1122.78L58.5232 1121.88Z" fill="#F4F8FE"/>
<path d="M887.732 323.369L889.906 322.121V324.638L887.732 323.369Z" fill="#F4F8FE"/>
<path d="M873.141 295.548L875.214 296.756L873.141 297.964V295.548Z" fill="#F4F8FE"/>
<path d="M873.483 242.905L874.53 243.529L873.483 244.133V242.905Z" fill="#F4F8FE"/>
<path d="M842.247 243.529L843.515 242.784V244.253L842.247 243.529Z" fill="#F4F8FE"/>
<path d="M781.103 242.582L782.733 243.529L781.103 244.455V242.582Z" fill="#F4F8FE"/>
<path d="M749.927 243.529L751.416 242.663V244.394L749.927 243.529Z" fill="#F4F8FE"/>
<path d="M689.105 242.905L690.171 243.529L689.105 244.133V242.905Z" fill="#F4F8FE"/>
<path d="M658.049 243.529L659.076 242.925V244.112L658.049 243.529Z" fill="#F4F8FE"/>
<path d="M596.946 242.945L597.952 243.529L596.946 244.112V242.945Z" fill="#F4F8FE"/>
<path d="M565.891 243.529L566.897 242.945V244.112L565.891 243.529Z" fill="#F4F8FE"/>
<path d="M504.686 242.824L505.914 243.529L504.686 244.233V242.824Z" fill="#F4F8FE"/>
<path d="M473.41 243.529L474.859 242.683V244.354L473.41 243.529Z" fill="#F4F8FE"/>
<path d="M412.346 242.522L414.077 243.529L412.346 244.535V242.522Z" fill="#F4F8FE"/>
<path d="M380.929 243.529L382.82 242.421V244.616L380.929 243.529Z" fill="#F4F8FE"/>
<path d="M319.966 242.16L322.3 243.529L319.966 244.877V242.16Z" fill="#F4F8FE"/>
<path d="M288.105 243.529L290.963 241.858V245.179L288.105 243.529Z" fill="#F4F8FE"/>
<path d="M227.203 241.153L231.309 243.529L227.203 245.884V241.153Z" fill="#F4F8FE"/>
<path d="M194.638 243.529L199.428 240.75V246.307L194.638 243.529Z" fill="#F4F8FE"/>
<path d="M180.65 267.002L186.105 270.142L180.65 273.283V267.002Z" fill="#F4F8FE"/>
<path d="M146.939 323.369L154.144 319.222V327.516L146.939 323.369Z" fill="#F4F8FE"/>
<path d="M133.695 345.313L141.766 349.983L133.695 354.653V345.313Z" fill="#F4F8FE"/>
<path d="M99.2189 403.23L108.859 397.654V408.787L99.2189 403.23Z" fill="#F4F8FE"/>
<path d="M87.0021 424.147L96.844 429.844L87.0021 435.521V424.147Z" fill="#F4F8FE"/>
<path d="M52.2639 483.071L63.2127 476.75V489.392L52.2639 483.071Z" fill="#F4F8FE"/>
<path d="M40.1679 502.699L52.2639 509.685L40.1679 516.69V502.699Z" fill="#F4F8FE"/>
<path d="M3.35663 562.932L18.532 554.155V571.689L3.35663 562.932Z" fill="#F4F8FE"/>
<path d="M-7.43115 579.943L9.19331 589.546L-7.43115 599.128V579.943Z" fill="#F4F8FE"/>
<path d="M-3.64734 1065.61L1.62578 1068.63L-3.64734 1071.69V1065.61Z" fill="#F4F8FE"/>
<path d="M11.2664 1095.26L14.5872 1093.33V1097.18L11.2664 1095.26Z" fill="#F4F8FE"/>
<path d="M888.256 270.142L889.665 269.337V270.947L888.256 270.142Z" fill="#F4F8FE"/>
<path d="M889.061 216.895L889.262 216.794V217.016L889.061 216.895Z" fill="#F4F8FE"/>
<path d="M827.474 216.432L828.279 216.895L827.474 217.378V216.432Z" fill="#F4F8FE"/>
<path d="M796.439 216.895L797.284 216.432V217.378L796.439 216.895Z" fill="#F4F8FE"/>
<path d="M735.355 216.553L735.959 216.895L735.355 217.257V216.553Z" fill="#F4F8FE"/>
<path d="M704.562 216.895L704.964 216.694V217.136L704.562 216.895Z" fill="#F4F8FE"/>
<path d="M643.317 216.794L643.498 216.895L643.317 217.016V216.794Z" fill="#F4F8FE"/>
<path d="M612.523 216.895L612.705 216.794V217.016L612.523 216.895Z" fill="#F4F8FE"/>
<path d="M551.037 216.653L551.5 216.895L551.037 217.157V216.653Z" fill="#F4F8FE"/>
<path d="M520.043 216.895L520.687 216.532V217.277L520.043 216.895Z" fill="#F4F8FE"/>
<path d="M458.657 216.271L459.744 216.895L458.657 217.539V216.271Z" fill="#F4F8FE"/>
<path d="M427.32 216.895L428.769 216.069V217.74L427.32 216.895Z" fill="#F4F8FE"/>
<path d="M366.196 215.808L368.088 216.895L366.196 218.002V215.808Z" fill="#F4F8FE"/>
<path d="M334.638 216.895L336.832 215.647V218.163L334.638 216.895Z" fill="#F4F8FE"/>
<path d="M273.615 215.123L276.714 216.895L273.615 218.707V215.123Z" fill="#F4F8FE"/>
<path d="M241.392 216.895L245.196 214.701V219.109L241.392 216.895Z" fill="#F4F8FE"/>
<path d="M180.811 214.036L185.763 216.895L180.811 219.774V214.036Z" fill="#F4F8FE"/>
<path d="M147.744 270.142L153.741 266.68V273.605L147.744 270.142Z" fill="#F4F8FE"/>
<path d="M134.138 292.87L140.86 296.756L134.138 300.641V292.87Z" fill="#F4F8FE"/>
<path d="M100.104 349.983L108.437 345.172V354.794L100.104 349.983Z" fill="#F4F8FE"/>
<path d="M87.3644 371.524L96.1596 376.617L87.3644 381.69V371.524Z" fill="#F4F8FE"/>
<path d="M53.7935 429.844L62.4479 424.851V434.837L53.7935 429.844Z" fill="#F4F8FE"/>
<path d="M41.2547 451.364L50.0902 456.458L41.2547 461.551V451.364Z" fill="#F4F8FE"/>
<path d="M6.63727 509.685L16.8816 503.766V515.603L6.63727 509.685Z" fill="#F4F8FE"/>
<path d="M-5.76062 529.595L5.85234 536.298L-5.76062 543.002V529.595Z" fill="#F4F8FE"/>
<path d="M843.092 190.281H843.112V190.301L843.092 190.281Z" fill="#F4F8FE"/>
<path d="M781.586 190.181L781.767 190.281L781.586 190.402V190.181Z" fill="#F4F8FE"/>
<path d="M504.968 190.04L505.391 190.281L504.968 190.543V190.04Z" fill="#F4F8FE"/>
<path d="M473.852 190.281L474.637 189.838V190.744L473.852 190.281Z" fill="#F4F8FE"/>
<path d="M412.447 189.456L413.896 190.281L412.447 191.127V189.456Z" fill="#F4F8FE"/>
<path d="M381.029 190.281L382.78 189.295V191.288L381.029 190.281Z" fill="#F4F8FE"/>
<path d="M319.946 188.912L322.341 190.281L319.946 191.67V188.912Z" fill="#F4F8FE"/>
<path d="M288.105 190.281L290.963 188.63V191.952L288.105 190.281Z" fill="#F4F8FE"/>
<path d="M227.263 188.047L231.148 190.281L227.263 192.536V188.047Z" fill="#F4F8FE"/>
<path d="M194.94 190.281L199.288 187.785V192.798L194.94 190.281Z" fill="#F4F8FE"/>
<path d="M148.066 216.895L153.58 213.714V220.096L148.066 216.895Z" fill="#F4F8FE"/>
<path d="M134.38 240.066L140.377 243.529L134.38 246.991V240.066Z" fill="#F4F8FE"/>
<path d="M100.869 296.756L108.054 292.609V300.903L100.869 296.756Z" fill="#F4F8FE"/>
<path d="M87.7065 318.88L95.4753 323.369L87.7065 327.859V318.88Z" fill="#F4F8FE"/>
<path d="M54.3168 376.617L62.1862 372.067V381.146L54.3168 376.617Z" fill="#F4F8FE"/>
<path d="M41.6774 398.842L49.265 403.23L41.6774 407.599V398.842Z" fill="#F4F8FE"/>
<path d="M8.69019 456.458L15.8552 452.31V460.584L8.69019 456.458Z" fill="#F4F8FE"/>
<path d="M-4.35181 478.823L3.01448 483.071L-4.35181 487.319V478.823Z" fill="#F4F8FE"/>
<path d="M520.365 163.668L520.526 163.587V163.768L520.365 163.668Z" fill="#F4F8FE"/>
<path d="M458.758 163.225L459.543 163.668L458.758 164.131V163.225Z" fill="#F4F8FE"/>
<path d="M427.562 163.668L428.648 163.064V164.292L427.562 163.668Z" fill="#F4F8FE"/>
<path d="M366.256 162.681L367.987 163.668L366.256 164.674V162.681Z" fill="#F4F8FE"/>
<path d="M334.759 163.668L336.771 162.5V164.835L334.759 163.668Z" fill="#F4F8FE"/>
<path d="M273.695 162.017L276.573 163.668L273.695 165.339V162.017Z" fill="#F4F8FE"/>
<path d="M241.654 163.668L245.055 161.695V165.641L241.654 163.668Z" fill="#F4F8FE"/>
<path d="M181.053 161.212L185.32 163.668L181.053 166.144V161.212Z" fill="#F4F8FE"/>
<path d="M148.69 163.668L153.278 161.03V166.305L148.69 163.668Z" fill="#F4F8FE"/>
<path d="M134.621 187.241L139.894 190.281L134.621 193.341V187.241Z" fill="#F4F8FE"/>
<path d="M101.332 243.529L107.813 239.784V247.253L101.332 243.529Z" fill="#F4F8FE"/>
<path d="M87.9681 266.116L94.9319 270.142L87.9681 274.148V266.116Z" fill="#F4F8FE"/>
<path d="M54.6992 323.369L61.985 319.162V327.577L54.6992 323.369Z" fill="#F4F8FE"/>
<path d="M41.8384 345.896L48.9229 349.983L41.8384 354.07V345.896Z" fill="#F4F8FE"/>
<path d="M9.41467 403.23L15.4928 399.707V406.733L9.41467 403.23Z" fill="#F4F8FE"/>
<path d="M-3.74799 426.623L1.80693 429.844L-3.74799 433.045V426.623Z" fill="#F4F8FE"/>
<path d="M505.028 136.933L505.25 137.054L505.028 137.175V136.933Z" fill="#F4F8FE"/>
<path d="M474.094 137.054L474.517 136.812V137.296L474.094 137.054Z" fill="#F4F8FE"/>
<path d="M412.567 136.43L413.634 137.054L412.567 137.678V136.43Z" fill="#F4F8FE"/>
<path d="M381.19 137.054L382.7 136.188V137.92L381.19 137.054Z" fill="#F4F8FE"/>
<path d="M320.006 135.786L322.2 137.054L320.006 138.322V135.786Z" fill="#F4F8FE"/>
<path d="M288.267 137.054L290.883 135.544V138.564L288.267 137.054Z" fill="#F4F8FE"/>
<path d="M227.444 135.121L230.785 137.054L227.444 138.987V135.121Z" fill="#F4F8FE"/>
<path d="M195.323 137.054L199.086 134.88V139.228L195.323 137.054Z" fill="#F4F8FE"/>
<path d="M134.883 134.477L139.371 137.054L134.883 139.631V134.477Z" fill="#F4F8FE"/>
<path d="M101.835 190.281L107.571 186.98V193.603L101.835 190.281Z" fill="#F4F8FE"/>
<path d="M88.2097 213.311L94.4489 216.895L88.2097 220.498V213.311Z" fill="#F4F8FE"/>
<path d="M55.0816 270.142L61.8038 266.257V274.007L55.0816 270.142Z" fill="#F4F8FE"/>
<path d="M41.9994 292.971L48.5807 296.756L41.9994 300.54V292.971Z" fill="#F4F8FE"/>
<path d="M9.5556 349.983L15.4325 346.601V353.385L9.5556 349.983Z" fill="#F4F8FE"/>
<path d="M-3.64734 373.537L1.64592 376.617L-3.64734 379.657V373.537Z" fill="#F4F8FE"/>
<path d="M520.445 110.44L520.465 110.42V110.44H520.445Z" fill="#F4F8FE"/>
<path d="M458.798 110.078L459.442 110.44L458.798 110.803V110.078Z" fill="#F4F8FE"/>
<path d="M427.723 110.44L428.568 109.937V110.924L427.723 110.44Z" fill="#F4F8FE"/>
<path d="M366.337 109.555L367.846 110.44L366.337 111.306V109.555Z" fill="#F4F8FE"/>
<path d="M334.799 110.44L336.751 109.313V111.568L334.799 110.44Z" fill="#F4F8FE"/>
<path d="M273.775 108.91L276.412 110.44L273.775 111.97V108.91Z" fill="#F4F8FE"/>
<path d="M241.875 110.44L244.954 108.649V112.212L241.875 110.44Z" fill="#F4F8FE"/>
<path d="M181.214 108.266L184.978 110.44L181.214 112.615V108.266Z" fill="#F4F8FE"/>
<path d="M149.052 110.44L153.097 108.105V112.756L149.052 110.44Z" fill="#F4F8FE"/>
<path d="M102.52 137.054L107.229 134.336V139.772L102.52 137.054Z" fill="#F4F8FE"/>
<path d="M88.5317 160.628L93.8049 163.668L88.5317 166.707V160.628Z" fill="#F4F8FE"/>
<path d="M55.4237 216.895L61.6227 213.311V220.478L55.4237 216.895Z" fill="#F4F8FE"/>
<path d="M42.1202 239.925L48.3594 243.529L42.1202 247.132V239.925Z" fill="#F4F8FE"/>
<path d="M9.57568 296.756L15.4325 293.374V300.138L9.57568 296.756Z" fill="#F4F8FE"/>
<path d="M-3.68762 320.249L1.70628 323.369L-3.68762 326.49V320.249Z" fill="#F4F8FE"/>
<path d="M505.028 83.706L505.25 83.8268L505.028 83.9476V83.706Z" fill="#F4F8FE"/>
<path d="M474.094 83.8268L474.517 83.5852V84.0684L474.094 83.8268Z" fill="#F4F8FE"/>
<path d="M412.567 83.2027L413.634 83.8268L412.567 84.4307V83.2027Z" fill="#F4F8FE"/>
<path d="M381.331 83.8268L382.619 83.082V84.5717L381.331 83.8268Z" fill="#F4F8FE"/>
<path d="M320.086 82.6995L322.059 83.8268L320.086 84.9542V82.6995Z" fill="#F4F8FE"/>
<path d="M288.407 83.8268L290.823 82.4176V85.2159L288.407 83.8268Z" fill="#F4F8FE"/>
<path d="M227.525 82.0351L230.624 83.8268L227.525 85.6185V82.0351Z" fill="#F4F8FE"/>
<path d="M195.604 83.8268L198.945 81.8942V85.7594L195.604 83.8268Z" fill="#F4F8FE"/>
<path d="M135.084 81.5922L138.969 83.8268L135.084 86.0614V81.5922Z" fill="#F4F8FE"/>
<path d="M102.922 83.8268L107.028 81.4513V86.1822L102.922 83.8268Z" fill="#F4F8FE"/>
<path d="M88.7934 107.843L93.3017 110.44L88.7934 113.037V107.843Z" fill="#F4F8FE"/>
<path d="M56.0477 163.668L61.3208 160.628V166.728L56.0477 163.668Z" fill="#F4F8FE"/>
<path d="M42.2812 186.96L48.0374 190.281L42.2812 193.603V186.96Z" fill="#F4F8FE"/>
<path d="M9.63611 243.529L15.3923 240.207V246.85L9.63611 243.529Z" fill="#F4F8FE"/>
<path d="M-3.72784 266.961L1.78678 270.142L-3.72784 273.323V266.961Z" fill="#F4F8FE"/>
<path d="M551.178 57.1931L551.218 57.2132H551.178V57.1931Z" fill="#F4F8FE"/>
<path d="M520.324 57.2132L520.546 57.0723V57.334L520.324 57.2132Z" fill="#F4F8FE"/>
<path d="M458.798 56.8307L459.462 57.2132L458.798 57.5957V56.8307Z" fill="#F4F8FE"/>
<path d="M427.562 57.2132L428.648 56.5891V57.8171L427.562 57.2132Z" fill="#F4F8FE"/>
<path d="M366.337 56.3274L367.846 57.2132L366.337 58.0789V56.3274Z" fill="#F4F8FE"/>
<path d="M334.799 57.2132L336.751 56.0657V58.3406L334.799 57.2132Z" fill="#F4F8FE"/>
<path d="M273.816 55.7638L276.311 57.2132L273.816 58.6425V55.7638Z" fill="#F4F8FE"/>
<path d="M242.016 57.2132L244.874 55.5423V58.864L242.016 57.2132Z" fill="#F4F8FE"/>
<path d="M181.335 55.2403L184.736 57.2132L181.335 59.1659V55.2403Z" fill="#F4F8FE"/>
<path d="M149.314 57.2132L152.956 55.0994V59.3069L149.314 57.2132Z" fill="#F4F8FE"/>
<path d="M88.9142 54.8377L93.02 57.2132L88.9142 59.5686V54.8377Z" fill="#F4F8FE"/>
<path d="M56.5106 110.44L61.0994 107.803V113.078L56.5106 110.44Z" fill="#F4F8FE"/>
<path d="M42.5428 134.195L47.4939 137.054L42.5428 139.913V134.195Z" fill="#F4F8FE"/>
<path d="M9.79712 190.281L15.3117 187.1V193.482L9.79712 190.281Z" fill="#F4F8FE"/>
<path d="M-3.72784 213.714L1.78678 216.895L-3.72784 220.096V213.714Z" fill="#F4F8FE"/>
<path d="M566.535 30.5996L566.555 30.5795V30.5996H566.535Z" fill="#F4F8FE"/>
<path d="M504.968 30.3379L505.391 30.5996L504.968 30.8412V30.3379Z" fill="#F4F8FE"/>
<path d="M473.953 30.5996L474.597 30.2171V30.962L473.953 30.5996Z" fill="#F4F8FE"/>
<path d="M412.567 29.9755L413.634 30.5996L412.567 31.2036V29.9755Z" fill="#F4F8FE"/>
<path d="M381.19 30.5996L382.7 29.7138V31.4653L381.19 30.5996Z" fill="#F4F8FE"/>
<path d="M320.026 29.3313L322.18 30.5996L320.026 31.8477V29.3313Z" fill="#F4F8FE"/>
<path d="M288.407 30.5996L290.823 29.1904V31.9887L288.407 30.5996Z" fill="#F4F8FE"/>
<path d="M227.605 28.9287L230.483 30.5996L227.605 32.2504V28.9287Z" fill="#F4F8FE"/>
<path d="M195.725 30.5996L198.885 28.7475V32.4114L195.725 30.5996Z" fill="#F4F8FE"/>
<path d="M135.124 28.3852L138.908 30.5996L135.124 32.7939V28.3852Z" fill="#F4F8FE"/>
<path d="M102.962 30.5996L107.008 28.2644V32.9147L102.962 30.5996Z" fill="#F4F8FE"/>
<path d="M56.7118 57.2132L60.9786 54.7371V59.6692L56.7118 57.2132Z" fill="#F4F8FE"/>
<path d="M42.7039 81.2299L47.2122 83.8268L42.7039 86.4238V81.2299Z" fill="#F4F8FE"/>
<path d="M10.1594 137.054L15.1307 134.175V139.933L10.1594 137.054Z" fill="#F4F8FE"/>
<path d="M-3.6272 160.688L1.56543 163.668L-3.6272 166.667V160.688Z" fill="#F4F8FE"/>
<path d="M551.178 3.94574L551.218 3.96587L551.178 4.00613V3.94574Z" fill="#F4F8FE"/>
<path d="M520.304 3.96587L520.546 3.82495V4.10679L520.304 3.96587Z" fill="#F4F8FE"/>
<path d="M458.717 3.48272L459.583 3.96587L458.717 4.46915V3.48272Z" fill="#F4F8FE"/>
<path d="M427.562 3.96587L428.648 3.3418V4.58994L427.562 3.96587Z" fill="#F4F8FE"/>
<path d="M366.256 2.9593L367.987 3.96587L366.256 4.97244V2.9593Z" fill="#F4F8FE"/>
<path d="M334.799 3.96587L336.751 2.83852V5.11336L334.799 3.96587Z" fill="#F4F8FE"/>
<path d="M273.836 2.57681L276.271 3.96587L273.836 5.37506V2.57681Z" fill="#F4F8FE"/>
<path d="M242.016 3.96587L244.874 2.3151V5.63677L242.016 3.96587Z" fill="#F4F8FE"/>
<path d="M181.355 2.05339L184.696 3.96587L181.355 5.89848V2.05339Z" fill="#F4F8FE"/>
<path d="M149.374 3.96587L152.936 1.91248V6.0394L149.374 3.96587Z" fill="#F4F8FE"/>
<path d="M88.9343 1.63064L92.9797 3.96587L88.9343 6.3011V1.63064Z" fill="#F4F8FE"/>
<path d="M56.7118 3.96587L60.9786 1.50985V6.44202L56.7118 3.96587Z" fill="#F4F8FE"/>
<path d="M42.7039 27.9825L47.2122 30.5996L42.7039 33.1965V27.9825Z" fill="#F4F8FE"/>
<path d="M10.3204 83.8268L15.0502 81.089V86.5647L10.3204 83.8268Z" fill="#F4F8FE"/>
<path d="M-3.48633 107.662L1.32389 110.44L-3.48633 113.219V107.662Z" fill="#F4F8FE"/>
<path d="M10.3204 30.5996L15.0502 27.8416V33.3173L10.3204 30.5996Z" fill="#F4F8FE"/>
<path d="M-3.46619 54.4754L1.26354 57.2132L-3.46619 59.9309V54.4754Z" fill="#F4F8FE"/>
<path d="M-3.48633 1.18775L1.32389 3.96587L-3.48633 6.74399V1.18775Z" fill="#F4F8FE"/>
</svg>
