<svg width="1166" height="744" viewBox="0 0 1166 744" fill="none" xmlns="http://www.w3.org/2000/svg">
<path d="M841.844 6.63069L842.95 7.2749V5.98647L841.844 6.63069Z" fill="white"/>
<path d="M780.236 8.18066L782.913 6.63057L780.236 5.08042V8.18066Z" fill="white"/>
<path d="M826.165 35.0962L829.345 33.2441L826.165 31.4122V35.0962Z" fill="white"/>
<path d="M793.721 33.2442L797.887 35.6599V30.8486L793.721 33.2442Z" fill="white"/>
<path d="M748.054 6.63071L751.576 8.68408V4.59743L748.054 6.63071Z" fill="white"/>
<path d="M873.201 6.83203L873.543 6.63071L873.201 6.44953V6.83203Z" fill="white"/>
<path d="M872.234 61.7502L875.495 59.8579L872.234 57.9856V61.7502Z" fill="white"/>
<path d="M839.448 59.8579L844.158 62.5957V57.1401L839.448 59.8579Z" fill="white"/>
<path d="M778.727 64.0452L785.952 59.8579L778.727 55.6907V64.0452Z" fill="white"/>
<path d="M744.733 59.8579L753.247 64.79V54.9459L744.733 59.8579Z" fill="white"/>
<path d="M732.879 36.9888L739.36 33.2444L732.879 29.5201V36.9888Z" fill="white"/>
<path d="M888.034 33.2442L889 33.8079V32.6805L888.034 33.2442Z" fill="white"/>
<path d="M885.9 86.4914L890.066 88.9072V84.0757L885.9 86.4914Z" fill="white"/>
<path d="M824.615 91.021L832.465 86.4914L824.615 81.9418V91.021Z" fill="white"/>
<path d="M790.159 86.4916L799.679 91.9673V80.9958L790.159 86.4916Z" fill="white"/>
<path d="M730.947 93.5779L743.244 86.4916L730.947 79.3853V93.5779Z" fill="white"/>
<path d="M699.046 33.2442L706.956 37.814V28.6743L699.046 33.2442Z" fill="white"/>
<path d="M686.789 10.395L693.29 6.63047L686.789 2.88601V10.395Z" fill="white"/>
<path d="M919.391 33.2644L919.411 33.2443H919.391V33.2644Z" fill="white"/>
<path d="M871.007 117.111L877.95 113.105L871.007 109.099V117.111Z" fill="white"/>
<path d="M836.47 113.105L845.647 118.4V107.79L836.47 113.105Z" fill="white"/>
<path d="M776.875 120.493L789.676 113.105L776.875 105.697V120.493Z" fill="white"/>
<path d="M740.99 113.105L755.119 121.258V104.932L740.99 113.105Z" fill="white"/>
<path d="M695.082 86.4915L708.929 94.4836V78.4793L695.082 86.4915Z" fill="white"/>
<path d="M685.059 66.6218L696.752 59.8577L685.059 53.1137V66.6218Z" fill="white"/>
<path d="M652.454 6.63063L661.108 11.6433V1.61789L652.454 6.63063Z" fill="white"/>
<path d="M934.345 59.8577L934.989 60.2402V59.4953L934.345 59.8577Z" fill="white"/>
<path d="M918.565 87.9409L921.081 86.4915L918.565 85.0219V87.9409Z" fill="white"/>
<path d="M917.579 142.879L923.054 139.719L917.579 136.558V142.879Z" fill="white"/>
<path d="M883.727 139.719L891.153 144.007V135.431L883.727 139.719Z" fill="white"/>
<path d="M823.166 146.745L835.343 139.719L823.166 132.693V146.745Z" fill="white"/>
<path d="M787.1 139.719L801.208 147.872V131.566L787.1 139.719Z" fill="white"/>
<path d="M729.377 149.543L746.384 139.719L729.377 129.895V149.543Z" fill="white"/>
<path d="M692.203 139.719L710.378 150.227V129.21L692.203 139.719Z" fill="white"/>
<path d="M683.328 122.849L700.214 113.105L683.328 103.362V122.849Z" fill="white"/>
<path d="M649.113 59.8579L662.799 67.7695V51.9664L649.113 59.8579Z" fill="white"/>
<path d="M638.748 40.3706L651.085 33.2442L638.748 26.1177V40.3706Z" fill="white"/>
<path d="M932.634 113.105L935.834 114.957V111.253L932.634 113.105Z" fill="white"/>
<path d="M930.903 166.333L936.699 169.674V162.991L930.903 166.333Z" fill="white"/>
<path d="M869.86 172.311L880.225 166.332L869.86 160.353V172.311Z" fill="white"/>
<path d="M834.075 166.332L846.855 173.7V158.964L834.075 166.332Z" fill="white"/>
<path d="M775.587 175.955L792.232 166.332L775.587 156.73V175.955Z" fill="white"/>
<path d="M738.373 166.332L756.427 176.76V155.904L738.373 166.332Z" fill="white"/>
<path d="M682.341 177.807L702.206 166.332L682.341 154.857V177.807Z" fill="white"/>
<path d="M645.993 113.105L664.348 123.694V102.516L645.993 113.105Z" fill="white"/>
<path d="M637.077 96.5168L654.446 86.4914L637.077 76.4459V96.5168Z" fill="white"/>
<path d="M601.876 33.2443L617.273 42.1423V24.3664L601.876 33.2443Z" fill="white"/>
<path d="M591.793 15.2468L606.726 6.63062L591.793 -1.98558V15.2468Z" fill="white"/>
<path d="M964.977 114.011L966.547 113.105L964.977 112.199V114.011Z" fill="white"/>
<path d="M916.714 197.616L924.785 192.946L916.714 188.296V197.616Z" fill="white"/>
<path d="M881.815 192.946L892.119 198.905V187.007L881.815 192.946Z" fill="white"/>
<path d="M822.18 201.683L837.295 192.946L822.18 184.229V201.683Z" fill="white"/>
<path d="M785.127 192.946L802.174 202.81V183.102L785.127 192.946Z" fill="white"/>
<path d="M728.532 204.24L748.095 192.946L728.532 181.652V204.24Z" fill="white"/>
<path d="M690.835 192.946L711.062 204.642V181.27L690.835 192.946Z" fill="white"/>
<path d="M644.303 166.332L665.194 178.391V154.274L644.303 166.332Z" fill="white"/>
<path d="M636.031 151.556L656.539 139.719L636.031 127.881V151.556Z" fill="white"/>
<path d="M599.078 86.4916L618.661 97.8054V75.1778L599.078 86.4916Z" fill="white"/>
<path d="M590.404 70.9099L609.524 59.8578L590.404 48.8259V70.9099Z" fill="white"/>
<path d="M553.492 6.63056L572.33 17.5015V-4.24034L553.492 6.63056Z" fill="white"/>
<path d="M979.549 139.719L981.521 140.846V138.591L979.549 139.719Z" fill="white"/>
<path d="M964.172 168.647L968.157 166.332L964.172 164.017V168.647Z" fill="white"/>
<path d="M963.448 223.103L969.586 219.56L963.448 216.037V223.103Z" fill="white"/>
<path d="M929.313 219.56L937.505 224.291V214.829L929.313 219.56Z" fill="white"/>
<path d="M869.095 226.867L881.754 219.56L869.095 212.272V226.867Z" fill="white"/>
<path d="M832.565 219.56L847.6 228.256V210.883L832.565 219.56Z" fill="white"/>
<path d="M775.004 230.189L793.399 219.56L775.004 208.95V230.189Z" fill="white"/>
<path d="M737.327 219.56L756.95 230.894V208.246L737.327 219.56Z" fill="white"/>
<path d="M682.02 231.598L702.83 219.56L682.02 207.541V231.598Z" fill="white"/>
<path d="M644.101 219.559L665.294 231.799V207.34L644.101 219.559Z" fill="white"/>
<path d="M635.688 205.407L657.244 192.946L635.688 180.505V205.407Z" fill="white"/>
<path d="M597.649 139.719L619.386 152.26V127.177L597.649 139.719Z" fill="white"/>
<path d="M589.518 125.687L611.295 113.105L589.518 100.523V125.687Z" fill="white"/>
<path d="M551.117 59.8578L573.518 72.8022V46.9335L551.117 59.8578Z" fill="white"/>
<path d="M543.087 46.3899L565.87 33.2441L543.087 20.0984V46.3899Z" fill="white"/>
<path d="M1011.33 140.162L1012.09 139.719L1011.33 139.296V140.162Z" fill="white"/>
<path d="M978.12 192.946L982.246 195.342V190.57L978.12 192.946Z" fill="white"/>
<path d="M976.711 246.193L982.93 249.777V242.59L976.711 246.193Z" fill="white"/>
<path d="M915.969 252.152L926.294 246.193L915.969 240.214V252.152Z" fill="white"/>
<path d="M880.446 246.193L892.804 253.32V239.047L880.446 246.193Z" fill="white"/>
<path d="M821.697 255.776L838.301 246.193L821.697 236.591V255.776Z" fill="white"/>
<path d="M784.282 246.193L802.597 256.762V235.604L784.282 246.193Z" fill="white"/>
<path d="M728.31 257.849L748.497 246.193L728.31 234.537V257.849Z" fill="white"/>
<path d="M690.634 246.193L711.163 258.051V234.316L690.634 246.193Z" fill="white"/>
<path d="M635.89 258.272L656.821 246.193L635.89 234.094V258.272Z" fill="white"/>
<path d="M597.448 192.946L619.487 205.669V180.243L597.448 192.946Z" fill="white"/>
<path d="M589.257 179.357L611.818 166.332L589.257 153.307V179.357Z" fill="white"/>
<path d="M550.171 113.105L573.981 126.855V99.3354L550.171 113.105Z" fill="white"/>
<path d="M542.423 100.785L567.198 86.4914L542.423 72.1781V100.785Z" fill="white"/>
<path d="M502.532 33.2442L528.676 48.3628V18.1457L502.532 33.2442Z" fill="white"/>
<path d="M495.729 21.9907L522.316 6.63052L495.729 -8.72969V21.9907Z" fill="white"/>
<path d="M1026.12 166.332L1027.37 167.057V165.608L1026.12 166.332Z" fill="white"/>
<path d="M1010.68 194.536L1013.42 192.946L1010.68 191.376V194.536Z" fill="white"/>
<path d="M962.743 277.598L971.035 272.807L962.743 268.016V277.598Z" fill="white"/>
<path d="M927.864 272.807L938.229 278.786V266.828L927.864 272.807Z" fill="white"/>
<path d="M868.551 281.061L882.841 272.807L868.551 264.553V281.061Z" fill="white"/>
<path d="M831.72 272.807L848.022 282.208V263.406L831.72 272.807Z" fill="white"/>
<path d="M774.923 283.577L793.58 272.807L774.923 262.016V283.577Z" fill="white"/>
<path d="M737.428 272.807L756.89 284.04V261.554L737.428 272.807Z" fill="white"/>
<path d="M682.422 284.101L702.005 272.807L682.422 261.513V284.101Z" fill="white"/>
<path d="M645.289 272.807L664.691 284.02V261.594L645.289 272.807Z" fill="white"/>
<path d="M598.354 246.193L619.024 258.111V234.256L598.354 246.193Z" fill="white"/>
<path d="M589.559 232.061L611.195 219.56L589.559 207.078V232.061Z" fill="white"/>
<path d="M550.413 166.332L573.86 179.881V152.784L550.413 166.332Z" fill="white"/>
<path d="M542.523 153.871L567.017 139.719L542.523 125.566V153.871Z" fill="white"/>
<path d="M501.687 86.4917L529.099 102.315V70.6484L501.687 86.4917Z" fill="white"/>
<path d="M495.085 76.3455L523.624 59.8579L495.085 43.3904V76.3455Z" fill="white"/>
<path d="M454.027 6.63059L483.774 23.8228V-10.5414L454.027 6.63059Z" fill="white"/>
<path d="M1057.54 166.574L1057.96 166.332L1057.54 166.091V166.574Z" fill="white"/>
<path d="M1024.91 219.559L1027.97 221.331V217.808L1024.91 219.559Z" fill="white"/>
<path d="M1010.02 248.891L1014.71 246.193L1010.02 243.476V248.891Z" fill="white"/>
<path d="M1009.42 303.165L1015.92 299.421L1009.42 295.656V303.165Z" fill="white"/>
<path d="M975.423 299.421L983.574 304.131V294.71L975.423 299.421Z" fill="white"/>
<path d="M915.466 306.245L927.3 299.421L915.466 292.596V306.245Z" fill="white"/>
<path d="M879.681 299.421L893.186 307.211V291.63L879.681 299.421Z" fill="white"/>
<path d="M821.717 308.983L838.261 299.421L821.717 289.858V308.983Z" fill="white"/>
<path d="M784.866 299.42L802.315 309.486V289.355L784.866 299.42Z" fill="white"/>
<path d="M729.035 309.849L747.088 299.421L729.035 288.993V309.849Z" fill="white"/>
<path d="M692.425 299.421L710.257 309.728V289.113L692.425 299.421Z" fill="white"/>
<path d="M637.117 309.365L654.346 299.421L637.117 289.476V309.365Z" fill="white"/>
<path d="M601.071 299.42L617.675 309.003V289.838L601.071 299.42Z" fill="white"/>
<path d="M590.545 283.577L609.222 272.807L590.545 262.016V283.577Z" fill="white"/>
<path d="M551.439 219.56L573.357 232.222V206.917L551.439 219.56Z" fill="white"/>
<path d="M543.006 206.253L566.031 192.946L543.006 179.659V206.253Z" fill="white"/>
<path d="M502.653 139.719L528.616 154.717V124.721L502.653 139.719Z" fill="white"/>
<path d="M495.347 129.13L523.101 113.105L495.347 97.0805V129.13Z" fill="white"/>
<path d="M453.202 59.8578L484.197 77.7747V41.961L453.202 59.8578Z" fill="white"/>
<path d="M447.768 51.8657L479.99 33.2443L447.768 14.6429V51.8657Z" fill="white"/>
<path d="M1072.47 192.946L1073.32 193.429V192.463L1072.47 192.946Z" fill="white"/>
<path d="M1057.04 220.687L1058.97 219.56L1057.04 218.452V220.687Z" fill="white"/>
<path d="M1023.57 272.807L1028.64 275.726V269.868L1023.57 272.807Z" fill="white"/>
<path d="M1022.72 326.034L1029.08 329.698V322.37L1022.72 326.034Z" fill="white"/>
<path d="M962.381 331.429L971.719 326.034L962.381 320.639V331.429Z" fill="white"/>
<path d="M927.482 326.034L938.41 332.355V319.713L927.482 326.034Z" fill="white"/>
<path d="M868.753 333.926L882.439 326.034L868.753 318.143V333.926Z" fill="white"/>
<path d="M832.726 326.034L847.519 334.57V317.498L832.726 326.034Z" fill="white"/>
<path d="M775.929 335.073L791.568 326.034L775.929 316.995V335.073Z" fill="white"/>
<path d="M739.782 326.034L755.723 335.234V316.834L739.782 326.034Z" fill="white"/>
<path d="M683.911 334.771L699.046 326.034L683.911 317.297V334.771Z" fill="white"/>
<path d="M648.288 326.034L663.201 334.65V317.438L648.288 326.034Z" fill="white"/>
<path d="M592.215 333.926L605.881 326.034L592.215 318.143V333.926Z" fill="white"/>
<path d="M553.895 272.807L572.129 283.336V262.278L553.895 272.807Z" fill="white"/>
<path d="M543.852 258.031L564.36 246.193L543.852 234.336V258.031Z" fill="white"/>
<path d="M504.303 192.946L527.791 206.515V179.378L504.303 192.946Z" fill="white"/>
<path d="M496.192 180.887L521.39 166.332L496.192 151.777V180.887Z" fill="white"/>
<path d="M454.329 113.105L483.633 130.036V96.1748L454.329 113.105Z" fill="white"/>
<path d="M448.05 104.59L479.407 86.4915L448.05 68.3935V104.59Z" fill="white"/>
<path d="M404.939 33.2441L439.194 53.0332V13.4752L404.939 33.2441Z" fill="white"/>
<path d="M400.873 26.6411L435.511 6.63058L400.873 -13.3598V26.6411Z" fill="white"/>
<path d="M1103.63 193.188L1104.03 192.946L1103.63 192.704V193.188Z" fill="white"/>
<path d="M1071.51 246.193L1073.8 247.522V244.844L1071.51 246.193Z" fill="white"/>
<path d="M1056.45 274.941L1060.13 272.807L1056.45 270.673V274.941Z" fill="white"/>
<path d="M1009.17 356.815L1016.4 352.648L1009.17 348.481V356.815Z" fill="white"/>
<path d="M975.262 352.648L983.654 357.5V347.796L975.262 352.648Z" fill="white"/>
<path d="M915.768 358.969L926.697 352.648L915.768 346.327V358.969Z" fill="white"/>
<path d="M880.748 352.648L892.643 359.533V345.783L880.748 352.648Z" fill="white"/>
<path d="M822.764 360.398L836.148 352.648L822.764 344.917V360.398Z" fill="white"/>
<path d="M787.422 352.648L801.047 360.519V344.796L787.422 352.648Z" fill="white"/>
<path d="M730.585 360.398L743.989 352.648L730.585 344.917V360.398Z" fill="white"/>
<path d="M695.685 352.648L708.627 360.136V345.179L695.685 352.648Z" fill="white"/>
<path d="M638.848 359.613L650.904 352.648L638.848 345.682V359.613Z" fill="white"/>
<path d="M604.553 352.648L615.924 359.231V346.085L604.553 352.648Z" fill="white"/>
<path d="M557.135 326.034L570.519 333.765V318.304L557.135 326.034Z" fill="white"/>
<path d="M545.421 308.52L561.2 299.42L545.421 290.321V308.52Z" fill="white"/>
<path d="M506.376 246.193L526.764 257.95V234.416L506.376 246.193Z" fill="white"/>
<path d="M497.178 232.403L519.418 219.56L497.178 206.736V232.403Z" fill="white"/>
<path d="M456.603 166.332L482.506 181.29V151.375L456.603 166.332Z" fill="white"/>
<path d="M449.157 155.925L477.213 139.719L449.157 123.513V155.925Z" fill="white"/>
<path d="M406.167 86.4916L438.59 105.194V67.7695L406.167 86.4916Z" fill="white"/>
<path d="M400.994 79.647L435.249 59.8579L400.994 40.0889V79.647Z" fill="white"/>
<path d="M357.903 6.63055L393.567 27.2249V-13.9638L357.903 6.63055Z" fill="white"/>
<path d="M354.341 0.772461L390.267 -19.9829L354.341 -40.7383V0.772461Z" fill="white"/>
<path d="M1118.64 219.56L1119.39 220.002V219.137L1118.64 219.56Z" fill="white"/>
<path d="M1103.27 247.039L1104.78 246.193L1103.27 245.328V247.039Z" fill="white"/>
<path d="M1070.54 299.421L1074.28 301.595V297.246L1070.54 299.421Z" fill="white"/>
<path d="M1056.03 328.893L1060.98 326.034L1056.03 323.176V328.893Z" fill="white"/>
<path d="M1055.91 382.341L1061.24 379.261L1055.91 376.181V382.341Z" fill="white"/>
<path d="M1022.72 379.261L1029.08 382.945V375.597L1022.72 379.261Z" fill="white"/>
<path d="M962.703 384.113L971.096 379.261L962.703 374.43V384.113Z" fill="white"/>
<path d="M928.528 379.261L937.887 384.677V373.866L928.528 379.261Z" fill="white"/>
<path d="M869.719 385.482L880.506 379.261L869.719 373.041V385.482Z" fill="white"/>
<path d="M835.141 379.261L846.312 385.724V372.819L835.141 379.261Z" fill="white"/>
<path d="M777.379 385.764L788.649 379.261L777.379 372.779V385.764Z" fill="white"/>
<path d="M743.063 379.261L754.092 385.643V372.9L743.063 379.261Z" fill="white"/>
<path d="M685.521 385.22L695.826 379.261L685.521 373.323V385.22Z" fill="white"/>
<path d="M651.689 379.261L661.491 384.938V373.605L651.689 379.261Z" fill="white"/>
<path d="M593.785 384.435L602.741 379.261L593.785 374.088V384.435Z" fill="white"/>
<path d="M560.053 379.261L569.05 384.455V374.068L560.053 379.261Z" fill="white"/>
<path d="M546.991 359.05L558.081 352.648L546.991 346.246V359.05Z" fill="white"/>
<path d="M509.596 299.421L525.134 308.399V290.442L509.596 299.421Z" fill="white"/>
<path d="M498.647 283.114L516.5 272.807L498.647 262.48V283.114Z" fill="white"/>
<path d="M458.898 219.56L481.339 232.524V206.615L458.898 219.56Z" fill="white"/>
<path d="M450.445 206.897L474.596 192.946L450.445 178.995V206.897Z" fill="white"/>
<path d="M408.803 139.719L437.262 156.166V123.271L408.803 139.719Z" fill="white"/>
<path d="M402.182 130.821L432.874 113.105L402.182 95.3897V130.821Z" fill="white"/>
<path d="M358.608 59.8579L393.225 79.8684V39.8674L358.608 59.8579Z" fill="white"/>
<path d="M354.401 53.8989L390.166 33.2442L354.401 12.6096V53.8989Z" fill="white"/>
<path d="M311.633 -19.9829L347.578 0.772461V-40.7383L311.633 -19.9829Z" fill="white"/>
<path d="M1165.22 192.946L1165.24 192.966V192.946H1165.22Z" fill="white"/>
<path d="M1149.72 219.801L1150.14 219.56L1149.72 219.338V219.801Z" fill="white"/>
<path d="M1117.9 272.807L1119.75 273.874V271.74L1117.9 272.807Z" fill="white"/>
<path d="M1102.84 301.011L1105.6 299.421L1102.84 297.81V301.011Z" fill="white"/>
<path d="M1069.96 352.648L1074.59 355.325V349.99L1069.96 352.648Z" fill="white"/>
<path d="M1069.9 405.875L1074.63 408.613V403.157L1069.9 405.875Z" fill="white"/>
<path d="M1009.48 409.559L1015.82 405.875L1009.48 402.211V409.559Z" fill="white"/>
<path d="M976.167 405.875L983.212 409.962V401.808L976.167 405.875Z" fill="white"/>
<path d="M916.593 410.767L925.046 405.875L916.593 401.003V410.767Z" fill="white"/>
<path d="M882.72 405.875L891.656 411.029V400.741L882.72 405.875Z" fill="white"/>
<path d="M824.072 411.351L833.531 405.875L824.072 400.419V411.351Z" fill="white"/>
<path d="M790.32 405.875L799.598 411.25V400.52L790.32 405.875Z" fill="white"/>
<path d="M732.074 411.049L741.01 405.875L732.074 400.721V411.049Z" fill="white"/>
<path d="M698.644 405.875L707.157 410.807V400.963L698.644 405.875Z" fill="white"/>
<path d="M640.277 410.364L648.026 405.875L640.277 401.406V410.364Z" fill="white"/>
<path d="M607.29 405.875L614.556 410.083V401.688L607.29 405.875Z" fill="white"/>
<path d="M548.199 410.203L555.666 405.875L548.199 401.567V410.203Z" fill="white"/>
<path d="M512.595 352.648L523.645 359.029V346.266L512.595 352.648Z" fill="white"/>
<path d="M500.177 333.704L513.44 326.034L500.177 318.384V333.704Z" fill="white"/>
<path d="M462.078 272.807L479.769 283.013V262.6L462.078 272.807Z" fill="white"/>
<path d="M451.773 257.829L471.96 246.193L451.773 234.537V257.829Z" fill="white"/>
<path d="M411.903 192.946L435.712 206.716V179.196L411.903 192.946Z" fill="white"/>
<path d="M403.872 181.129L429.493 166.332L403.872 151.536V181.129Z" fill="white"/>
<path d="M361.425 113.105L391.816 130.64V95.5507L361.425 113.105Z" fill="white"/>
<path d="M355.468 105.314L388.053 86.4917L355.468 67.6689V105.314Z" fill="white"/>
<path d="M311.935 33.2441L347.417 53.7378V12.7505L311.935 33.2441Z" fill="white"/>
<path d="M308.372 27.1846L343.936 6.63051L308.372 -13.9035V27.1846Z" fill="white"/>
<path d="M1164.73 246.193L1165.48 246.616V245.751L1164.73 246.193Z" fill="white"/>
<path d="M1149.44 273.532L1150.7 272.807L1149.44 272.062V273.532Z" fill="white"/>
<path d="M1117.23 326.034L1120.09 327.685V324.383L1117.23 326.034Z" fill="white"/>
<path d="M1102.58 354.701L1106.14 352.648L1102.58 350.594V354.701Z" fill="white"/>
<path d="M1056.05 435.307L1060.92 432.509L1056.05 429.69V435.307Z" fill="white"/>
<path d="M1023.34 432.509L1028.76 435.629V429.388L1023.34 432.509Z" fill="white"/>
<path d="M963.387 436.152L969.707 432.509L963.387 428.845V436.152Z" fill="white"/>
<path d="M930.239 432.509L937.042 436.434V428.583L930.239 432.509Z" fill="white"/>
<path d="M870.846 436.777L878.252 432.509L870.846 428.221V436.777Z" fill="white"/>
<path d="M837.617 432.509L845.084 436.817V428.181L837.617 432.509Z" fill="white"/>
<path d="M778.687 436.756L786.053 432.509L778.687 428.241V436.756Z" fill="white"/>
<path d="M745.659 432.509L752.784 436.615V428.382L745.659 432.509Z" fill="white"/>
<path d="M686.749 436.334L693.391 432.509L686.749 428.664V436.334Z" fill="white"/>
<path d="M654.104 432.509L660.283 436.072V428.925L654.104 432.509Z" fill="white"/>
<path d="M594.872 435.81L600.588 432.509L594.872 429.207V435.81Z" fill="white"/>
<path d="M562.167 432.509L567.983 435.871V429.127L562.167 432.509Z" fill="white"/>
<path d="M514.749 405.875L522.558 410.405V401.366L514.749 405.875Z" fill="white"/>
<path d="M501.505 384.636L510.784 379.261L501.505 373.906V384.636Z" fill="white"/>
<path d="M465.077 326.034L478.259 333.664V318.424L465.077 326.034Z" fill="white"/>
<path d="M453.464 308.137L468.579 299.421L453.464 290.704V308.137Z" fill="white"/>
<path d="M414.801 246.193L434.263 257.427V234.94L414.801 246.193Z" fill="white"/>
<path d="M405.341 231.84L426.575 219.56L405.341 207.3V231.84Z" fill="white"/>
<path d="M365.149 166.332L389.965 180.666V152.019L365.149 166.332Z" fill="white"/>
<path d="M357.239 155.461L384.49 139.719L357.239 123.976V155.461Z" fill="white"/>
<path d="M314.309 86.4916L346.23 104.932V68.0513L314.309 86.4916Z" fill="white"/>
<path d="M308.996 79.345L342.708 59.8579L308.996 40.3909V79.345Z" fill="white"/>
<path d="M266.509 6.63055L301.006 26.5605V-13.2794L266.509 6.63055Z" fill="white"/>
<path d="M1164.23 299.42L1165.72 300.286V298.555L1164.23 299.42Z" fill="white"/>
<path d="M1149.15 327.242L1151.27 326.034L1149.15 324.826V327.242Z" fill="white"/>
<path d="M1116.91 379.261L1120.23 381.194V377.349L1116.91 379.261Z" fill="white"/>
<path d="M1102.5 408.069L1106.28 405.875L1102.5 403.701V408.069Z" fill="white"/>
<path d="M1102.66 461.035L1105.98 459.122L1102.66 457.21V461.035Z" fill="white"/>
<path d="M1070.36 459.122L1074.38 461.438V456.807L1070.36 459.122Z" fill="white"/>
<path d="M1010.02 461.84L1014.71 459.122L1010.02 456.405V461.84Z" fill="white"/>
<path d="M977.576 459.122L982.507 461.961V456.284L977.576 459.122Z" fill="white"/>
<path d="M917.62 462.223L922.993 459.122L917.62 456.022V462.223Z" fill="white"/>
<path d="M884.954 459.122L890.549 462.343V455.901L884.954 459.122Z" fill="white"/>
<path d="M825.36 462.343L830.955 459.122L825.36 455.901V462.343Z" fill="white"/>
<path d="M792.795 459.122L798.35 462.343V455.901L792.795 459.122Z" fill="white"/>
<path d="M733.282 462.202L738.595 459.122L733.282 456.042V462.202Z" fill="white"/>
<path d="M700.838 459.122L706.05 462.142V456.103L700.838 459.122Z" fill="white"/>
<path d="M641.324 461.8L645.953 459.122L641.324 456.445V461.8Z" fill="white"/>
<path d="M609.202 459.122L613.61 461.659V456.566L609.202 459.122Z" fill="white"/>
<path d="M549.044 461.961L553.955 459.122L549.044 456.284V461.961Z" fill="white"/>
<path d="M516.319 459.122L521.773 462.263V455.962L516.319 459.122Z" fill="white"/>
<path d="M502.29 436.475L509.174 432.509L502.29 428.523V436.475Z" fill="white"/>
<path d="M467.472 379.261L477.072 384.818V373.725L467.472 379.261Z" fill="white"/>
<path d="M454.772 359.11L465.962 352.648L454.772 346.206V359.11Z" fill="white"/>
<path d="M418.061 299.421L432.633 307.835V291.006L418.061 299.421Z" fill="white"/>
<path d="M406.972 282.229L423.294 272.807L406.972 263.386V282.229Z" fill="white"/>
<path d="M368.188 219.56L388.435 231.256V207.883L368.188 219.56Z" fill="white"/>
<path d="M359.071 205.528L380.847 192.946L359.071 180.364V205.528Z" fill="white"/>
<path d="M318.113 139.719L344.338 154.878V124.56L318.113 139.719Z" fill="white"/>
<path d="M310.667 129.673L339.367 113.105L310.667 96.5372V129.673Z" fill="white"/>
<path d="M267.777 59.8578L300.382 78.7007V41.035L267.777 59.8578Z" fill="white"/>
<path d="M262.987 52.5903L296.457 33.2442L262.987 13.9181V52.5903Z" fill="white"/>
<path d="M1163.83 352.648L1165.92 353.856V351.46L1163.83 352.648Z" fill="white"/>
<path d="M1149.01 380.751L1151.57 379.261L1149.01 377.792V380.751Z" fill="white"/>
<path d="M1116.91 432.509L1120.23 434.421V430.576L1116.91 432.509Z" fill="white"/>
<path d="M1117.37 485.736L1120.01 487.246V484.226L1117.37 485.736Z" fill="white"/>
<path d="M1056.57 487.648L1059.89 485.736L1056.57 483.823V487.648Z" fill="white"/>
<path d="M1024.59 485.736L1028.13 487.769V483.703L1024.59 485.736Z" fill="white"/>
<path d="M964.313 487.769L967.855 485.736L964.313 483.703V487.769Z" fill="white"/>
<path d="M932.332 485.736L935.995 487.85V483.622L932.332 485.736Z" fill="white"/>
<path d="M872.073 487.89L875.797 485.736L872.073 483.582V487.89Z" fill="white"/>
<path d="M840.113 485.736L843.816 487.87V483.602L840.113 485.736Z" fill="white"/>
<path d="M779.894 487.87L783.618 485.736L779.894 483.602V487.87Z" fill="white"/>
<path d="M748.095 485.736L751.556 487.749V483.723L748.095 485.736Z" fill="white"/>
<path d="M687.796 487.749L691.278 485.736L687.796 483.723V487.749Z" fill="white"/>
<path d="M656.077 485.736L659.297 487.608V483.864L656.077 485.736Z" fill="white"/>
<path d="M595.697 487.608L598.938 485.736L595.697 483.864V487.608Z" fill="white"/>
<path d="M563.676 485.736L567.238 487.789V483.683L563.676 485.736Z" fill="white"/>
<path d="M502.975 488.534L507.825 485.736L502.975 482.938V488.534Z" fill="white"/>
<path d="M469.062 432.509L476.267 436.676V428.341L469.062 432.509Z" fill="white"/>
<path d="M455.617 410.867L464.272 405.875L455.617 400.902V410.867Z" fill="white"/>
<path d="M420.436 352.648L431.445 359.009V346.306L420.436 352.648Z" fill="white"/>
<path d="M408.3 333.161L420.637 326.034L408.3 318.908V333.161Z" fill="white"/>
<path d="M371.529 272.807L386.765 281.604V263.989L371.529 272.807Z" fill="white"/>
<path d="M360.62 256.058L377.728 246.193L360.62 236.309V256.058Z" fill="white"/>
<path d="M322.058 192.946L342.366 204.683V181.23L322.058 192.946Z" fill="white"/>
<path d="M312.8 179.237L335.12 166.332L312.8 153.448V179.237Z" fill="white"/>
<path d="M271.259 113.105L298.631 128.908V97.3021L271.259 113.105Z" fill="white"/>
<path d="M264.255 103.603L293.901 86.4916L264.255 69.3599V103.603Z" fill="white"/>
<path d="M221.929 33.2443L254.152 51.8657V14.6429L221.929 33.2443Z" fill="white"/>
<path d="M217.3 25.2722L249.563 6.63066L217.3 -11.9908V25.2722Z" fill="white"/>
<path d="M1163.69 405.875L1166 407.224V404.566L1163.69 405.875Z" fill="white"/>
<path d="M1148.99 434.019L1151.61 432.509L1148.99 430.979V434.019Z" fill="white"/>
<path d="M1103.04 513.598L1105.22 512.35L1103.04 511.101V513.598Z" fill="white"/>
<path d="M1071.45 512.349L1073.84 513.739V510.96L1071.45 512.349Z" fill="white"/>
<path d="M1010.78 513.739L1013.2 512.349L1010.78 510.96V513.739Z" fill="white"/>
<path d="M979.287 512.35L981.662 513.719V510.981L979.287 512.35Z" fill="white"/>
<path d="M918.686 513.598L920.84 512.35L918.686 511.122V513.598Z" fill="white"/>
<path d="M887.249 512.35L889.402 513.598V511.122L887.249 512.35Z" fill="white"/>
<path d="M826.527 513.578L828.641 512.35L826.527 511.122V513.578Z" fill="white"/>
<path d="M795.09 512.35L797.203 513.578V511.122L795.09 512.35Z" fill="white"/>
<path d="M734.268 513.698L736.602 512.349L734.268 511.021V513.698Z" fill="white"/>
<path d="M702.75 512.349L705.104 513.698V511.001L702.75 512.349Z" fill="white"/>
<path d="M642.089 513.698L644.423 512.349L642.089 511.001V513.698Z" fill="white"/>
<path d="M610.53 512.349L612.945 513.739V510.96L610.53 512.349Z" fill="white"/>
<path d="M549.567 514.282L552.908 512.35L549.567 510.437V514.282Z" fill="white"/>
<path d="M517.264 512.35L521.31 514.685V510.014L517.264 512.35Z" fill="white"/>
<path d="M470.189 485.736L475.703 488.917V482.555L470.189 485.736Z" fill="white"/>
<path d="M456.342 462.867L462.843 459.122L456.342 455.378V462.867Z" fill="white"/>
<path d="M421.905 405.875L430.721 410.968V400.802L421.905 405.875Z" fill="white"/>
<path d="M409.145 384.938L418.947 379.261L409.145 373.605V384.938Z" fill="white"/>
<path d="M373.984 326.034L385.537 332.718V319.371L373.984 326.034Z" fill="white"/>
<path d="M362.17 306.627L374.628 299.42L362.17 292.213V306.627Z" fill="white"/>
<path d="M325.298 246.193L340.756 255.112V237.255L325.298 246.193Z" fill="white"/>
<path d="M314.551 229.424L331.598 219.559L314.551 209.715V229.424Z" fill="white"/>
<path d="M275.828 166.332L296.337 178.17V154.495L275.828 166.332Z" fill="white"/>
<path d="M266.409 153.106L289.614 139.719L266.409 126.331V153.106Z" fill="white"/>
<path d="M224.586 86.4915L252.823 102.798V70.165L224.586 86.4915Z" fill="white"/>
<path d="M218.025 77.2512L248.134 59.8578L218.025 42.4845V77.2512Z" fill="white"/>
<path d="M176.645 6.63061L207.66 24.5676V-11.2863L176.645 6.63061Z" fill="white"/>
<path d="M1163.77 459.122L1165.94 460.37V457.854L1163.77 459.122Z" fill="white"/>
<path d="M1149.17 486.944L1151.25 485.736L1149.17 484.528V486.944Z" fill="white"/>
<path d="M1149.52 539.587L1150.56 538.963L1149.52 538.359V539.587Z" fill="white"/>
<path d="M1118.28 538.963L1119.55 539.708V538.238L1118.28 538.963Z" fill="white"/>
<path d="M1057.14 539.909L1058.77 538.963L1057.14 538.037V539.909Z" fill="white"/>
<path d="M1025.96 538.963L1027.45 539.829V538.098L1025.96 538.963Z" fill="white"/>
<path d="M965.138 539.587L966.205 538.963L965.138 538.359V539.587Z" fill="white"/>
<path d="M934.083 538.963L935.109 539.567V538.379L934.083 538.963Z" fill="white"/>
<path d="M872.979 539.547L873.986 538.963L872.979 538.379V539.547Z" fill="white"/>
<path d="M841.924 538.963L842.93 539.547V538.379L841.924 538.963Z" fill="white"/>
<path d="M780.72 539.668L781.947 538.963L780.72 538.259V539.668Z" fill="white"/>
<path d="M749.443 538.963L750.892 539.809V538.138L749.443 538.963Z" fill="white"/>
<path d="M688.379 539.97L690.11 538.963L688.379 537.957V539.97Z" fill="white"/>
<path d="M656.962 538.963L658.854 540.07V537.876L656.962 538.963Z" fill="white"/>
<path d="M595.999 540.332L598.334 538.963L595.999 537.614V540.332Z" fill="white"/>
<path d="M564.139 538.963L566.997 540.634V537.312L564.139 538.963Z" fill="white"/>
<path d="M503.236 541.339L507.342 538.963L503.236 536.608V541.339Z" fill="white"/>
<path d="M470.672 538.963L475.462 541.741V536.185L470.672 538.963Z" fill="white"/>
<path d="M456.684 515.49L462.138 512.35L456.684 509.209V515.49Z" fill="white"/>
<path d="M422.972 459.122L430.177 463.269V454.975L422.972 459.122Z" fill="white"/>
<path d="M409.729 437.179L417.8 432.509L409.729 427.838V437.179Z" fill="white"/>
<path d="M375.252 379.261L384.893 384.838V373.705L375.252 379.261Z" fill="white"/>
<path d="M363.036 358.345L372.877 352.648L363.036 346.971V358.345Z" fill="white"/>
<path d="M328.297 299.42L339.246 305.742V293.099L328.297 299.42Z" fill="white"/>
<path d="M316.201 279.792L328.297 272.807L316.201 265.801V279.792Z" fill="white"/>
<path d="M279.39 219.56L294.565 228.337V210.802L279.39 219.56Z" fill="white"/>
<path d="M268.602 202.549L285.227 192.946L268.602 183.363V202.549Z" fill="white"/>
<path d="M228.953 139.719L250.65 152.26V127.177L228.953 139.719Z" fill="white"/>
<path d="M219.896 127.257L244.39 113.105L219.896 98.9527V127.257Z" fill="white"/>
<path d="M177.933 59.8578L207.015 76.6675V43.0683L177.933 59.8578Z" fill="white"/>
<path d="M171.915 50.6377L202.044 33.2443L171.915 15.8709V50.6377Z" fill="white"/>
<path d="M1164.29 512.35L1165.7 513.155V511.544L1164.29 512.35Z" fill="white"/>
<path d="M1165.09 565.597L1165.3 565.698V565.476L1165.09 565.597Z" fill="white"/>
<path d="M1103.51 566.06L1104.31 565.597L1103.51 565.114V566.06Z" fill="white"/>
<path d="M1072.47 565.597L1073.32 566.06V565.114L1072.47 565.597Z" fill="white"/>
<path d="M1011.39 565.939L1011.99 565.597L1011.39 565.234V565.939Z" fill="white"/>
<path d="M980.595 565.597L980.998 565.798V565.355L980.595 565.597Z" fill="white"/>
<path d="M919.35 565.698L919.532 565.597L919.35 565.476V565.698Z" fill="white"/>
<path d="M888.557 565.597L888.738 565.698V565.476L888.557 565.597Z" fill="white"/>
<path d="M827.071 565.838L827.534 565.597L827.071 565.335V565.838Z" fill="white"/>
<path d="M796.076 565.597L796.72 565.959V565.214L796.076 565.597Z" fill="white"/>
<path d="M734.69 566.221L735.777 565.597L734.69 564.953V566.221Z" fill="white"/>
<path d="M703.354 565.597L704.803 566.422V564.751L703.354 565.597Z" fill="white"/>
<path d="M642.229 566.684L644.121 565.597L642.229 564.49V566.684Z" fill="white"/>
<path d="M610.671 565.597L612.865 566.845V564.329L610.671 565.597Z" fill="white"/>
<path d="M549.648 567.368L552.747 565.597L549.648 563.785V567.368Z" fill="white"/>
<path d="M517.425 565.597L521.229 567.791V563.383L517.425 565.597Z" fill="white"/>
<path d="M456.845 568.456L461.796 565.597L456.845 562.718V568.456Z" fill="white"/>
<path d="M423.777 512.349L429.775 515.812V508.887L423.777 512.349Z" fill="white"/>
<path d="M410.172 489.621L416.894 485.736L410.172 481.851V489.621Z" fill="white"/>
<path d="M376.138 432.509L384.47 437.32V427.697L376.138 432.509Z" fill="white"/>
<path d="M363.398 410.968L372.193 405.875L363.398 400.802V410.968Z" fill="white"/>
<path d="M329.827 352.648L338.481 357.64V347.655L329.827 352.648Z" fill="white"/>
<path d="M317.288 331.127L326.124 326.034L317.288 320.941V331.127Z" fill="white"/>
<path d="M282.671 272.807L292.915 278.726V266.888L282.671 272.807Z" fill="white"/>
<path d="M270.273 252.897L281.886 246.193L270.273 239.49V252.897Z" fill="white"/>
<path d="M233.582 192.946L248.335 201.461V184.43L233.582 192.946Z" fill="white"/>
<path d="M222.372 176.197L239.439 166.332L222.372 156.488V176.197Z" fill="white"/>
<path d="M181.737 113.105L205.124 126.613V99.5769L181.737 113.105Z" fill="white"/>
<path d="M173.263 101.55L199.367 86.4916L173.263 71.4132V101.55Z" fill="white"/>
<path d="M131.602 33.2442L161.047 50.2551V16.2534L131.602 33.2442Z" fill="white"/>
<path d="M126.027 23.6819L155.552 6.63065L126.027 -10.4206V23.6819Z" fill="white"/>
<path d="M1119.13 592.21H1119.15V592.19L1119.13 592.21Z" fill="white"/>
<path d="M1057.62 592.311L1057.8 592.21L1057.62 592.09V592.311Z" fill="white"/>
<path d="M781.001 592.452L781.424 592.211L781.001 591.949V592.452Z" fill="white"/>
<path d="M749.886 592.21L750.671 592.653V591.747L749.886 592.21Z" fill="white"/>
<path d="M688.48 593.036L689.929 592.211L688.48 591.365V593.036Z" fill="white"/>
<path d="M657.063 592.21L658.814 593.197V591.204L657.063 592.21Z" fill="white"/>
<path d="M595.979 593.579L598.374 592.21L595.979 590.821V593.579Z" fill="white"/>
<path d="M564.139 592.211L566.997 593.861V590.54L564.139 592.211Z" fill="white"/>
<path d="M503.297 594.445L507.181 592.211L503.297 589.956V594.445Z" fill="white"/>
<path d="M470.974 592.211L475.321 594.707V589.694L470.974 592.211Z" fill="white"/>
<path d="M424.099 565.597L429.614 568.778V562.396L424.099 565.597Z" fill="white"/>
<path d="M410.413 542.426L416.411 538.963L410.413 535.501V542.426Z" fill="white"/>
<path d="M376.903 485.736L384.088 489.883V481.589L376.903 485.736Z" fill="white"/>
<path d="M363.74 463.612L371.509 459.122L363.74 454.633V463.612Z" fill="white"/>
<path d="M330.35 405.875L338.22 410.425V401.345L330.35 405.875Z" fill="white"/>
<path d="M317.711 383.65L325.298 379.261L317.711 374.893V383.65Z" fill="white"/>
<path d="M284.724 326.034L291.889 330.181V321.907L284.724 326.034Z" fill="white"/>
<path d="M271.682 303.668L279.048 299.421L271.682 295.173V303.668Z" fill="white"/>
<path d="M237.024 246.193L246.624 251.729V240.637L237.024 246.193Z" fill="white"/>
<path d="M224.304 226.062L235.555 219.56L224.304 213.077V226.062Z" fill="white"/>
<path d="M186.969 166.332L202.507 175.311V157.374L186.969 166.332Z" fill="white"/>
<path d="M175.618 150.69L194.638 139.719L175.618 128.747V150.69Z" fill="white"/>
<path d="M134.299 86.4916L159.698 101.147V71.8159L134.299 86.4916Z" fill="white"/>
<path d="M126.671 75.8018L154.284 59.8578L126.671 43.9339V75.8018Z" fill="white"/>
<path d="M85.5725 6.63063L114.937 23.6013V-10.32L85.5725 6.63063Z" fill="white"/>
<path d="M796.398 618.824L796.559 618.905V618.723L796.398 618.824Z" fill="white"/>
<path d="M734.791 619.267L735.576 618.824L734.791 618.361V619.267Z" fill="white"/>
<path d="M703.595 618.824L704.682 619.428V618.2L703.595 618.824Z" fill="white"/>
<path d="M642.29 619.811L644.021 618.824L642.29 617.818V619.811Z" fill="white"/>
<path d="M610.792 618.824L612.805 619.992V617.656L610.792 618.824Z" fill="white"/>
<path d="M549.728 620.475L552.607 618.824L549.728 617.153V620.475Z" fill="white"/>
<path d="M517.687 618.824L521.089 620.797V616.851L517.687 618.824Z" fill="white"/>
<path d="M457.086 621.28L461.353 618.824L457.086 616.348V621.28Z" fill="white"/>
<path d="M424.723 618.824L429.312 621.461V616.187L424.723 618.824Z" fill="white"/>
<path d="M410.655 595.25L415.928 592.21L410.655 589.15V595.25Z" fill="white"/>
<path d="M377.366 538.963L383.846 542.708V535.239L377.366 538.963Z" fill="white"/>
<path d="M364.002 516.376L370.965 512.349L364.002 508.343V516.376Z" fill="white"/>
<path d="M330.733 459.122L338.018 463.33V454.915L330.733 459.122Z" fill="white"/>
<path d="M317.872 436.595L324.956 432.509L317.872 428.422V436.595Z" fill="white"/>
<path d="M285.448 379.261L291.526 382.784V375.759L285.448 379.261Z" fill="white"/>
<path d="M272.285 355.869L277.84 352.648L272.285 349.447V355.869Z" fill="white"/>
<path d="M239.661 299.421L245.296 302.682V296.159L239.661 299.421Z" fill="white"/>
<path d="M225.914 276.491L232.314 272.807L225.914 269.103V276.491Z" fill="white"/>
<path d="M191.015 219.559L200.474 225.035V214.104L191.015 219.559Z" fill="white"/>
<path d="M178.114 199.609L189.646 192.946L178.114 186.303V199.609Z" fill="white"/>
<path d="M139.169 139.719L157.263 150.167V129.271L139.169 139.719Z" fill="white"/>
<path d="M128.603 125.708L150.42 113.105L128.603 100.503V125.708Z" fill="white"/>
<path d="M86.9008 59.8577L114.273 75.6809V44.0546L86.9008 59.8577Z" fill="white"/>
<path d="M80.078 50.074L109.201 33.2442L80.078 16.4346V50.074Z" fill="white"/>
<path d="M781.062 645.559L781.283 645.438L781.062 645.317V645.559Z" fill="white"/>
<path d="M750.127 645.438L750.55 645.679V645.196L750.127 645.438Z" fill="white"/>
<path d="M688.601 646.062L689.667 645.438L688.601 644.814V646.062Z" fill="white"/>
<path d="M657.224 645.438L658.733 646.303V644.572L657.224 645.438Z" fill="white"/>
<path d="M596.039 646.706L598.233 645.438L596.039 644.17V646.706Z" fill="white"/>
<path d="M564.3 645.438L566.916 646.948V643.928L564.3 645.438Z" fill="white"/>
<path d="M503.478 647.37L506.819 645.438L503.478 643.505V647.37Z" fill="white"/>
<path d="M471.356 645.438L475.12 647.612V643.263L471.356 645.438Z" fill="white"/>
<path d="M410.916 648.014L415.405 645.438L410.916 642.861V648.014Z" fill="white"/>
<path d="M377.869 592.21L383.605 595.512V588.889L377.869 592.21Z" fill="white"/>
<path d="M364.243 569.18L370.482 565.597L364.243 561.993V569.18Z" fill="white"/>
<path d="M331.115 512.35L337.837 516.235V508.484L331.115 512.35Z" fill="white"/>
<path d="M318.033 489.521L324.614 485.736L318.033 481.951V489.521Z" fill="white"/>
<path d="M285.589 432.509L291.466 435.891V429.106L285.589 432.509Z" fill="white"/>
<path d="M272.386 408.955L277.679 405.875L272.386 402.835V408.955Z" fill="white"/>
<path d="M240.767 352.648L244.732 354.943V350.373L240.767 352.648Z" fill="white"/>
<path d="M226.8 328.208L230.563 326.034L226.8 323.86V328.208Z" fill="white"/>
<path d="M194.195 272.807L198.884 275.505V270.089L194.195 272.807Z" fill="white"/>
<path d="M179.945 249.676L185.983 246.193L179.945 242.69V249.676Z" fill="white"/>
<path d="M144.462 192.946L154.626 198.804V187.088L144.462 192.946Z" fill="white"/>
<path d="M131.481 173.942L144.644 166.332L131.481 158.723V173.942Z" fill="white"/>
<path d="M90.9261 113.105L112.26 125.405V100.785L90.9261 113.105Z" fill="white"/>
<path d="M81.5271 100.785L106.303 86.4914L81.5271 72.1781V100.785Z" fill="white"/>
<path d="M39.1609 33.2442L68.9883 50.4766V16.0318L39.1609 33.2442Z" fill="white"/>
<path d="M33.4651 24.3462L64.1378 6.63065L33.4651 -11.0849V24.3462Z" fill="white"/>
<path d="M796.479 672.051L796.499 672.071V672.051H796.479Z" fill="white"/>
<path d="M734.831 672.414L735.475 672.051L734.831 671.689V672.414Z" fill="white"/>
<path d="M703.756 672.051L704.601 672.554V671.568L703.756 672.051Z" fill="white"/>
<path d="M642.37 672.937L643.88 672.051L642.37 671.186V672.937Z" fill="white"/>
<path d="M610.832 672.051L612.785 673.179V670.924L610.832 672.051Z" fill="white"/>
<path d="M549.809 673.581L552.445 672.051L549.809 670.521V673.581Z" fill="white"/>
<path d="M517.909 672.051L520.988 673.843V670.28L517.909 672.051Z" fill="white"/>
<path d="M457.247 674.225L461.011 672.051L457.247 669.877V674.225Z" fill="white"/>
<path d="M425.085 672.051L429.131 674.386V669.736L425.085 672.051Z" fill="white"/>
<path d="M378.553 645.438L383.263 648.155V642.72L378.553 645.438Z" fill="white"/>
<path d="M364.565 621.864L369.838 618.824L364.565 615.784V621.864Z" fill="white"/>
<path d="M331.457 565.597L337.656 569.18V562.013L331.457 565.597Z" fill="white"/>
<path d="M318.154 542.567L324.393 538.963L318.154 535.36V542.567Z" fill="white"/>
<path d="M285.609 485.736L291.466 489.118V482.354L285.609 485.736Z" fill="white"/>
<path d="M272.346 462.243L277.74 459.122L272.346 456.002V462.243Z" fill="white"/>
<path d="M240.727 405.875L244.773 408.23V403.56L240.727 405.875Z" fill="white"/>
<path d="M226.981 381.134L230.221 379.261L226.981 377.389V381.134Z" fill="white"/>
<path d="M195.865 326.034L198.039 327.282V324.786L195.865 326.034Z" fill="white"/>
<path d="M181.133 300.87L183.628 299.421L181.133 297.971V300.87Z" fill="white"/>
<path d="M148.085 246.193L152.815 248.911V243.456L148.085 246.193Z" fill="white"/>
<path d="M133.614 223.485L140.397 219.56L133.614 215.654V223.485Z" fill="white"/>
<path d="M96.8634 166.332L109.281 173.519V159.166L96.8634 166.332Z" fill="white"/>
<path d="M84.1636 149.442L101.009 139.719L84.1636 129.996V149.442Z" fill="white"/>
<path d="M42.3007 86.4916L67.4386 101.006V71.977L42.3007 86.4916Z" fill="white"/>
<path d="M34.2501 76.2246L62.568 59.8578L34.2501 43.5112V76.2246Z" fill="white"/>
<path d="M-8.11609 6.6307L23.5025 24.9099V-11.6284L-8.11609 6.6307Z" fill="white"/>
<path d="M781.062 698.786L781.283 698.665L781.062 698.544V698.786Z" fill="white"/>
<path d="M750.127 698.665L750.55 698.906V698.423L750.127 698.665Z" fill="white"/>
<path d="M688.601 699.289L689.667 698.665L688.601 698.061V699.289Z" fill="white"/>
<path d="M657.365 698.665L658.653 699.41V697.92L657.365 698.665Z" fill="white"/>
<path d="M596.12 699.792L598.092 698.665L596.12 697.538V699.792Z" fill="white"/>
<path d="M564.441 698.665L566.856 700.074V697.276L564.441 698.665Z" fill="white"/>
<path d="M503.558 700.457L506.658 698.665L503.558 696.873V700.457Z" fill="white"/>
<path d="M471.638 698.665L474.979 700.597V696.732L471.638 698.665Z" fill="white"/>
<path d="M411.118 700.899L415.002 698.665L411.118 696.43V700.899Z" fill="white"/>
<path d="M378.956 698.665L383.061 701.04V696.309L378.956 698.665Z" fill="white"/>
<path d="M364.827 674.648L369.335 672.051L364.827 669.454V674.648Z" fill="white"/>
<path d="M332.081 618.824L337.354 621.864V615.764L332.081 618.824Z" fill="white"/>
<path d="M318.315 595.532L324.071 592.211L318.315 588.889V595.532Z" fill="white"/>
<path d="M285.67 538.963L291.426 542.285V535.641L285.67 538.963Z" fill="white"/>
<path d="M272.306 515.53L277.82 512.35L272.306 509.169V515.53Z" fill="white"/>
<path d="M240.486 459.122L244.873 461.659V456.586L240.486 459.122Z" fill="white"/>
<path d="M226.82 434.643L230.523 432.509L226.82 430.355V434.643Z" fill="white"/>
<path d="M195.986 379.261L197.999 380.449V378.094L195.986 379.261Z" fill="white"/>
<path d="M181.535 353.393L182.803 352.648L181.535 351.923V353.393Z" fill="white"/>
<path d="M150.359 299.421L151.688 300.186V298.656L150.359 299.421Z" fill="white"/>
<path d="M135.184 274.015L137.257 272.807L135.184 271.599V274.015Z" fill="white"/>
<path d="M101.271 219.56L107.088 222.942V216.198L101.271 219.56Z" fill="white"/>
<path d="M86.9612 197.818L95.4143 192.946L86.9612 188.074V197.818Z" fill="white"/>
<path d="M47.9159 139.719L64.6208 149.362V130.076L47.9159 139.719Z" fill="white"/>
<path d="M36.5445 125.466L57.959 113.105L36.5445 100.724V125.466Z" fill="white"/>
<path d="M-6.32483 59.8579L22.617 76.5669V43.169L-6.32483 59.8579Z" fill="white"/>
<path d="M-12.9062 51.4832L18.6319 33.2442L-12.9062 15.0253V51.4832Z" fill="white"/>
<path d="M827.212 725.299L827.252 725.278H827.212V725.299Z" fill="white"/>
<path d="M796.358 725.279L796.579 725.419V725.158L796.358 725.279Z" fill="white"/>
<path d="M734.831 725.661L735.495 725.278L734.831 724.896V725.661Z" fill="white"/>
<path d="M703.595 725.279L704.682 725.903V724.675L703.595 725.279Z" fill="white"/>
<path d="M642.37 726.164L643.88 725.279L642.37 724.413V726.164Z" fill="white"/>
<path d="M610.832 725.279L612.785 726.426V724.151L610.832 725.279Z" fill="white"/>
<path d="M549.849 726.728L552.345 725.279L549.849 723.849V726.728Z" fill="white"/>
<path d="M518.049 725.279L520.907 726.949V723.628L518.049 725.279Z" fill="white"/>
<path d="M457.368 727.251L460.77 725.279L457.368 723.326V727.251Z" fill="white"/>
<path d="M425.347 725.279L428.99 727.392V723.185L425.347 725.279Z" fill="white"/>
<path d="M364.948 727.654L369.053 725.279L364.948 722.923V727.654Z" fill="white"/>
<path d="M332.544 672.051L337.133 674.688V669.414L332.544 672.051Z" fill="white"/>
<path d="M318.576 648.296L323.527 645.438L318.576 642.579V648.296Z" fill="white"/>
<path d="M285.831 592.21L291.345 595.391V589.009L285.831 592.21Z" fill="white"/>
<path d="M272.306 568.778L277.82 565.597L272.306 562.396V568.778Z" fill="white"/>
<path d="M240.184 512.349L245.034 515.148V509.571L240.184 512.349Z" fill="white"/>
<path d="M226.598 488.272L230.986 485.736L226.598 483.199V488.272Z" fill="white"/>
<path d="M195.443 432.509L198.26 434.119V430.878L195.443 432.509Z" fill="white"/>
<path d="M181.314 407.002L183.246 405.875L181.314 404.768V407.002Z" fill="white"/>
<path d="M151.004 352.648L151.346 352.849V352.447L151.004 352.648Z" fill="white"/>
<path d="M135.788 326.175L136.029 326.034L135.788 325.893V326.175Z" fill="white"/>
<path d="M104.29 272.807L105.578 273.552V272.062L104.29 272.807Z" fill="white"/>
<path d="M88.8129 247.884L91.7312 246.193L88.8129 244.482V247.884Z" fill="white"/>
<path d="M53.6922 192.946L61.7428 197.596V188.296L53.6922 192.946Z" fill="white"/>
<path d="M39.7647 173.117L51.5185 166.332L39.7647 159.548V173.117Z" fill="white"/>
<path d="M-1.55487 113.105L20.2219 125.687V100.523L-1.55487 113.105Z" fill="white"/>
<path d="M-11.1552 101.671L15.13 86.4916L-11.1552 71.2925V101.671Z" fill="white"/>
<path d="M332.745 725.278L337.012 727.755V722.822L332.745 725.278Z" fill="white"/>
<path d="M318.737 701.262L323.246 698.665L318.737 696.068V701.262Z" fill="white"/>
<path d="M286.193 645.438L291.164 648.316V642.559L286.193 645.438Z" fill="white"/>
<path d="M272.406 621.803L277.599 618.824L272.406 615.824V621.803Z" fill="white"/>
<path d="M239.902 565.597L245.175 568.637V562.537L239.902 565.597Z" fill="white"/>
<path d="M226.437 541.761L231.268 538.963L226.437 536.185V541.761Z" fill="white"/>
<path d="M194.859 485.736L198.562 487.87V483.602L194.859 485.736Z" fill="white"/>
<path d="M181.032 460.753L183.85 459.122L181.032 457.492V460.753Z" fill="white"/>
<path d="M150.521 405.875L151.587 406.499V405.271L150.521 405.875Z" fill="white"/>
<path d="M135.748 379.483L136.13 379.261L135.748 379.04V379.483Z" fill="white"/>
<path d="M89.7789 299.42H89.7991L89.7789 299.4V299.42Z" fill="white"/>
<path d="M57.3351 246.193L59.9113 247.663V244.704L57.3351 246.193Z" fill="white"/>
<path d="M42.1195 222.297L46.8492 219.559L42.1195 216.842V222.297Z" fill="white"/>
<path d="M5.08685 166.332L16.9011 173.157V159.508L5.08685 166.332Z" fill="white"/>
<path d="M-8.05573 149.523L8.93099 139.719L-8.05573 129.915V149.523Z" fill="white"/>
<path d="M286.354 698.665L291.084 701.403V695.927L286.354 698.665Z" fill="white"/>
<path d="M272.547 674.829L277.357 672.051L272.547 669.273V674.829Z" fill="white"/>
<path d="M240.063 618.824L245.095 621.743V615.905L240.063 618.824Z" fill="white"/>
<path d="M226.317 595.19L231.509 592.211L226.317 589.211V595.19Z" fill="white"/>
<path d="M194.316 538.963L198.824 541.58V536.366L194.316 538.963Z" fill="white"/>
<path d="M180.67 514.584L184.534 512.349L180.67 510.135V514.584Z" fill="white"/>
<path d="M149.715 459.122L151.99 460.451V457.794L149.715 459.122Z" fill="white"/>
<path d="M135.406 433.314L136.814 432.509L135.406 431.683V433.314Z" fill="white"/>
<path d="M43.5485 273.049L43.9912 272.807L43.5485 272.545V273.049Z" fill="white"/>
<path d="M9.91724 219.56L14.4859 222.197V216.943L9.91724 219.56Z" fill="white"/>
<path d="M-4.97638 197.415L2.73205 192.946L-4.97638 188.497V197.415Z" fill="white"/>
<path d="M272.567 728.016L277.297 725.278L272.567 722.561V728.016Z" fill="white"/>
<path d="M240.103 672.051L245.075 674.93V669.173L240.103 672.051Z" fill="white"/>
<path d="M226.377 648.357L231.409 645.438L226.377 642.519V648.357Z" fill="white"/>
<path d="M193.953 592.21L199.005 595.109V589.291L193.953 592.21Z" fill="white"/>
<path d="M180.388 568.314L185.118 565.597L180.388 562.839V568.314Z" fill="white"/>
<path d="M148.931 512.35L152.392 514.343V510.357L148.931 512.35Z" fill="white"/>
<path d="M134.963 487.306L137.68 485.736L134.963 484.166V487.306Z" fill="white"/>
<path d="M104.33 432.509L105.558 433.213V431.804L104.33 432.509Z" fill="white"/>
<path d="M89.5978 406.197L90.1412 405.875L89.5978 405.573V406.197Z" fill="white"/>
<path d="M12.7751 272.807L13.0569 272.968V272.626L12.7751 272.807Z" fill="white"/>
<path d="M240.103 725.278L245.075 728.157V722.42L240.103 725.278Z" fill="white"/>
<path d="M226.397 701.544L231.368 698.665L226.397 695.806V701.544Z" fill="white"/>
<path d="M193.873 645.438L199.065 648.437V642.438L193.873 645.438Z" fill="white"/>
<path d="M180.287 621.743L185.319 618.824L180.287 615.905V621.743Z" fill="white"/>
<path d="M148.226 565.597L152.734 568.194V562.98L148.226 565.597Z" fill="white"/>
<path d="M134.56 541.238L138.485 538.963L134.56 536.708V541.238Z" fill="white"/>
<path d="M103.384 485.736L106.041 487.266V484.206L103.384 485.736Z" fill="white"/>
<path d="M89.1147 460.27L91.1073 459.122L89.1147 457.975V460.27Z" fill="white"/>
<path d="M58.7037 405.875L59.227 406.197V405.573L58.7037 405.875Z" fill="white"/>
<path d="M193.853 698.665L199.065 701.685V695.665L193.853 698.665Z" fill="white"/>
<path d="M180.227 675.051L185.44 672.051L180.227 669.052V675.051Z" fill="white"/>
<path d="M147.864 618.824L152.916 621.743V615.905L147.864 618.824Z" fill="white"/>
<path d="M134.258 594.989L139.089 592.21L134.258 589.412V594.989Z" fill="white"/>
<path d="M102.579 538.963L106.423 541.198V536.749L102.579 538.963Z" fill="white"/>
<path d="M88.6519 514.302L92.0331 512.35L88.6519 510.397V514.302Z" fill="white"/>
<path d="M57.6974 459.122L59.7302 460.29V457.955L57.6974 459.122Z" fill="white"/>
<path d="M43.2466 433.254L44.5749 432.509L43.2466 431.744V433.254Z" fill="white"/>
<path d="M180.147 728.439L185.601 725.279L180.147 722.138V728.439Z" fill="white"/>
<path d="M147.602 672.051L153.056 675.192V668.911L147.602 672.051Z" fill="white"/>
<path d="M134.117 648.478L139.391 645.438L134.117 642.378V648.478Z" fill="white"/>
<path d="M101.835 592.21L106.806 595.069V589.332L101.835 592.21Z" fill="white"/>
<path d="M88.2694 568.214L92.7979 565.597L88.2694 562.98V568.214Z" fill="white"/>
<path d="M56.691 512.349L60.2333 514.403V510.296L56.691 512.349Z" fill="white"/>
<path d="M42.7233 487.427L45.6215 485.736L42.7233 484.045V487.427Z" fill="white"/>
<path d="M12.0707 432.509L13.3991 433.274V431.724L12.0707 432.509Z" fill="white"/>
<path d="M147.441 725.279L153.137 728.58V721.997L147.441 725.279Z" fill="white"/>
<path d="M133.977 701.946L139.652 698.665L133.977 695.383V701.946Z" fill="white"/>
<path d="M101.513 645.438L106.967 648.578V642.297L101.513 645.438Z" fill="white"/>
<path d="M88.0078 621.884L93.3212 618.824L88.0078 615.744V621.884Z" fill="white"/>
<path d="M55.8658 565.597L60.6358 568.335V562.839L55.8658 565.597Z" fill="white"/>
<path d="M42.2805 541.419L46.5272 538.963L42.2805 536.507V541.419Z" fill="white"/>
<path d="M10.8632 485.736L14.0029 487.548V483.924L10.8632 485.736Z" fill="white"/>
<path d="M101.191 698.665L107.128 702.087V695.243L101.191 698.665Z" fill="white"/>
<path d="M87.887 675.333L93.5828 672.051L87.887 668.77V675.333Z" fill="white"/>
<path d="M55.4231 618.824L60.8774 621.965V615.684L55.4231 618.824Z" fill="white"/>
<path d="M41.9384 595.23L47.1712 592.211L41.9384 589.171V595.23Z" fill="white"/>
<path d="M10.0782 538.963L14.4054 541.459V536.467L10.0782 538.963Z" fill="white"/>
<path d="M-3.66815 514.564L0.135746 512.35L-3.66815 510.155V514.564Z" fill="white"/>
<path d="M87.726 728.842L93.8847 725.279L87.726 721.735V728.842Z" fill="white"/>
<path d="M55.1011 672.051L61.0384 675.474V668.629L55.1011 672.051Z" fill="white"/>
<path d="M41.717 648.86L47.6342 645.438L41.717 642.015V648.86Z" fill="white"/>
<path d="M9.33356 592.211L14.7878 595.351V589.05L9.33356 592.211Z" fill="white"/>
<path d="M-4.07068 568.476L0.940804 565.597L-4.07068 562.698V568.476Z" fill="white"/>
<path d="M54.7992 725.278L61.1793 728.962V721.614L54.7992 725.278Z" fill="white"/>
<path d="M41.6163 702.268L47.8555 698.665L41.6163 695.061V702.268Z" fill="white"/>
<path d="M9.01154 645.438L14.9488 648.86V642.015L9.01154 645.438Z" fill="white"/>
<path d="M-4.37256 622.246L1.54461 618.824L-4.37256 615.402V622.246Z" fill="white"/>
<path d="M8.68951 698.665L15.0897 702.369V694.981L8.68951 698.665Z" fill="white"/>
<path d="M-4.53357 675.735L1.84651 672.051L-4.53357 668.367V675.735Z" fill="white"/>
<path d="M-4.61407 729.124L2.02765 725.278L-4.61407 721.454V729.124Z" fill="white"/>
</svg>
