<svg width="1179" height="1149" viewBox="0 0 1179 1149" fill="none" xmlns="http://www.w3.org/2000/svg">
<path d="M840.158 802.394L840.279 802.475L840.158 802.555V802.394Z" fill="#F4F8FE"/>
<path d="M809.002 802.475L809.707 802.072V802.878L809.002 802.475Z" fill="#F4F8FE"/>
<path d="M854.81 775.861L855.917 775.217V776.505L854.81 775.861Z" fill="#F4F8FE"/>
<path d="M793.203 774.311L795.88 775.861L793.203 777.411V774.311Z" fill="#F4F8FE"/>
<path d="M763.174 829.088L763.476 828.907V829.27L763.174 829.088Z" fill="#F4F8FE"/>
<path d="M839.132 747.396L842.312 749.248L839.132 751.08V747.396Z" fill="#F4F8FE"/>
<path d="M806.688 749.248L810.854 746.832V751.643L806.688 749.248Z" fill="#F4F8FE"/>
<path d="M761.021 775.861L764.543 773.808V777.894L761.021 775.861Z" fill="#F4F8FE"/>
<path d="M747.234 801.146L749.549 802.475L747.234 803.803V801.146Z" fill="#F4F8FE"/>
<path d="M886.167 775.66L886.509 775.861L886.167 776.042V775.66Z" fill="#F4F8FE"/>
<path d="M885.201 720.742L888.462 722.634L885.201 724.506V720.742Z" fill="#F4F8FE"/>
<path d="M852.415 722.634L857.125 719.896V725.352L852.415 722.634Z" fill="#F4F8FE"/>
<path d="M791.694 718.447L798.919 722.634L791.694 726.801V718.447Z" fill="#F4F8FE"/>
<path d="M757.7 722.634L766.214 717.702V727.546L757.7 722.634Z" fill="#F4F8FE"/>
<path d="M745.846 745.503L752.326 749.247L745.846 752.972V745.503Z" fill="#F4F8FE"/>
<path d="M714.71 802.475L718.574 800.24V804.709L714.71 802.475Z" fill="#F4F8FE"/>
<path d="M700.964 827.438L703.842 829.088L700.964 830.739V827.438Z" fill="#F4F8FE"/>
<path d="M716.984 855.702L717.427 855.46V855.964L716.984 855.702Z" fill="#F4F8FE"/>
<path d="M901 749.247L901.966 748.684V749.811L901 749.247Z" fill="#F4F8FE"/>
<path d="M898.867 696L903.033 693.584V698.416L898.867 696Z" fill="#F4F8FE"/>
<path d="M837.582 691.471L845.431 696L837.582 700.55V691.471Z" fill="#F4F8FE"/>
<path d="M803.125 696L812.645 690.524V701.496L803.125 696Z" fill="#F4F8FE"/>
<path d="M743.913 688.914L756.211 696L743.913 703.107V688.914Z" fill="#F4F8FE"/>
<path d="M712.013 749.248L719.923 744.678V753.817L712.013 749.248Z" fill="#F4F8FE"/>
<path d="M699.756 772.097L706.257 775.861L699.756 779.606V772.097Z" fill="#F4F8FE"/>
<path d="M667.976 829.088L672.807 826.31V831.886L667.976 829.088Z" fill="#F4F8FE"/>
<path d="M932.357 749.228L932.377 749.248H932.357V749.228Z" fill="#F4F8FE"/>
<path d="M883.973 665.38L890.917 669.387L883.973 673.393V665.38Z" fill="#F4F8FE"/>
<path d="M849.436 669.386L858.614 664.092V674.701L849.436 669.386Z" fill="#F4F8FE"/>
<path d="M789.842 661.999L802.642 669.387L789.842 676.795V661.999Z" fill="#F4F8FE"/>
<path d="M753.956 669.387L768.085 661.233V677.56L753.956 669.387Z" fill="#F4F8FE"/>
<path d="M708.048 696L721.895 688.008V704.012L708.048 696Z" fill="#F4F8FE"/>
<path d="M698.025 715.87L709.719 722.634L698.025 729.378V715.87Z" fill="#F4F8FE"/>
<path d="M665.42 775.861L674.075 770.849V780.874L665.42 775.861Z" fill="#F4F8FE"/>
<path d="M653.123 797.764L661.254 802.475L653.123 807.186V797.764Z" fill="#F4F8FE"/>
<path d="M654.411 853.226L658.698 855.702L654.411 858.178V853.226Z" fill="#F4F8FE"/>
<path d="M670.251 882.315L671.659 881.51V883.141L670.251 882.315Z" fill="#F4F8FE"/>
<path d="M947.311 722.634L947.955 722.251V722.996L947.311 722.634Z" fill="#F4F8FE"/>
<path d="M931.532 694.551L934.048 696L931.532 697.47V694.551Z" fill="#F4F8FE"/>
<path d="M930.546 639.612L936.02 642.773L930.546 645.934V639.612Z" fill="#F4F8FE"/>
<path d="M896.693 642.773L904.12 638.485V647.061L896.693 642.773Z" fill="#F4F8FE"/>
<path d="M836.133 635.747L848.309 642.773L836.133 649.799V635.747Z" fill="#F4F8FE"/>
<path d="M800.066 642.773L814.175 634.62V650.926L800.066 642.773Z" fill="#F4F8FE"/>
<path d="M742.344 632.949L759.35 642.773L742.344 652.597V632.949Z" fill="#F4F8FE"/>
<path d="M705.17 642.773L723.344 632.265V653.282L705.17 642.773Z" fill="#F4F8FE"/>
<path d="M696.294 659.643L713.18 669.387L696.294 679.13V659.643Z" fill="#F4F8FE"/>
<path d="M662.079 722.634L675.765 714.722V730.525L662.079 722.634Z" fill="#F4F8FE"/>
<path d="M651.714 742.121L664.052 749.248L651.714 756.374V742.121Z" fill="#F4F8FE"/>
<path d="M617.519 802.475L628.911 795.892V809.058L617.519 802.475Z" fill="#F4F8FE"/>
<path d="M606.027 822.646L617.177 829.088L606.027 835.531V822.646Z" fill="#F4F8FE"/>
<path d="M620.176 855.702L627.562 851.434V859.97L620.176 855.702Z" fill="#F4F8FE"/>
<path d="M655.478 908.325L656.524 908.949L655.478 909.553V908.325Z" fill="#F4F8FE"/>
<path d="M945.6 669.386L948.801 667.534V671.238L945.6 669.386Z" fill="#F4F8FE"/>
<path d="M943.87 616.159L949.666 612.817V619.501L943.87 616.159Z" fill="#F4F8FE"/>
<path d="M882.826 610.18L893.191 616.159L882.826 622.138V610.18Z" fill="#F4F8FE"/>
<path d="M847.041 616.159L859.822 608.791V623.527L847.041 616.159Z" fill="#F4F8FE"/>
<path d="M788.554 606.537L805.198 616.159L788.554 625.762V606.537Z" fill="#F4F8FE"/>
<path d="M751.34 616.159L769.393 605.731V626.587L751.34 616.159Z" fill="#F4F8FE"/>
<path d="M695.308 604.685L715.173 616.159L695.308 627.634V604.685Z" fill="#F4F8FE"/>
<path d="M658.96 669.386L677.315 658.797V679.975L658.96 669.386Z" fill="#F4F8FE"/>
<path d="M650.044 685.975L667.413 696L650.044 706.046V685.975Z" fill="#F4F8FE"/>
<path d="M614.843 749.248L630.239 740.35V758.126L614.843 749.248Z" fill="#F4F8FE"/>
<path d="M604.759 767.245L619.693 775.861L604.759 784.478V767.245Z" fill="#F4F8FE"/>
<path d="M568.874 829.088L584.089 820.311V837.866L568.874 829.088Z" fill="#F4F8FE"/>
<path d="M607.416 878.289L614.4 882.315L607.416 886.362V878.289Z" fill="#F4F8FE"/>
<path d="M622.752 908.949L626.274 906.916V910.983L622.752 908.949Z" fill="#F4F8FE"/>
<path d="M977.944 668.48L979.513 669.386L977.944 670.292V668.48Z" fill="#F4F8FE"/>
<path d="M929.68 584.875L937.751 589.545L929.68 594.196V584.875Z" fill="#F4F8FE"/>
<path d="M894.781 589.546L905.086 583.587V595.484L894.781 589.546Z" fill="#F4F8FE"/>
<path d="M835.147 580.809L850.262 589.546L835.147 598.262V580.809Z" fill="#F4F8FE"/>
<path d="M798.094 589.546L815.141 579.682V599.39L798.094 589.546Z" fill="#F4F8FE"/>
<path d="M741.498 578.252L761.061 589.546L741.498 600.839V578.252Z" fill="#F4F8FE"/>
<path d="M703.801 589.546L724.028 577.85V601.222L703.801 589.546Z" fill="#F4F8FE"/>
<path d="M657.269 616.159L678.16 604.101V628.218L657.269 616.159Z" fill="#F4F8FE"/>
<path d="M648.997 630.936L669.506 642.773L648.997 654.61V630.936Z" fill="#F4F8FE"/>
<path d="M612.045 696L631.628 684.687V707.314L612.045 696Z" fill="#F4F8FE"/>
<path d="M603.371 711.582L622.491 722.634L603.371 733.666V711.582Z" fill="#F4F8FE"/>
<path d="M566.459 775.861L585.297 764.99V786.732L566.459 775.861Z" fill="#F4F8FE"/>
<path d="M557.2 791.302L576.542 802.475L557.2 813.627V791.302Z" fill="#F4F8FE"/>
<path d="M558.529 846.844L573.885 855.702L558.529 864.58V846.844Z" fill="#F4F8FE"/>
<path d="M571.893 882.315L582.58 876.155V888.496L571.893 882.315Z" fill="#F4F8FE"/>
<path d="M608.704 933.771L611.803 935.563L608.704 937.334V933.771Z" fill="#F4F8FE"/>
<path d="M624.684 962.176L625.308 961.814V962.539L624.684 962.176Z" fill="#F4F8FE"/>
<path d="M992.515 642.773L994.488 641.646V643.9L992.515 642.773Z" fill="#F4F8FE"/>
<path d="M977.139 613.844L981.124 616.159L977.139 618.474V613.844Z" fill="#F4F8FE"/>
<path d="M976.414 559.389L982.553 562.932L976.414 566.455V559.389Z" fill="#F4F8FE"/>
<path d="M942.28 562.932L950.471 558.201V567.663L942.28 562.932Z" fill="#F4F8FE"/>
<path d="M882.061 555.625L894.721 562.932L882.061 570.22V555.625Z" fill="#F4F8FE"/>
<path d="M845.532 562.932L860.566 554.235V571.609L845.532 562.932Z" fill="#F4F8FE"/>
<path d="M787.97 552.303L806.366 562.932L787.97 573.541V552.303Z" fill="#F4F8FE"/>
<path d="M750.294 562.932L769.917 551.598V574.246L750.294 562.932Z" fill="#F4F8FE"/>
<path d="M694.986 550.894L715.797 562.932L694.986 574.951V550.894Z" fill="#F4F8FE"/>
<path d="M657.068 562.932L678.261 550.692V575.152L657.068 562.932Z" fill="#F4F8FE"/>
<path d="M648.655 577.084L670.21 589.546L648.655 601.987V577.084Z" fill="#F4F8FE"/>
<path d="M610.616 642.773L632.353 630.231V655.315L610.616 642.773Z" fill="#F4F8FE"/>
<path d="M602.485 656.805L624.262 669.387L602.485 681.969V656.805Z" fill="#F4F8FE"/>
<path d="M564.084 722.634L586.484 709.689V735.558L564.084 722.634Z" fill="#F4F8FE"/>
<path d="M556.053 736.102L578.836 749.247L556.053 762.393V736.102Z" fill="#F4F8FE"/>
<path d="M517.39 802.475L540.697 789.007V815.922L517.39 802.475Z" fill="#F4F8FE"/>
<path d="M509.682 815.439L533.31 829.088L509.682 842.738V815.439Z" fill="#F4F8FE"/>
<path d="M519.946 855.702L539.409 844.469V866.955L519.946 855.702Z" fill="#F4F8FE"/>
<path d="M560.24 903.031L570.464 908.949L560.24 914.848V903.031Z" fill="#F4F8FE"/>
<path d="M574.932 935.563L581.05 932.02V939.086L574.932 935.563Z" fill="#F4F8FE"/>
<path d="M609.61 988.548L610.012 988.79L609.61 989.032V988.548Z" fill="#F4F8FE"/>
<path d="M1024.29 642.33L1025.06 642.773L1024.29 643.196V642.33Z" fill="#F4F8FE"/>
<path d="M991.086 589.546L995.212 587.15V591.921L991.086 589.546Z" fill="#F4F8FE"/>
<path d="M989.677 536.298L995.896 532.715V539.902L989.677 536.298Z" fill="#F4F8FE"/>
<path d="M928.936 530.339L939.261 536.298L928.936 542.277V530.339Z" fill="#F4F8FE"/>
<path d="M893.413 536.298L905.77 529.172V543.445L893.413 536.298Z" fill="#F4F8FE"/>
<path d="M834.664 526.716L851.268 536.298L834.664 545.901V526.716Z" fill="#F4F8FE"/>
<path d="M797.248 536.298L815.564 525.729V546.888L797.248 536.298Z" fill="#F4F8FE"/>
<path d="M741.277 524.643L761.464 536.299L741.277 547.955V524.643Z" fill="#F4F8FE"/>
<path d="M703.6 536.298L724.129 524.441V548.176L703.6 536.298Z" fill="#F4F8FE"/>
<path d="M648.856 524.22L669.788 536.299L648.856 548.397V524.22Z" fill="#F4F8FE"/>
<path d="M610.415 589.546L632.453 576.823V602.249L610.415 589.546Z" fill="#F4F8FE"/>
<path d="M602.223 603.134L624.785 616.159L602.223 629.184V603.134Z" fill="#F4F8FE"/>
<path d="M563.138 669.386L586.947 655.637V683.156L563.138 669.386Z" fill="#F4F8FE"/>
<path d="M555.389 681.707L580.165 696L555.389 710.314V681.707Z" fill="#F4F8FE"/>
<path d="M515.498 749.247L541.643 734.129V764.346L515.498 749.247Z" fill="#F4F8FE"/>
<path d="M508.696 760.501L535.283 775.861L508.696 791.221V760.501Z" fill="#F4F8FE"/>
<path d="M468.543 829.088L495.976 813.245V844.932L468.543 829.088Z" fill="#F4F8FE"/>
<path d="M511.292 871.485L530.09 882.316L511.292 893.166V871.485Z" fill="#F4F8FE"/>
<path d="M523.589 908.949L537.597 900.856V917.022L523.589 908.949Z" fill="#F4F8FE"/>
<path d="M561.85 959.036L567.264 962.177L561.85 965.317V959.036Z" fill="#F4F8FE"/>
<path d="M577.407 988.79L579.823 987.401V990.179L577.407 988.79Z" fill="#F4F8FE"/>
<path d="M1039.09 616.159L1040.34 615.435V616.884L1039.09 616.159Z" fill="#F4F8FE"/>
<path d="M1023.65 587.955L1026.39 589.545L1023.65 591.116V587.955Z" fill="#F4F8FE"/>
<path d="M975.71 504.894L984.002 509.685L975.71 514.476V504.894Z" fill="#F4F8FE"/>
<path d="M940.83 509.685L951.196 503.706V515.664L940.83 509.685Z" fill="#F4F8FE"/>
<path d="M881.518 501.431L895.808 509.684L881.518 517.938V501.431Z" fill="#F4F8FE"/>
<path d="M844.686 509.685L860.989 500.283V519.086L844.686 509.685Z" fill="#F4F8FE"/>
<path d="M787.89 498.915L806.547 509.685L787.89 520.475V498.915Z" fill="#F4F8FE"/>
<path d="M750.394 509.685L769.856 498.452V520.938L750.394 509.685Z" fill="#F4F8FE"/>
<path d="M695.389 498.391L714.972 509.685L695.389 520.978V498.391Z" fill="#F4F8FE"/>
<path d="M658.255 509.685L677.657 498.472V520.898L658.255 509.685Z" fill="#F4F8FE"/>
<path d="M611.32 536.299L631.99 524.381V548.236L611.32 536.299Z" fill="#F4F8FE"/>
<path d="M602.525 550.431L624.161 562.932L602.525 575.414V550.431Z" fill="#F4F8FE"/>
<path d="M563.379 616.159L586.827 602.611V629.708L563.379 616.159Z" fill="#F4F8FE"/>
<path d="M555.49 628.621L579.984 642.773L555.49 656.925V628.621Z" fill="#F4F8FE"/>
<path d="M514.653 696L542.065 680.177V711.843L514.653 696Z" fill="#F4F8FE"/>
<path d="M508.052 706.146L536.591 722.634L508.052 739.102V706.146Z" fill="#F4F8FE"/>
<path d="M466.994 775.861L496.741 758.669V793.033L466.994 775.861Z" fill="#F4F8FE"/>
<path d="M461.278 784.799L491.87 802.475L461.278 820.15V784.799Z" fill="#F4F8FE"/>
<path d="M462.365 839.939L489.656 855.702L462.365 871.465V839.939Z" fill="#F4F8FE"/>
<path d="M471.723 882.316L494.386 869.25V895.401L471.723 882.316Z" fill="#F4F8FE"/>
<path d="M513.305 928.195L526.065 935.563L513.305 942.931V928.195Z" fill="#F4F8FE"/>
<path d="M527.413 962.177L535.685 957.385V966.948L527.413 962.177Z" fill="#F4F8FE"/>
<path d="M562.936 1014.16L565.09 1015.4L562.936 1016.65V1014.16Z" fill="#F4F8FE"/>
<path d="M1070.51 615.918L1070.93 616.16L1070.51 616.401V615.918Z" fill="#F4F8FE"/>
<path d="M1037.88 562.932L1040.94 561.161V564.684L1037.88 562.932Z" fill="#F4F8FE"/>
<path d="M1022.99 533.601L1027.68 536.298L1022.99 539.016V533.601Z" fill="#F4F8FE"/>
<path d="M1022.38 479.327L1028.88 483.071L1022.38 486.836V479.327Z" fill="#F4F8FE"/>
<path d="M988.389 483.071L996.541 478.36V487.782L988.389 483.071Z" fill="#F4F8FE"/>
<path d="M928.433 476.247L940.267 483.071L928.433 489.896V476.247Z" fill="#F4F8FE"/>
<path d="M892.648 483.071L906.153 475.28V490.862L892.648 483.071Z" fill="#F4F8FE"/>
<path d="M834.684 473.509L851.228 483.071L834.684 492.634V473.509Z" fill="#F4F8FE"/>
<path d="M797.832 483.071L815.282 473.005V493.137L797.832 483.071Z" fill="#F4F8FE"/>
<path d="M742.001 472.643L760.055 483.071L742.001 493.499V472.643Z" fill="#F4F8FE"/>
<path d="M705.391 483.071L723.223 472.764V493.378L705.391 483.071Z" fill="#F4F8FE"/>
<path d="M650.084 473.126L667.312 483.071L650.084 493.016V473.126Z" fill="#F4F8FE"/>
<path d="M614.037 483.071L630.642 473.489V492.654L614.037 483.071Z" fill="#F4F8FE"/>
<path d="M603.511 498.915L622.189 509.685L603.511 520.475V498.915Z" fill="#F4F8FE"/>
<path d="M564.406 562.932L586.323 550.27V575.575L564.406 562.932Z" fill="#F4F8FE"/>
<path d="M555.973 576.239L578.997 589.546L555.973 602.832V576.239Z" fill="#F4F8FE"/>
<path d="M515.619 642.773L541.582 627.775V657.771L515.619 642.773Z" fill="#F4F8FE"/>
<path d="M508.313 653.362L536.068 669.386L508.313 685.411V653.362Z" fill="#F4F8FE"/>
<path d="M466.169 722.634L497.163 704.717V740.53L466.169 722.634Z" fill="#F4F8FE"/>
<path d="M460.734 730.626L492.957 749.247L460.734 767.849V730.626Z" fill="#F4F8FE"/>
<path d="M418.63 802.475L451.798 783.31V821.64L418.63 802.475Z" fill="#F4F8FE"/>
<path d="M414.242 809.782L447.672 829.088L414.242 848.394V809.782Z" fill="#F4F8FE"/>
<path d="M420.28 855.702L450.973 837.966V873.438L420.28 855.702Z" fill="#F4F8FE"/>
<path d="M464.257 896.448L485.892 908.949L464.257 921.431V896.448Z" fill="#F4F8FE"/>
<path d="M475.95 935.563L492.273 926.142V944.985L475.95 935.563Z" fill="#F4F8FE"/>
<path d="M515.116 984.562L522.462 988.79L515.116 993.038V984.562Z" fill="#F4F8FE"/>
<path d="M530.09 1015.4L534.337 1012.95V1017.86L530.09 1015.4Z" fill="#F4F8FE"/>
<path d="M1085.44 589.546L1086.28 589.062V590.029L1085.44 589.546Z" fill="#F4F8FE"/>
<path d="M1070 561.805L1071.93 562.932L1070 564.039V561.805Z" fill="#F4F8FE"/>
<path d="M1036.53 509.685L1041.6 506.766V512.624L1036.53 509.685Z" fill="#F4F8FE"/>
<path d="M1035.69 456.457L1042.05 452.793V460.121L1035.69 456.457Z" fill="#F4F8FE"/>
<path d="M975.347 451.062L984.686 456.458L975.347 461.853V451.062Z" fill="#F4F8FE"/>
<path d="M940.448 456.457L951.377 450.136V462.779L940.448 456.457Z" fill="#F4F8FE"/>
<path d="M881.719 448.566L895.405 456.457L881.719 464.349V448.566Z" fill="#F4F8FE"/>
<path d="M845.693 456.458L860.486 447.922V464.993L845.693 456.458Z" fill="#F4F8FE"/>
<path d="M788.896 447.418L804.534 456.457L788.896 465.496V447.418Z" fill="#F4F8FE"/>
<path d="M752.749 456.457L768.689 447.257V465.657L752.749 456.457Z" fill="#F4F8FE"/>
<path d="M696.878 447.721L712.013 456.458L696.878 465.195V447.721Z" fill="#F4F8FE"/>
<path d="M661.254 456.458L676.168 447.841V465.054L661.254 456.458Z" fill="#F4F8FE"/>
<path d="M605.182 448.566L618.848 456.457L605.182 464.349V448.566Z" fill="#F4F8FE"/>
<path d="M566.861 509.685L585.096 499.156V520.214L566.861 509.685Z" fill="#F4F8FE"/>
<path d="M556.818 524.461L577.327 536.298L556.818 548.156V524.461Z" fill="#F4F8FE"/>
<path d="M517.27 589.546L540.757 575.977V603.114L517.27 589.546Z" fill="#F4F8FE"/>
<path d="M509.159 601.604L534.357 616.159L509.159 630.714V601.604Z" fill="#F4F8FE"/>
<path d="M467.296 669.387L496.6 652.456V686.317L467.296 669.387Z" fill="#F4F8FE"/>
<path d="M461.016 677.902L492.373 696L461.016 714.098V677.902Z" fill="#F4F8FE"/>
<path d="M417.905 749.248L452.161 729.458V769.017L417.905 749.248Z" fill="#F4F8FE"/>
<path d="M413.84 755.851L448.477 775.861L413.84 795.852V755.851Z" fill="#F4F8FE"/>
<path d="M371.353 829.088L406.313 808.896V849.28L371.353 829.088Z" fill="#F4F8FE"/>
<path d="M415.571 865.345L444.996 882.315L415.571 899.306V865.345Z" fill="#F4F8FE"/>
<path d="M424.064 908.949L449.081 894.495V923.384L424.064 908.949Z" fill="#F4F8FE"/>
<path d="M466.551 953.661L481.304 962.177L466.551 970.692V953.661Z" fill="#F4F8FE"/>
<path d="M480.016 988.79L490.24 982.892V994.689L480.016 988.79Z" fill="#F4F8FE"/>
<path d="M516.464 1040.1L519.765 1042.02L516.464 1043.95V1040.1Z" fill="#F4F8FE"/>
<path d="M532.364 1068.63L533.21 1068.15V1069.13L532.364 1068.63Z" fill="#F4F8FE"/>
<path d="M1116.59 589.304L1117 589.546L1116.59 589.787V589.304Z" fill="#F4F8FE"/>
<path d="M1084.47 536.298L1086.77 534.97V537.647L1084.47 536.298Z" fill="#F4F8FE"/>
<path d="M1069.42 507.551L1073.1 509.685L1069.42 511.819V507.551Z" fill="#F4F8FE"/>
<path d="M1022.14 425.677L1029.37 429.844L1022.14 434.011V425.677Z" fill="#F4F8FE"/>
<path d="M988.228 429.844L996.621 424.992V434.695L988.228 429.844Z" fill="#F4F8FE"/>
<path d="M928.734 423.523L939.663 429.844L928.734 436.165V423.523Z" fill="#F4F8FE"/>
<path d="M893.714 429.844L905.609 422.959V436.709L893.714 429.844Z" fill="#F4F8FE"/>
<path d="M835.73 422.093L849.114 429.844L835.73 437.574V422.093Z" fill="#F4F8FE"/>
<path d="M800.388 429.844L814.014 421.973V437.695L800.388 429.844Z" fill="#F4F8FE"/>
<path d="M743.551 422.093L756.955 429.844L743.551 437.574V422.093Z" fill="#F4F8FE"/>
<path d="M708.652 429.844L721.593 422.355V437.313L708.652 429.844Z" fill="#F4F8FE"/>
<path d="M651.815 422.878L663.871 429.844L651.815 436.809V422.878Z" fill="#F4F8FE"/>
<path d="M617.519 429.844L628.891 423.261V436.407L617.519 429.844Z" fill="#F4F8FE"/>
<path d="M570.102 456.458L583.486 448.727V464.188L570.102 456.458Z" fill="#F4F8FE"/>
<path d="M558.388 473.972L574.167 483.071L558.388 492.17V473.972Z" fill="#F4F8FE"/>
<path d="M519.343 536.298L539.731 524.542V548.075L519.343 536.298Z" fill="#F4F8FE"/>
<path d="M510.145 550.088L532.385 562.932L510.145 575.756V550.088Z" fill="#F4F8FE"/>
<path d="M469.57 616.159L495.473 601.202V631.117L469.57 616.159Z" fill="#F4F8FE"/>
<path d="M462.123 626.567L490.179 642.773L462.123 658.979V626.567Z" fill="#F4F8FE"/>
<path d="M419.133 696L451.557 677.298V714.722L419.133 696Z" fill="#F4F8FE"/>
<path d="M413.961 702.845L448.216 722.634L413.961 742.403V702.845Z" fill="#F4F8FE"/>
<path d="M370.87 775.861L406.534 755.267V796.455L370.87 775.861Z" fill="#F4F8FE"/>
<path d="M367.307 781.719L403.233 802.475L367.307 823.23V781.719Z" fill="#F4F8FE"/>
<path d="M367.992 836.134L401.885 855.702L367.992 875.27V836.134Z" fill="#F4F8FE"/>
<path d="M373.889 882.316L405.045 864.338V900.313L373.889 882.316Z" fill="#F4F8FE"/>
<path d="M417.825 922.458L440.507 935.563L417.825 948.648V922.458Z" fill="#F4F8FE"/>
<path d="M428.874 962.176L446.686 951.889V972.463L428.874 962.176Z" fill="#F4F8FE"/>
<path d="M468.362 1010.01L477.701 1015.4L468.362 1020.8V1010.01Z" fill="#F4F8FE"/>
<path d="M483.155 1042.02L488.67 1038.86V1045.2L483.155 1042.02Z" fill="#F4F8FE"/>
<path d="M517.551 1095.24L517.571 1095.26H517.551V1095.24Z" fill="#F4F8FE"/>
<path d="M1131.61 562.932L1132.35 562.489V563.355L1131.61 562.932Z" fill="#F4F8FE"/>
<path d="M1116.23 535.453L1117.74 536.299L1116.23 537.164V535.453Z" fill="#F4F8FE"/>
<path d="M1083.51 483.071L1087.25 480.897V485.245L1083.51 483.071Z" fill="#F4F8FE"/>
<path d="M1069 453.599L1073.95 456.458L1069 459.316V453.599Z" fill="#F4F8FE"/>
<path d="M1068.87 400.15L1074.21 403.23L1068.87 406.311V400.15Z" fill="#F4F8FE"/>
<path d="M1035.69 403.23L1042.05 399.546V406.894L1035.69 403.23Z" fill="#F4F8FE"/>
<path d="M975.669 398.379L984.062 403.231L975.669 408.062V398.379Z" fill="#F4F8FE"/>
<path d="M941.495 403.23L950.853 397.815V408.625L941.495 403.23Z" fill="#F4F8FE"/>
<path d="M882.685 397.01L893.473 403.23L882.685 409.451V397.01Z" fill="#F4F8FE"/>
<path d="M848.108 403.23L859.278 396.768V409.672L848.108 403.23Z" fill="#F4F8FE"/>
<path d="M790.345 396.728L801.616 403.23L790.345 409.713V396.728Z" fill="#F4F8FE"/>
<path d="M756.03 403.23L767.059 396.849V409.592L756.03 403.23Z" fill="#F4F8FE"/>
<path d="M698.488 397.271L708.793 403.23L698.488 409.169V397.271Z" fill="#F4F8FE"/>
<path d="M664.656 403.23L674.457 397.553V408.887L664.656 403.23Z" fill="#F4F8FE"/>
<path d="M606.752 398.057L615.708 403.23L606.752 408.404V398.057Z" fill="#F4F8FE"/>
<path d="M573.02 403.231L582.016 398.037V408.424L573.02 403.231Z" fill="#F4F8FE"/>
<path d="M559.958 423.442L571.047 429.844L559.958 436.246V423.442Z" fill="#F4F8FE"/>
<path d="M522.563 483.071L538.1 474.093V492.05L522.563 483.071Z" fill="#F4F8FE"/>
<path d="M511.614 499.377L529.466 509.685L511.614 520.012V499.377Z" fill="#F4F8FE"/>
<path d="M471.864 562.932L494.305 549.968V575.877L471.864 562.932Z" fill="#F4F8FE"/>
<path d="M463.411 575.595L487.563 589.546L463.411 603.497V575.595Z" fill="#F4F8FE"/>
<path d="M421.77 642.773L450.228 626.326V659.22L421.77 642.773Z" fill="#F4F8FE"/>
<path d="M415.148 651.671L445.841 669.386L415.148 687.102V651.671Z" fill="#F4F8FE"/>
<path d="M371.574 722.634L406.192 702.624V742.625L371.574 722.634Z" fill="#F4F8FE"/>
<path d="M367.368 728.593L403.133 749.247L367.368 769.882V728.593Z" fill="#F4F8FE"/>
<path d="M324.599 802.475L360.545 781.719V823.23L324.599 802.475Z" fill="#F4F8FE"/>
<path d="M321.459 808.756L356.681 829.089L321.459 849.441V808.756Z" fill="#F4F8FE"/>
<path d="M325.767 855.702L359.961 835.973V875.451L325.767 855.702Z" fill="#F4F8FE"/>
<path d="M369.783 892.482L398.282 908.949L369.783 925.397V892.482Z" fill="#F4F8FE"/>
<path d="M378.458 935.563L402.75 921.531V949.574L378.458 935.563Z" fill="#F4F8FE"/>
<path d="M420.22 979.852L435.697 988.79L420.22 997.728V979.852Z" fill="#F4F8FE"/>
<path d="M432.9 1015.4L444.674 1008.6V1022.21L432.9 1015.4Z" fill="#F4F8FE"/>
<path d="M470.133 1066.32L474.159 1068.63L470.133 1070.97V1066.32Z" fill="#F4F8FE"/>
<path d="M485.993 1095.26L487.261 1094.52V1095.99L485.993 1095.26Z" fill="#F4F8FE"/>
<path d="M1178.18 589.546L1178.2 589.525V589.546H1178.18Z" fill="#F4F8FE"/>
<path d="M1162.68 562.69L1163.11 562.932L1162.68 563.153V562.69Z" fill="#F4F8FE"/>
<path d="M1130.86 509.685L1132.72 508.618V510.752L1130.86 509.685Z" fill="#F4F8FE"/>
<path d="M1115.81 481.481L1118.57 483.071L1115.81 484.682V481.481Z" fill="#F4F8FE"/>
<path d="M1082.92 429.844L1087.55 427.167V432.501L1082.92 429.844Z" fill="#F4F8FE"/>
<path d="M1082.86 376.617L1087.59 373.879V379.334L1082.86 376.617Z" fill="#F4F8FE"/>
<path d="M1022.44 372.933L1028.78 376.617L1022.44 380.281V372.933Z" fill="#F4F8FE"/>
<path d="M989.134 376.617L996.178 372.53V380.683L989.134 376.617Z" fill="#F4F8FE"/>
<path d="M929.56 371.725L938.013 376.617L929.56 381.488V371.725Z" fill="#F4F8FE"/>
<path d="M895.687 376.617L904.623 371.463V381.75L895.687 376.617Z" fill="#F4F8FE"/>
<path d="M837.038 371.141L846.498 376.617L837.038 382.072V371.141Z" fill="#F4F8FE"/>
<path d="M803.286 376.617L812.565 371.242V381.972L803.286 376.617Z" fill="#F4F8FE"/>
<path d="M745.041 371.443L753.977 376.617L745.041 381.77V371.443Z" fill="#F4F8FE"/>
<path d="M711.611 376.617L720.124 371.685V381.529L711.611 376.617Z" fill="#F4F8FE"/>
<path d="M653.244 372.127L660.993 376.617L653.244 381.086V372.127Z" fill="#F4F8FE"/>
<path d="M620.257 376.617L627.522 372.409V380.804L620.257 376.617Z" fill="#F4F8FE"/>
<path d="M561.165 372.289L568.632 376.617L561.165 380.925V372.289Z" fill="#F4F8FE"/>
<path d="M525.562 429.844L536.611 423.462V436.226L525.562 429.844Z" fill="#F4F8FE"/>
<path d="M513.144 448.788L526.407 456.458L513.144 464.108V448.788Z" fill="#F4F8FE"/>
<path d="M475.044 509.685L492.735 499.478V519.891L475.044 509.685Z" fill="#F4F8FE"/>
<path d="M464.74 524.663L484.926 536.298L464.74 547.955V524.663Z" fill="#F4F8FE"/>
<path d="M424.869 589.546L448.679 575.776V603.295L424.869 589.546Z" fill="#F4F8FE"/>
<path d="M416.839 601.363L442.46 616.159L416.839 630.956V601.363Z" fill="#F4F8FE"/>
<path d="M374.392 669.386L404.783 651.852V686.941L374.392 669.386Z" fill="#F4F8FE"/>
<path d="M368.435 677.177L401.019 696L368.435 714.823V677.177Z" fill="#F4F8FE"/>
<path d="M324.901 749.248L360.384 728.754V769.741L324.901 749.248Z" fill="#F4F8FE"/>
<path d="M321.339 755.307L356.902 775.861L321.339 796.395V755.307Z" fill="#F4F8FE"/>
<path d="M279.617 829.089L313.912 809.279V848.898L279.617 829.089Z" fill="#F4F8FE"/>
<path d="M322.707 864.137L354.185 882.315L322.707 900.494V864.137Z" fill="#F4F8FE"/>
<path d="M329.49 908.949L358.09 892.421V925.457L329.49 908.949Z" fill="#F4F8FE"/>
<path d="M372.48 950.399L392.888 962.176L372.48 973.953V950.399Z" fill="#F4F8FE"/>
<path d="M383.489 988.79L400.234 979.127V998.453L383.489 988.79Z" fill="#F4F8FE"/>
<path d="M422.212 1036.54L431.712 1042.02L422.212 1047.51V1036.54Z" fill="#F4F8FE"/>
<path d="M436.965 1068.63L442.641 1065.37V1071.91L436.965 1068.63Z" fill="#F4F8FE"/>
<path d="M471.381 1121.72L471.643 1121.88L471.381 1122.02V1121.72Z" fill="#F4F8FE"/>
<path d="M1177.7 536.298L1178.44 535.875V536.741L1177.7 536.298Z" fill="#F4F8FE"/>
<path d="M1162.4 508.96L1163.67 509.685L1162.4 510.43V508.96Z" fill="#F4F8FE"/>
<path d="M1130.2 456.457L1133.06 454.807V458.108L1130.2 456.457Z" fill="#F4F8FE"/>
<path d="M1115.55 427.791L1119.11 429.844L1115.55 431.897V427.791Z" fill="#F4F8FE"/>
<path d="M1069.02 347.185L1073.89 349.983L1069.02 352.801V347.185Z" fill="#F4F8FE"/>
<path d="M1036.31 349.983L1041.72 346.863V353.103L1036.31 349.983Z" fill="#F4F8FE"/>
<path d="M976.354 346.339L982.673 349.983L976.354 353.647V346.339Z" fill="#F4F8FE"/>
<path d="M943.205 349.983L950.008 346.058V353.909L943.205 349.983Z" fill="#F4F8FE"/>
<path d="M883.812 345.715L891.219 349.983L883.812 354.271V345.715Z" fill="#F4F8FE"/>
<path d="M850.583 349.983L858.05 345.675V354.311L850.583 349.983Z" fill="#F4F8FE"/>
<path d="M791.653 345.735L799.02 349.983L791.653 354.251V345.735Z" fill="#F4F8FE"/>
<path d="M758.626 349.983L765.751 345.876V354.11L758.626 349.983Z" fill="#F4F8FE"/>
<path d="M699.716 346.158L706.357 349.983L699.716 353.828V346.158Z" fill="#F4F8FE"/>
<path d="M667.071 349.983L673.25 346.42V353.567L667.071 349.983Z" fill="#F4F8FE"/>
<path d="M607.839 346.682L613.554 349.983L607.839 353.285V346.682Z" fill="#F4F8FE"/>
<path d="M575.133 349.983L580.95 346.621V353.365L575.133 349.983Z" fill="#F4F8FE"/>
<path d="M527.715 376.617L535.524 372.087V381.126L527.715 376.617Z" fill="#F4F8FE"/>
<path d="M514.472 397.855L523.75 403.231L514.472 408.585V397.855Z" fill="#F4F8FE"/>
<path d="M478.043 456.457L491.226 448.828V464.067L478.043 456.457Z" fill="#F4F8FE"/>
<path d="M466.43 474.354L481.545 483.071L466.43 491.788V474.354Z" fill="#F4F8FE"/>
<path d="M427.767 536.298L447.23 525.065V547.552L427.767 536.298Z" fill="#F4F8FE"/>
<path d="M418.308 550.652L439.541 562.932L418.308 575.192V550.652Z" fill="#F4F8FE"/>
<path d="M378.115 616.159L402.931 601.826V630.473L378.115 616.159Z" fill="#F4F8FE"/>
<path d="M370.206 627.03L397.457 642.773L370.206 658.516V627.03Z" fill="#F4F8FE"/>
<path d="M327.276 696L359.197 677.56V714.441L327.276 696Z" fill="#F4F8FE"/>
<path d="M321.963 703.146L355.674 722.634L321.963 742.101V703.146Z" fill="#F4F8FE"/>
<path d="M279.476 775.861L313.972 755.931V795.771L279.476 775.861Z" fill="#F4F8FE"/>
<path d="M275.672 782.666L309.967 802.475L275.672 822.284V782.666Z" fill="#F4F8FE"/>
<path d="M276.417 837.181L308.498 855.702L276.417 874.223V837.181Z" fill="#F4F8FE"/>
<path d="M282.112 882.316L312.644 864.701V899.951L282.112 882.316Z" fill="#F4F8FE"/>
<path d="M325.002 921.35L349.616 935.563L325.002 949.776V921.35Z" fill="#F4F8FE"/>
<path d="M334.803 962.177L355.453 950.239V974.094L334.803 962.177Z" fill="#F4F8FE"/>
<path d="M374.714 1007.47L388.46 1015.4L374.714 1023.34V1007.47Z" fill="#F4F8FE"/>
<path d="M387.937 1042.02L398.02 1036.2V1047.86L387.937 1042.02Z" fill="#F4F8FE"/>
<path d="M424.205 1093.21L427.747 1095.26L424.205 1097.32V1093.21Z" fill="#F4F8FE"/>
<path d="M439.904 1121.88L441.172 1121.13V1122.6L439.904 1121.88Z" fill="#F4F8FE"/>
<path d="M1177.2 483.071L1178.68 482.206V483.937L1177.2 483.071Z" fill="#F4F8FE"/>
<path d="M1162.12 455.25L1164.23 456.457L1162.12 457.665V455.25Z" fill="#F4F8FE"/>
<path d="M1129.88 403.23L1133.2 401.298V405.143L1129.88 403.23Z" fill="#F4F8FE"/>
<path d="M1115.47 374.422L1119.25 376.617L1115.47 378.791V374.422Z" fill="#F4F8FE"/>
<path d="M1115.63 321.457L1118.95 323.37L1115.63 325.282V321.457Z" fill="#F4F8FE"/>
<path d="M1083.33 323.369L1087.35 321.054V325.684L1083.33 323.369Z" fill="#F4F8FE"/>
<path d="M1022.99 320.652L1027.68 323.37L1022.99 326.087V320.652Z" fill="#F4F8FE"/>
<path d="M990.543 323.369L995.474 320.531V326.208L990.543 323.369Z" fill="#F4F8FE"/>
<path d="M930.586 320.269L935.96 323.369L930.586 326.469V320.269Z" fill="#F4F8FE"/>
<path d="M897.921 323.369L903.516 320.148V326.59L897.921 323.369Z" fill="#F4F8FE"/>
<path d="M838.327 320.148L843.922 323.369L838.327 326.59V320.148Z" fill="#F4F8FE"/>
<path d="M805.762 323.369L811.317 320.148V326.59L805.762 323.369Z" fill="#F4F8FE"/>
<path d="M746.248 320.29L751.562 323.37L746.248 326.45V320.29Z" fill="#F4F8FE"/>
<path d="M713.804 323.369L719.017 320.35V326.389L713.804 323.369Z" fill="#F4F8FE"/>
<path d="M654.29 320.692L658.92 323.369L654.29 326.047V320.692Z" fill="#F4F8FE"/>
<path d="M622.169 323.37L626.576 320.833V325.926L622.169 323.37Z" fill="#F4F8FE"/>
<path d="M562.011 320.531L566.922 323.369L562.011 326.208V320.531Z" fill="#F4F8FE"/>
<path d="M529.285 323.369L534.739 320.229V326.53L529.285 323.369Z" fill="#F4F8FE"/>
<path d="M515.257 346.017L522.14 349.983L515.257 353.969V346.017Z" fill="#F4F8FE"/>
<path d="M480.438 403.231L490.039 397.674V408.767L480.438 403.231Z" fill="#F4F8FE"/>
<path d="M467.738 423.382L478.929 429.844L467.738 436.286V423.382Z" fill="#F4F8FE"/>
<path d="M431.028 483.071L445.599 474.656V491.486L431.028 483.071Z" fill="#F4F8FE"/>
<path d="M419.938 500.263L436.261 509.685L419.938 519.106V500.263Z" fill="#F4F8FE"/>
<path d="M381.154 562.932L401.402 551.236V574.608L381.154 562.932Z" fill="#F4F8FE"/>
<path d="M372.037 576.964L393.814 589.546L372.037 602.128V576.964Z" fill="#F4F8FE"/>
<path d="M331.08 642.773L357.305 627.614V657.932L331.08 642.773Z" fill="#F4F8FE"/>
<path d="M323.633 652.818L352.333 669.386L323.633 685.954V652.818Z" fill="#F4F8FE"/>
<path d="M280.744 722.634L313.349 703.791V741.457L280.744 722.634Z" fill="#F4F8FE"/>
<path d="M275.954 729.901L309.424 749.248L275.954 768.574V729.901Z" fill="#F4F8FE"/>
<path d="M234.473 802.475L267.34 783.491V821.458L234.473 802.475Z" fill="#F4F8FE"/>
<path d="M230.508 810.87L262.066 829.088L230.508 847.327V810.87Z" fill="#F4F8FE"/>
<path d="M236.083 855.702L266.534 838.127V873.296L236.083 855.702Z" fill="#F4F8FE"/>
<path d="M278.268 893.629L304.795 908.949L278.268 924.249V893.629Z" fill="#F4F8FE"/>
<path d="M286.741 935.563L310.33 921.934V949.192L286.741 935.563Z" fill="#F4F8FE"/>
<path d="M327.598 979.087L344.404 988.79L327.598 998.493V979.087Z" fill="#F4F8FE"/>
<path d="M339.493 1015.4L353.098 1007.55V1023.26L339.493 1015.4Z" fill="#F4F8FE"/>
<path d="M377.049 1064.79L383.751 1068.63L377.049 1072.5V1064.79Z" fill="#F4F8FE"/>
<path d="M391.983 1095.26L395.988 1092.95V1097.56L391.983 1095.26Z" fill="#F4F8FE"/>
<path d="M1176.79 429.844L1178.89 428.636V431.032L1176.79 429.844Z" fill="#F4F8FE"/>
<path d="M1161.98 401.741L1164.54 403.23L1161.98 404.7V401.741Z" fill="#F4F8FE"/>
<path d="M1129.88 349.983L1133.2 348.07V351.915L1129.88 349.983Z" fill="#F4F8FE"/>
<path d="M1130.34 296.756L1132.98 295.246V298.266L1130.34 296.756Z" fill="#F4F8FE"/>
<path d="M1069.54 294.843L1072.86 296.756L1069.54 298.668V294.843Z" fill="#F4F8FE"/>
<path d="M1037.56 296.756L1041.1 294.723V298.789L1037.56 296.756Z" fill="#F4F8FE"/>
<path d="M977.279 294.723L980.822 296.756L977.279 298.789V294.723Z" fill="#F4F8FE"/>
<path d="M945.299 296.756L948.962 294.642V298.87L945.299 296.756Z" fill="#F4F8FE"/>
<path d="M885.04 294.602L888.763 296.756L885.04 298.91V294.602Z" fill="#F4F8FE"/>
<path d="M853.079 296.756L856.782 294.622V298.89L853.079 296.756Z" fill="#F4F8FE"/>
<path d="M792.861 294.622L796.584 296.756L792.861 298.89V294.622Z" fill="#F4F8FE"/>
<path d="M761.061 296.756L764.523 294.743V298.769L761.061 296.756Z" fill="#F4F8FE"/>
<path d="M700.762 294.743L704.244 296.756L700.762 298.769V294.743Z" fill="#F4F8FE"/>
<path d="M669.043 296.756L672.263 294.884V298.628L669.043 296.756Z" fill="#F4F8FE"/>
<path d="M608.664 294.884L611.904 296.756L608.664 298.628V294.884Z" fill="#F4F8FE"/>
<path d="M576.643 296.756L580.205 294.702V298.809L576.643 296.756Z" fill="#F4F8FE"/>
<path d="M515.941 293.958L520.792 296.756L515.941 299.554V293.958Z" fill="#F4F8FE"/>
<path d="M482.028 349.983L489.233 345.816V354.15L482.028 349.983Z" fill="#F4F8FE"/>
<path d="M468.584 371.624L477.238 376.617L468.584 381.589V371.624Z" fill="#F4F8FE"/>
<path d="M433.403 429.844L444.412 423.482V436.185L433.403 429.844Z" fill="#F4F8FE"/>
<path d="M421.266 449.331L433.604 456.458L421.266 463.584V449.331Z" fill="#F4F8FE"/>
<path d="M384.495 509.685L399.731 500.887V518.502L384.495 509.685Z" fill="#F4F8FE"/>
<path d="M373.587 526.434L390.694 536.298L373.587 546.183V526.434Z" fill="#F4F8FE"/>
<path d="M335.025 589.546L355.332 577.809V601.262L335.025 589.546Z" fill="#F4F8FE"/>
<path d="M325.767 603.255L348.087 616.159L325.767 629.043V603.255Z" fill="#F4F8FE"/>
<path d="M284.226 669.387L311.598 653.583V685.19L284.226 669.387Z" fill="#F4F8FE"/>
<path d="M277.222 678.889L306.868 696L277.222 713.132V678.889Z" fill="#F4F8FE"/>
<path d="M234.896 749.247L267.118 730.626V767.849L234.896 749.247Z" fill="#F4F8FE"/>
<path d="M230.267 757.22L262.529 775.861L230.267 794.483V757.22Z" fill="#F4F8FE"/>
<path d="M190.316 829.088L220.284 811.775V846.401L190.316 829.088Z" fill="#F4F8FE"/>
<path d="M232.118 866.895L258.826 882.316L232.118 897.756V866.895Z" fill="#F4F8FE"/>
<path d="M240.189 908.95L264.482 894.918V922.961L240.189 908.95Z" fill="#F4F8FE"/>
<path d="M280.905 951.406L299.542 962.177L280.905 972.947V951.406Z" fill="#F4F8FE"/>
<path d="M291.773 988.79L307.834 979.509V998.07L291.773 988.79Z" fill="#F4F8FE"/>
<path d="M329.852 1036.22L339.895 1042.02L329.852 1047.84V1036.22Z" fill="#F4F8FE"/>
<path d="M344.142 1068.63L350.764 1064.81V1072.48L344.142 1068.63Z" fill="#F4F8FE"/>
<path d="M378.719 1120.87L380.43 1121.88L378.719 1122.86V1120.87Z" fill="#F4F8FE"/>
<path d="M1176.65 376.617L1178.97 375.268V377.925L1176.65 376.617Z" fill="#F4F8FE"/>
<path d="M1161.96 348.473L1164.58 349.983L1161.96 351.513V348.473Z" fill="#F4F8FE"/>
<path d="M1116.01 268.894L1118.18 270.142L1116.01 271.39V268.894Z" fill="#F4F8FE"/>
<path d="M1084.41 270.142L1086.81 268.753V271.531L1084.41 270.142Z" fill="#F4F8FE"/>
<path d="M1023.75 268.753L1026.17 270.142L1023.75 271.531V268.753Z" fill="#F4F8FE"/>
<path d="M992.254 270.142L994.628 268.773V271.511L992.254 270.142Z" fill="#F4F8FE"/>
<path d="M931.653 268.894L933.806 270.142L931.653 271.37V268.894Z" fill="#F4F8FE"/>
<path d="M900.215 270.142L902.369 268.894V271.37L900.215 270.142Z" fill="#F4F8FE"/>
<path d="M839.494 268.914L841.607 270.142L839.494 271.37V268.914Z" fill="#F4F8FE"/>
<path d="M808.056 270.142L810.17 268.914V271.37L808.056 270.142Z" fill="#F4F8FE"/>
<path d="M747.234 268.793L749.569 270.142L747.234 271.471V268.793Z" fill="#F4F8FE"/>
<path d="M715.716 270.142L718.071 268.793V271.491L715.716 270.142Z" fill="#F4F8FE"/>
<path d="M655.055 268.793L657.39 270.142L655.055 271.491V268.793Z" fill="#F4F8FE"/>
<path d="M623.497 270.142L625.912 268.753V271.531L623.497 270.142Z" fill="#F4F8FE"/>
<path d="M562.534 268.209L565.875 270.142L562.534 272.055V268.209Z" fill="#F4F8FE"/>
<path d="M530.231 270.142L534.276 267.807V272.477L530.231 270.142Z" fill="#F4F8FE"/>
<path d="M483.155 296.756L488.67 293.575V299.937L483.155 296.756Z" fill="#F4F8FE"/>
<path d="M469.308 319.625L475.809 323.369L469.308 327.114V319.625Z" fill="#F4F8FE"/>
<path d="M434.872 376.617L443.687 371.523V381.69L434.872 376.617Z" fill="#F4F8FE"/>
<path d="M422.112 397.553L431.913 403.23L422.112 408.887V397.553Z" fill="#F4F8FE"/>
<path d="M386.951 456.458L398.503 449.774V463.121L386.951 456.458Z" fill="#F4F8FE"/>
<path d="M375.137 475.864L387.595 483.071L375.137 490.278V475.864Z" fill="#F4F8FE"/>
<path d="M338.265 536.299L353.722 527.38V545.237L338.265 536.299Z" fill="#F4F8FE"/>
<path d="M327.518 553.068L344.565 562.932L327.518 572.776V553.068Z" fill="#F4F8FE"/>
<path d="M288.794 616.159L309.303 604.322V627.997L288.794 616.159Z" fill="#F4F8FE"/>
<path d="M279.375 629.386L302.581 642.773L279.375 656.16V629.386Z" fill="#F4F8FE"/>
<path d="M237.552 696L265.79 679.694V712.327L237.552 696Z" fill="#F4F8FE"/>
<path d="M230.991 705.24L261.1 722.634L230.991 740.007V705.24Z" fill="#F4F8FE"/>
<path d="M189.611 775.861L220.626 757.924V793.778L189.611 775.861Z" fill="#F4F8FE"/>
<path d="M184.841 785.001L215.111 802.475L184.841 819.949V785.001Z" fill="#F4F8FE"/>
<path d="M186.049 840.301L212.696 855.702L186.049 871.102V840.301Z" fill="#F4F8FE"/>
<path d="M193.999 882.316L218.432 868.204V896.428L193.999 882.316Z" fill="#F4F8FE"/>
<path d="M234.493 924.269L254.056 935.563L234.493 946.836V924.269Z" fill="#F4F8FE"/>
<path d="M245.301 962.176L261.925 952.574V971.779L245.301 962.176Z" fill="#F4F8FE"/>
<path d="M283.159 1008.56L295.033 1015.4L283.159 1022.27V1008.56Z" fill="#F4F8FE"/>
<path d="M296.362 1042.02L305.539 1036.72V1047.33L296.362 1042.02Z" fill="#F4F8FE"/>
<path d="M331.945 1093.09L335.709 1095.26L331.945 1097.42V1093.09Z" fill="#F4F8FE"/>
<path d="M347.523 1121.88L349.093 1120.97V1122.78L347.523 1121.88Z" fill="#F4F8FE"/>
<path d="M1176.73 323.369L1178.91 322.121V324.638L1176.73 323.369Z" fill="#F4F8FE"/>
<path d="M1162.14 295.548L1164.21 296.756L1162.14 297.964V295.548Z" fill="#F4F8FE"/>
<path d="M1162.48 242.905L1163.53 243.529L1162.48 244.133V242.905Z" fill="#F4F8FE"/>
<path d="M1131.25 243.529L1132.51 242.784V244.253L1131.25 243.529Z" fill="#F4F8FE"/>
<path d="M1070.1 242.583L1071.73 243.529L1070.1 244.455V242.583Z" fill="#F4F8FE"/>
<path d="M1038.93 243.528L1040.42 242.663V244.394L1038.93 243.528Z" fill="#F4F8FE"/>
<path d="M978.105 242.905L979.171 243.529L978.105 244.133V242.905Z" fill="#F4F8FE"/>
<path d="M947.049 243.529L948.076 242.925V244.112L947.049 243.529Z" fill="#F4F8FE"/>
<path d="M885.946 242.945L886.952 243.529L885.946 244.112V242.945Z" fill="#F4F8FE"/>
<path d="M854.891 243.529L855.897 242.945V244.112L854.891 243.529Z" fill="#F4F8FE"/>
<path d="M793.686 242.824L794.914 243.529L793.686 244.233V242.824Z" fill="#F4F8FE"/>
<path d="M762.41 243.529L763.859 242.683V244.354L762.41 243.529Z" fill="#F4F8FE"/>
<path d="M701.346 242.522L703.077 243.529L701.346 244.535V242.522Z" fill="#F4F8FE"/>
<path d="M669.929 243.529L671.82 242.421V244.616L669.929 243.529Z" fill="#F4F8FE"/>
<path d="M608.966 242.16L611.3 243.529L608.966 244.877V242.16Z" fill="#F4F8FE"/>
<path d="M577.105 243.529L579.963 241.858V245.179L577.105 243.529Z" fill="#F4F8FE"/>
<path d="M516.203 241.153L520.309 243.529L516.203 245.884V241.153Z" fill="#F4F8FE"/>
<path d="M483.638 243.529L488.428 240.75V246.307L483.638 243.529Z" fill="#F4F8FE"/>
<path d="M469.65 267.002L475.105 270.142L469.65 273.283V267.002Z" fill="#F4F8FE"/>
<path d="M435.939 323.369L443.144 319.222V327.516L435.939 323.369Z" fill="#F4F8FE"/>
<path d="M422.695 345.312L430.766 349.983L422.695 354.653V345.312Z" fill="#F4F8FE"/>
<path d="M388.219 403.23L397.859 397.654V408.786L388.219 403.23Z" fill="#F4F8FE"/>
<path d="M376.002 424.147L385.844 429.844L376.002 435.521V424.147Z" fill="#F4F8FE"/>
<path d="M341.264 483.071L352.213 476.75V489.392L341.264 483.071Z" fill="#F4F8FE"/>
<path d="M329.168 502.699L341.264 509.685L329.168 516.69V502.699Z" fill="#F4F8FE"/>
<path d="M292.357 562.932L307.532 554.155V571.689L292.357 562.932Z" fill="#F4F8FE"/>
<path d="M281.569 579.943L298.193 589.546L281.569 599.128V579.943Z" fill="#F4F8FE"/>
<path d="M241.92 642.773L263.616 630.231V655.315L241.92 642.773Z" fill="#F4F8FE"/>
<path d="M232.863 655.234L257.357 669.387L232.863 683.539V655.234Z" fill="#F4F8FE"/>
<path d="M190.899 722.634L219.982 705.824V739.423L190.899 722.634Z" fill="#F4F8FE"/>
<path d="M184.881 731.854L215.011 749.247L184.881 766.621V731.854Z" fill="#F4F8FE"/>
<path d="M144.588 802.475L174.013 785.484V819.466L144.588 802.475Z" fill="#F4F8FE"/>
<path d="M139.577 813.043L167.371 829.088L139.577 845.133V813.043Z" fill="#F4F8FE"/>
<path d="M147.285 855.702L172.665 841.046V870.358L147.285 855.702Z" fill="#F4F8FE"/>
<path d="M188.383 897.595L208.027 908.949L188.383 920.283V897.595Z" fill="#F4F8FE"/>
<path d="M198.91 935.563L215.977 925.698V945.407L198.91 935.563Z" fill="#F4F8FE"/>
<path d="M236.908 981.644L249.266 988.79L236.908 995.937V981.644Z" fill="#F4F8FE"/>
<path d="M249.608 1015.4L259.772 1009.55V1021.28L249.608 1015.4Z" fill="#F4F8FE"/>
<path d="M285.353 1065.61L290.626 1068.63L285.353 1071.69V1065.61Z" fill="#F4F8FE"/>
<path d="M300.266 1095.26L303.587 1093.33V1097.18L300.266 1095.26Z" fill="#F4F8FE"/>
<path d="M1177.26 270.142L1178.66 269.337V270.947L1177.26 270.142Z" fill="#F4F8FE"/>
<path d="M1178.06 216.895L1178.26 216.794V217.016L1178.06 216.895Z" fill="#F4F8FE"/>
<path d="M1116.47 216.432L1117.28 216.895L1116.47 217.378V216.432Z" fill="#F4F8FE"/>
<path d="M1085.44 216.895L1086.28 216.432V217.378L1085.44 216.895Z" fill="#F4F8FE"/>
<path d="M1024.36 216.553L1024.96 216.895L1024.36 217.257V216.553Z" fill="#F4F8FE"/>
<path d="M993.562 216.895L993.964 216.694V217.136L993.562 216.895Z" fill="#F4F8FE"/>
<path d="M932.317 216.794L932.498 216.895L932.317 217.016V216.794Z" fill="#F4F8FE"/>
<path d="M901.523 216.895L901.705 216.794V217.016L901.523 216.895Z" fill="#F4F8FE"/>
<path d="M840.037 216.653L840.5 216.895L840.037 217.157V216.653Z" fill="#F4F8FE"/>
<path d="M809.043 216.895L809.687 216.532V217.277L809.043 216.895Z" fill="#F4F8FE"/>
<path d="M747.657 216.271L748.744 216.895L747.657 217.539V216.271Z" fill="#F4F8FE"/>
<path d="M716.32 216.895L717.769 216.069V217.74L716.32 216.895Z" fill="#F4F8FE"/>
<path d="M655.196 215.808L657.088 216.895L655.196 218.002V215.808Z" fill="#F4F8FE"/>
<path d="M623.638 216.895L625.832 215.647V218.163L623.638 216.895Z" fill="#F4F8FE"/>
<path d="M562.615 215.123L565.714 216.895L562.615 218.707V215.123Z" fill="#F4F8FE"/>
<path d="M530.392 216.895L534.196 214.7V219.109L530.392 216.895Z" fill="#F4F8FE"/>
<path d="M469.811 214.036L474.763 216.895L469.811 219.774V214.036Z" fill="#F4F8FE"/>
<path d="M436.744 270.142L442.741 266.68V273.605L436.744 270.142Z" fill="#F4F8FE"/>
<path d="M423.138 292.871L429.86 296.756L423.138 300.641V292.871Z" fill="#F4F8FE"/>
<path d="M389.104 349.983L397.437 345.172V354.795L389.104 349.983Z" fill="#F4F8FE"/>
<path d="M376.364 371.523L385.16 376.617L376.364 381.69V371.523Z" fill="#F4F8FE"/>
<path d="M342.794 429.844L351.448 424.852V434.837L342.794 429.844Z" fill="#F4F8FE"/>
<path d="M330.255 451.364L339.09 456.457L330.255 461.551V451.364Z" fill="#F4F8FE"/>
<path d="M295.637 509.685L305.882 503.766V515.603L295.637 509.685Z" fill="#F4F8FE"/>
<path d="M283.239 529.595L294.852 536.298L283.239 543.002V529.595Z" fill="#F4F8FE"/>
<path d="M246.549 589.546L261.302 581.03V598.061L246.549 589.546Z" fill="#F4F8FE"/>
<path d="M235.338 606.295L252.406 616.159L235.338 626.003V606.295Z" fill="#F4F8FE"/>
<path d="M194.703 669.387L218.09 655.878V682.915L194.703 669.387Z" fill="#F4F8FE"/>
<path d="M186.23 680.942L212.334 696L186.23 711.078V680.942Z" fill="#F4F8FE"/>
<path d="M144.568 749.247L174.013 732.236V766.238L144.568 749.247Z" fill="#F4F8FE"/>
<path d="M138.993 758.81L168.519 775.861L138.993 792.913V758.81Z" fill="#F4F8FE"/>
<path d="M99.807 829.088L127.259 813.225V844.952L99.807 829.088Z" fill="#F4F8FE"/>
<path d="M141.73 869.995L163.064 882.315L141.73 894.656V869.995Z" fill="#F4F8FE"/>
<path d="M152.257 908.949L170.169 898.602V919.297L152.257 908.949Z" fill="#F4F8FE"/>
<path d="M190.859 955.13L203.056 962.176L190.859 969.222V955.13Z" fill="#F4F8FE"/>
<path d="M203.519 988.79L213.682 982.932V994.648L203.519 988.79Z" fill="#F4F8FE"/>
<path d="M238.941 1038.43L245.16 1042.02L238.941 1045.62V1038.43Z" fill="#F4F8FE"/>
<path d="M253.654 1068.63L257.739 1066.28V1071.01L253.654 1068.63Z" fill="#F4F8FE"/>
<path d="M286.761 1121.25L287.808 1121.88L286.761 1122.48V1121.25Z" fill="#F4F8FE"/>
<path d="M1132.09 190.281H1132.11V190.301L1132.09 190.281Z" fill="#F4F8FE"/>
<path d="M1070.59 190.181L1070.77 190.281L1070.59 190.402V190.181Z" fill="#F4F8FE"/>
<path d="M793.968 190.04L794.391 190.281L793.968 190.543V190.04Z" fill="#F4F8FE"/>
<path d="M762.852 190.281L763.637 189.838V190.744L762.852 190.281Z" fill="#F4F8FE"/>
<path d="M701.447 189.456L702.896 190.281L701.447 191.127V189.456Z" fill="#F4F8FE"/>
<path d="M670.029 190.281L671.78 189.295V191.288L670.029 190.281Z" fill="#F4F8FE"/>
<path d="M608.946 188.912L611.341 190.281L608.946 191.67V188.912Z" fill="#F4F8FE"/>
<path d="M577.105 190.281L579.963 188.63V191.952L577.105 190.281Z" fill="#F4F8FE"/>
<path d="M516.263 188.047L520.148 190.281L516.263 192.536V188.047Z" fill="#F4F8FE"/>
<path d="M483.94 190.281L488.288 187.785V192.798L483.94 190.281Z" fill="#F4F8FE"/>
<path d="M437.066 216.895L442.58 213.714V220.096L437.066 216.895Z" fill="#F4F8FE"/>
<path d="M423.38 240.066L429.377 243.529L423.38 246.991V240.066Z" fill="#F4F8FE"/>
<path d="M389.869 296.756L397.054 292.609V300.903L389.869 296.756Z" fill="#F4F8FE"/>
<path d="M376.707 318.88L384.475 323.369L376.707 327.858V318.88Z" fill="#F4F8FE"/>
<path d="M343.317 376.617L351.186 372.067V381.146L343.317 376.617Z" fill="#F4F8FE"/>
<path d="M330.677 398.842L338.265 403.23L330.677 407.599V398.842Z" fill="#F4F8FE"/>
<path d="M297.69 456.458L304.855 452.311V460.585L297.69 456.458Z" fill="#F4F8FE"/>
<path d="M284.648 478.823L292.014 483.071L284.648 487.319V478.823Z" fill="#F4F8FE"/>
<path d="M249.99 536.298L259.591 530.762V541.855L249.99 536.298Z" fill="#F4F8FE"/>
<path d="M237.271 556.43L248.521 562.932L237.271 569.414V556.43Z" fill="#F4F8FE"/>
<path d="M199.936 616.159L215.474 607.181V625.118L199.936 616.159Z" fill="#F4F8FE"/>
<path d="M188.585 631.801L207.604 642.773L188.585 653.744V631.801Z" fill="#F4F8FE"/>
<path d="M147.265 696L172.665 681.345V710.676L147.265 696Z" fill="#F4F8FE"/>
<path d="M139.637 706.69L167.251 722.634L139.637 738.558V706.69Z" fill="#F4F8FE"/>
<path d="M98.5391 775.861L127.904 758.891V792.812L98.5391 775.861Z" fill="#F4F8FE"/>
<path d="M93.0446 785.665L122.147 802.475L93.0446 819.284V785.665Z" fill="#F4F8FE"/>
<path d="M94.6747 841.71L118.907 855.702L94.6747 869.713V841.71Z" fill="#F4F8FE"/>
<path d="M104.436 882.316L124.945 870.479V894.173L104.436 882.316Z" fill="#F4F8FE"/>
<path d="M144.286 927.651L157.952 935.563L144.286 943.454V927.651Z" fill="#F4F8FE"/>
<path d="M157.107 962.176L167.754 956.036V968.316L157.107 962.176Z" fill="#F4F8FE"/>
<path d="M192.771 1011.68L199.232 1015.4L192.771 1019.13V1011.68Z" fill="#F4F8FE"/>
<path d="M207.262 1042.02L211.811 1039.4V1044.65L207.262 1042.02Z" fill="#F4F8FE"/>
<path d="M240.511 1094.4L242.02 1095.26L240.511 1096.13V1094.4Z" fill="#F4F8FE"/>
<path d="M256.109 1121.88L256.511 1121.64V1122.12L256.109 1121.88Z" fill="#F4F8FE"/>
<path d="M809.365 163.668L809.526 163.587V163.768L809.365 163.668Z" fill="#F4F8FE"/>
<path d="M747.758 163.225L748.543 163.668L747.758 164.131V163.225Z" fill="#F4F8FE"/>
<path d="M716.562 163.668L717.648 163.064V164.292L716.562 163.668Z" fill="#F4F8FE"/>
<path d="M655.256 162.681L656.987 163.668L655.256 164.674V162.681Z" fill="#F4F8FE"/>
<path d="M623.759 163.668L625.771 162.5V164.835L623.759 163.668Z" fill="#F4F8FE"/>
<path d="M562.695 162.017L565.573 163.668L562.695 165.339V162.017Z" fill="#F4F8FE"/>
<path d="M530.654 163.668L534.055 161.695V165.641L530.654 163.668Z" fill="#F4F8FE"/>
<path d="M470.053 161.212L474.32 163.668L470.053 166.144V161.212Z" fill="#F4F8FE"/>
<path d="M437.69 163.668L442.278 161.031V166.305L437.69 163.668Z" fill="#F4F8FE"/>
<path d="M423.621 187.241L428.894 190.281L423.621 193.341V187.241Z" fill="#F4F8FE"/>
<path d="M390.332 243.529L396.813 239.784V247.253L390.332 243.529Z" fill="#F4F8FE"/>
<path d="M376.968 266.116L383.932 270.142L376.968 274.148V266.116Z" fill="#F4F8FE"/>
<path d="M343.699 323.37L350.985 319.162V327.577L343.699 323.37Z" fill="#F4F8FE"/>
<path d="M330.838 345.896L337.923 349.983L330.838 354.07V345.896Z" fill="#F4F8FE"/>
<path d="M298.415 403.231L304.493 399.708V406.733L298.415 403.231Z" fill="#F4F8FE"/>
<path d="M285.252 426.623L290.807 429.844L285.252 433.045V426.623Z" fill="#F4F8FE"/>
<path d="M252.627 483.071L258.262 479.81V486.333L252.627 483.071Z" fill="#F4F8FE"/>
<path d="M238.881 506.001L245.281 509.685L238.881 513.389V506.001Z" fill="#F4F8FE"/>
<path d="M203.981 562.932L213.441 557.457V568.388L203.981 562.932Z" fill="#F4F8FE"/>
<path d="M191.08 582.882L202.613 589.546L191.08 596.189V582.882Z" fill="#F4F8FE"/>
<path d="M152.136 642.773L170.229 632.325V653.221L152.136 642.773Z" fill="#F4F8FE"/>
<path d="M141.569 656.784L163.386 669.386L141.569 681.989V656.784Z" fill="#F4F8FE"/>
<path d="M99.8674 722.634L127.239 706.811V738.437L99.8674 722.634Z" fill="#F4F8FE"/>
<path d="M93.0446 732.418L122.168 749.248L93.0446 766.057V732.418Z" fill="#F4F8FE"/>
<path d="M52.1677 802.474L81.9549 785.262V819.687L52.1677 802.474Z" fill="#F4F8FE"/>
<path d="M47.1965 812.722L75.5748 829.088L47.1965 845.475V812.722Z" fill="#F4F8FE"/>
<path d="M55.5691 855.702L80.2441 841.449V869.955L55.5691 855.702Z" fill="#F4F8FE"/>
<path d="M97.3315 899.548L113.594 908.949L97.3315 918.33V899.548Z" fill="#F4F8FE"/>
<path d="M109.629 935.563L122.349 928.215V942.891L109.629 935.563Z" fill="#F4F8FE"/>
<path d="M146.44 984.643L153.625 988.79L146.44 992.937V984.643Z" fill="#F4F8FE"/>
<path d="M160.85 1015.4L165.882 1012.5V1018.32L160.85 1015.4Z" fill="#F4F8FE"/>
<path d="M194.401 1067.73L195.971 1068.63L194.401 1069.54V1067.73Z" fill="#F4F8FE"/>
<path d="M209.878 1095.26L210.502 1094.9V1095.61L209.878 1095.26Z" fill="#F4F8FE"/>
<path d="M794.028 136.933L794.25 137.054L794.028 137.175V136.933Z" fill="#F4F8FE"/>
<path d="M763.094 137.054L763.517 136.812V137.296L763.094 137.054Z" fill="#F4F8FE"/>
<path d="M701.567 136.43L702.634 137.054L701.567 137.678V136.43Z" fill="#F4F8FE"/>
<path d="M670.19 137.054L671.7 136.188V137.92L670.19 137.054Z" fill="#F4F8FE"/>
<path d="M609.006 135.786L611.2 137.054L609.006 138.322V135.786Z" fill="#F4F8FE"/>
<path d="M577.267 137.054L579.883 135.544V138.564L577.267 137.054Z" fill="#F4F8FE"/>
<path d="M516.444 135.121L519.785 137.054L516.444 138.987V135.121Z" fill="#F4F8FE"/>
<path d="M484.323 137.054L488.086 134.88V139.228L484.323 137.054Z" fill="#F4F8FE"/>
<path d="M423.883 134.477L428.371 137.054L423.883 139.631V134.477Z" fill="#F4F8FE"/>
<path d="M390.835 190.281L396.571 186.98V193.603L390.835 190.281Z" fill="#F4F8FE"/>
<path d="M377.21 213.312L383.449 216.895L377.21 220.498V213.312Z" fill="#F4F8FE"/>
<path d="M344.082 270.142L350.804 266.257V274.007L344.082 270.142Z" fill="#F4F8FE"/>
<path d="M330.999 292.971L337.581 296.756L330.999 300.541V292.971Z" fill="#F4F8FE"/>
<path d="M298.556 349.983L304.433 346.601V353.385L298.556 349.983Z" fill="#F4F8FE"/>
<path d="M285.353 373.537L290.646 376.617L285.353 379.657V373.537Z" fill="#F4F8FE"/>
<path d="M253.734 429.844L257.699 427.549V432.119L253.734 429.844Z" fill="#F4F8FE"/>
<path d="M239.766 454.283L243.53 456.457L239.766 458.632V454.283Z" fill="#F4F8FE"/>
<path d="M207.161 509.685L211.851 506.987V512.403L207.161 509.685Z" fill="#F4F8FE"/>
<path d="M192.912 532.815L198.95 536.298L192.912 539.801V532.815Z" fill="#F4F8FE"/>
<path d="M157.429 589.546L167.593 583.688V595.404L157.429 589.546Z" fill="#F4F8FE"/>
<path d="M144.447 608.55L157.61 616.159L144.447 623.769V608.55Z" fill="#F4F8FE"/>
<path d="M103.893 669.387L125.227 657.086V681.707L103.893 669.387Z" fill="#F4F8FE"/>
<path d="M94.4937 681.707L119.269 696L94.4937 710.314V681.707Z" fill="#F4F8FE"/>
<path d="M52.1275 749.248L81.9549 732.015V766.46L52.1275 749.248Z" fill="#F4F8FE"/>
<path d="M46.4317 758.146L77.1044 775.861L46.4317 793.577V758.146Z" fill="#F4F8FE"/>
<path d="M6.38007 829.088L35.7043 812.158V846.019L6.38007 829.088Z" fill="#F4F8FE"/>
<path d="M49.7123 870.277L70.5633 882.315L49.7123 894.374V870.277Z" fill="#F4F8FE"/>
<path d="M61.1844 908.949L77.4466 899.548V918.33L61.1844 908.949Z" fill="#F4F8FE"/>
<path d="M99.8473 957.144L108.562 962.176L99.8473 967.209V957.144Z" fill="#F4F8FE"/>
<path d="M113.976 988.79L120.175 985.207V992.373L113.976 988.79Z" fill="#F4F8FE"/>
<path d="M148.03 1040.65L150.445 1042.02L148.03 1043.41V1040.65Z" fill="#F4F8FE"/>
<path d="M163.648 1068.63L164.473 1068.15V1069.13L163.648 1068.63Z" fill="#F4F8FE"/>
<path d="M809.445 110.441L809.465 110.42V110.441H809.445Z" fill="#F4F8FE"/>
<path d="M747.798 110.078L748.442 110.44L747.798 110.803V110.078Z" fill="#F4F8FE"/>
<path d="M716.723 110.44L717.568 109.937V110.923L716.723 110.44Z" fill="#F4F8FE"/>
<path d="M655.337 109.555L656.846 110.44L655.337 111.306V109.555Z" fill="#F4F8FE"/>
<path d="M623.799 110.44L625.751 109.313V111.568L623.799 110.44Z" fill="#F4F8FE"/>
<path d="M562.775 108.91L565.412 110.44L562.775 111.97V108.91Z" fill="#F4F8FE"/>
<path d="M530.875 110.44L533.954 108.649V112.212L530.875 110.44Z" fill="#F4F8FE"/>
<path d="M470.214 108.266L473.978 110.44L470.214 112.614V108.266Z" fill="#F4F8FE"/>
<path d="M438.052 110.44L442.097 108.105V112.756L438.052 110.44Z" fill="#F4F8FE"/>
<path d="M391.52 137.054L396.229 134.336V139.772L391.52 137.054Z" fill="#F4F8FE"/>
<path d="M377.532 160.628L382.805 163.668L377.532 166.708V160.628Z" fill="#F4F8FE"/>
<path d="M344.424 216.895L350.623 213.312V220.478L344.424 216.895Z" fill="#F4F8FE"/>
<path d="M331.12 239.925L337.359 243.529L331.12 247.132V239.925Z" fill="#F4F8FE"/>
<path d="M298.576 296.756L304.432 293.374V300.138L298.576 296.756Z" fill="#F4F8FE"/>
<path d="M285.312 320.249L290.706 323.369L285.312 326.49V320.249Z" fill="#F4F8FE"/>
<path d="M253.694 376.617L257.739 374.261V378.932L253.694 376.617Z" fill="#F4F8FE"/>
<path d="M239.947 401.358L243.188 403.231L239.947 405.103V401.358Z" fill="#F4F8FE"/>
<path d="M208.832 456.458L211.006 455.209V457.706L208.832 456.458Z" fill="#F4F8FE"/>
<path d="M194.099 481.622L196.595 483.071L194.099 484.52V481.622Z" fill="#F4F8FE"/>
<path d="M161.052 536.298L165.781 533.581V539.036L161.052 536.298Z" fill="#F4F8FE"/>
<path d="M146.581 559.006L153.363 562.932L146.581 566.837V559.006Z" fill="#F4F8FE"/>
<path d="M109.83 616.16L122.248 608.973V623.326L109.83 616.16Z" fill="#F4F8FE"/>
<path d="M97.1302 633.049L113.976 642.773L97.1302 652.496V633.049Z" fill="#F4F8FE"/>
<path d="M55.2672 696L80.4051 681.485V710.515L55.2672 696Z" fill="#F4F8FE"/>
<path d="M47.2166 706.267L75.5345 722.634L47.2166 738.98V706.267Z" fill="#F4F8FE"/>
<path d="M4.85046 775.861L36.4691 757.582V794.12L4.85046 775.861Z" fill="#F4F8FE"/>
<path d="M0 784.155L31.6991 802.475L0 820.774V784.155Z" fill="#F4F8FE"/>
<path d="M1.71075 840.362L28.2777 855.702L1.71075 871.042V840.362Z" fill="#F4F8FE"/>
<path d="M11.4922 882.315L33.1482 869.814V894.837L11.4922 882.315Z" fill="#F4F8FE"/>
<path d="M52.5904 928.497L64.8071 935.563L52.5904 942.609V928.497Z" fill="#F4F8FE"/>
<path d="M66.377 962.177L74.8502 957.285V967.069L66.377 962.177Z" fill="#F4F8FE"/>
<path d="M101.618 1013.43L105.02 1015.4L101.618 1017.38V1013.43Z" fill="#F4F8FE"/>
<path d="M116.955 1042.02L118.686 1041.03V1043.02L116.955 1042.02Z" fill="#F4F8FE"/>
<path d="M794.028 83.7061L794.25 83.8268L794.028 83.9476V83.7061Z" fill="#F4F8FE"/>
<path d="M763.094 83.8268L763.517 83.5852V84.0684L763.094 83.8268Z" fill="#F4F8FE"/>
<path d="M701.567 83.2026L702.634 83.8267L701.567 84.4306V83.2026Z" fill="#F4F8FE"/>
<path d="M670.331 83.8269L671.619 83.082V84.5717L670.331 83.8269Z" fill="#F4F8FE"/>
<path d="M609.086 82.6995L611.059 83.8268L609.086 84.9542V82.6995Z" fill="#F4F8FE"/>
<path d="M577.407 83.8269L579.823 82.4177V85.216L577.407 83.8269Z" fill="#F4F8FE"/>
<path d="M516.525 82.0352L519.624 83.8268L516.525 85.6185V82.0352Z" fill="#F4F8FE"/>
<path d="M484.604 83.8269L487.945 81.8943V85.7595L484.604 83.8269Z" fill="#F4F8FE"/>
<path d="M424.084 81.5923L427.969 83.8269L424.084 86.0614V81.5923Z" fill="#F4F8FE"/>
<path d="M391.922 83.8269L396.028 81.4514V86.1823L391.922 83.8269Z" fill="#F4F8FE"/>
<path d="M377.793 107.844L382.302 110.44L377.793 113.037V107.844Z" fill="#F4F8FE"/>
<path d="M345.048 163.668L350.321 160.628V166.728L345.048 163.668Z" fill="#F4F8FE"/>
<path d="M331.281 186.959L337.037 190.281L331.281 193.603V186.959Z" fill="#F4F8FE"/>
<path d="M298.636 243.529L304.392 240.207V246.85L298.636 243.529Z" fill="#F4F8FE"/>
<path d="M285.272 266.961L290.787 270.142L285.272 273.323V266.961Z" fill="#F4F8FE"/>
<path d="M253.452 323.37L257.84 320.833V325.906L253.452 323.37Z" fill="#F4F8FE"/>
<path d="M239.786 347.849L243.49 349.983L239.786 352.137V347.849Z" fill="#F4F8FE"/>
<path d="M208.953 403.23L210.965 402.042V404.398L208.953 403.23Z" fill="#F4F8FE"/>
<path d="M194.502 429.099L195.77 429.844L194.502 430.569V429.099Z" fill="#F4F8FE"/>
<path d="M163.326 483.071L164.654 482.306V483.836L163.326 483.071Z" fill="#F4F8FE"/>
<path d="M148.151 508.477L150.224 509.685L148.151 510.893V508.477Z" fill="#F4F8FE"/>
<path d="M114.238 562.932L120.054 559.55V566.294L114.238 562.932Z" fill="#F4F8FE"/>
<path d="M99.9277 584.674L108.381 589.546L99.9277 594.417V584.674Z" fill="#F4F8FE"/>
<path d="M60.8824 642.773L77.5874 633.13V652.416L60.8824 642.773Z" fill="#F4F8FE"/>
<path d="M49.511 657.026L70.9256 669.387L49.511 681.767V657.026Z" fill="#F4F8FE"/>
<path d="M6.64172 722.634L35.5835 705.925V739.323L6.64172 722.634Z" fill="#F4F8FE"/>
<path d="M0.0603638 731.009L31.5985 749.248L0.0603638 767.467V731.009Z" fill="#F4F8FE"/>
<path d="M4.74982 898.863L22.1994 908.949L4.74982 919.015V898.863Z" fill="#F4F8FE"/>
<path d="M17.4496 935.563L30.1696 928.215V942.891L17.4496 935.563Z" fill="#F4F8FE"/>
<path d="M54.8244 985.589L60.339 988.79L54.8244 991.991V985.589Z" fill="#F4F8FE"/>
<path d="M69.9595 1015.4L73.0589 1013.63V1017.2L69.9595 1015.4Z" fill="#F4F8FE"/>
<path d="M840.178 57.1931L840.218 57.2132H840.178V57.1931Z" fill="#F4F8FE"/>
<path d="M809.324 57.2132L809.546 57.0723V57.334L809.324 57.2132Z" fill="#F4F8FE"/>
<path d="M747.798 56.8308L748.462 57.2133L747.798 57.5958V56.8308Z" fill="#F4F8FE"/>
<path d="M716.562 57.2132L717.648 56.5891V57.8171L716.562 57.2132Z" fill="#F4F8FE"/>
<path d="M655.337 56.3274L656.846 57.2132L655.337 58.0788V56.3274Z" fill="#F4F8FE"/>
<path d="M623.799 57.2132L625.751 56.0657V58.3405L623.799 57.2132Z" fill="#F4F8FE"/>
<path d="M562.816 55.7637L565.311 57.2131L562.816 58.6424V55.7637Z" fill="#F4F8FE"/>
<path d="M531.016 57.2131L533.874 55.5422V58.8639L531.016 57.2131Z" fill="#F4F8FE"/>
<path d="M470.335 55.2402L473.736 57.2131L470.335 59.1658V55.2402Z" fill="#F4F8FE"/>
<path d="M438.314 57.2132L441.956 55.0994V59.3068L438.314 57.2132Z" fill="#F4F8FE"/>
<path d="M377.914 54.8376L382.02 57.2131L377.914 59.5685V54.8376Z" fill="#F4F8FE"/>
<path d="M345.511 110.44L350.099 107.803V113.078L345.511 110.44Z" fill="#F4F8FE"/>
<path d="M331.543 134.195L336.494 137.054L331.543 139.913V134.195Z" fill="#F4F8FE"/>
<path d="M298.797 190.281L304.312 187.101V193.482L298.797 190.281Z" fill="#F4F8FE"/>
<path d="M285.272 213.714L290.787 216.895L285.272 220.096V213.714Z" fill="#F4F8FE"/>
<path d="M253.15 270.142L258.001 267.344V272.92L253.15 270.142Z" fill="#F4F8FE"/>
<path d="M239.565 294.219L243.953 296.756L239.565 299.292V294.219Z" fill="#F4F8FE"/>
<path d="M208.409 349.983L211.227 348.373V351.614L208.409 349.983Z" fill="#F4F8FE"/>
<path d="M194.281 375.489L196.213 376.617L194.281 377.724V375.489Z" fill="#F4F8FE"/>
<path d="M163.97 429.844L164.312 429.643V430.045L163.97 429.844Z" fill="#F4F8FE"/>
<path d="M148.755 456.316L148.996 456.457L148.755 456.598V456.316Z" fill="#F4F8FE"/>
<path d="M117.257 509.685L118.545 508.94V510.43L117.257 509.685Z" fill="#F4F8FE"/>
<path d="M101.779 534.607L104.698 536.298L101.779 538.01V534.607Z" fill="#F4F8FE"/>
<path d="M66.6588 589.546L74.7093 584.896V594.196L66.6588 589.546Z" fill="#F4F8FE"/>
<path d="M52.7313 609.375L64.4851 616.159L52.7313 622.943V609.375Z" fill="#F4F8FE"/>
<path d="M11.4117 669.387L33.1885 656.805V681.969L11.4117 669.387Z" fill="#F4F8FE"/>
<path d="M1.8114 680.821L28.0965 696L1.8114 711.199V680.821Z" fill="#F4F8FE"/>
<path d="M7.58765 957.003L16.5439 962.177L7.58765 967.35V957.003Z" fill="#F4F8FE"/>
<path d="M22.0988 988.79L27.8349 985.468V992.112L22.0988 988.79Z" fill="#F4F8FE"/>
<path d="M56.2735 1041.35L57.4207 1042.02L56.2735 1042.68V1041.35Z" fill="#F4F8FE"/>
<path d="M855.535 30.5997L855.555 30.5796V30.5997H855.535Z" fill="#F4F8FE"/>
<path d="M793.968 30.3379L794.391 30.5996L793.968 30.8412V30.3379Z" fill="#F4F8FE"/>
<path d="M762.953 30.5995L763.597 30.217V30.9619L762.953 30.5995Z" fill="#F4F8FE"/>
<path d="M701.567 29.9756L702.634 30.5997L701.567 31.2036V29.9756Z" fill="#F4F8FE"/>
<path d="M670.19 30.5996L671.7 29.7139V31.4653L670.19 30.5996Z" fill="#F4F8FE"/>
<path d="M609.026 29.3313L611.18 30.5996L609.026 31.8477V29.3313Z" fill="#F4F8FE"/>
<path d="M577.407 30.5996L579.823 29.1904V31.9887L577.407 30.5996Z" fill="#F4F8FE"/>
<path d="M516.605 28.9287L519.483 30.5996L516.605 32.2504V28.9287Z" fill="#F4F8FE"/>
<path d="M484.725 30.5996L487.885 28.7476V32.4115L484.725 30.5996Z" fill="#F4F8FE"/>
<path d="M424.124 28.3853L427.908 30.5997L424.124 32.794V28.3853Z" fill="#F4F8FE"/>
<path d="M391.962 30.5996L396.008 28.2644V32.9147L391.962 30.5996Z" fill="#F4F8FE"/>
<path d="M345.712 57.2132L349.979 54.7371V59.6692L345.712 57.2132Z" fill="#F4F8FE"/>
<path d="M331.704 81.23L336.212 83.8269L331.704 86.4239V81.23Z" fill="#F4F8FE"/>
<path d="M299.159 137.054L304.131 134.175V139.933L299.159 137.054Z" fill="#F4F8FE"/>
<path d="M285.373 160.688L290.565 163.668L285.373 166.667V160.688Z" fill="#F4F8FE"/>
<path d="M252.869 216.895L258.142 213.855V219.955L252.869 216.895Z" fill="#F4F8FE"/>
<path d="M239.404 240.73L244.234 243.529L239.404 246.307V240.73Z" fill="#F4F8FE"/>
<path d="M207.826 296.756L211.529 294.622V298.89L207.826 296.756Z" fill="#F4F8FE"/>
<path d="M193.999 321.739L196.816 323.369L193.999 325V321.739Z" fill="#F4F8FE"/>
<path d="M163.487 376.617L164.554 375.993V377.221L163.487 376.617Z" fill="#F4F8FE"/>
<path d="M148.714 403.009L149.097 403.23L148.714 403.452V403.009Z" fill="#F4F8FE"/>
<path d="M102.745 483.071H102.766L102.745 483.091V483.071Z" fill="#F4F8FE"/>
<path d="M70.3016 536.298L72.8778 534.829V537.788L70.3016 536.298Z" fill="#F4F8FE"/>
<path d="M55.0861 560.194L59.8158 562.932L55.0861 565.65V560.194Z" fill="#F4F8FE"/>
<path d="M18.0534 616.16L29.8676 609.335V622.984L18.0534 616.16Z" fill="#F4F8FE"/>
<path d="M4.91083 632.969L21.8975 642.773L4.91083 652.577V632.969Z" fill="#F4F8FE"/>
<path d="M9.45941 1013.49L12.7803 1015.4L9.45941 1017.32V1013.49Z" fill="#F4F8FE"/>
<path d="M25.0775 1042.02L26.3656 1041.29V1042.76L25.0775 1042.02Z" fill="#F4F8FE"/>
<path d="M840.178 3.9458L840.218 3.96593L840.178 4.00619V3.9458Z" fill="#F4F8FE"/>
<path d="M809.304 3.96587L809.546 3.82495V4.10679L809.304 3.96587Z" fill="#F4F8FE"/>
<path d="M747.717 3.48267L748.583 3.96582L747.717 4.4691V3.48267Z" fill="#F4F8FE"/>
<path d="M716.562 3.96587L717.648 3.3418V4.58994L716.562 3.96587Z" fill="#F4F8FE"/>
<path d="M655.256 2.95923L656.987 3.96579L655.256 4.97236V2.95923Z" fill="#F4F8FE"/>
<path d="M623.799 3.96598L625.751 2.83862V5.11346L623.799 3.96598Z" fill="#F4F8FE"/>
<path d="M562.836 2.5769L565.271 3.96597L562.836 5.37516V2.5769Z" fill="#F4F8FE"/>
<path d="M531.016 3.96595L533.874 2.31519V5.63685L531.016 3.96595Z" fill="#F4F8FE"/>
<path d="M470.355 2.05347L473.696 3.96594L470.355 5.89855V2.05347Z" fill="#F4F8FE"/>
<path d="M438.374 3.96599L441.936 1.9126V6.03952L438.374 3.96599Z" fill="#F4F8FE"/>
<path d="M377.934 1.63062L381.98 3.96585L377.934 6.30108V1.63062Z" fill="#F4F8FE"/>
<path d="M345.712 3.96579L349.979 1.50977V6.44194L345.712 3.96579Z" fill="#F4F8FE"/>
<path d="M331.704 27.9824L336.212 30.5995L331.704 33.1964V27.9824Z" fill="#F4F8FE"/>
<path d="M299.32 83.8267L304.05 81.0889V86.5646L299.32 83.8267Z" fill="#F4F8FE"/>
<path d="M285.514 107.662L290.324 110.44L285.514 113.219V107.662Z" fill="#F4F8FE"/>
<path d="M253.03 163.668L258.061 160.749V166.587L253.03 163.668Z" fill="#F4F8FE"/>
<path d="M239.283 187.302L244.476 190.281L239.283 193.281V187.302Z" fill="#F4F8FE"/>
<path d="M207.282 243.529L211.791 240.912V246.126L207.282 243.529Z" fill="#F4F8FE"/>
<path d="M193.636 267.908L197.501 270.142L193.636 272.357V267.908Z" fill="#F4F8FE"/>
<path d="M162.682 323.369L164.956 322.041V324.698L162.682 323.369Z" fill="#F4F8FE"/>
<path d="M148.372 349.178L149.781 349.983L148.372 350.808V349.178Z" fill="#F4F8FE"/>
<path d="M56.515 509.443L56.9578 509.685L56.515 509.947V509.443Z" fill="#F4F8FE"/>
<path d="M22.8838 562.932L27.4525 560.295V565.549L22.8838 562.932Z" fill="#F4F8FE"/>
<path d="M7.99017 585.077L15.6986 589.546L7.99017 593.995V585.077Z" fill="#F4F8FE"/>
<path d="M299.32 30.5995L304.05 27.8416V33.3173L299.32 30.5995Z" fill="#F4F8FE"/>
<path d="M285.534 54.4753L290.264 57.2132L285.534 59.9309V54.4753Z" fill="#F4F8FE"/>
<path d="M253.07 110.44L258.041 107.562V113.319L253.07 110.44Z" fill="#F4F8FE"/>
<path d="M239.344 134.135L244.375 137.054L239.344 139.973V134.135Z" fill="#F4F8FE"/>
<path d="M206.92 190.281L211.972 187.382V193.2L206.92 190.281Z" fill="#F4F8FE"/>
<path d="M193.355 214.177L198.084 216.895L193.355 219.653V214.177Z" fill="#F4F8FE"/>
<path d="M161.897 270.142L165.359 268.149V272.135L161.897 270.142Z" fill="#F4F8FE"/>
<path d="M147.929 295.186L150.646 296.756L147.929 298.326V295.186Z" fill="#F4F8FE"/>
<path d="M117.297 349.983L118.525 349.278V350.688L117.297 349.983Z" fill="#F4F8FE"/>
<path d="M102.564 376.294L103.108 376.617L102.564 376.918V376.294Z" fill="#F4F8FE"/>
<path d="M25.7417 509.685L26.0235 509.524V509.866L25.7417 509.685Z" fill="#F4F8FE"/>
<path d="M9.86194 535.09L11.9752 536.298L9.86194 537.526V535.09Z" fill="#F4F8FE"/>
<path d="M285.514 1.18774L290.324 3.96587L285.514 6.74399V1.18774Z" fill="#F4F8FE"/>
<path d="M253.07 57.2133L258.041 54.3345V60.0719L253.07 57.2133Z" fill="#F4F8FE"/>
<path d="M239.364 80.948L244.335 83.8268L239.364 86.6854V80.948Z" fill="#F4F8FE"/>
<path d="M206.839 137.054L212.032 134.054V140.054L206.839 137.054Z" fill="#F4F8FE"/>
<path d="M193.254 160.749L198.286 163.668L193.254 166.587V160.749Z" fill="#F4F8FE"/>
<path d="M161.193 216.895L165.701 214.298V219.512L161.193 216.895Z" fill="#F4F8FE"/>
<path d="M147.527 241.254L151.451 243.529L147.527 245.783V241.254Z" fill="#F4F8FE"/>
<path d="M116.351 296.756L119.008 295.226V298.286L116.351 296.756Z" fill="#F4F8FE"/>
<path d="M102.081 322.222L104.074 323.369L102.081 324.517V322.222Z" fill="#F4F8FE"/>
<path d="M71.6702 376.617L72.1935 376.294V376.918L71.6702 376.617Z" fill="#F4F8FE"/>
<path d="M253.03 3.9658L258.061 1.06689V6.88485L253.03 3.9658Z" fill="#F4F8FE"/>
<path d="M239.283 27.6001L244.476 30.5997L239.283 33.5791V27.6001Z" fill="#F4F8FE"/>
<path d="M206.819 83.8268L212.032 80.8071V86.8264L206.819 83.8268Z" fill="#F4F8FE"/>
<path d="M193.194 107.441L198.406 110.44L193.194 113.44V107.441Z" fill="#F4F8FE"/>
<path d="M160.83 163.668L165.882 160.749V166.587L160.83 163.668Z" fill="#F4F8FE"/>
<path d="M147.225 187.503L152.055 190.281L147.225 193.08V187.503Z" fill="#F4F8FE"/>
<path d="M115.546 243.529L119.39 241.294V245.743L115.546 243.529Z" fill="#F4F8FE"/>
<path d="M101.618 268.189L105 270.142L101.618 272.095V268.189Z" fill="#F4F8FE"/>
<path d="M70.6639 323.369L72.6967 322.202V324.537L70.6639 323.369Z" fill="#F4F8FE"/>
<path d="M56.2131 349.238L57.5415 349.983L56.2131 350.748V349.238Z" fill="#F4F8FE"/>
<path d="M206.658 30.5996L212.113 27.439V33.7401L206.658 30.5996Z" fill="#F4F8FE"/>
<path d="M193.113 54.0525L198.567 57.2131L193.113 60.3536V54.0525Z" fill="#F4F8FE"/>
<path d="M160.569 110.44L166.023 107.3V113.581L160.569 110.44Z" fill="#F4F8FE"/>
<path d="M147.084 134.014L152.357 137.054L147.084 140.114V134.014Z" fill="#F4F8FE"/>
<path d="M114.801 190.281L119.772 187.423V193.16L114.801 190.281Z" fill="#F4F8FE"/>
<path d="M101.236 214.278L105.764 216.895L101.236 219.512V214.278Z" fill="#F4F8FE"/>
<path d="M69.6576 270.142L73.1998 268.089V272.196L69.6576 270.142Z" fill="#F4F8FE"/>
<path d="M55.6899 295.065L58.5881 296.756L55.6899 298.447V295.065Z" fill="#F4F8FE"/>
<path d="M25.0373 349.983L26.3656 349.218V350.768L25.0373 349.983Z" fill="#F4F8FE"/>
<path d="M10.3249 376.194L11.0293 376.617L10.3249 377.019V376.194Z" fill="#F4F8FE"/>
<path d="M193.093 0.785156L198.608 3.9659L193.093 7.16678V0.785156Z" fill="#F4F8FE"/>
<path d="M160.408 57.2132L166.104 53.9116V60.4946L160.408 57.2132Z" fill="#F4F8FE"/>
<path d="M146.943 80.5454L152.619 83.8268L146.943 87.1082V80.5454Z" fill="#F4F8FE"/>
<path d="M114.479 137.054L119.933 133.914V140.195L114.479 137.054Z" fill="#F4F8FE"/>
<path d="M100.974 160.608L106.288 163.668L100.974 166.748V160.608Z" fill="#F4F8FE"/>
<path d="M68.8324 216.895L73.6024 214.157V219.653L68.8324 216.895Z" fill="#F4F8FE"/>
<path d="M55.2471 241.073L59.4937 243.529L55.2471 245.985V241.073Z" fill="#F4F8FE"/>
<path d="M23.8297 296.756L26.9694 294.944V298.567L23.8297 296.756Z" fill="#F4F8FE"/>
<path d="M9.80157 322.061L12.0759 323.37L9.80157 324.678V322.061Z" fill="#F4F8FE"/>
<path d="M160.408 3.96598L166.104 0.68457V7.24738L160.408 3.96598Z" fill="#F4F8FE"/>
<path d="M146.863 27.1772L152.78 30.5996L146.863 34.0018V27.1772Z" fill="#F4F8FE"/>
<path d="M114.157 83.8269L120.094 80.4045V87.2492L114.157 83.8269Z" fill="#F4F8FE"/>
<path d="M100.854 107.159L106.549 110.44L100.854 113.722V107.159Z" fill="#F4F8FE"/>
<path d="M68.3896 163.668L73.8439 160.527V166.808L68.3896 163.668Z" fill="#F4F8FE"/>
<path d="M54.9049 187.261L60.1378 190.281L54.9049 193.321V187.261Z" fill="#F4F8FE"/>
<path d="M23.0448 243.529L27.372 241.032V246.025L23.0448 243.529Z" fill="#F4F8FE"/>
<path d="M9.2984 267.928L13.1023 270.142L9.2984 272.336V267.928Z" fill="#F4F8FE"/>
<path d="M113.996 30.5996L120.155 27.0364V34.1427L113.996 30.5996Z" fill="#F4F8FE"/>
<path d="M100.693 53.6499L106.851 57.2131L100.693 60.7563V53.6499Z" fill="#F4F8FE"/>
<path d="M68.0676 110.44L74.0049 107.018V113.863L68.0676 110.44Z" fill="#F4F8FE"/>
<path d="M54.6835 133.632L60.6007 137.054L54.6835 140.476V133.632Z" fill="#F4F8FE"/>
<path d="M22.3001 190.281L27.7544 187.141V193.442L22.3001 190.281Z" fill="#F4F8FE"/>
<path d="M8.89587 214.016L13.9074 216.895L8.89587 219.794V214.016Z" fill="#F4F8FE"/>
<path d="M100.693 0.422852L106.851 3.96596L100.693 7.52921V0.422852Z" fill="#F4F8FE"/>
<path d="M67.7657 57.2133L74.1458 53.5293V60.8772L67.7657 57.2133Z" fill="#F4F8FE"/>
<path d="M54.5829 80.2234L60.8221 83.8269L54.5829 87.4304V80.2234Z" fill="#F4F8FE"/>
<path d="M21.9781 137.054L27.9154 133.632V140.476L21.9781 137.054Z" fill="#F4F8FE"/>
<path d="M8.59399 160.245L14.5112 163.668L8.59399 167.09V160.245Z" fill="#F4F8FE"/>
<path d="M67.7456 3.96577L74.1458 0.281738V7.66993L67.7456 3.96577Z" fill="#F4F8FE"/>
<path d="M54.4622 26.7747L61.0636 30.5996L54.4622 34.4044V26.7747Z" fill="#F4F8FE"/>
<path d="M21.6561 83.8267L28.0563 80.1226V87.5108L21.6561 83.8267Z" fill="#F4F8FE"/>
<path d="M8.43298 106.756L14.8131 110.44L8.43298 114.124V106.756Z" fill="#F4F8FE"/>
<path d="M21.4951 30.5997L28.1368 26.7546V34.4247L21.4951 30.5997Z" fill="#F4F8FE"/>
<path d="M8.35248 53.3682L14.9942 57.2132L8.35248 61.0382V53.3682Z" fill="#F4F8FE"/>
<path d="M8.27197 0L15.1552 3.96587L8.27197 7.93174V0Z" fill="#F4F8FE"/>
</svg>
