<svg width="375" height="808" viewBox="0 0 375 808" fill="none" xmlns="http://www.w3.org/2000/svg">
<g style="mix-blend-mode:multiply">
<path d="M13.7705 564.244L5.76075 559.615V568.873L13.7705 564.244Z" fill="#F4F8FE"/>
<path d="M21.8511 578.427L14.0111 582.957L21.8511 587.486V578.427Z" fill="#F4F8FE"/>
<path d="M11.9023 601.67L6.70877 598.669V604.67L11.9023 601.67Z" fill="#F4F8FE"/>
<path d="M15.6528 526.818L4.8269 520.562V533.061L15.6528 526.818Z" fill="#F4F8FE"/>
<path d="M22.7427 539.473L12.2423 545.531L22.7427 551.589V539.473Z" fill="#F4F8FE"/>
<path d="M47.9746 582.957L37.2761 576.785V589.128L47.9746 582.957Z" fill="#F4F8FE"/>
<path d="M20.8745 617.552L15.9639 620.383L20.8745 623.228V617.552Z" fill="#F4F8FE"/>
<path d="M10.0913 639.109L7.6148 637.68V640.539L10.0913 639.109Z" fill="#F4F8FE"/>
<path d="M17.6196 489.378L3.85025 481.423V497.334L17.6196 489.378Z" fill="#F4F8FE"/>
<path d="M23.7188 500.334L10.2748 508.106L23.7188 515.862V500.334Z" fill="#F4F8FE"/>
<path d="M49.6729 545.531L36.4271 537.887V553.175L49.6729 545.531Z" fill="#F4F8FE"/>
<path d="M56.1826 556.388L42.583 564.244L56.1826 572.086V556.388Z" fill="#F4F8FE"/>
<path d="M55.2485 595.441L44.4509 601.67L55.2485 607.912V595.441Z" fill="#F4F8FE"/>
<path d="M45.8521 620.382L38.3376 616.051V624.728L45.8521 620.382Z" fill="#F4F8FE"/>
<path d="M19.9688 656.562L17.7894 657.822L19.9688 659.068V656.562Z" fill="#F4F8FE"/>
<path d="M8.73242 676.535L8.29373 676.28V676.79L8.73242 676.535Z" fill="#F4F8FE"/>
<path d="M18.6245 451.953L3.34091 443.134V460.771L18.6245 451.953Z" fill="#F4F8FE"/>
<path d="M24.3418 461.819L9.02987 470.666L24.3418 479.513V461.819Z" fill="#F4F8FE"/>
<path d="M51.3428 508.106L35.5921 499.004V517.193L51.3428 508.106Z" fill="#F4F8FE"/>
<path d="M56.9893 517.575L40.9698 526.818L56.9893 536.062V517.575Z" fill="#F4F8FE"/>
<path d="M84.1743 564.244L67.7869 554.774V573.7L84.1743 564.244Z" fill="#F4F8FE"/>
<path d="M89.5942 573.36L72.9804 582.957L89.5942 592.554V573.36Z" fill="#F4F8FE"/>
<path d="M82.377 601.67L68.6924 593.771V609.582L82.377 601.67Z" fill="#F4F8FE"/>
<path d="M54.0459 634.948L46.8569 639.109L54.0459 643.257V634.948Z" fill="#F4F8FE"/>
<path d="M43.7148 657.822L39.4128 655.331V660.299L43.7148 657.822Z" fill="#F4F8FE"/>
<path d="M19.332 695.078L19.049 695.248L19.332 695.418V695.078Z" fill="#F4F8FE"/>
<path d="M18.7661 414.527L3.27025 405.581V423.459L18.7661 414.527Z" fill="#F4F8FE"/>
<path d="M24.5259 424.082L8.66206 433.24L24.5259 442.398V424.082Z" fill="#F4F8FE"/>
<path d="M52.0078 470.665L35.2666 460.998V480.347L52.0078 470.665Z" fill="#F4F8FE"/>
<path d="M57.4561 479.329L40.0356 489.379L57.4561 499.443V479.329Z" fill="#F4F8FE"/>
<path d="M85.5044 526.818L67.1216 516.188V537.435L85.5044 526.818Z" fill="#F4F8FE"/>
<path d="M90.2876 534.731L71.5935 545.531L90.2876 556.331V534.731Z" fill="#F4F8FE"/>
<path d="M118.52 582.957L99.2315 571.817V594.097L118.52 582.957Z" fill="#F4F8FE"/>
<path d="M88.4619 612.767L75.2444 620.382L88.4619 628.012V612.767Z" fill="#F4F8FE"/>
<path d="M79.8154 639.109L69.966 633.419V644.785L79.8154 639.109Z" fill="#F4F8FE"/>
<path d="M52.9136 674.327L49.1068 676.535L52.9136 678.743V674.327Z" fill="#F4F8FE"/>
<path d="M41.9746 695.248L40.2765 694.271V696.224L41.9746 695.248Z" fill="#F4F8FE"/>
<path d="M18.1294 377.087L3.59578 368.708V385.481L18.1294 377.087Z" fill="#F4F8FE"/>
<path d="M24.3135 387.024L9.10061 395.814L24.3135 404.59V387.024Z" fill="#F4F8FE"/>
<path d="M51.8379 433.24L35.3514 423.714V442.766L51.8379 433.24Z" fill="#F4F8FE"/>
<path d="M57.3853 442.002L40.1629 451.953L57.3853 461.904V442.002Z" fill="#F4F8FE"/>
<path d="M86.0986 489.378L66.8243 478.253V500.518L86.0986 489.378Z" fill="#F4F8FE"/>
<path d="M90.7407 496.512L70.6739 508.105L90.7407 519.684V496.512Z" fill="#F4F8FE"/>
<path d="M119.609 545.531L98.6935 533.443V557.605L119.609 545.531Z" fill="#F4F8FE"/>
<path d="M123.628 551.816L102.118 564.244L123.628 576.672V551.816Z" fill="#F4F8FE"/>
<path d="M122.864 590.586L103.675 601.67L122.864 612.753V590.586Z" fill="#F4F8FE"/>
<path d="M116.284 620.382L100.35 611.196V629.583L116.284 620.382Z" fill="#F4F8FE"/>
<path d="M87.0469 652.642L78.0748 657.822L87.0469 663.003V652.642Z" fill="#F4F8FE"/>
<path d="M77.127 676.535L71.3107 673.166V679.89L77.127 676.535Z" fill="#F4F8FE"/>
<path d="M52.1494 713.083L50.6352 713.961L52.1494 714.838V713.083Z" fill="#F4F8FE"/>
<path d="M16.2188 339.662L4.54376 332.924V346.399L16.2188 339.662Z" fill="#F4F8FE"/>
<path d="M23.6201 350.802L10.4875 358.375L23.6201 365.962V350.802Z" fill="#F4F8FE"/>
<path d="M51.1162 395.814L35.7052 386.911V404.704L51.1162 395.814Z" fill="#F4F8FE"/>
<path d="M57.0459 405.171L40.8566 414.527L57.0459 423.87V405.171Z" fill="#F4F8FE"/>
<path d="M85.4194 451.953L67.164 441.407V462.498L85.4194 451.953Z" fill="#F4F8FE"/>
<path d="M90.5566 459.398L71.0417 470.666L90.5566 481.933V459.398Z" fill="#F4F8FE"/>
<path d="M120.19 508.105L98.3966 495.508V520.689L120.19 508.105Z" fill="#F4F8FE"/>
<path d="M124.011 513.725L101.354 526.818L124.011 539.897V513.725Z" fill="#F4F8FE"/>
<path d="M153.616 564.244L130.294 550.769V577.72L153.616 564.244Z" fill="#F4F8FE"/>
<path d="M156.701 569.382L133.195 582.957L156.701 596.531V569.382Z" fill="#F4F8FE"/>
<path d="M152.455 601.67L130.874 589.199V614.14L152.455 601.67Z" fill="#F4F8FE"/>
<path d="M121.534 630.319L106.321 639.109L121.534 647.885V630.319Z" fill="#F4F8FE"/>
<path d="M113.312 657.822L101.835 651.198V664.447L113.312 657.822Z" fill="#F4F8FE"/>
<path d="M85.7734 692.275L80.6081 695.248L85.7734 698.235V692.275Z" fill="#F4F8FE"/>
<path d="M75.2446 713.961L72.2587 712.234V715.687L75.2446 713.961Z" fill="#F4F8FE"/>
<path d="M22.4453 315.4L12.8364 320.949L22.4453 326.498V315.4Z" fill="#F4F8FE"/>
<path d="M49.3896 358.375L36.5684 350.972V365.778L49.3896 358.375Z" fill="#F4F8FE"/>
<path d="M56.4512 368.764L42.0308 377.087L56.4512 385.425V368.764Z" fill="#F4F8FE"/>
<path d="M84.2593 414.527L67.7445 404.987V424.068L84.2593 414.527Z" fill="#F4F8FE"/>
<path d="M89.9619 423.006L72.2442 433.24L89.9619 443.474V423.006Z" fill="#F4F8FE"/>
<path d="M119.397 470.666L98.7929 458.761V482.57L119.397 470.666Z" fill="#F4F8FE"/>
<path d="M123.812 476.653L101.764 489.379L123.812 502.104V476.653Z" fill="#F4F8FE"/>
<path d="M154.125 526.818L130.039 512.904V540.718L154.125 526.818Z" fill="#F4F8FE"/>
<path d="M156.983 531.461L132.629 545.531L156.983 559.587V531.461Z" fill="#F4F8FE"/>
<path d="M186.857 582.957L162.276 568.759V597.154L186.857 582.957Z" fill="#F4F8FE"/>
<path d="M155.767 608.45L135.077 620.382L155.767 632.329V608.45Z" fill="#F4F8FE"/>
<path d="M149.795 639.109L132.205 628.946V649.258L149.795 639.109Z" fill="#F4F8FE"/>
<path d="M119.921 670.547L109.548 676.535L119.921 682.522V670.547Z" fill="#F4F8FE"/>
<path d="M110.454 695.248L103.265 691.1V699.395L110.454 695.248Z" fill="#F4F8FE"/>
<path d="M84.8252 731.329L82.5043 732.673L84.8252 734.032V731.329Z" fill="#F4F8FE"/>
<path d="M73.6455 751.386L73.0512 751.047V751.74L73.6455 751.386Z" fill="#F4F8FE"/>
<path d="M13.7705 302.236L5.77492 297.607V306.851L13.7705 302.236Z" fill="#F4F8FE"/>
<path d="M47.1113 320.949L37.7006 315.513V326.384L47.1113 320.949Z" fill="#F4F8FE"/>
<path d="M55.3477 333.264L44.2529 339.662L55.3477 346.06V333.264Z" fill="#F4F8FE"/>
<path d="M82.8013 377.087L68.4658 368.821V385.368L82.8013 377.087Z" fill="#F4F8FE"/>
<path d="M89.2686 386.784L73.6312 395.815L89.2686 404.831V386.784Z" fill="#F4F8FE"/>
<path d="M117.798 433.24L99.5854 422.723V443.757L117.798 433.24Z" fill="#F4F8FE"/>
<path d="M123.034 440.558L103.307 451.953L123.034 463.348V440.558Z" fill="#F4F8FE"/>
<path d="M153.262 489.378L130.464 476.229V502.543L153.262 489.378Z" fill="#F4F8FE"/>
<path d="M156.899 494.191L132.813 508.105L156.899 522.006V494.191Z" fill="#F4F8FE"/>
<path d="M187.197 545.531L162.121 531.051V560.012L187.197 545.531Z" fill="#F4F8FE"/>
<path d="M189.702 549.65L164.442 564.244L189.702 578.838V549.65Z" fill="#F4F8FE"/>
<path d="M189.221 587.911L165.39 601.669L189.221 615.428V587.911Z" fill="#F4F8FE"/>
<path d="M185.074 620.382L163.168 607.742V633.037L185.074 620.382Z" fill="#F4F8FE"/>
<path d="M154.182 648.607L138.233 657.822L154.182 667.023V648.607Z" fill="#F4F8FE"/>
<path d="M146.413 676.535L133.889 669.302V683.768L146.413 676.535Z" fill="#F4F8FE"/>
<path d="M118.647 710.167L112.081 713.961L118.647 717.754V710.167Z" fill="#F4F8FE"/>
<path d="M108.246 732.674L104.369 730.451V734.91L108.246 732.674Z" fill="#F4F8FE"/>
<path d="M84.061 770.099L84.0469 770.113H84.061V770.099Z" fill="#F4F8FE"/>
<path d="M21.3418 279.885L15.0444 283.523L21.3418 287.161V279.885Z" fill="#F4F8FE"/>
<path d="M45.0596 283.523L38.7338 279.871V287.175L45.0596 283.523Z" fill="#F4F8FE"/>
<path d="M54.2437 297.735L46.4462 302.236L54.2437 306.737V297.735Z" fill="#F4F8FE"/>
<path d="M80.5371 339.662L69.6122 333.349V345.975L80.5371 339.662Z" fill="#F4F8FE"/>
<path d="M88.2358 351.127L75.6834 358.375L88.2358 365.636V351.127Z" fill="#F4F8FE"/>
<path d="M116.185 395.815L100.406 386.699V404.916L116.185 395.815Z" fill="#F4F8FE"/>
<path d="M122.128 404.718L105.147 414.527L122.128 424.336V404.718Z" fill="#F4F8FE"/>
<path d="M151.408 451.953L131.398 440.388V463.517L151.408 451.953Z" fill="#F4F8FE"/>
<path d="M156.064 458.209L134.483 470.666L156.064 483.122V458.209Z" fill="#F4F8FE"/>
<path d="M186.702 508.105L162.361 494.035V522.161L186.702 508.105Z" fill="#F4F8FE"/>
<path d="M189.66 512.295L164.512 526.818L189.66 541.327V512.295Z" fill="#F4F8FE"/>
<path d="M219.731 564.244L194.457 549.65V578.838L219.731 564.244Z" fill="#F4F8FE"/>
<path d="M221.939 568.66L197.174 582.957L221.939 597.267V568.66Z" fill="#F4F8FE"/>
<path d="M218.91 601.67L194.867 587.798V615.556L218.91 601.67Z" fill="#F4F8FE"/>
<path d="M187.961 627.531L167.923 639.109L187.961 650.674V627.531Z" fill="#F4F8FE"/>
<path d="M181.862 657.822L164.781 647.956V667.674L181.862 657.822Z" fill="#F4F8FE"/>
<path d="M152.498 688.963L141.615 695.248L152.498 701.533V688.963Z" fill="#F4F8FE"/>
<path d="M143.582 713.961L135.303 709.176V718.745L143.582 713.961Z" fill="#F4F8FE"/>
<path d="M117.402 749.758L114.572 751.386L117.402 753.028V749.758Z" fill="#F4F8FE"/>
<path d="M106.25 770.113L105.359 769.59V770.623L106.25 770.113Z" fill="#F4F8FE"/>
<path d="M11.8457 264.81L6.73699 261.852V267.755L11.8457 264.81Z" fill="#F4F8FE"/>
<path d="M53.3945 261.767L48.1443 264.81L53.3945 267.84V261.767Z" fill="#F4F8FE"/>
<path d="M78.4287 302.236L70.6596 297.749V306.723L78.4287 302.236Z" fill="#F4F8FE"/>
<path d="M87.1602 315.556L77.8343 320.949L87.1602 326.328V315.556Z" fill="#F4F8FE"/>
<path d="M113.949 358.375L101.51 351.198V365.551L113.949 358.375Z" fill="#F4F8FE"/>
<path d="M121.194 368.906L107 377.087L121.194 385.283V368.906Z" fill="#F4F8FE"/>
<path d="M149.229 414.527L132.487 404.845V424.195L149.229 414.527Z" fill="#F4F8FE"/>
<path d="M154.875 422.836L136.86 433.24L154.875 443.644V422.836Z" fill="#F4F8FE"/>
<path d="M184.721 470.666L163.352 458.337V483.009L184.721 470.666Z" fill="#F4F8FE"/>
<path d="M188.91 476.144L165.998 489.378L188.91 502.613V476.144Z" fill="#F4F8FE"/>
<path d="M219.52 526.818L194.57 512.409V541.228L219.52 526.818Z" fill="#F4F8FE"/>
<path d="M222.024 531.079L197.019 545.531L222.024 559.969V531.079Z" fill="#F4F8FE"/>
<path d="M251.36 582.957L227.246 569.028V596.885L251.36 582.957Z" fill="#F4F8FE"/>
<path d="M221.062 607.601L198.929 620.382L221.062 633.164V607.601Z" fill="#F4F8FE"/>
<path d="M216.293 639.109L196.184 627.488V650.716L216.293 639.109Z" fill="#F4F8FE"/>
<path d="M186.065 668.254L171.715 676.535L186.065 684.816V668.254Z" fill="#F4F8FE"/>
<path d="M178.324 695.248L166.55 688.453V702.042L178.324 695.248Z" fill="#F4F8FE"/>
<path d="M151.097 728.823L144.417 732.673L151.097 736.538V728.823Z" fill="#F4F8FE"/>
<path d="M140.724 751.386L136.733 749.093V753.694L140.724 751.386Z" fill="#F4F8FE"/>
<path d="M116.524 788.713L116.34 788.826L116.524 788.925V788.713Z" fill="#F4F8FE"/>
<path d="M20.5771 243.762L16.5581 246.084L20.5771 248.405V243.762Z" fill="#F4F8FE"/>
<path d="M43.5737 246.084L39.484 243.72V248.462L43.5737 246.084Z" fill="#F4F8FE"/>
<path d="M76.9146 264.81L71.4238 261.625V267.981L76.9146 264.81Z" fill="#F4F8FE"/>
<path d="M86.2261 279.744L79.7022 283.523L86.2261 287.288V279.744Z" fill="#F4F8FE"/>
<path d="M111.84 320.949L102.571 315.584V326.3L111.84 320.949Z" fill="#F4F8FE"/>
<path d="M120.006 333.533L109.378 339.662L120.006 345.791V333.533Z" fill="#F4F8FE"/>
<path d="M147.191 377.087L133.506 369.189V385L147.191 377.087Z" fill="#F4F8FE"/>
<path d="M153.842 387.18L138.912 395.814L153.842 404.435V387.18Z" fill="#F4F8FE"/>
<path d="M182.103 433.24L164.654 423.162V443.304L182.103 433.24Z" fill="#F4F8FE"/>
<path d="M187.664 440.884L168.503 451.953L187.664 463.022V440.884Z" fill="#F4F8FE"/>
<path d="M217.85 489.379L195.405 476.413V502.344L217.85 489.379Z" fill="#F4F8FE"/>
<path d="M221.585 494.403L197.881 508.105L221.585 521.793V494.403Z" fill="#F4F8FE"/>
<path d="M251.459 545.531L227.203 531.518V559.53L251.459 545.531Z" fill="#F4F8FE"/>
<path d="M254.134 550.315L230.02 564.244L254.134 578.172V550.315Z" fill="#F4F8FE"/>
<path d="M253.61 588.647L231.053 601.67L253.61 614.692V588.647Z" fill="#F4F8FE"/>
<path d="M249.605 620.382L228.138 607.997V632.782L249.605 620.382Z" fill="#F4F8FE"/>
<path d="M219.448 647.829L202.141 657.822L219.448 667.815V647.829Z" fill="#F4F8FE"/>
<path d="M212.557 676.535L198.037 668.141V684.915L212.557 676.535Z" fill="#F4F8FE"/>
<path d="M184.494 708.384L174.829 713.961L184.494 719.538V708.384Z" fill="#F4F8FE"/>
<path d="M175.197 732.673L168.107 728.583V736.778L175.197 732.673Z" fill="#F4F8FE"/>
<path d="M149.696 768.669L147.205 770.113L149.696 771.557V768.669Z" fill="#F4F8FE"/>
<path d="M138.657 788.826L137.766 788.302V789.336L138.657 788.826Z" fill="#F4F8FE"/>
<path d="M10.5015 227.371L7.40228 225.587V229.168L10.5015 227.371Z" fill="#F4F8FE"/>
<path d="M52.8003 225.375L49.3473 227.371L52.8003 229.366V225.375Z" fill="#F4F8FE"/>
<path d="M75.8105 227.371L71.9755 225.163V229.593L75.8105 227.371Z" fill="#F4F8FE"/>
<path d="M85.6743 243.295L80.8345 246.083L85.6743 248.886V243.295Z" fill="#F4F8FE"/>
<path d="M110.156 283.523L103.406 279.616V287.416L110.156 283.523Z" fill="#F4F8FE"/>
<path d="M119.086 297.692L111.218 302.236L119.086 306.766V297.692Z" fill="#F4F8FE"/>
<path d="M144.898 339.662L134.653 333.745V345.579L144.898 339.662Z" fill="#F4F8FE"/>
<path d="M152.696 351.75L141.219 358.374L152.696 364.999V351.75Z" fill="#F4F8FE"/>
<path d="M179.966 395.814L165.729 387.59V404.024L179.966 395.814Z" fill="#F4F8FE"/>
<path d="M186.376 405.68L171.065 414.527L186.376 423.374V405.68Z" fill="#F4F8FE"/>
<path d="M215.175 451.953L196.735 441.294V462.612L215.175 451.953Z" fill="#F4F8FE"/>
<path d="M220.411 459.016L200.231 470.666L220.411 482.315V459.016Z" fill="#F4F8FE"/>
<path d="M250.567 508.105L227.642 494.856V521.34L250.567 508.105Z" fill="#F4F8FE"/>
<path d="M253.936 513.215L230.402 526.818L253.936 540.407V513.215Z" fill="#F4F8FE"/>
<path d="M283.102 564.244L259.992 550.896V577.592L283.102 564.244Z" fill="#F4F8FE"/>
<path d="M285.89 570.146L263.7 582.957L285.89 595.781V570.146Z" fill="#F4F8FE"/>
<path d="M281.97 601.67L260.559 589.312V614.041L281.97 601.67Z" fill="#F4F8FE"/>
<path d="M252.309 628.337L233.657 639.109L252.309 649.867V628.337Z" fill="#F4F8FE"/>
<path d="M246.351 657.822L229.765 648.239V667.405L246.351 657.822Z" fill="#F4F8FE"/>
<path d="M217.623 688.425L205.807 695.248L217.623 702.071V688.425Z" fill="#F4F8FE"/>
<path d="M209.26 713.961L199.693 708.44V719.481L209.26 713.961Z" fill="#F4F8FE"/>
<path d="M182.853 748.683L178.14 751.386L182.853 754.104V748.683Z" fill="#F4F8FE"/>
<path d="M172.352 770.113L169.536 768.485V771.727L172.352 770.113Z" fill="#F4F8FE"/>
<path d="M19.9971 207.341L17.7187 208.658L19.9971 209.974V207.341Z" fill="#F4F8FE"/>
<path d="M42.5122 208.658L40.0074 207.214V210.102L42.5122 208.658Z" fill="#F4F8FE"/>
<path d="M85.1929 206.69L81.7824 208.658L85.1929 210.625V206.69Z" fill="#F4F8FE"/>
<path d="M109.039 246.083L103.972 243.153V249.013L109.039 246.083Z" fill="#F4F8FE"/>
<path d="M118.492 261.3L112.407 264.81L118.492 268.307V261.3Z" fill="#F4F8FE"/>
<path d="M143.229 302.236L135.488 297.763V306.695L143.229 302.236Z" fill="#F4F8FE"/>
<path d="M151.762 315.938L143.087 320.949L151.762 325.96V315.938Z" fill="#F4F8FE"/>
<path d="M177.617 358.375L166.904 352.189V364.575L177.617 358.375Z" fill="#F4F8FE"/>
<path d="M185.287 370.151L173.258 377.087L185.287 384.037V370.151Z" fill="#F4F8FE"/>
<path d="M212.401 414.527L198.123 406.275V422.765L212.401 414.527Z" fill="#F4F8FE"/>
<path d="M218.91 424.167L203.216 433.24L218.91 442.299V424.167Z" fill="#F4F8FE"/>
<path d="M248.119 470.666L228.873 459.554V481.777L248.119 470.666Z" fill="#F4F8FE"/>
<path d="M253.044 477.347L232.199 489.378L253.044 501.424V477.347Z" fill="#F4F8FE"/>
<path d="M282.805 526.818L260.148 513.725V539.897L282.805 526.818Z" fill="#F4F8FE"/>
<path d="M286.06 532.424L263.375 545.531L286.06 558.624V532.424Z" fill="#F4F8FE"/>
<path d="M314.15 582.957L293.079 570.783V595.13L314.15 582.957Z" fill="#F4F8FE"/>
<path d="M284.758 609.54L265.979 620.382L284.758 631.239V609.54Z" fill="#F4F8FE"/>
<path d="M279.083 639.109L262.002 629.243V648.961L279.083 639.109Z" fill="#F4F8FE"/>
<path d="M250.454 668.962L237.35 676.535L250.454 684.108V668.962Z" fill="#F4F8FE"/>
<path d="M242.812 695.248L231.52 688.722V701.773L242.812 695.248Z" fill="#F4F8FE"/>
<path d="M216.038 728.597L208.976 732.673L216.038 736.764V728.597Z" fill="#F4F8FE"/>
<path d="M205.99 751.386L201.334 748.697V754.09L205.99 751.386Z" fill="#F4F8FE"/>
<path d="M181.678 788.118L180.475 788.826L181.678 789.52V788.118Z" fill="#F4F8FE"/>
<path d="M9.56738 189.945L7.86923 188.968V190.922L9.56738 189.945Z" fill="#F4F8FE"/>
<path d="M52.4326 188.586L50.0835 189.945L52.4326 191.29V188.586Z" fill="#F4F8FE"/>
<path d="M75.1455 189.945L72.3011 188.303V191.587L75.1455 189.945Z" fill="#F4F8FE"/>
<path d="M108.246 208.658L104.369 206.421V210.894L108.246 208.658Z" fill="#F4F8FE"/>
<path d="M117.982 224.738L113.411 227.371L117.982 230.003V224.738Z" fill="#F4F8FE"/>
<path d="M142.195 264.81L135.997 261.229V268.377L142.195 264.81Z" fill="#F4F8FE"/>
<path d="M151.167 279.532L144.276 283.523L151.167 287.501V279.532Z" fill="#F4F8FE"/>
<path d="M175.89 320.949L167.767 316.25V325.634L175.89 320.949Z" fill="#F4F8FE"/>
<path d="M184.197 334.594L175.437 339.662L184.197 344.729V334.594Z" fill="#F4F8FE"/>
<path d="M210.123 377.087L199.255 370.817V383.372L210.123 377.087Z" fill="#F4F8FE"/>
<path d="M217.68 388.878L205.693 395.814L217.68 402.736V388.878Z" fill="#F4F8FE"/>
<path d="M244.907 433.24L230.487 424.917V441.563L244.907 433.24Z" fill="#F4F8FE"/>
<path d="M251.53 442.54L235.214 451.953L251.53 461.366V442.54Z" fill="#F4F8FE"/>
<path d="M280.937 489.379L261.082 477.913V500.858L280.937 489.379Z" fill="#F4F8FE"/>
<path d="M285.55 495.875L264.379 508.105L285.55 520.321V495.875Z" fill="#F4F8FE"/>
<path d="M314.646 545.531L292.838 532.919V558.129L314.646 545.531Z" fill="#F4F8FE"/>
<path d="M317.999 551.958L296.715 564.244L317.999 576.53V551.958Z" fill="#F4F8FE"/>
<path d="M317.15 590.841L298.414 601.67L317.15 612.498V590.841Z" fill="#F4F8FE"/>
<path d="M311.561 620.382L294.381 610.46V630.305L311.561 620.382Z" fill="#F4F8FE"/>
<path d="M283.088 649.881L269.333 657.822L283.088 665.749V649.881Z" fill="#F4F8FE"/>
<path d="M275.488 676.535L263.799 669.783V683.287L275.488 676.535Z" fill="#F4F8FE"/>
<path d="M248.869 709.148L240.52 713.961L248.869 718.787V709.148Z" fill="#F4F8FE"/>
<path d="M239.586 732.673L233.133 728.951V736.41L239.586 732.673Z" fill="#F4F8FE"/>
<path d="M214.566 768.584L211.92 770.113L214.566 771.628V768.584Z" fill="#F4F8FE"/>
<path d="M203.613 788.826L202.509 788.189V789.463L203.613 788.826Z" fill="#F4F8FE"/>
<path d="M19.7847 170.27L18.1431 171.232L19.7847 172.181V170.27Z" fill="#F4F8FE"/>
<path d="M42.1865 171.232L40.177 170.057V172.393L42.1865 171.232Z" fill="#F4F8FE"/>
<path d="M85.0093 169.562L82.1224 171.232L85.0093 172.888V169.562Z" fill="#F4F8FE"/>
<path d="M107.906 171.232L104.538 169.279V173.186L107.906 171.232Z" fill="#F4F8FE"/>
<path d="M117.742 187.737L113.907 189.945L117.742 192.153V187.737Z" fill="#F4F8FE"/>
<path d="M141.445 227.371L136.379 224.455V230.287L141.445 227.371Z" fill="#F4F8FE"/>
<path d="M150.757 242.8L145.082 246.084L150.757 249.367V242.8Z" fill="#F4F8FE"/>
<path d="M174.999 283.523L168.22 279.602V287.43L174.999 283.523Z" fill="#F4F8FE"/>
<path d="M183.588 298.23L176.668 302.236L183.588 306.228V298.23Z" fill="#F4F8FE"/>
<path d="M208.014 339.662L200.315 335.217V344.107L208.014 339.662Z" fill="#F4F8FE"/>
<path d="M216.519 353.463L208.014 358.375L216.519 363.301V353.463Z" fill="#F4F8FE"/>
<path d="M242.402 395.814L231.732 389.643V401.972L242.402 395.814Z" fill="#F4F8FE"/>
<path d="M249.987 407.775L238.298 414.527L249.987 421.265V407.775Z" fill="#F4F8FE"/>
<path d="M277.866 451.953L262.611 443.134V460.771L277.866 451.953Z" fill="#F4F8FE"/>
<path d="M284.234 460.715L267.012 470.666L284.234 480.617V460.715Z" fill="#F4F8FE"/>
<path d="M313.74 508.106L293.291 496.286V519.911L313.74 508.106Z" fill="#F4F8FE"/>
<path d="M317.971 514.588L296.786 526.818L317.971 539.034V514.588Z" fill="#F4F8FE"/>
<path d="M346.303 564.244L325.613 552.297V576.191L346.303 564.244Z" fill="#F4F8FE"/>
<path d="M349.826 571.675L330.283 582.957L349.826 594.238V571.675Z" fill="#F4F8FE"/>
<path d="M344.406 601.67L326.561 591.365V611.974L344.406 601.67Z" fill="#F4F8FE"/>
<path d="M315.509 631.126L301.697 639.109L315.509 647.079V631.126Z" fill="#F4F8FE"/>
<path d="M308.107 657.822L296.107 650.886V664.744L308.107 657.822Z" fill="#F4F8FE"/>
<path d="M281.39 690.223L272.701 695.248L281.39 700.273V690.223Z" fill="#F4F8FE"/>
<path d="M272.46 713.961L265.313 709.842V718.094L272.46 713.961Z" fill="#F4F8FE"/>
<path d="M247.327 749.263L243.619 751.386L247.327 753.538V749.263Z" fill="#F4F8FE"/>
<path d="M236.841 770.113L234.506 768.754V771.458L236.841 770.113Z" fill="#F4F8FE"/>
<path d="M9.46826 152.505L7.92571 151.628V153.397L9.46826 152.505Z" fill="#F4F8FE"/>
<path d="M52.376 151.26L50.1967 152.505L52.376 153.779V151.26Z" fill="#F4F8FE"/>
<path d="M75.0322 152.505L72.3576 150.962V154.062L75.0322 152.505Z" fill="#F4F8FE"/>
<path d="M117.628 150.495L114.147 152.505L117.628 154.529V150.495Z" fill="#F4F8FE"/>
<path d="M140.879 189.945L136.662 187.51V192.38L140.879 189.945Z" fill="#F4F8FE"/>
<path d="M150.446 205.926L145.719 208.658L150.446 211.39V205.926Z" fill="#F4F8FE"/>
<path d="M174.376 246.083L168.517 242.7V249.466L174.376 246.083Z" fill="#F4F8FE"/>
<path d="M183.334 261.229L177.15 264.81L183.334 268.377V261.229Z" fill="#F4F8FE"/>
<path d="M206.938 302.236L200.853 298.726V305.746L206.938 302.236Z" fill="#F4F8FE"/>
<path d="M215.755 317.368L209.542 320.949L215.755 324.53V317.368Z" fill="#F4F8FE"/>
<path d="M240.096 358.374L232.893 354.213V362.536L240.096 358.374Z" fill="#F4F8FE"/>
<path d="M248.812 372.374L240.647 377.087L248.812 381.801V372.374Z" fill="#F4F8FE"/>
<path d="M274.611 414.527L264.238 408.54V420.515L274.611 414.527Z" fill="#F4F8FE"/>
<path d="M282.493 426.304L270.493 433.24L282.493 440.162V426.304Z" fill="#F4F8FE"/>
<path d="M311.065 470.666L294.621 461.168V480.178L311.065 470.666Z" fill="#F4F8FE"/>
<path d="M317.023 478.791L298.669 489.378L317.023 499.98V478.791Z" fill="#F4F8FE"/>
<path d="M346.316 526.818L325.613 514.857V538.765L346.316 526.818Z" fill="#F4F8FE"/>
<path d="M350.236 533.542L329.476 545.531L350.236 557.52V533.542Z" fill="#F4F8FE"/>
<path d="M377.789 582.957L358.486 571.803V594.111L377.789 582.957Z" fill="#F4F8FE"/>
<path d="M348.312 611.719L333.311 620.382L348.312 629.059V611.719Z" fill="#F4F8FE"/>
<path d="M340.911 639.109L328.316 631.834V646.385L340.911 639.109Z" fill="#F4F8FE"/>
<path d="M313.769 671.581L305.193 676.535L313.769 681.489V671.581Z" fill="#F4F8FE"/>
<path d="M304.867 695.248L297.721 691.129V699.367L304.867 695.248Z" fill="#F4F8FE"/>
<path d="M279.96 730.154L275.587 732.673L279.96 735.207V730.154Z" fill="#F4F8FE"/>
<path d="M269.615 751.386L266.742 749.73V753.057L269.615 751.386Z" fill="#F4F8FE"/>
<path d="M246.336 788.387L245.6 788.826L246.336 789.251V788.387Z" fill="#F4F8FE"/>
<path d="M19.7988 132.83L18.1148 133.792L19.7988 134.769V132.83Z" fill="#F4F8FE"/>
<path d="M42.1865 133.793L40.177 132.632V134.967L42.1865 133.793Z" fill="#F4F8FE"/>
<path d="M84.9668 132.221L82.2356 133.792L84.9668 135.378V132.221Z" fill="#F4F8FE"/>
<path d="M107.694 133.792L104.637 132.037V135.562L107.694 133.792Z" fill="#F4F8FE"/>
<path d="M140.653 152.505L136.775 150.269V154.756L140.653 152.505Z" fill="#F4F8FE"/>
<path d="M150.276 168.798L146.059 171.232L150.276 173.667V168.798Z" fill="#F4F8FE"/>
<path d="M173.838 208.658L168.786 205.742V211.574L173.838 208.658Z" fill="#F4F8FE"/>
<path d="M183.093 224.214L177.631 227.371L183.093 230.527V224.214Z" fill="#F4F8FE"/>
<path d="M206.57 264.81L201.037 261.611V267.995L206.57 264.81Z" fill="#F4F8FE"/>
<path d="M215.458 280.438L210.123 283.523L215.458 286.595V280.438Z" fill="#F4F8FE"/>
<path d="M238.652 320.949L233.614 318.033V323.851L238.652 320.949Z" fill="#F4F8FE"/>
<path d="M247.822 336.675L242.643 339.662L247.822 342.648V336.675Z" fill="#F4F8FE"/>
<path d="M272.191 377.087L265.441 373.195V380.994L272.191 377.087Z" fill="#F4F8FE"/>
<path d="M281.135 391.242L273.224 395.814L281.135 400.372V391.242Z" fill="#F4F8FE"/>
<path d="M307.386 433.24L296.461 426.927V439.539L307.386 433.24Z" fill="#F4F8FE"/>
<path d="M315.367 444.238L301.994 451.953L315.367 459.667V444.238Z" fill="#F4F8FE"/>
<path d="M344.42 489.379L326.561 479.074V499.697L344.42 489.379Z" fill="#F4F8FE"/>
<path d="M349.784 496.895L330.368 508.105L349.784 519.302V496.895Z" fill="#F4F8FE"/>
<path d="M378.681 545.531L358.034 533.599V557.45L378.681 545.531Z" fill="#F4F8FE"/>
<path d="M382.544 552.425L362.081 564.244L382.544 576.063V552.425Z" fill="#F4F8FE"/>
<path d="M381.398 591.832L364.36 601.669L381.398 611.521V591.832Z" fill="#F4F8FE"/>
<path d="M374.535 620.382L360.115 612.059V628.72L374.535 620.382Z" fill="#F4F8FE"/>
<path d="M346.515 652.259L336.906 657.822L346.515 663.371V652.259Z" fill="#F4F8FE"/>
<path d="M337.5 676.535L330.014 672.218V680.852L337.5 676.535Z" fill="#F4F8FE"/>
<path d="M312.424 711.342L307.881 713.96L312.424 716.579V711.342Z" fill="#F4F8FE"/>
<path d="M302.234 732.674L299.036 730.833V734.528L302.234 732.674Z" fill="#F4F8FE"/>
<path d="M278.856 769.505L277.795 770.113L278.856 770.722V769.505Z" fill="#F4F8FE"/>
<path d="M267.889 788.826L267.606 788.656V788.996L267.889 788.826Z" fill="#F4F8FE"/>
<path d="M9.3833 115.08L7.96815 114.259V115.901L9.3833 115.08Z" fill="#F4F8FE"/>
<path d="M52.3193 113.919L50.2956 115.08L52.3193 116.255V113.919Z" fill="#F4F8FE"/>
<path d="M74.8481 115.08L72.4565 113.692V116.467L74.8481 115.08Z" fill="#F4F8FE"/>
<path d="M117.458 113.353L114.458 115.08L117.458 116.821V113.353Z" fill="#F4F8FE"/>
<path d="M140.214 115.08L136.987 113.225V116.934L140.214 115.08Z" fill="#F4F8FE"/>
<path d="M150.106 131.655L146.398 133.792L150.106 135.944V131.655Z" fill="#F4F8FE"/>
<path d="M173.513 171.232L168.956 168.599V173.851L173.513 171.232Z" fill="#F4F8FE"/>
<path d="M182.909 187.114L178.013 189.945L182.909 192.762V187.114Z" fill="#F4F8FE"/>
<path d="M206.302 227.371L201.179 224.412V230.329L206.302 227.371Z" fill="#F4F8FE"/>
<path d="M215.345 243.21L210.363 246.083L215.345 248.957V243.21Z" fill="#F4F8FE"/>
<path d="M238.143 283.523L233.869 281.046V285.986L238.143 283.523Z" fill="#F4F8FE"/>
<path d="M247.397 299.971L243.492 302.236L247.397 304.487V299.971Z" fill="#F4F8FE"/>
<path d="M270.337 339.662L266.374 337.369V341.955L270.337 339.662Z" fill="#F4F8FE"/>
<path d="M280.003 355.784L275.503 358.375L280.003 360.979V355.784Z" fill="#F4F8FE"/>
<path d="M304.541 395.814L297.89 391.964V399.65L304.541 395.814Z" fill="#F4F8FE"/>
<path d="M313.612 409.842L305.504 414.527L313.612 419.198V409.842Z" fill="#F4F8FE"/>
<path d="M340.996 451.953L328.274 444.606V459.299L340.996 451.953Z" fill="#F4F8FE"/>
<path d="M348.425 461.805L333.085 470.666L348.425 479.527V461.805Z" fill="#F4F8FE"/>
<path d="M377.747 508.105L358.501 496.98V519.217L377.747 508.105Z" fill="#F4F8FE"/>
<path d="M382.544 514.985L362.067 526.818L382.544 538.638V514.985Z" fill="#F4F8FE"/>
<path d="M379.53 632.499L368.096 639.109L379.53 645.706V632.499Z" fill="#F4F8FE"/>
<path d="M370.884 657.822L361.94 652.656V662.974L370.884 657.822Z" fill="#F4F8FE"/>
<path d="M345.001 692.332L339.949 695.248L345.001 698.164V692.332Z" fill="#F4F8FE"/>
<path d="M334.868 713.961L331.33 711.922V716.013L334.868 713.961Z" fill="#F4F8FE"/>
<path d="M311.277 750.749L310.174 751.386L311.277 752.023V750.749Z" fill="#F4F8FE"/>
<path d="M300.395 770.113L299.956 769.858V770.354L300.395 770.113Z" fill="#F4F8FE"/>
<path d="M19.7568 95.4751L18.2143 96.3669L19.7568 97.2586V95.4751Z" fill="#F4F8FE"/>
<path d="M42.0732 96.3668L40.2336 95.3052V97.4284L42.0732 96.3668Z" fill="#F4F8FE"/>
<path d="M84.8394 95.0078L82.4902 96.3667L84.8394 97.7256V95.0078Z" fill="#F4F8FE"/>
<path d="M107.425 96.3669L104.779 94.8381V97.8956L107.425 96.3669Z" fill="#F4F8FE"/>
<path d="M149.922 94.5549L146.766 96.3668L149.922 98.1786V94.5549Z" fill="#F4F8FE"/>
<path d="M173.159 133.792L169.126 131.471V136.128L173.159 133.792Z" fill="#F4F8FE"/>
<path d="M182.739 149.986L178.352 152.505L182.739 155.039V149.986Z" fill="#F4F8FE"/>
<path d="M206.033 189.945L201.307 187.213V192.663L206.033 189.945Z" fill="#F4F8FE"/>
<path d="M215.231 205.997L210.604 208.658L215.231 211.319V205.997Z" fill="#F4F8FE"/>
<path d="M238.043 246.084L233.911 243.706V248.476L238.043 246.084Z" fill="#F4F8FE"/>
<path d="M247.327 262.645L243.605 264.81L247.327 266.948V262.645Z" fill="#F4F8FE"/>
<path d="M269.559 302.236L266.771 300.623V303.836L269.559 302.236Z" fill="#F4F8FE"/>
<path d="M279.38 319.42L276.734 320.949L279.38 322.478V319.42Z" fill="#F4F8FE"/>
<path d="M302.306 358.375L299.008 356.478V360.285L302.306 358.375Z" fill="#F4F8FE"/>
<path d="M312.324 374.639L308.079 377.087L312.324 379.55V374.639Z" fill="#F4F8FE"/>
<path d="M337.273 414.527L330.127 410.408V418.646L337.273 414.527Z" fill="#F4F8FE"/>
<path d="M346.401 427.889L337.146 433.24L346.401 438.591V427.889Z" fill="#F4F8FE"/>
<path d="M374.917 470.666L359.916 462.017V479.329L374.917 470.666Z" fill="#F4F8FE"/>
<path d="M381.525 479.329L364.105 489.379L381.525 499.443V479.329Z" fill="#F4F8FE"/>
<path d="M377.761 672.996L371.633 676.535L377.761 680.074V672.996Z" fill="#F4F8FE"/>
<path d="M367.827 695.248L363.468 692.728V697.767L367.827 695.248Z" fill="#F4F8FE"/>
<path d="M343.883 731.711L342.185 732.673L343.883 733.65V731.711Z" fill="#F4F8FE"/>
<path d="M332.901 751.386L332.321 751.047V751.74L332.901 751.386Z" fill="#F4F8FE"/>
<path d="M9.35547 77.654L7.98277 76.8613V78.4467L9.35547 77.654Z" fill="#F4F8FE"/>
<path d="M52.2627 76.5781L50.4089 77.6539L52.2627 78.7297V76.5781Z" fill="#F4F8FE"/>
<path d="M74.6929 77.6538L72.5277 76.394V78.8995L74.6929 77.6538Z" fill="#F4F8FE"/>
<path d="M117.345 76.1252L114.699 77.654L117.345 79.1827V76.1252Z" fill="#F4F8FE"/>
<path d="M139.959 77.6539L137.115 76.012V79.2817L139.959 77.6539Z" fill="#F4F8FE"/>
<path d="M172.678 96.3667L169.366 94.4558V98.2776L172.678 96.3667Z" fill="#F4F8FE"/>
<path d="M182.513 112.942L178.805 115.08L182.513 117.217V112.942Z" fill="#F4F8FE"/>
<path d="M205.792 152.505L201.433 149.986V155.025L205.792 152.505Z" fill="#F4F8FE"/>
<path d="M215.146 168.698L210.76 171.232L215.146 173.766V168.698Z" fill="#F4F8FE"/>
<path d="M238.029 208.658L233.911 206.28V211.036L238.029 208.658Z" fill="#F4F8FE"/>
<path d="M247.355 225.177L243.563 227.371L247.355 229.565V225.177Z" fill="#F4F8FE"/>
<path d="M269.587 264.81L266.742 263.154V266.438L269.587 264.81Z" fill="#F4F8FE"/>
<path d="M279.253 282.207L276.975 283.523L279.253 284.84V282.207Z" fill="#F4F8FE"/>
<path d="M301.131 320.949L299.603 320.071V321.827L301.131 320.949Z" fill="#F4F8FE"/>
<path d="M311.49 338.643L309.735 339.662L311.49 340.681V338.643Z" fill="#F4F8FE"/>
<path d="M334.727 377.087L331.401 375.176V379.012L334.727 377.087Z" fill="#F4F8FE"/>
<path d="M344.901 393.054L340.132 395.814L344.901 398.56V393.054Z" fill="#F4F8FE"/>
<path d="M370.742 433.24L362.011 428.187V438.279L370.742 433.24Z" fill="#F4F8FE"/>
<path d="M379.672 445.116L367.827 451.953L379.672 458.79V445.116Z" fill="#F4F8FE"/>
<path d="M376.516 712.573L374.124 713.961L376.516 715.348V712.573Z" fill="#F4F8FE"/>
<path d="M365.732 732.674L364.515 731.98V733.381L365.732 732.674Z" fill="#F4F8FE"/>
<path d="M19.7002 58.1484L18.3134 58.9411L19.7002 59.7338V58.1484Z" fill="#F4F8FE"/>
<path d="M41.9746 58.941L40.2765 57.9502V59.9177L41.9746 58.941Z" fill="#F4F8FE"/>
<path d="M84.7827 57.6814L82.6034 58.9412L84.7827 60.201V57.6814Z" fill="#F4F8FE"/>
<path d="M107.227 58.9411L104.878 57.5823V60.3L107.227 58.9411Z" fill="#F4F8FE"/>
<path d="M149.78 57.3699L147.049 58.9411L149.78 60.5123V57.3699Z" fill="#F4F8FE"/>
<path d="M172.395 58.941L169.508 57.2708V60.5972L172.395 58.941Z" fill="#F4F8FE"/>
<path d="M182.329 75.8279L179.159 77.6539L182.329 79.4799V75.8279Z" fill="#F4F8FE"/>
<path d="M205.354 115.08L201.646 112.942V117.231L205.354 115.08Z" fill="#F4F8FE"/>
<path d="M215.033 131.457L210.986 133.792L215.033 136.128V131.457Z" fill="#F4F8FE"/>
<path d="M237.987 171.232L233.94 168.897V173.568L237.987 171.232Z" fill="#F4F8FE"/>
<path d="M247.384 187.708L243.506 189.945L247.384 192.181V187.708Z" fill="#F4F8FE"/>
<path d="M269.757 227.371L266.672 225.587V229.154L269.757 227.371Z" fill="#F4F8FE"/>
<path d="M279.366 244.583L276.762 246.083L279.366 247.598V244.583Z" fill="#F4F8FE"/>
<path d="M301.046 283.523L299.631 282.688V284.344L301.046 283.523Z" fill="#F4F8FE"/>
<path d="M311.207 301.712L310.315 302.236L311.207 302.746V301.712Z" fill="#F4F8FE"/>
<path d="M333.127 339.662L332.193 339.124V340.2L333.127 339.662Z" fill="#F4F8FE"/>
<path d="M343.798 357.525L342.34 358.375L343.798 359.224V357.525Z" fill="#F4F8FE"/>
<path d="M367.643 395.814L363.553 393.436V398.178L367.643 395.814Z" fill="#F4F8FE"/>
<path d="M377.705 411.102L371.761 414.527L377.705 417.953V411.102Z" fill="#F4F8FE"/>
<path d="M9.35547 40.2282L7.98277 39.4214V41.0209L9.35547 40.2282Z" fill="#F4F8FE"/>
<path d="M52.2344 39.2092L50.4796 40.2284L52.2344 41.2334V39.2092Z" fill="#F4F8FE"/>
<path d="M74.5938 40.2283L72.5842 39.0535V41.389L74.5938 40.2283Z" fill="#F4F8FE"/>
<path d="M117.26 38.8411L114.869 40.2282L117.26 41.6013V38.8411Z" fill="#F4F8FE"/>
<path d="M139.775 40.2285L137.214 38.7422V41.7006L139.775 40.2285Z" fill="#F4F8FE"/>
<path d="M182.244 38.5581L179.357 40.2284L182.244 41.8845V38.5581Z" fill="#F4F8FE"/>
<path d="M205.028 77.6539L201.802 75.7996V79.5082L205.028 77.6539Z" fill="#F4F8FE"/>
<path d="M214.85 94.3567L211.368 96.3667L214.85 98.3767V94.3567Z" fill="#F4F8FE"/>
<path d="M237.874 133.792L233.997 131.556V136.043L237.874 133.792Z" fill="#F4F8FE"/>
<path d="M247.384 150.269L243.506 152.505L247.384 154.756V150.269Z" fill="#F4F8FE"/>
<path d="M269.969 189.945L266.558 187.978V191.898L269.969 189.945Z" fill="#F4F8FE"/>
<path d="M279.521 206.874L276.436 208.658L279.521 210.441V206.874Z" fill="#F4F8FE"/>
<path d="M301.428 246.084L299.447 244.951V247.23L301.428 246.084Z" fill="#F4F8FE"/>
<path d="M311.362 264.018L310.004 264.81L311.362 265.589V264.018Z" fill="#F4F8FE"/>
<path d="M332.675 302.236L332.434 302.094V302.378L332.675 302.236Z" fill="#F4F8FE"/>
<path d="M343.373 320.85L343.203 320.949L343.373 321.048V320.85Z" fill="#F4F8FE"/>
<path d="M365.521 358.375L364.615 357.851V358.898L365.521 358.375Z" fill="#F4F8FE"/>
<path d="M376.402 375.898L374.35 377.087L376.402 378.291V375.898Z" fill="#F4F8FE"/>
<path d="M19.7422 20.6238L18.228 21.5155L19.7422 22.3931V20.6238Z" fill="#F4F8FE"/>
<path d="M41.9746 21.5155L40.2765 20.5247V22.4922L41.9746 21.5155Z" fill="#F4F8FE"/>
<path d="M84.7261 20.3406L82.7024 21.5154L84.7261 22.6761V20.3406Z" fill="#F4F8FE"/>
<path d="M107.142 21.5154L104.92 20.2131V22.7893L107.142 21.5154Z" fill="#F4F8FE"/>
<path d="M149.752 19.9585L147.092 21.5155L149.752 23.0584V19.9585Z" fill="#F4F8FE"/>
<path d="M172.366 21.5155L169.522 19.8735V23.1433L172.366 21.5155Z" fill="#F4F8FE"/>
<path d="M204.887 40.2284L201.887 38.4873V41.9553L204.887 40.2284Z" fill="#F4F8FE"/>
<path d="M214.736 57.1152L211.566 58.9412L214.736 60.7672V57.1152Z" fill="#F4F8FE"/>
<path d="M237.619 96.3669L234.124 94.3428V98.3911L237.619 96.3669Z" fill="#F4F8FE"/>
<path d="M247.312 112.985L243.661 115.08L247.312 117.189V112.985Z" fill="#F4F8FE"/>
<path d="M270.167 152.505L266.459 150.368V154.657L270.167 152.505Z" fill="#F4F8FE"/>
<path d="M279.635 169.265L276.238 171.232L279.635 173.186V169.265Z" fill="#F4F8FE"/>
<path d="M301.839 208.658L299.235 207.157V210.158L301.839 208.658Z" fill="#F4F8FE"/>
<path d="M311.561 226.224L309.579 227.371L311.561 228.517V226.224Z" fill="#F4F8FE"/>
<path d="M333.015 264.81L332.265 264.372V265.235L333.015 264.81Z" fill="#F4F8FE"/>
<path d="M343.401 283.368L343.132 283.523L343.401 283.679V283.368Z" fill="#F4F8FE"/>
<path d="M9.35547 2.78853L7.98277 1.99585V3.59536L9.35547 2.78853Z" fill="#F4F8FE"/>
<path d="M52.2202 1.81177L50.5079 2.78846L52.2202 3.7793V1.81177Z" fill="#F4F8FE"/>
<path d="M74.5938 2.78863L72.5842 1.62793V3.96349L74.5938 2.78863Z" fill="#F4F8FE"/>
<path d="M117.246 1.44385L114.897 2.78857L117.246 4.14744V1.44385Z" fill="#F4F8FE"/>
<path d="M139.733 2.78853L137.228 1.34473V4.24649L139.733 2.78853Z" fill="#F4F8FE"/>
<path d="M182.23 1.14648L179.386 2.78846L182.23 4.43043V1.14648Z" fill="#F4F8FE"/>
<path d="M204.887 2.78843L201.887 1.06152V4.52948L204.887 2.78843Z" fill="#F4F8FE"/>
<path d="M214.736 19.6753L211.566 21.5154L214.736 23.3414V19.6753Z" fill="#F4F8FE"/>
<path d="M237.506 58.9412L234.18 57.0161V60.8663L237.506 58.9412Z" fill="#F4F8FE"/>
<path d="M247.214 75.7007L243.832 77.6541L247.214 79.6074V75.7007Z" fill="#F4F8FE"/>
<path d="M270.054 115.08L266.516 113.027V117.132L270.054 115.08Z" fill="#F4F8FE"/>
<path d="M279.72 131.698L276.069 133.792L279.72 135.902V131.698Z" fill="#F4F8FE"/>
<path d="M302.221 171.232L299.051 169.392V173.058L302.221 171.232Z" fill="#F4F8FE"/>
<path d="M311.815 188.374L309.098 189.945L311.815 191.502V188.374Z" fill="#F4F8FE"/>
<path d="M333.58 227.371L331.981 226.437V228.305L333.58 227.371Z" fill="#F4F8FE"/>
<path d="M343.642 245.517L342.651 246.084L343.642 246.664V245.517Z" fill="#F4F8FE"/>
<path d="M237.506 21.5154L234.18 19.5762V23.4263L237.506 21.5154Z" fill="#F4F8FE"/>
<path d="M247.199 38.3032L243.874 40.2283L247.199 42.1392V38.3032Z" fill="#F4F8FE"/>
<path d="M270.025 77.654L266.53 75.6299V79.6782L270.025 77.654Z" fill="#F4F8FE"/>
<path d="M279.677 94.3145L276.139 96.3669L279.677 98.4194V94.3145Z" fill="#F4F8FE"/>
<path d="M302.476 133.792L298.924 131.754V135.845L302.476 133.792Z" fill="#F4F8FE"/>
<path d="M312.014 150.594L308.688 152.505L312.014 154.444V150.594Z" fill="#F4F8FE"/>
<path d="M334.132 189.945L331.698 188.544V191.346L334.132 189.945Z" fill="#F4F8FE"/>
<path d="M343.953 207.554L342.043 208.658L343.953 209.762V207.554Z" fill="#F4F8FE"/>
<path d="M365.492 246.084L364.629 245.588V246.579L365.492 246.084Z" fill="#F4F8FE"/>
<path d="M247.214 0.835205L243.832 2.78859L247.214 4.74197V0.835205Z" fill="#F4F8FE"/>
<path d="M270.025 40.2283L266.53 38.2041V42.2383L270.025 40.2283Z" fill="#F4F8FE"/>
<path d="M279.663 56.917L276.168 58.9411L279.663 60.9512V56.917Z" fill="#F4F8FE"/>
<path d="M302.532 96.3669L298.881 94.2578V98.476L302.532 96.3669Z" fill="#F4F8FE"/>
<path d="M312.084 113.027L308.546 115.08L312.084 117.132V113.027Z" fill="#F4F8FE"/>
<path d="M334.628 152.505L331.458 150.679V154.345L334.628 152.505Z" fill="#F4F8FE"/>
<path d="M344.236 169.633L341.477 171.232L344.236 172.818V169.633Z" fill="#F4F8FE"/>
<path d="M366.157 208.658L364.289 207.582V209.734L366.157 208.658Z" fill="#F4F8FE"/>
<path d="M376.19 226.564L374.789 227.371L376.19 228.178V226.564Z" fill="#F4F8FE"/>
<path d="M270.054 2.78855L266.516 0.750244V4.84102L270.054 2.78855Z" fill="#F4F8FE"/>
<path d="M279.72 19.4065L276.069 21.5156L279.72 23.6105V19.4065Z" fill="#F4F8FE"/>
<path d="M302.546 58.9411L298.881 56.8179V61.0502L302.546 58.9411Z" fill="#F4F8FE"/>
<path d="M312.127 75.5449L308.462 77.654L312.127 79.7631V75.5449Z" fill="#F4F8FE"/>
<path d="M334.882 115.08L331.33 113.027V117.132L334.882 115.08Z" fill="#F4F8FE"/>
<path d="M344.448 131.839L341.052 133.792L344.448 135.76V131.839Z" fill="#F4F8FE"/>
<path d="M366.723 171.232L364.02 169.661V172.789L366.723 171.232Z" fill="#F4F8FE"/>
<path d="M376.516 188.572L374.138 189.945L376.516 191.318V188.572Z" fill="#F4F8FE"/>
<path d="M302.659 21.5155L298.824 19.2932V23.7237L302.659 21.5155Z" fill="#F4F8FE"/>
<path d="M312.184 38.0061L308.349 40.2284L312.184 42.4366V38.0061Z" fill="#F4F8FE"/>
<path d="M335.066 77.654L331.231 75.4458V79.8621L335.066 77.654Z" fill="#F4F8FE"/>
<path d="M344.548 94.2295L340.84 96.3669L344.548 98.5184V94.2295Z" fill="#F4F8FE"/>
<path d="M367.247 133.792L363.752 131.782V135.817L367.247 133.792Z" fill="#F4F8FE"/>
<path d="M376.785 150.665L373.601 152.505L376.785 154.345V150.665Z" fill="#F4F8FE"/>
<path d="M312.197 0.552002L308.32 2.78848L312.197 5.03912V0.552002Z" fill="#F4F8FE"/>
<path d="M335.18 40.2284L331.175 37.907V42.5356L335.18 40.2284Z" fill="#F4F8FE"/>
<path d="M344.646 56.6338L340.656 58.941L344.646 61.2483V56.6338Z" fill="#F4F8FE"/>
<path d="M367.473 96.3669L363.638 94.1587V98.575L367.473 96.3669Z" fill="#F4F8FE"/>
<path d="M376.969 112.928L373.233 115.08L376.969 117.245V112.928Z" fill="#F4F8FE"/>
<path d="M335.18 2.78846L331.175 0.481201V5.09571L335.18 2.78846Z" fill="#F4F8FE"/>
<path d="M344.703 19.1091L340.543 21.5155L344.703 23.9077V19.1091Z" fill="#F4F8FE"/>
<path d="M367.699 58.941L363.525 56.5347V61.3473L367.699 58.941Z" fill="#F4F8FE"/>
<path d="M377.054 75.3467L373.049 77.6539L377.054 79.9612V75.3467Z" fill="#F4F8FE"/>
<path d="M367.812 21.5154L363.482 19.01V24.0067L367.812 21.5154Z" fill="#F4F8FE"/>
<path d="M377.167 37.7229L372.837 40.2283L377.167 42.7196V37.7229Z" fill="#F4F8FE"/>
<path d="M377.167 0.297363L372.837 2.78863L377.167 5.29405V0.297363Z" fill="#F4F8FE"/>
</g>
</svg>
