<svg width="1060" height="1149" viewBox="0 0 1060 1149" fill="none" xmlns="http://www.w3.org/2000/svg">
<g style="mix-blend-mode:multiply">
<path d="M338.809 802.394L338.688 802.475L338.809 802.555V802.394Z" fill="#F4F8FE"/>
<path d="M369.964 802.475L369.26 802.072V802.877L369.964 802.475Z" fill="#F4F8FE"/>
<path d="M324.157 775.861L323.05 775.217V776.505L324.157 775.861Z" fill="#F4F8FE"/>
<path d="M385.764 774.311L383.087 775.861L385.764 777.411V774.311Z" fill="#F4F8FE"/>
<path d="M415.792 829.088L415.491 828.907V829.269L415.792 829.088Z" fill="#F4F8FE"/>
<path d="M339.835 747.395L336.655 749.247L339.835 751.079V747.395Z" fill="#F4F8FE"/>
<path d="M372.279 749.248L368.113 746.832V751.643L372.279 749.248Z" fill="#F4F8FE"/>
<path d="M417.946 775.861L414.424 773.808V777.894L417.946 775.861Z" fill="#F4F8FE"/>
<path d="M431.732 801.146L429.418 802.475L431.732 803.803V801.146Z" fill="#F4F8FE"/>
<path d="M292.8 775.66L292.458 775.861L292.8 776.042V775.66Z" fill="#F4F8FE"/>
<path d="M293.766 720.742L290.505 722.634L293.766 724.506V720.742Z" fill="#F4F8FE"/>
<path d="M326.552 722.634L321.842 719.896V725.352L326.552 722.634Z" fill="#F4F8FE"/>
<path d="M387.273 718.447L380.048 722.634L387.273 726.801V718.447Z" fill="#F4F8FE"/>
<path d="M421.267 722.634L412.753 717.702V727.546L421.267 722.634Z" fill="#F4F8FE"/>
<path d="M433.121 745.503L426.64 749.247L433.121 752.972V745.503Z" fill="#F4F8FE"/>
<path d="M464.257 802.475L460.393 800.24V804.709L464.257 802.475Z" fill="#F4F8FE"/>
<path d="M478.003 827.438L475.125 829.088L478.003 830.739V827.438Z" fill="#F4F8FE"/>
<path d="M461.982 855.702L461.54 855.46V855.964L461.982 855.702Z" fill="#F4F8FE"/>
<path d="M277.967 749.247L277.001 748.684V749.811L277.967 749.247Z" fill="#F4F8FE"/>
<path d="M280.1 696L275.934 693.584V698.416L280.1 696Z" fill="#F4F8FE"/>
<path d="M341.385 691.471L333.535 696L341.385 700.55V691.471Z" fill="#F4F8FE"/>
<path d="M375.841 696L366.322 690.524V701.496L375.841 696Z" fill="#F4F8FE"/>
<path d="M435.053 688.914L422.756 696L435.053 703.106V688.914Z" fill="#F4F8FE"/>
<path d="M466.954 749.247L459.044 744.678V753.817L466.954 749.247Z" fill="#F4F8FE"/>
<path d="M479.211 772.097L472.71 775.861L479.211 779.606V772.097Z" fill="#F4F8FE"/>
<path d="M510.99 829.088L506.16 826.31V831.887L510.99 829.088Z" fill="#F4F8FE"/>
<path d="M246.609 749.227L246.589 749.247H246.609V749.227Z" fill="#F4F8FE"/>
<path d="M294.994 665.38L288.05 669.387L294.994 673.393V665.38Z" fill="#F4F8FE"/>
<path d="M329.53 669.387L320.353 664.092V674.701L329.53 669.387Z" fill="#F4F8FE"/>
<path d="M389.125 661.998L376.325 669.387L389.125 676.795V661.998Z" fill="#F4F8FE"/>
<path d="M425.01 669.387L410.881 661.233V677.56L425.01 669.387Z" fill="#F4F8FE"/>
<path d="M470.919 696L457.072 688.008V704.012L470.919 696Z" fill="#F4F8FE"/>
<path d="M480.941 715.87L469.248 722.634L480.941 729.378V715.87Z" fill="#F4F8FE"/>
<path d="M513.546 775.861L504.892 770.848V780.874L513.546 775.861Z" fill="#F4F8FE"/>
<path d="M525.844 797.764L517.713 802.475L525.844 807.185V797.764Z" fill="#F4F8FE"/>
<path d="M524.556 853.226L520.269 855.702L524.556 858.178V853.226Z" fill="#F4F8FE"/>
<path d="M508.716 882.315L507.307 881.51V883.141L508.716 882.315Z" fill="#F4F8FE"/>
<path d="M231.656 722.634L231.012 722.251V722.996L231.656 722.634Z" fill="#F4F8FE"/>
<path d="M247.435 694.551L244.919 696L247.435 697.47V694.551Z" fill="#F4F8FE"/>
<path d="M248.421 639.612L242.947 642.773L248.421 645.934V639.612Z" fill="#F4F8FE"/>
<path d="M282.273 642.773L274.847 638.485V647.061L282.273 642.773Z" fill="#F4F8FE"/>
<path d="M342.834 635.747L330.658 642.773L342.834 649.799V635.747Z" fill="#F4F8FE"/>
<path d="M378.9 642.773L364.792 634.62V650.926L378.9 642.773Z" fill="#F4F8FE"/>
<path d="M436.623 632.949L419.616 642.773L436.623 652.597V632.949Z" fill="#F4F8FE"/>
<path d="M473.797 642.773L455.623 632.264V653.282L473.797 642.773Z" fill="#F4F8FE"/>
<path d="M482.672 659.643L465.786 669.387L482.672 679.13V659.643Z" fill="#F4F8FE"/>
<path d="M516.888 722.634L503.202 714.722V730.525L516.888 722.634Z" fill="#F4F8FE"/>
<path d="M527.252 742.121L514.915 749.247L527.252 756.374V742.121Z" fill="#F4F8FE"/>
<path d="M561.447 802.475L550.056 795.892V809.058L561.447 802.475Z" fill="#F4F8FE"/>
<path d="M572.939 822.646L561.789 829.088L572.939 835.53V822.646Z" fill="#F4F8FE"/>
<path d="M558.791 855.702L551.404 851.434V859.97L558.791 855.702Z" fill="#F4F8FE"/>
<path d="M523.489 908.325L522.442 908.949L523.489 909.553V908.325Z" fill="#F4F8FE"/>
<path d="M233.366 669.387L230.166 667.534V671.239L233.366 669.387Z" fill="#F4F8FE"/>
<path d="M235.097 616.159L229.301 612.818V619.501L235.097 616.159Z" fill="#F4F8FE"/>
<path d="M296.141 610.18L285.776 616.159L296.141 622.138V610.18Z" fill="#F4F8FE"/>
<path d="M331.926 616.159L319.145 608.791V623.527L331.926 616.159Z" fill="#F4F8FE"/>
<path d="M390.413 606.537L373.768 616.159L390.413 625.762V606.537Z" fill="#F4F8FE"/>
<path d="M427.627 616.159L409.574 605.731V626.587L427.627 616.159Z" fill="#F4F8FE"/>
<path d="M483.659 604.684L463.794 616.159L483.659 627.634V604.684Z" fill="#F4F8FE"/>
<path d="M520.007 669.387L501.652 658.797V679.976L520.007 669.387Z" fill="#F4F8FE"/>
<path d="M528.923 685.975L511.554 696L528.923 706.046V685.975Z" fill="#F4F8FE"/>
<path d="M564.124 749.247L548.727 740.349V758.125L564.124 749.247Z" fill="#F4F8FE"/>
<path d="M574.208 767.245L559.274 775.861L574.208 784.477V767.245Z" fill="#F4F8FE"/>
<path d="M610.093 829.088L594.877 820.311V837.866L610.093 829.088Z" fill="#F4F8FE"/>
<path d="M571.551 878.289L564.567 882.316L571.551 886.362V878.289Z" fill="#F4F8FE"/>
<path d="M556.214 908.949L552.692 906.916V910.983L556.214 908.949Z" fill="#F4F8FE"/>
<path d="M201.023 668.481L199.454 669.387L201.023 670.292V668.481Z" fill="#F4F8FE"/>
<path d="M249.286 584.875L241.215 589.546L249.286 594.196V584.875Z" fill="#F4F8FE"/>
<path d="M284.186 589.546L273.881 583.587V595.484L284.186 589.546Z" fill="#F4F8FE"/>
<path d="M343.82 580.809L328.705 589.546L343.82 598.263V580.809Z" fill="#F4F8FE"/>
<path d="M380.873 589.546L363.826 579.681V599.39L380.873 589.546Z" fill="#F4F8FE"/>
<path d="M437.469 578.252L417.906 589.546L437.469 600.839V578.252Z" fill="#F4F8FE"/>
<path d="M475.166 589.546L454.938 577.849V601.222L475.166 589.546Z" fill="#F4F8FE"/>
<path d="M521.698 616.159L500.806 604.101V628.218L521.698 616.159Z" fill="#F4F8FE"/>
<path d="M529.97 630.936L509.461 642.773L529.97 654.61V630.936Z" fill="#F4F8FE"/>
<path d="M566.922 696L547.339 684.686V707.314L566.922 696Z" fill="#F4F8FE"/>
<path d="M575.596 711.582L556.476 722.634L575.596 733.666V711.582Z" fill="#F4F8FE"/>
<path d="M612.508 775.861L593.67 764.99V786.732L612.508 775.861Z" fill="#F4F8FE"/>
<path d="M621.767 791.302L602.425 802.475L621.767 813.628V791.302Z" fill="#F4F8FE"/>
<path d="M620.438 846.844L605.082 855.702L620.438 864.58V846.844Z" fill="#F4F8FE"/>
<path d="M607.074 882.315L596.387 876.155V888.496L607.074 882.315Z" fill="#F4F8FE"/>
<path d="M570.263 933.771L567.163 935.563L570.263 937.334V933.771Z" fill="#F4F8FE"/>
<path d="M554.282 962.176L553.658 961.814V962.539L554.282 962.176Z" fill="#F4F8FE"/>
<path d="M186.452 642.773L184.479 641.646V643.9L186.452 642.773Z" fill="#F4F8FE"/>
<path d="M201.828 613.844L197.843 616.159L201.828 618.474V613.844Z" fill="#F4F8FE"/>
<path d="M202.553 559.389L196.414 562.932L202.553 566.455V559.389Z" fill="#F4F8FE"/>
<path d="M236.687 562.932L228.496 558.201V567.663L236.687 562.932Z" fill="#F4F8FE"/>
<path d="M296.905 555.624L284.246 562.932L296.905 570.22V555.624Z" fill="#F4F8FE"/>
<path d="M333.435 562.932L318.401 554.235V571.609L333.435 562.932Z" fill="#F4F8FE"/>
<path d="M390.997 552.303L372.601 562.932L390.997 573.541V552.303Z" fill="#F4F8FE"/>
<path d="M428.673 562.932L409.05 551.598V574.246L428.673 562.932Z" fill="#F4F8FE"/>
<path d="M483.98 550.894L463.17 562.932L483.98 574.951V550.894Z" fill="#F4F8FE"/>
<path d="M521.899 562.932L500.706 550.692V575.152L521.899 562.932Z" fill="#F4F8FE"/>
<path d="M530.312 577.084L508.757 589.546L530.312 601.987V577.084Z" fill="#F4F8FE"/>
<path d="M568.351 642.773L546.614 630.231V655.315L568.351 642.773Z" fill="#F4F8FE"/>
<path d="M576.482 656.804L554.705 669.387L576.482 681.969V656.804Z" fill="#F4F8FE"/>
<path d="M614.883 722.634L592.483 709.689V735.558L614.883 722.634Z" fill="#F4F8FE"/>
<path d="M622.914 736.102L600.13 749.247L622.914 762.393V736.102Z" fill="#F4F8FE"/>
<path d="M661.576 802.475L638.27 789.007V815.922L661.576 802.475Z" fill="#F4F8FE"/>
<path d="M669.285 815.439L645.656 829.088L669.285 842.737V815.439Z" fill="#F4F8FE"/>
<path d="M659.021 855.702L639.558 844.469V866.955L659.021 855.702Z" fill="#F4F8FE"/>
<path d="M618.728 903.031L608.503 908.949L618.728 914.848V903.031Z" fill="#F4F8FE"/>
<path d="M604.035 935.563L597.917 932.02V939.086L604.035 935.563Z" fill="#F4F8FE"/>
<path d="M569.357 988.548L568.954 988.79L569.357 989.032V988.548Z" fill="#F4F8FE"/>
<path d="M154.672 642.33L153.907 642.773L154.672 643.196V642.33Z" fill="#F4F8FE"/>
<path d="M187.881 589.546L183.755 587.15V591.921L187.881 589.546Z" fill="#F4F8FE"/>
<path d="M189.29 536.298L183.07 532.715V539.902L189.29 536.298Z" fill="#F4F8FE"/>
<path d="M250.031 530.34L239.706 536.298L250.031 542.277V530.34Z" fill="#F4F8FE"/>
<path d="M285.554 536.298L273.197 529.172V543.445L285.554 536.298Z" fill="#F4F8FE"/>
<path d="M344.303 526.716L327.699 536.298L344.303 545.901V526.716Z" fill="#F4F8FE"/>
<path d="M381.718 536.298L363.403 525.729V546.887L381.718 536.298Z" fill="#F4F8FE"/>
<path d="M437.69 524.642L417.503 536.298L437.69 547.954V524.642Z" fill="#F4F8FE"/>
<path d="M475.367 536.298L454.838 524.441V548.176L475.367 536.298Z" fill="#F4F8FE"/>
<path d="M530.11 524.22L509.179 536.298L530.11 548.397V524.22Z" fill="#F4F8FE"/>
<path d="M568.552 589.546L546.513 576.823V602.249L568.552 589.546Z" fill="#F4F8FE"/>
<path d="M576.744 603.134L554.182 616.159L576.744 629.184V603.134Z" fill="#F4F8FE"/>
<path d="M615.829 669.387L592.019 655.637V683.156L615.829 669.387Z" fill="#F4F8FE"/>
<path d="M623.578 681.707L598.802 696L623.578 710.313V681.707Z" fill="#F4F8FE"/>
<path d="M663.468 749.247L637.324 734.129V764.346L663.468 749.247Z" fill="#F4F8FE"/>
<path d="M670.271 760.501L643.684 775.861L670.271 791.221V760.501Z" fill="#F4F8FE"/>
<path d="M710.423 829.088L682.991 813.245V844.932L710.423 829.088Z" fill="#F4F8FE"/>
<path d="M667.675 871.485L648.877 882.316L667.675 893.166V871.485Z" fill="#F4F8FE"/>
<path d="M655.377 908.949L641.369 900.856V917.022L655.377 908.949Z" fill="#F4F8FE"/>
<path d="M617.117 959.036L611.703 962.176L617.117 965.317V959.036Z" fill="#F4F8FE"/>
<path d="M601.56 988.79L599.144 987.401V990.179L601.56 988.79Z" fill="#F4F8FE"/>
<path d="M139.879 616.159L138.631 615.435V616.884L139.879 616.159Z" fill="#F4F8FE"/>
<path d="M155.316 587.955L152.579 589.546L155.316 591.116V587.955Z" fill="#F4F8FE"/>
<path d="M203.257 504.894L194.965 509.685L203.257 514.476V504.894Z" fill="#F4F8FE"/>
<path d="M238.136 509.685L227.771 503.706V515.664L238.136 509.685Z" fill="#F4F8FE"/>
<path d="M297.449 501.431L283.159 509.685L297.449 517.939V501.431Z" fill="#F4F8FE"/>
<path d="M334.28 509.685L317.978 500.283V519.086L334.28 509.685Z" fill="#F4F8FE"/>
<path d="M391.077 498.915L372.42 509.685L391.077 520.475V498.915Z" fill="#F4F8FE"/>
<path d="M428.573 509.685L409.11 498.452V520.938L428.573 509.685Z" fill="#F4F8FE"/>
<path d="M483.578 498.391L463.995 509.685L483.578 520.978V498.391Z" fill="#F4F8FE"/>
<path d="M520.711 509.685L501.31 498.472V520.898L520.711 509.685Z" fill="#F4F8FE"/>
<path d="M567.646 536.298L546.977 524.381V548.236L567.646 536.298Z" fill="#F4F8FE"/>
<path d="M576.441 550.431L554.805 562.932L576.441 575.413V550.431Z" fill="#F4F8FE"/>
<path d="M615.587 616.159L592.14 602.611V629.708L615.587 616.159Z" fill="#F4F8FE"/>
<path d="M623.477 628.621L598.983 642.773L623.477 656.925V628.621Z" fill="#F4F8FE"/>
<path d="M664.313 696L636.901 680.177V711.843L664.313 696Z" fill="#F4F8FE"/>
<path d="M670.915 706.146L642.376 722.634L670.915 739.101V706.146Z" fill="#F4F8FE"/>
<path d="M711.973 775.861L682.226 758.669V793.033L711.973 775.861Z" fill="#F4F8FE"/>
<path d="M717.689 784.799L687.097 802.475L717.689 820.15V784.799Z" fill="#F4F8FE"/>
<path d="M716.602 839.939L689.311 855.702L716.602 871.465V839.939Z" fill="#F4F8FE"/>
<path d="M707.243 882.315L684.581 869.25V895.401L707.243 882.315Z" fill="#F4F8FE"/>
<path d="M665.662 928.195L652.902 935.563L665.662 942.931V928.195Z" fill="#F4F8FE"/>
<path d="M651.554 962.177L643.282 957.385V966.948L651.554 962.177Z" fill="#F4F8FE"/>
<path d="M616.03 1014.16L613.877 1015.4L616.03 1016.65V1014.16Z" fill="#F4F8FE"/>
<path d="M108.462 615.918L108.039 616.159L108.462 616.401V615.918Z" fill="#F4F8FE"/>
<path d="M141.087 562.932L138.028 561.161V564.684L141.087 562.932Z" fill="#F4F8FE"/>
<path d="M155.98 533.601L151.291 536.298L155.98 539.016V533.601Z" fill="#F4F8FE"/>
<path d="M156.584 479.327L150.083 483.071L156.584 486.836V479.327Z" fill="#F4F8FE"/>
<path d="M190.578 483.071L182.426 478.36V487.782L190.578 483.071Z" fill="#F4F8FE"/>
<path d="M250.534 476.247L238.7 483.071L250.534 489.896V476.247Z" fill="#F4F8FE"/>
<path d="M286.319 483.071L272.814 475.28V490.862L286.319 483.071Z" fill="#F4F8FE"/>
<path d="M344.283 473.509L327.739 483.071L344.283 492.634V473.509Z" fill="#F4F8FE"/>
<path d="M381.135 483.071L363.685 473.005V493.137L381.135 483.071Z" fill="#F4F8FE"/>
<path d="M436.965 472.643L418.912 483.071L436.965 493.499V472.643Z" fill="#F4F8FE"/>
<path d="M473.575 483.071L455.743 472.764V493.378L473.575 483.071Z" fill="#F4F8FE"/>
<path d="M528.883 473.126L511.655 483.071L528.883 493.016V473.126Z" fill="#F4F8FE"/>
<path d="M564.929 483.071L548.325 473.489V492.654L564.929 483.071Z" fill="#F4F8FE"/>
<path d="M575.456 498.915L556.778 509.685L575.456 520.475V498.915Z" fill="#F4F8FE"/>
<path d="M614.561 562.932L592.643 550.269V575.575L614.561 562.932Z" fill="#F4F8FE"/>
<path d="M622.994 576.239L599.969 589.546L622.994 602.832V576.239Z" fill="#F4F8FE"/>
<path d="M663.348 642.773L637.385 627.775V657.771L663.348 642.773Z" fill="#F4F8FE"/>
<path d="M670.653 653.362L642.899 669.387L670.653 685.411V653.362Z" fill="#F4F8FE"/>
<path d="M712.798 722.634L681.804 704.717V740.531L712.798 722.634Z" fill="#F4F8FE"/>
<path d="M718.232 730.626L686.01 749.247L718.232 767.849V730.626Z" fill="#F4F8FE"/>
<path d="M760.337 802.475L727.169 783.31V821.64L760.337 802.475Z" fill="#F4F8FE"/>
<path d="M764.725 809.782L731.295 829.088L764.725 848.394V809.782Z" fill="#F4F8FE"/>
<path d="M758.687 855.702L727.994 837.966V873.438L758.687 855.702Z" fill="#F4F8FE"/>
<path d="M714.71 896.448L693.075 908.949L714.71 921.431V896.448Z" fill="#F4F8FE"/>
<path d="M703.017 935.563L686.694 926.141V944.984L703.017 935.563Z" fill="#F4F8FE"/>
<path d="M663.851 984.562L656.504 988.79L663.851 993.038V984.562Z" fill="#F4F8FE"/>
<path d="M648.876 1015.4L644.63 1012.95V1017.86L648.876 1015.4Z" fill="#F4F8FE"/>
<path d="M93.5278 589.546L92.6826 589.063V590.029L93.5278 589.546Z" fill="#F4F8FE"/>
<path d="M108.965 561.805L107.033 562.932L108.965 564.039V561.805Z" fill="#F4F8FE"/>
<path d="M142.435 509.685L137.363 506.766V512.624L142.435 509.685Z" fill="#F4F8FE"/>
<path d="M143.28 456.458L136.92 452.794V460.122L143.28 456.458Z" fill="#F4F8FE"/>
<path d="M203.62 451.062L194.281 456.458L203.62 461.853V451.062Z" fill="#F4F8FE"/>
<path d="M238.519 456.458L227.59 450.136V462.779L238.519 456.458Z" fill="#F4F8FE"/>
<path d="M297.248 448.566L283.562 456.458L297.248 464.349V448.566Z" fill="#F4F8FE"/>
<path d="M333.274 456.458L318.481 447.922V464.993L333.274 456.458Z" fill="#F4F8FE"/>
<path d="M390.071 447.419L374.433 456.458L390.071 465.496V447.419Z" fill="#F4F8FE"/>
<path d="M426.218 456.458L410.278 447.258V465.658L426.218 456.458Z" fill="#F4F8FE"/>
<path d="M482.089 447.721L466.954 456.458L482.089 465.195V447.721Z" fill="#F4F8FE"/>
<path d="M517.713 456.458L502.799 447.841V465.054L517.713 456.458Z" fill="#F4F8FE"/>
<path d="M573.785 448.566L560.119 456.458L573.785 464.349V448.566Z" fill="#F4F8FE"/>
<path d="M612.105 509.685L593.871 499.156V520.214L612.105 509.685Z" fill="#F4F8FE"/>
<path d="M622.149 524.461L601.64 536.298L622.149 548.156V524.461Z" fill="#F4F8FE"/>
<path d="M661.697 589.546L638.21 575.977V603.114L661.697 589.546Z" fill="#F4F8FE"/>
<path d="M669.808 601.604L644.61 616.159L669.808 630.714V601.604Z" fill="#F4F8FE"/>
<path d="M711.671 669.387L682.367 652.456V686.317L711.671 669.387Z" fill="#F4F8FE"/>
<path d="M717.951 677.902L686.594 696L717.951 714.098V677.902Z" fill="#F4F8FE"/>
<path d="M761.062 749.247L726.806 729.458V769.016L761.062 749.247Z" fill="#F4F8FE"/>
<path d="M765.127 755.851L730.489 775.861L765.127 795.851V755.851Z" fill="#F4F8FE"/>
<path d="M807.614 829.088L772.654 808.897V849.28L807.614 829.088Z" fill="#F4F8FE"/>
<path d="M763.396 865.345L733.971 882.315L763.396 899.306V865.345Z" fill="#F4F8FE"/>
<path d="M754.903 908.949L729.886 894.495V923.383L754.903 908.949Z" fill="#F4F8FE"/>
<path d="M712.416 953.661L697.663 962.176L712.416 970.692V953.661Z" fill="#F4F8FE"/>
<path d="M698.951 988.79L688.727 982.892V994.689L698.951 988.79Z" fill="#F4F8FE"/>
<path d="M662.502 1040.1L659.202 1042.02L662.502 1043.95V1040.1Z" fill="#F4F8FE"/>
<path d="M646.603 1068.63L645.757 1068.15V1069.13L646.603 1068.63Z" fill="#F4F8FE"/>
<path d="M62.3721 589.304L61.9695 589.546L62.3721 589.787V589.304Z" fill="#F4F8FE"/>
<path d="M94.4941 536.298L92.1998 534.97V537.647L94.4941 536.298Z" fill="#F4F8FE"/>
<path d="M109.549 507.551L105.866 509.685L109.549 511.819V507.551Z" fill="#F4F8FE"/>
<path d="M156.826 425.677L149.6 429.844L156.826 434.011V425.677Z" fill="#F4F8FE"/>
<path d="M190.738 429.844L182.346 424.992V434.696L190.738 429.844Z" fill="#F4F8FE"/>
<path d="M250.232 423.523L239.304 429.844L250.232 436.165V423.523Z" fill="#F4F8FE"/>
<path d="M285.252 429.844L273.358 422.959V436.709L285.252 429.844Z" fill="#F4F8FE"/>
<path d="M343.236 422.093L329.852 429.844L343.236 437.574V422.093Z" fill="#F4F8FE"/>
<path d="M378.579 429.844L364.953 421.973V437.695L378.579 429.844Z" fill="#F4F8FE"/>
<path d="M435.416 422.093L422.011 429.844L435.416 437.574V422.093Z" fill="#F4F8FE"/>
<path d="M470.315 429.844L457.374 422.355V437.313L470.315 429.844Z" fill="#F4F8FE"/>
<path d="M527.152 422.879L515.096 429.844L527.152 436.809V422.879Z" fill="#F4F8FE"/>
<path d="M561.447 429.844L550.076 423.261V436.407L561.447 429.844Z" fill="#F4F8FE"/>
<path d="M608.865 456.458L595.481 448.727V464.188L608.865 456.458Z" fill="#F4F8FE"/>
<path d="M620.579 473.972L604.8 483.071L620.579 492.171V473.972Z" fill="#F4F8FE"/>
<path d="M659.624 536.298L639.236 524.542V548.075L659.624 536.298Z" fill="#F4F8FE"/>
<path d="M668.822 550.088L646.582 562.932L668.822 575.756V550.088Z" fill="#F4F8FE"/>
<path d="M709.397 616.159L683.494 601.202V631.117L709.397 616.159Z" fill="#F4F8FE"/>
<path d="M716.844 626.567L688.787 642.773L716.844 658.979V626.567Z" fill="#F4F8FE"/>
<path d="M759.834 696L727.41 677.298V714.722L759.834 696Z" fill="#F4F8FE"/>
<path d="M765.006 702.845L730.751 722.634L765.006 742.403V702.845Z" fill="#F4F8FE"/>
<path d="M808.097 775.861L772.433 755.267V796.455L808.097 775.861Z" fill="#F4F8FE"/>
<path d="M811.659 781.719L775.733 802.475L811.659 823.23V781.719Z" fill="#F4F8FE"/>
<path d="M810.975 836.134L777.082 855.702L810.975 875.27V836.134Z" fill="#F4F8FE"/>
<path d="M805.078 882.316L773.922 864.338V900.313L805.078 882.316Z" fill="#F4F8FE"/>
<path d="M761.142 922.457L738.46 935.563L761.142 948.648V922.457Z" fill="#F4F8FE"/>
<path d="M750.093 962.177L732.281 951.889V972.464L750.093 962.177Z" fill="#F4F8FE"/>
<path d="M710.604 1010.01L701.266 1015.4L710.604 1020.8V1010.01Z" fill="#F4F8FE"/>
<path d="M695.812 1042.02L690.297 1038.86V1045.2L695.812 1042.02Z" fill="#F4F8FE"/>
<path d="M661.416 1095.24L661.395 1095.26H661.416V1095.24Z" fill="#F4F8FE"/>
<path d="M47.3579 562.932L46.6132 562.489V563.355L47.3579 562.932Z" fill="#F4F8FE"/>
<path d="M62.7344 535.453L61.2249 536.298L62.7344 537.164V535.453Z" fill="#F4F8FE"/>
<path d="M95.46 483.071L91.7164 480.897V485.245L95.46 483.071Z" fill="#F4F8FE"/>
<path d="M109.971 453.599L105.02 456.458L109.971 459.316V453.599Z" fill="#F4F8FE"/>
<path d="M110.092 400.15L104.758 403.23L110.092 406.31V400.15Z" fill="#F4F8FE"/>
<path d="M143.28 403.23L136.92 399.546V406.894L143.28 403.23Z" fill="#F4F8FE"/>
<path d="M203.297 398.379L194.905 403.23L203.297 408.062V398.379Z" fill="#F4F8FE"/>
<path d="M237.472 403.23L228.113 397.815V408.626L237.472 403.23Z" fill="#F4F8FE"/>
<path d="M296.282 397.01L285.494 403.23L296.282 409.451V397.01Z" fill="#F4F8FE"/>
<path d="M330.859 403.23L319.689 396.768V409.672L330.859 403.23Z" fill="#F4F8FE"/>
<path d="M388.622 396.728L377.351 403.23L388.622 409.713V396.728Z" fill="#F4F8FE"/>
<path d="M422.938 403.23L411.908 396.849V409.592L422.938 403.23Z" fill="#F4F8FE"/>
<path d="M480.479 397.271L470.174 403.23L480.479 409.169V397.271Z" fill="#F4F8FE"/>
<path d="M514.312 403.23L504.51 397.553V408.887L514.312 403.23Z" fill="#F4F8FE"/>
<path d="M572.215 398.057L563.259 403.23L572.215 408.404V398.057Z" fill="#F4F8FE"/>
<path d="M605.947 403.23L596.95 398.036V408.424L605.947 403.23Z" fill="#F4F8FE"/>
<path d="M619.009 423.442L607.919 429.844L619.009 436.246V423.442Z" fill="#F4F8FE"/>
<path d="M656.404 483.071L640.866 474.093V492.05L656.404 483.071Z" fill="#F4F8FE"/>
<path d="M667.353 499.378L649.5 509.685L667.353 520.012V499.378Z" fill="#F4F8FE"/>
<path d="M707.103 562.932L684.662 549.968V575.877L707.103 562.932Z" fill="#F4F8FE"/>
<path d="M715.556 575.595L691.404 589.546L715.556 603.497V575.595Z" fill="#F4F8FE"/>
<path d="M757.197 642.773L728.738 626.326V659.22L757.197 642.773Z" fill="#F4F8FE"/>
<path d="M763.819 651.671L733.126 669.386L763.819 687.102V651.671Z" fill="#F4F8FE"/>
<path d="M807.393 722.634L772.775 702.623V742.624L807.393 722.634Z" fill="#F4F8FE"/>
<path d="M811.599 728.593L775.834 749.247L811.599 769.882V728.593Z" fill="#F4F8FE"/>
<path d="M854.368 802.475L818.422 781.719V823.23L854.368 802.475Z" fill="#F4F8FE"/>
<path d="M857.507 808.756L822.286 829.088L857.507 849.441V808.756Z" fill="#F4F8FE"/>
<path d="M853.2 855.702L819.005 835.973V875.451L853.2 855.702Z" fill="#F4F8FE"/>
<path d="M809.184 892.482L780.685 908.949L809.184 925.396V892.482Z" fill="#F4F8FE"/>
<path d="M800.509 935.563L776.217 921.531V949.574L800.509 935.563Z" fill="#F4F8FE"/>
<path d="M758.747 979.852L743.27 988.79L758.747 997.728V979.852Z" fill="#F4F8FE"/>
<path d="M746.067 1015.4L734.293 1008.6V1022.21L746.067 1015.4Z" fill="#F4F8FE"/>
<path d="M708.833 1066.32L704.808 1068.63L708.833 1070.97V1066.32Z" fill="#F4F8FE"/>
<path d="M692.974 1095.26L691.706 1094.52V1095.99L692.974 1095.26Z" fill="#F4F8FE"/>
<path d="M0.785156 589.546L0.76501 589.526V589.546H0.785156Z" fill="#F4F8FE"/>
<path d="M16.2827 562.691L15.86 562.932L16.2827 563.154V562.691Z" fill="#F4F8FE"/>
<path d="M48.1025 509.685L46.2509 508.618V510.752L48.1025 509.685Z" fill="#F4F8FE"/>
<path d="M63.1572 481.481L60.3999 483.071L63.1572 484.682V481.481Z" fill="#F4F8FE"/>
<path d="M96.0439 429.844L91.4149 427.167V432.501L96.0439 429.844Z" fill="#F4F8FE"/>
<path d="M96.104 376.617L91.3743 373.879V379.334L96.104 376.617Z" fill="#F4F8FE"/>
<path d="M156.523 372.933L150.184 376.617L156.523 380.281V372.933Z" fill="#F4F8FE"/>
<path d="M189.833 376.617L182.789 372.53V380.683L189.833 376.617Z" fill="#F4F8FE"/>
<path d="M249.407 371.725L240.954 376.617L249.407 381.489V371.725Z" fill="#F4F8FE"/>
<path d="M283.28 376.617L274.344 371.463V381.75L283.28 376.617Z" fill="#F4F8FE"/>
<path d="M341.928 371.141L332.469 376.617L341.928 382.072V371.141Z" fill="#F4F8FE"/>
<path d="M375.681 376.617L366.402 371.242V381.972L375.681 376.617Z" fill="#F4F8FE"/>
<path d="M433.926 371.443L424.99 376.617L433.926 381.77V371.443Z" fill="#F4F8FE"/>
<path d="M467.356 376.617L458.843 371.685V381.529L467.356 376.617Z" fill="#F4F8FE"/>
<path d="M525.723 372.127L517.974 376.617L525.723 381.086V372.127Z" fill="#F4F8FE"/>
<path d="M558.71 376.617L551.444 372.409V380.804L558.71 376.617Z" fill="#F4F8FE"/>
<path d="M617.801 372.288L610.334 376.617L617.801 380.925V372.288Z" fill="#F4F8FE"/>
<path d="M653.405 429.844L642.356 423.462V436.226L653.405 429.844Z" fill="#F4F8FE"/>
<path d="M665.823 448.787L652.56 456.458L665.823 464.107V448.787Z" fill="#F4F8FE"/>
<path d="M703.922 509.685L686.231 499.478V519.891L703.922 509.685Z" fill="#F4F8FE"/>
<path d="M714.227 524.662L694.04 536.298L714.227 547.954V524.662Z" fill="#F4F8FE"/>
<path d="M754.098 589.546L730.288 575.776V603.295L754.098 589.546Z" fill="#F4F8FE"/>
<path d="M762.128 601.363L736.507 616.159L762.128 630.956V601.363Z" fill="#F4F8FE"/>
<path d="M804.575 669.387L774.184 651.852V686.941L804.575 669.387Z" fill="#F4F8FE"/>
<path d="M810.532 677.177L777.948 696L810.532 714.823V677.177Z" fill="#F4F8FE"/>
<path d="M854.066 749.247L818.583 728.754V769.741L854.066 749.247Z" fill="#F4F8FE"/>
<path d="M857.628 755.307L822.065 775.861L857.628 796.395V755.307Z" fill="#F4F8FE"/>
<path d="M899.35 829.088L865.055 809.279V848.897L899.35 829.088Z" fill="#F4F8FE"/>
<path d="M856.259 864.137L824.782 882.316L856.259 900.494V864.137Z" fill="#F4F8FE"/>
<path d="M849.477 908.949L820.877 892.421V925.457L849.477 908.949Z" fill="#F4F8FE"/>
<path d="M806.487 950.4L786.079 962.176L806.487 973.953V950.4Z" fill="#F4F8FE"/>
<path d="M795.478 988.79L778.732 979.127V998.453L795.478 988.79Z" fill="#F4F8FE"/>
<path d="M756.754 1036.54L747.255 1042.02L756.754 1047.51V1036.54Z" fill="#F4F8FE"/>
<path d="M742.002 1068.63L736.326 1065.37V1071.91L742.002 1068.63Z" fill="#F4F8FE"/>
<path d="M707.585 1121.72L707.324 1121.88L707.585 1122.02V1121.72Z" fill="#F4F8FE"/>
<path d="M1.26807 536.298L0.523398 535.876V536.741L1.26807 536.298Z" fill="#F4F8FE"/>
<path d="M16.5645 508.96L15.2965 509.685L16.5645 510.43V508.96Z" fill="#F4F8FE"/>
<path d="M48.7666 456.458L45.9087 454.807V458.108L48.7666 456.458Z" fill="#F4F8FE"/>
<path d="M63.4189 427.791L59.8566 429.844L63.4189 431.897V427.791Z" fill="#F4F8FE"/>
<path d="M109.951 347.185L105.081 349.983L109.951 352.801V347.185Z" fill="#F4F8FE"/>
<path d="M142.656 349.983L137.242 346.863V353.103L142.656 349.983Z" fill="#F4F8FE"/>
<path d="M202.613 346.339L196.294 349.983L202.613 353.647V346.339Z" fill="#F4F8FE"/>
<path d="M235.761 349.983L228.959 346.057V353.909L235.761 349.983Z" fill="#F4F8FE"/>
<path d="M295.154 345.715L287.748 349.983L295.154 354.271V345.715Z" fill="#F4F8FE"/>
<path d="M328.383 349.983L320.916 345.675V354.311L328.383 349.983Z" fill="#F4F8FE"/>
<path d="M387.313 345.735L379.947 349.983L387.313 354.251V345.735Z" fill="#F4F8FE"/>
<path d="M420.341 349.983L413.216 345.876V354.11L420.341 349.983Z" fill="#F4F8FE"/>
<path d="M479.251 346.158L472.609 349.983L479.251 353.828V346.158Z" fill="#F4F8FE"/>
<path d="M511.896 349.983L505.717 346.42V353.566L511.896 349.983Z" fill="#F4F8FE"/>
<path d="M571.128 346.682L565.413 349.983L571.128 353.285V346.682Z" fill="#F4F8FE"/>
<path d="M603.833 349.983L598.017 346.621V353.365L603.833 349.983Z" fill="#F4F8FE"/>
<path d="M651.251 376.617L643.442 372.087V381.126L651.251 376.617Z" fill="#F4F8FE"/>
<path d="M664.495 397.855L655.216 403.23L664.495 408.585V397.855Z" fill="#F4F8FE"/>
<path d="M700.924 456.458L687.741 448.828V464.067L700.924 456.458Z" fill="#F4F8FE"/>
<path d="M712.537 474.354L697.422 483.071L712.537 491.788V474.354Z" fill="#F4F8FE"/>
<path d="M751.2 536.298L731.737 525.065V547.552L751.2 536.298Z" fill="#F4F8FE"/>
<path d="M760.659 550.652L739.425 562.932L760.659 575.192V550.652Z" fill="#F4F8FE"/>
<path d="M800.852 616.159L776.036 601.826V630.473L800.852 616.159Z" fill="#F4F8FE"/>
<path d="M808.761 627.03L781.51 642.773L808.761 658.516V627.03Z" fill="#F4F8FE"/>
<path d="M851.691 696L819.77 677.56V714.44L851.691 696Z" fill="#F4F8FE"/>
<path d="M857.004 703.147L823.292 722.634L857.004 742.101V703.147Z" fill="#F4F8FE"/>
<path d="M899.491 775.861L864.994 755.931V795.771L899.491 775.861Z" fill="#F4F8FE"/>
<path d="M903.295 782.665L868.999 802.475L903.295 822.284V782.665Z" fill="#F4F8FE"/>
<path d="M902.55 837.181L870.469 855.702L902.55 874.223V837.181Z" fill="#F4F8FE"/>
<path d="M896.854 882.316L866.323 864.701V899.951L896.854 882.316Z" fill="#F4F8FE"/>
<path d="M853.965 921.35L829.35 935.563L853.965 949.776V921.35Z" fill="#F4F8FE"/>
<path d="M844.164 962.176L823.514 950.239V974.094L844.164 962.176Z" fill="#F4F8FE"/>
<path d="M804.253 1007.47L790.507 1015.4L804.253 1023.34V1007.47Z" fill="#F4F8FE"/>
<path d="M791.03 1042.02L780.946 1036.2V1047.86L791.03 1042.02Z" fill="#F4F8FE"/>
<path d="M754.762 1093.21L751.219 1095.26L754.762 1097.32V1093.21Z" fill="#F4F8FE"/>
<path d="M739.063 1121.88L737.796 1121.13V1122.6L739.063 1121.88Z" fill="#F4F8FE"/>
<path d="M1.77148 483.071L0.282148 482.206V483.937L1.77148 483.071Z" fill="#F4F8FE"/>
<path d="M16.8462 455.25L14.7328 456.458L16.8462 457.665V455.25Z" fill="#F4F8FE"/>
<path d="M49.0889 403.23L45.7681 401.298V405.143L49.0889 403.23Z" fill="#F4F8FE"/>
<path d="M63.499 374.422L59.7152 376.617L63.499 378.791V374.422Z" fill="#F4F8FE"/>
<path d="M63.3379 321.457L60.017 323.369L63.3379 325.282V321.457Z" fill="#F4F8FE"/>
<path d="M95.6411 323.369L91.6158 321.054V325.685L95.6411 323.369Z" fill="#F4F8FE"/>
<path d="M155.98 320.652L151.291 323.369L155.98 326.087V320.652Z" fill="#F4F8FE"/>
<path d="M188.424 323.369L183.493 320.531V326.208L188.424 323.369Z" fill="#F4F8FE"/>
<path d="M248.381 320.269L243.007 323.369L248.381 326.47V320.269Z" fill="#F4F8FE"/>
<path d="M281.046 323.369L275.451 320.148V326.59L281.046 323.369Z" fill="#F4F8FE"/>
<path d="M340.64 320.148L335.045 323.369L340.64 326.59V320.148Z" fill="#F4F8FE"/>
<path d="M373.205 323.369L367.65 320.148V326.59L373.205 323.369Z" fill="#F4F8FE"/>
<path d="M432.719 320.289L427.405 323.369L432.719 326.449V320.289Z" fill="#F4F8FE"/>
<path d="M465.163 323.369L459.95 320.35V326.389L465.163 323.369Z" fill="#F4F8FE"/>
<path d="M524.676 320.692L520.047 323.369L524.676 326.047V320.692Z" fill="#F4F8FE"/>
<path d="M556.798 323.369L552.391 320.833V325.926L556.798 323.369Z" fill="#F4F8FE"/>
<path d="M616.956 320.531L612.045 323.369L616.956 326.208V320.531Z" fill="#F4F8FE"/>
<path d="M649.682 323.369L644.227 320.229V326.53L649.682 323.369Z" fill="#F4F8FE"/>
<path d="M663.71 346.017L656.827 349.983L663.71 353.969V346.017Z" fill="#F4F8FE"/>
<path d="M698.528 403.23L688.928 397.674V408.766L698.528 403.23Z" fill="#F4F8FE"/>
<path d="M711.229 423.382L700.038 429.844L711.229 436.286V423.382Z" fill="#F4F8FE"/>
<path d="M747.939 483.071L733.367 474.656V491.486L747.939 483.071Z" fill="#F4F8FE"/>
<path d="M759.029 500.263L742.706 509.685L759.029 519.106V500.263Z" fill="#F4F8FE"/>
<path d="M797.812 562.932L777.565 551.236V574.608L797.812 562.932Z" fill="#F4F8FE"/>
<path d="M806.93 576.964L785.153 589.546L806.93 602.128V576.964Z" fill="#F4F8FE"/>
<path d="M847.887 642.773L821.662 627.614V657.932L847.887 642.773Z" fill="#F4F8FE"/>
<path d="M855.333 652.818L826.633 669.387L855.333 685.955V652.818Z" fill="#F4F8FE"/>
<path d="M898.223 722.634L865.618 703.791V741.457L898.223 722.634Z" fill="#F4F8FE"/>
<path d="M903.013 729.901L869.543 749.247L903.013 768.574V729.901Z" fill="#F4F8FE"/>
<path d="M944.494 802.475L911.627 783.491V821.459L944.494 802.475Z" fill="#F4F8FE"/>
<path d="M948.458 810.869L916.9 829.088L948.458 847.327V810.869Z" fill="#F4F8FE"/>
<path d="M942.884 855.702L912.433 838.127V873.297L942.884 855.702Z" fill="#F4F8FE"/>
<path d="M900.699 893.629L874.172 908.949L900.699 924.249V893.629Z" fill="#F4F8FE"/>
<path d="M892.226 935.563L868.637 921.934V949.192L892.226 935.563Z" fill="#F4F8FE"/>
<path d="M851.369 979.087L834.563 988.79L851.369 998.493V979.087Z" fill="#F4F8FE"/>
<path d="M839.474 1015.4L825.869 1007.55V1023.25L839.474 1015.4Z" fill="#F4F8FE"/>
<path d="M801.918 1064.79L795.216 1068.63L801.918 1072.5V1064.79Z" fill="#F4F8FE"/>
<path d="M786.984 1095.26L782.979 1092.95V1097.56L786.984 1095.26Z" fill="#F4F8FE"/>
<path d="M2.17383 429.844L0.0807228 428.636V431.032L2.17383 429.844Z" fill="#F4F8FE"/>
<path d="M16.9868 401.741L14.4308 403.23L16.9868 404.7V401.741Z" fill="#F4F8FE"/>
<path d="M49.0889 349.983L45.7681 348.07V351.916L49.0889 349.983Z" fill="#F4F8FE"/>
<path d="M48.626 296.756L45.9894 295.246V298.266L48.626 296.756Z" fill="#F4F8FE"/>
<path d="M109.428 294.843L106.107 296.756L109.428 298.668V294.843Z" fill="#F4F8FE"/>
<path d="M141.409 296.756L137.866 294.723V298.789L141.409 296.756Z" fill="#F4F8FE"/>
<path d="M201.688 294.723L198.145 296.756L201.688 298.789V294.723Z" fill="#F4F8FE"/>
<path d="M233.668 296.756L230.005 294.642V298.87L233.668 296.756Z" fill="#F4F8FE"/>
<path d="M293.927 294.602L290.203 296.756L293.927 298.91V294.602Z" fill="#F4F8FE"/>
<path d="M325.888 296.756L322.184 294.622V298.89L325.888 296.756Z" fill="#F4F8FE"/>
<path d="M386.106 294.622L382.383 296.756L386.106 298.89V294.622Z" fill="#F4F8FE"/>
<path d="M417.906 296.756L414.444 294.743V298.769L417.906 296.756Z" fill="#F4F8FE"/>
<path d="M478.205 294.743L474.723 296.756L478.205 298.769V294.743Z" fill="#F4F8FE"/>
<path d="M509.924 296.756L506.704 294.884V298.628L509.924 296.756Z" fill="#F4F8FE"/>
<path d="M570.303 294.884L567.062 296.756L570.303 298.628V294.884Z" fill="#F4F8FE"/>
<path d="M602.324 296.756L598.762 294.702V298.809L602.324 296.756Z" fill="#F4F8FE"/>
<path d="M663.025 293.958L658.175 296.756L663.025 299.554V293.958Z" fill="#F4F8FE"/>
<path d="M696.938 349.983L689.733 345.816V354.15L696.938 349.983Z" fill="#F4F8FE"/>
<path d="M710.383 371.624L701.728 376.617L710.383 381.589V371.624Z" fill="#F4F8FE"/>
<path d="M745.564 429.844L734.555 423.482V436.185L745.564 429.844Z" fill="#F4F8FE"/>
<path d="M757.7 449.331L745.363 456.458L757.7 463.584V449.331Z" fill="#F4F8FE"/>
<path d="M794.471 509.685L779.235 500.887V518.502L794.471 509.685Z" fill="#F4F8FE"/>
<path d="M805.38 526.434L788.272 536.298L805.38 546.183V526.434Z" fill="#F4F8FE"/>
<path d="M843.942 589.546L823.634 577.809V601.262L843.942 589.546Z" fill="#F4F8FE"/>
<path d="M853.2 603.255L830.88 616.159L853.2 629.043V603.255Z" fill="#F4F8FE"/>
<path d="M894.741 669.387L867.369 653.583V685.19L894.741 669.387Z" fill="#F4F8FE"/>
<path d="M901.745 678.888L872.099 696L901.745 713.132V678.888Z" fill="#F4F8FE"/>
<path d="M944.071 749.247L911.849 730.626V767.849L944.071 749.247Z" fill="#F4F8FE"/>
<path d="M948.7 757.219L916.438 775.861L948.7 794.483V757.219Z" fill="#F4F8FE"/>
<path d="M988.651 829.088L958.683 811.775V846.401L988.651 829.088Z" fill="#F4F8FE"/>
<path d="M946.849 866.895L920.141 882.315L946.849 897.756V866.895Z" fill="#F4F8FE"/>
<path d="M938.778 908.949L914.485 894.918V922.961L938.778 908.949Z" fill="#F4F8FE"/>
<path d="M898.062 951.406L879.425 962.177L898.062 972.947V951.406Z" fill="#F4F8FE"/>
<path d="M887.194 988.79L871.133 979.51V998.071L887.194 988.79Z" fill="#F4F8FE"/>
<path d="M849.115 1036.22L839.072 1042.02L849.115 1047.84V1036.22Z" fill="#F4F8FE"/>
<path d="M834.825 1068.63L828.203 1064.81V1072.48L834.825 1068.63Z" fill="#F4F8FE"/>
<path d="M800.248 1120.87L798.537 1121.88L800.248 1122.86V1120.87Z" fill="#F4F8FE"/>
<path d="M2.31494 376.617L0.000351906 375.268V377.925L2.31494 376.617Z" fill="#F4F8FE"/>
<path d="M17.0068 348.473L14.3904 349.983L17.0068 351.513V348.473Z" fill="#F4F8FE"/>
<path d="M62.9561 268.894L60.7824 270.142L62.9561 271.39V268.894Z" fill="#F4F8FE"/>
<path d="M94.5542 270.142L92.1591 268.753V271.531L94.5542 270.142Z" fill="#F4F8FE"/>
<path d="M155.215 268.753L152.8 270.142L155.215 271.531V268.753Z" fill="#F4F8FE"/>
<path d="M186.713 270.142L184.338 268.773V271.511L186.713 270.142Z" fill="#F4F8FE"/>
<path d="M247.314 268.894L245.16 270.142L247.314 271.37V268.894Z" fill="#F4F8FE"/>
<path d="M278.751 270.142L276.598 268.894V271.37L278.751 270.142Z" fill="#F4F8FE"/>
<path d="M339.473 268.914L337.36 270.142L339.473 271.37V268.914Z" fill="#F4F8FE"/>
<path d="M370.911 270.142L368.797 268.914V271.37L370.911 270.142Z" fill="#F4F8FE"/>
<path d="M431.732 268.793L429.398 270.142L431.732 271.471V268.793Z" fill="#F4F8FE"/>
<path d="M463.25 270.142L460.896 268.793V271.491L463.25 270.142Z" fill="#F4F8FE"/>
<path d="M523.912 268.793L521.577 270.142L523.912 271.491V268.793Z" fill="#F4F8FE"/>
<path d="M555.47 270.142L553.055 268.753V271.531L555.47 270.142Z" fill="#F4F8FE"/>
<path d="M616.433 268.21L613.092 270.142L616.433 272.055V268.21Z" fill="#F4F8FE"/>
<path d="M648.736 270.142L644.69 267.807V272.477L648.736 270.142Z" fill="#F4F8FE"/>
<path d="M695.812 296.756L690.297 293.575V299.937L695.812 296.756Z" fill="#F4F8FE"/>
<path d="M709.659 319.625L703.158 323.369L709.659 327.114V319.625Z" fill="#F4F8FE"/>
<path d="M744.095 376.617L735.279 371.524V381.69L744.095 376.617Z" fill="#F4F8FE"/>
<path d="M756.855 397.553L747.053 403.23L756.855 408.887V397.553Z" fill="#F4F8FE"/>
<path d="M792.016 456.458L780.464 449.774V463.121L792.016 456.458Z" fill="#F4F8FE"/>
<path d="M803.83 475.864L791.372 483.071L803.83 490.278V475.864Z" fill="#F4F8FE"/>
<path d="M840.702 536.298L825.245 527.38V545.237L840.702 536.298Z" fill="#F4F8FE"/>
<path d="M851.449 553.068L834.402 562.932L851.449 572.776V553.068Z" fill="#F4F8FE"/>
<path d="M890.172 616.159L869.664 604.322V627.997L890.172 616.159Z" fill="#F4F8FE"/>
<path d="M899.592 629.386L876.386 642.773L899.592 656.16V629.386Z" fill="#F4F8FE"/>
<path d="M941.415 696L913.177 679.694V712.327L941.415 696Z" fill="#F4F8FE"/>
<path d="M947.976 705.24L917.866 722.634L947.976 740.007V705.24Z" fill="#F4F8FE"/>
<path d="M989.355 775.861L958.341 757.924V793.778L989.355 775.861Z" fill="#F4F8FE"/>
<path d="M994.125 785.001L963.855 802.475L994.125 819.949V785.001Z" fill="#F4F8FE"/>
<path d="M992.918 840.302L966.271 855.702L992.918 871.102V840.302Z" fill="#F4F8FE"/>
<path d="M984.968 882.315L960.535 868.203V896.428L984.968 882.315Z" fill="#F4F8FE"/>
<path d="M944.474 924.269L924.911 935.563L944.474 946.836V924.269Z" fill="#F4F8FE"/>
<path d="M933.666 962.176L917.042 952.574V971.779L933.666 962.176Z" fill="#F4F8FE"/>
<path d="M895.808 1008.56L883.934 1015.4L895.808 1022.27V1008.56Z" fill="#F4F8FE"/>
<path d="M882.605 1042.02L873.427 1036.72V1047.33L882.605 1042.02Z" fill="#F4F8FE"/>
<path d="M847.021 1093.09L843.258 1095.26L847.021 1097.42V1093.09Z" fill="#F4F8FE"/>
<path d="M831.443 1121.88L829.873 1120.97V1122.78L831.443 1121.88Z" fill="#F4F8FE"/>
<path d="M2.23438 323.369L0.0606854 322.121V324.638L2.23438 323.369Z" fill="#F4F8FE"/>
<path d="M16.8262 295.548L14.7531 296.756L16.8262 297.964V295.548Z" fill="#F4F8FE"/>
<path d="M16.4839 242.905L15.4374 243.529L16.4839 244.133V242.905Z" fill="#F4F8FE"/>
<path d="M47.7202 243.529L46.4522 242.784V244.253L47.7202 243.529Z" fill="#F4F8FE"/>
<path d="M108.864 242.582L107.234 243.529L108.864 244.455V242.582Z" fill="#F4F8FE"/>
<path d="M140.04 243.529L138.551 242.663V244.394L140.04 243.529Z" fill="#F4F8FE"/>
<path d="M200.862 242.905L199.796 243.529L200.862 244.133V242.905Z" fill="#F4F8FE"/>
<path d="M231.917 243.529L230.891 242.925V244.112L231.917 243.529Z" fill="#F4F8FE"/>
<path d="M293.021 242.945L292.015 243.529L293.021 244.112V242.945Z" fill="#F4F8FE"/>
<path d="M324.076 243.529L323.07 242.945V244.112L324.076 243.529Z" fill="#F4F8FE"/>
<path d="M385.281 242.824L384.053 243.529L385.281 244.233V242.824Z" fill="#F4F8FE"/>
<path d="M416.557 243.529L415.108 242.683V244.354L416.557 243.529Z" fill="#F4F8FE"/>
<path d="M477.621 242.522L475.89 243.529L477.621 244.535V242.522Z" fill="#F4F8FE"/>
<path d="M509.038 243.529L507.146 242.421V244.616L509.038 243.529Z" fill="#F4F8FE"/>
<path d="M570.001 242.16L567.666 243.529L570.001 244.877V242.16Z" fill="#F4F8FE"/>
<path d="M601.861 243.529L599.003 241.858V245.179L601.861 243.529Z" fill="#F4F8FE"/>
<path d="M662.764 241.153L658.658 243.529L662.764 245.884V241.153Z" fill="#F4F8FE"/>
<path d="M695.329 243.529L690.539 240.75V246.307L695.329 243.529Z" fill="#F4F8FE"/>
<path d="M709.316 267.002L703.862 270.142L709.316 273.283V267.002Z" fill="#F4F8FE"/>
<path d="M743.028 323.369L735.823 319.222V327.516L743.028 323.369Z" fill="#F4F8FE"/>
<path d="M756.271 345.313L748.201 349.983L756.271 354.653V345.313Z" fill="#F4F8FE"/>
<path d="M790.748 403.23L781.107 397.654V408.787L790.748 403.23Z" fill="#F4F8FE"/>
<path d="M802.965 424.147L793.123 429.844L802.965 435.521V424.147Z" fill="#F4F8FE"/>
<path d="M837.703 483.071L826.754 476.75V489.392L837.703 483.071Z" fill="#F4F8FE"/>
<path d="M849.799 502.699L837.703 509.685L849.799 516.69V502.699Z" fill="#F4F8FE"/>
<path d="M886.61 562.932L871.435 554.155V571.689L886.61 562.932Z" fill="#F4F8FE"/>
<path d="M897.398 579.943L880.773 589.546L897.398 599.128V579.943Z" fill="#F4F8FE"/>
<path d="M937.047 642.773L915.351 630.231V655.315L937.047 642.773Z" fill="#F4F8FE"/>
<path d="M946.104 655.234L921.61 669.387L946.104 683.539V655.234Z" fill="#F4F8FE"/>
<path d="M988.067 722.634L958.985 705.824V739.423L988.067 722.634Z" fill="#F4F8FE"/>
<path d="M994.085 731.854L963.956 749.247L994.085 766.621V731.854Z" fill="#F4F8FE"/>
<path d="M1034.38 802.475L1004.95 785.484V819.466L1034.38 802.475Z" fill="#F4F8FE"/>
<path d="M1039.39 813.044L1011.6 829.088L1039.39 845.133V813.044Z" fill="#F4F8FE"/>
<path d="M1031.68 855.702L1006.3 841.046V870.357L1031.68 855.702Z" fill="#F4F8FE"/>
<path d="M990.583 897.595L970.94 908.949L990.583 920.283V897.595Z" fill="#F4F8FE"/>
<path d="M980.057 935.563L962.99 925.698V945.407L980.057 935.563Z" fill="#F4F8FE"/>
<path d="M942.059 981.643L929.701 988.79L942.059 995.937V981.643Z" fill="#F4F8FE"/>
<path d="M929.359 1015.4L919.195 1009.55V1021.28L929.359 1015.4Z" fill="#F4F8FE"/>
<path d="M893.614 1065.61L888.341 1068.63L893.614 1071.69V1065.61Z" fill="#F4F8FE"/>
<path d="M878.7 1095.26L875.379 1093.33V1097.18L878.7 1095.26Z" fill="#F4F8FE"/>
<path d="M1.71094 270.142L0.302062 269.337V270.947L1.71094 270.142Z" fill="#F4F8FE"/>
<path d="M0.90625 216.895L0.705035 216.794V217.016L0.90625 216.895Z" fill="#F4F8FE"/>
<path d="M62.4932 216.432L61.6881 216.895L62.4932 217.378V216.432Z" fill="#F4F8FE"/>
<path d="M93.5278 216.895L92.6826 216.432V217.378L93.5278 216.895Z" fill="#F4F8FE"/>
<path d="M154.611 216.553L154.007 216.895L154.611 217.257V216.553Z" fill="#F4F8FE"/>
<path d="M185.405 216.895L185.003 216.694V217.136L185.405 216.895Z" fill="#F4F8FE"/>
<path d="M246.65 216.794L246.469 216.895L246.65 217.016V216.794Z" fill="#F4F8FE"/>
<path d="M277.443 216.895L277.262 216.794V217.016L277.443 216.895Z" fill="#F4F8FE"/>
<path d="M338.93 216.653L338.467 216.895L338.93 217.157V216.653Z" fill="#F4F8FE"/>
<path d="M369.924 216.895L369.28 216.532V217.277L369.924 216.895Z" fill="#F4F8FE"/>
<path d="M431.31 216.271L430.223 216.895L431.31 217.539V216.271Z" fill="#F4F8FE"/>
<path d="M462.646 216.895L461.197 216.069V217.74L462.646 216.895Z" fill="#F4F8FE"/>
<path d="M523.771 215.808L521.879 216.895L523.771 218.002V215.808Z" fill="#F4F8FE"/>
<path d="M555.329 216.895L553.135 215.647V218.163L555.329 216.895Z" fill="#F4F8FE"/>
<path d="M616.353 215.123L613.253 216.895L616.353 218.707V215.123Z" fill="#F4F8FE"/>
<path d="M648.575 216.895L644.771 214.701V219.109L648.575 216.895Z" fill="#F4F8FE"/>
<path d="M709.155 214.036L704.204 216.895L709.155 219.774V214.036Z" fill="#F4F8FE"/>
<path d="M742.223 270.142L736.225 266.68V273.605L742.223 270.142Z" fill="#F4F8FE"/>
<path d="M755.829 292.87L749.106 296.756L755.829 300.641V292.87Z" fill="#F4F8FE"/>
<path d="M789.862 349.983L781.53 345.172V354.794L789.862 349.983Z" fill="#F4F8FE"/>
<path d="M802.603 371.524L793.807 376.617L802.603 381.69V371.524Z" fill="#F4F8FE"/>
<path d="M836.173 429.844L827.519 424.851V434.837L836.173 429.844Z" fill="#F4F8FE"/>
<path d="M848.712 451.364L839.876 456.458L848.712 461.551V451.364Z" fill="#F4F8FE"/>
<path d="M883.33 509.685L873.085 503.766V515.603L883.33 509.685Z" fill="#F4F8FE"/>
<path d="M895.728 529.595L884.115 536.298L895.728 543.002V529.595Z" fill="#F4F8FE"/>
<path d="M932.418 589.546L917.665 581.03V598.061L932.418 589.546Z" fill="#F4F8FE"/>
<path d="M943.628 606.295L926.561 616.159L943.628 626.004V606.295Z" fill="#F4F8FE"/>
<path d="M984.264 669.387L960.877 655.878V682.915L984.264 669.387Z" fill="#F4F8FE"/>
<path d="M992.737 680.942L966.633 696L992.737 711.078V680.942Z" fill="#F4F8FE"/>
<path d="M1034.4 749.247L1004.95 732.237V766.238L1034.4 749.247Z" fill="#F4F8FE"/>
<path d="M1039.97 758.81L1010.45 775.861L1039.97 792.912V758.81Z" fill="#F4F8FE"/>
<path d="M1079.16 829.088L1051.71 813.225V844.952L1079.16 829.088Z" fill="#F4F8FE"/>
<path d="M1037.24 869.995L1015.9 882.315L1037.24 894.656V869.995Z" fill="#F4F8FE"/>
<path d="M1026.71 908.949L1008.8 898.602V919.297L1026.71 908.949Z" fill="#F4F8FE"/>
<path d="M988.108 955.131L975.911 962.177L988.108 969.223V955.131Z" fill="#F4F8FE"/>
<path d="M975.448 988.79L965.284 982.932V994.648L975.448 988.79Z" fill="#F4F8FE"/>
<path d="M940.026 1038.43L933.807 1042.02L940.026 1045.62V1038.43Z" fill="#F4F8FE"/>
<path d="M925.313 1068.63L921.228 1066.28V1071.01L925.313 1068.63Z" fill="#F4F8FE"/>
<path d="M892.205 1121.25L891.158 1121.88L892.205 1122.48V1121.25Z" fill="#F4F8FE"/>
<path d="M46.875 190.281H46.8549V190.301L46.875 190.281Z" fill="#F4F8FE"/>
<path d="M108.381 190.181L108.2 190.281L108.381 190.402V190.181Z" fill="#F4F8FE"/>
<path d="M384.999 190.04L384.576 190.281L384.999 190.543V190.04Z" fill="#F4F8FE"/>
<path d="M416.114 190.281L415.329 189.838V190.744L416.114 190.281Z" fill="#F4F8FE"/>
<path d="M477.52 189.456L476.071 190.281L477.52 191.127V189.456Z" fill="#F4F8FE"/>
<path d="M508.938 190.281L507.187 189.295V191.288L508.938 190.281Z" fill="#F4F8FE"/>
<path d="M570.021 188.912L567.626 190.281L570.021 191.67V188.912Z" fill="#F4F8FE"/>
<path d="M601.861 190.281L599.003 188.63V191.952L601.861 190.281Z" fill="#F4F8FE"/>
<path d="M662.704 188.047L658.819 190.281L662.704 192.536V188.047Z" fill="#F4F8FE"/>
<path d="M695.026 190.281L690.679 187.785V192.798L695.026 190.281Z" fill="#F4F8FE"/>
<path d="M741.901 216.895L736.386 213.714V220.096L741.901 216.895Z" fill="#F4F8FE"/>
<path d="M755.587 240.066L749.589 243.529L755.587 246.991V240.066Z" fill="#F4F8FE"/>
<path d="M789.098 296.756L781.913 292.609V300.903L789.098 296.756Z" fill="#F4F8FE"/>
<path d="M802.26 318.88L794.491 323.369L802.26 327.859V318.88Z" fill="#F4F8FE"/>
<path d="M835.65 376.617L827.78 372.067V381.146L835.65 376.617Z" fill="#F4F8FE"/>
<path d="M848.29 398.842L840.702 403.23L848.29 407.599V398.842Z" fill="#F4F8FE"/>
<path d="M881.276 456.458L874.111 452.31V460.584L881.276 456.458Z" fill="#F4F8FE"/>
<path d="M894.318 478.823L886.952 483.071L894.318 487.319V478.823Z" fill="#F4F8FE"/>
<path d="M928.976 536.298L919.376 530.762V541.855L928.976 536.298Z" fill="#F4F8FE"/>
<path d="M941.696 556.43L930.446 562.932L941.696 569.414V556.43Z" fill="#F4F8FE"/>
<path d="M979.031 616.159L963.493 607.181V625.118L979.031 616.159Z" fill="#F4F8FE"/>
<path d="M990.382 631.801L971.362 642.773L990.382 653.744V631.801Z" fill="#F4F8FE"/>
<path d="M1031.7 696L1006.3 681.345V710.676L1031.7 696Z" fill="#F4F8FE"/>
<path d="M1039.33 706.69L1011.72 722.634L1039.33 738.558V706.69Z" fill="#F4F8FE"/>
<path d="M1080.43 775.861L1051.06 758.89V792.812L1080.43 775.861Z" fill="#F4F8FE"/>
<path d="M1085.92 785.665L1056.82 802.475L1085.92 819.284V785.665Z" fill="#F4F8FE"/>
<path d="M1074.53 882.315L1054.02 870.478V894.173L1074.53 882.315Z" fill="#F4F8FE"/>
<path d="M1034.68 927.651L1021.01 935.563L1034.68 943.454V927.651Z" fill="#F4F8FE"/>
<path d="M1021.86 962.176L1011.21 956.036V968.316L1021.86 962.176Z" fill="#F4F8FE"/>
<path d="M986.196 1011.68L979.735 1015.4L986.196 1019.13V1011.68Z" fill="#F4F8FE"/>
<path d="M971.705 1042.02L967.156 1039.4V1044.65L971.705 1042.02Z" fill="#F4F8FE"/>
<path d="M938.456 1094.4L936.947 1095.26L938.456 1096.13V1094.4Z" fill="#F4F8FE"/>
<path d="M922.858 1121.88L922.455 1121.64V1122.12L922.858 1121.88Z" fill="#F4F8FE"/>
<path d="M369.602 163.668L369.441 163.587V163.768L369.602 163.668Z" fill="#F4F8FE"/>
<path d="M431.209 163.225L430.424 163.668L431.209 164.131V163.225Z" fill="#F4F8FE"/>
<path d="M462.405 163.668L461.318 163.064V164.292L462.405 163.668Z" fill="#F4F8FE"/>
<path d="M523.71 162.681L521.98 163.668L523.71 164.674V162.681Z" fill="#F4F8FE"/>
<path d="M555.208 163.668L553.195 162.5V164.835L555.208 163.668Z" fill="#F4F8FE"/>
<path d="M616.272 162.017L613.394 163.668L616.272 165.339V162.017Z" fill="#F4F8FE"/>
<path d="M648.313 163.668L644.912 161.695V165.641L648.313 163.668Z" fill="#F4F8FE"/>
<path d="M708.914 161.212L704.647 163.668L708.914 166.144V161.212Z" fill="#F4F8FE"/>
<path d="M741.277 163.668L736.689 161.03V166.305L741.277 163.668Z" fill="#F4F8FE"/>
<path d="M755.346 187.241L750.073 190.281L755.346 193.341V187.241Z" fill="#F4F8FE"/>
<path d="M788.635 243.529L782.154 239.784V247.253L788.635 243.529Z" fill="#F4F8FE"/>
<path d="M801.999 266.116L795.035 270.142L801.999 274.148V266.116Z" fill="#F4F8FE"/>
<path d="M835.268 323.369L827.982 319.162V327.577L835.268 323.369Z" fill="#F4F8FE"/>
<path d="M848.128 345.896L841.044 349.983L848.128 354.07V345.896Z" fill="#F4F8FE"/>
<path d="M880.552 403.23L874.474 399.707V406.733L880.552 403.23Z" fill="#F4F8FE"/>
<path d="M893.715 426.623L888.16 429.844L893.715 433.045V426.623Z" fill="#F4F8FE"/>
<path d="M926.34 483.071L920.704 479.81V486.332L926.34 483.071Z" fill="#F4F8FE"/>
<path d="M940.086 506.001L933.686 509.685L940.086 513.389V506.001Z" fill="#F4F8FE"/>
<path d="M974.985 562.932L965.526 557.456V568.388L974.985 562.932Z" fill="#F4F8FE"/>
<path d="M987.886 582.882L976.354 589.546L987.886 596.189V582.882Z" fill="#F4F8FE"/>
<path d="M1026.83 642.773L1008.74 632.325V653.221L1026.83 642.773Z" fill="#F4F8FE"/>
<path d="M1037.4 656.784L1015.58 669.387L1037.4 681.989V656.784Z" fill="#F4F8FE"/>
<path d="M1079.1 722.634L1051.73 706.811V738.437L1079.1 722.634Z" fill="#F4F8FE"/>
<path d="M1085.92 732.418L1056.8 749.247L1085.92 766.057V732.418Z" fill="#F4F8FE"/>
<path d="M1069.34 935.563L1056.62 928.215V942.891L1069.34 935.563Z" fill="#F4F8FE"/>
<path d="M1032.53 984.643L1025.34 988.79L1032.53 992.937V984.643Z" fill="#F4F8FE"/>
<path d="M1018.12 1015.4L1013.08 1012.5V1018.32L1018.12 1015.4Z" fill="#F4F8FE"/>
<path d="M984.565 1067.72L982.996 1068.63L984.565 1069.54V1067.72Z" fill="#F4F8FE"/>
<path d="M969.088 1095.26L968.464 1094.9V1095.61L969.088 1095.26Z" fill="#F4F8FE"/>
<path d="M384.938 136.933L384.717 137.054L384.938 137.175V136.933Z" fill="#F4F8FE"/>
<path d="M415.873 137.054L415.45 136.812V137.296L415.873 137.054Z" fill="#F4F8FE"/>
<path d="M477.399 136.43L476.333 137.054L477.399 137.678V136.43Z" fill="#F4F8FE"/>
<path d="M508.776 137.054L507.267 136.188V137.92L508.776 137.054Z" fill="#F4F8FE"/>
<path d="M569.961 135.786L567.767 137.054L569.961 138.322V135.786Z" fill="#F4F8FE"/>
<path d="M601.7 137.054L599.084 135.544V138.564L601.7 137.054Z" fill="#F4F8FE"/>
<path d="M662.522 135.121L659.181 137.054L662.522 138.987V135.121Z" fill="#F4F8FE"/>
<path d="M694.644 137.054L690.88 134.88V139.228L694.644 137.054Z" fill="#F4F8FE"/>
<path d="M755.084 134.477L750.596 137.054L755.084 139.631V134.477Z" fill="#F4F8FE"/>
<path d="M788.131 190.281L782.395 186.98V193.603L788.131 190.281Z" fill="#F4F8FE"/>
<path d="M801.757 213.311L795.518 216.895L801.757 220.498V213.311Z" fill="#F4F8FE"/>
<path d="M834.885 270.142L828.163 266.257V274.007L834.885 270.142Z" fill="#F4F8FE"/>
<path d="M847.967 292.971L841.386 296.756L847.967 300.54V292.971Z" fill="#F4F8FE"/>
<path d="M880.411 349.983L874.534 346.601V353.385L880.411 349.983Z" fill="#F4F8FE"/>
<path d="M893.614 373.537L888.321 376.617L893.614 379.657V373.537Z" fill="#F4F8FE"/>
<path d="M925.233 429.844L921.268 427.549V432.119L925.233 429.844Z" fill="#F4F8FE"/>
<path d="M939.201 454.283L935.437 456.458L939.201 458.632V454.283Z" fill="#F4F8FE"/>
<path d="M971.805 509.685L967.116 506.987V512.403L971.805 509.685Z" fill="#F4F8FE"/>
<path d="M986.055 532.816L980.017 536.298L986.055 539.801V532.816Z" fill="#F4F8FE"/>
<path d="M1021.54 589.546L1011.37 583.688V595.404L1021.54 589.546Z" fill="#F4F8FE"/>
<path d="M1034.52 608.55L1021.36 616.159L1034.52 623.769V608.55Z" fill="#F4F8FE"/>
<path d="M1075.07 669.387L1053.74 657.086V681.707L1075.07 669.387Z" fill="#F4F8FE"/>
<path d="M1084.47 681.707L1059.7 696L1084.47 710.313V681.707Z" fill="#F4F8FE"/>
<path d="M1064.99 988.79L1058.79 985.207V992.373L1064.99 988.79Z" fill="#F4F8FE"/>
<path d="M1030.94 1040.65L1028.52 1042.02L1030.94 1043.41V1040.65Z" fill="#F4F8FE"/>
<path d="M1015.32 1068.63L1014.49 1068.15V1069.13L1015.32 1068.63Z" fill="#F4F8FE"/>
<path d="M369.521 110.44L369.501 110.42V110.44H369.521Z" fill="#F4F8FE"/>
<path d="M431.169 110.078L430.525 110.44L431.169 110.803V110.078Z" fill="#F4F8FE"/>
<path d="M462.244 110.44L461.399 109.937V110.924L462.244 110.44Z" fill="#F4F8FE"/>
<path d="M523.63 109.555L522.12 110.44L523.63 111.306V109.555Z" fill="#F4F8FE"/>
<path d="M555.168 110.44L553.216 109.313V111.568L555.168 110.44Z" fill="#F4F8FE"/>
<path d="M616.191 108.91L613.555 110.44L616.191 111.97V108.91Z" fill="#F4F8FE"/>
<path d="M648.092 110.44L645.012 108.649V112.212L648.092 110.44Z" fill="#F4F8FE"/>
<path d="M708.753 108.266L704.989 110.44L708.753 112.615V108.266Z" fill="#F4F8FE"/>
<path d="M740.915 110.44L736.87 108.105V112.756L740.915 110.44Z" fill="#F4F8FE"/>
<path d="M787.447 137.054L782.738 134.336V139.772L787.447 137.054Z" fill="#F4F8FE"/>
<path d="M801.435 160.628L796.162 163.668L801.435 166.707V160.628Z" fill="#F4F8FE"/>
<path d="M834.543 216.895L828.344 213.311V220.478L834.543 216.895Z" fill="#F4F8FE"/>
<path d="M847.847 239.925L841.608 243.529L847.847 247.132V239.925Z" fill="#F4F8FE"/>
<path d="M880.391 296.756L874.534 293.374V300.138L880.391 296.756Z" fill="#F4F8FE"/>
<path d="M893.654 320.249L888.26 323.369L893.654 326.49V320.249Z" fill="#F4F8FE"/>
<path d="M925.273 376.617L921.228 374.261V378.932L925.273 376.617Z" fill="#F4F8FE"/>
<path d="M939.02 401.358L935.779 403.23L939.02 405.103V401.358Z" fill="#F4F8FE"/>
<path d="M970.135 456.458L967.961 455.209V457.706L970.135 456.458Z" fill="#F4F8FE"/>
<path d="M984.867 481.622L982.372 483.071L984.867 484.521V481.622Z" fill="#F4F8FE"/>
<path d="M1017.92 536.298L1013.19 533.581V539.036L1017.92 536.298Z" fill="#F4F8FE"/>
<path d="M1032.39 559.006L1025.6 562.932L1032.39 566.838V559.006Z" fill="#F4F8FE"/>
<path d="M1069.14 616.159L1056.72 608.972V623.326L1069.14 616.159Z" fill="#F4F8FE"/>
<path d="M384.938 83.706L384.717 83.8268L384.938 83.9476V83.706Z" fill="#F4F8FE"/>
<path d="M415.873 83.8268L415.45 83.5852V84.0684L415.873 83.8268Z" fill="#F4F8FE"/>
<path d="M477.399 83.2028L476.333 83.8268L477.399 84.4308V83.2028Z" fill="#F4F8FE"/>
<path d="M508.636 83.8268L507.348 83.082V84.5717L508.636 83.8268Z" fill="#F4F8FE"/>
<path d="M569.88 82.6995L567.908 83.8268L569.88 84.9542V82.6995Z" fill="#F4F8FE"/>
<path d="M601.56 83.8268L599.144 82.4176V85.2159L601.56 83.8268Z" fill="#F4F8FE"/>
<path d="M662.442 82.0351L659.342 83.8268L662.442 85.6185V82.0351Z" fill="#F4F8FE"/>
<path d="M694.362 83.8268L691.021 81.8942V85.7594L694.362 83.8268Z" fill="#F4F8FE"/>
<path d="M754.883 81.5922L750.998 83.8268L754.883 86.0614V81.5922Z" fill="#F4F8FE"/>
<path d="M787.045 83.8268L782.939 81.4513V86.1822L787.045 83.8268Z" fill="#F4F8FE"/>
<path d="M801.173 107.843L796.665 110.44L801.173 113.037V107.843Z" fill="#F4F8FE"/>
<path d="M833.919 163.668L828.646 160.628V166.728L833.919 163.668Z" fill="#F4F8FE"/>
<path d="M847.686 186.96L841.929 190.281L847.686 193.603V186.96Z" fill="#F4F8FE"/>
<path d="M880.331 243.529L874.574 240.207V246.85L880.331 243.529Z" fill="#F4F8FE"/>
<path d="M893.695 266.961L888.18 270.142L893.695 273.323V266.961Z" fill="#F4F8FE"/>
<path d="M925.515 323.369L921.127 320.833V325.906L925.515 323.369Z" fill="#F4F8FE"/>
<path d="M939.18 347.849L935.477 349.983L939.18 352.137V347.849Z" fill="#F4F8FE"/>
<path d="M970.014 403.23L968.002 402.043V404.398L970.014 403.23Z" fill="#F4F8FE"/>
<path d="M984.465 429.099L983.197 429.844L984.465 430.569V429.099Z" fill="#F4F8FE"/>
<path d="M1015.64 483.071L1014.31 482.306V483.836L1015.64 483.071Z" fill="#F4F8FE"/>
<path d="M1030.82 508.477L1028.74 509.685L1030.82 510.893V508.477Z" fill="#F4F8FE"/>
<path d="M1064.73 562.932L1058.91 559.55V566.294L1064.73 562.932Z" fill="#F4F8FE"/>
<path d="M338.789 57.1931L338.748 57.2132H338.789V57.1931Z" fill="#F4F8FE"/>
<path d="M369.643 57.2132L369.421 57.0723V57.334L369.643 57.2132Z" fill="#F4F8FE"/>
<path d="M431.169 56.8307L430.505 57.2132L431.169 57.5957V56.8307Z" fill="#F4F8FE"/>
<path d="M462.405 57.2132L461.318 56.5891V57.8171L462.405 57.2132Z" fill="#F4F8FE"/>
<path d="M523.63 56.3275L522.12 57.2132L523.63 58.0789V56.3275Z" fill="#F4F8FE"/>
<path d="M555.168 57.2132L553.216 56.0657V58.3406L555.168 57.2132Z" fill="#F4F8FE"/>
<path d="M616.151 55.7638L613.655 57.2132L616.151 58.6425V55.7638Z" fill="#F4F8FE"/>
<path d="M647.951 57.2132L645.093 55.5423V58.864L647.951 57.2132Z" fill="#F4F8FE"/>
<path d="M708.632 55.2404L705.23 57.2132L708.632 59.166V55.2404Z" fill="#F4F8FE"/>
<path d="M740.653 57.2132L737.01 55.0994V59.3069L740.653 57.2132Z" fill="#F4F8FE"/>
<path d="M801.053 54.8377L796.947 57.2132L801.053 59.5686V54.8377Z" fill="#F4F8FE"/>
<path d="M833.456 110.44L828.867 107.803V113.078L833.456 110.44Z" fill="#F4F8FE"/>
<path d="M847.424 134.195L842.473 137.054L847.424 139.913V134.195Z" fill="#F4F8FE"/>
<path d="M880.17 190.281L874.655 187.1V193.482L880.17 190.281Z" fill="#F4F8FE"/>
<path d="M893.695 213.714L888.18 216.895L893.695 220.096V213.714Z" fill="#F4F8FE"/>
<path d="M925.816 270.142L920.966 267.344V272.92L925.816 270.142Z" fill="#F4F8FE"/>
<path d="M939.402 294.219L935.014 296.756L939.402 299.292V294.219Z" fill="#F4F8FE"/>
<path d="M970.558 349.983L967.74 348.372V351.614L970.558 349.983Z" fill="#F4F8FE"/>
<path d="M984.687 375.489L982.754 376.617L984.687 377.724V375.489Z" fill="#F4F8FE"/>
<path d="M1015 429.844L1014.65 429.643V430.045L1015 429.844Z" fill="#F4F8FE"/>
<path d="M1030.21 456.317L1029.97 456.458L1030.21 456.598V456.317Z" fill="#F4F8FE"/>
<path d="M323.432 30.5996L323.412 30.5795V30.5996H323.432Z" fill="#F4F8FE"/>
<path d="M384.999 30.3379L384.576 30.5996L384.999 30.8412V30.3379Z" fill="#F4F8FE"/>
<path d="M416.014 30.5996L415.37 30.2171V30.962L416.014 30.5996Z" fill="#F4F8FE"/>
<path d="M477.399 29.9755L476.333 30.5996L477.399 31.2036V29.9755Z" fill="#F4F8FE"/>
<path d="M508.776 30.5996L507.267 29.7138V31.4653L508.776 30.5996Z" fill="#F4F8FE"/>
<path d="M569.941 29.3313L567.787 30.5996L569.941 31.8477V29.3313Z" fill="#F4F8FE"/>
<path d="M601.56 30.5996L599.144 29.1904V31.9887L601.56 30.5996Z" fill="#F4F8FE"/>
<path d="M662.361 28.9287L659.483 30.5996L662.361 32.2504V28.9287Z" fill="#F4F8FE"/>
<path d="M694.242 30.5996L691.082 28.7475V32.4114L694.242 30.5996Z" fill="#F4F8FE"/>
<path d="M754.842 28.3852L751.059 30.5996L754.842 32.7939V28.3852Z" fill="#F4F8FE"/>
<path d="M787.004 30.5996L782.959 28.2644V32.9147L787.004 30.5996Z" fill="#F4F8FE"/>
<path d="M833.255 57.2132L828.988 54.7371V59.6692L833.255 57.2132Z" fill="#F4F8FE"/>
<path d="M847.263 81.2299L842.755 83.8268L847.263 86.4237V81.2299Z" fill="#F4F8FE"/>
<path d="M879.808 137.054L874.836 134.175V139.933L879.808 137.054Z" fill="#F4F8FE"/>
<path d="M893.594 160.688L888.402 163.668L893.594 166.667V160.688Z" fill="#F4F8FE"/>
<path d="M926.098 216.895L920.825 213.855V219.955L926.098 216.895Z" fill="#F4F8FE"/>
<path d="M939.563 240.73L934.733 243.529L939.563 246.307V240.73Z" fill="#F4F8FE"/>
<path d="M971.141 296.756L967.438 294.622V298.89L971.141 296.756Z" fill="#F4F8FE"/>
<path d="M984.968 321.739L982.151 323.369L984.968 325V321.739Z" fill="#F4F8FE"/>
<path d="M1015.48 376.617L1014.41 375.993V377.221L1015.48 376.617Z" fill="#F4F8FE"/>
<path d="M1030.25 403.009L1029.87 403.23L1030.25 403.452V403.009Z" fill="#F4F8FE"/>
<path d="M338.789 3.94574L338.748 3.96587L338.789 4.00613V3.94574Z" fill="#F4F8FE"/>
<path d="M369.663 3.96587L369.421 3.82495V4.10679L369.663 3.96587Z" fill="#F4F8FE"/>
<path d="M431.25 3.48273L430.384 3.96588L431.25 4.46916V3.48273Z" fill="#F4F8FE"/>
<path d="M462.405 3.96587L461.318 3.3418V4.58994L462.405 3.96587Z" fill="#F4F8FE"/>
<path d="M523.71 2.9593L521.98 3.96587L523.71 4.97244V2.9593Z" fill="#F4F8FE"/>
<path d="M555.168 3.96587L553.216 2.83852V5.11336L555.168 3.96587Z" fill="#F4F8FE"/>
<path d="M616.131 2.57681L613.696 3.96587L616.131 5.37507V2.57681Z" fill="#F4F8FE"/>
<path d="M647.951 3.96586L645.093 2.31509V5.63676L647.951 3.96586Z" fill="#F4F8FE"/>
<path d="M708.612 2.05339L705.271 3.96587L708.612 5.89847V2.05339Z" fill="#F4F8FE"/>
<path d="M740.593 3.96587L737.03 1.91248V6.0394L740.593 3.96587Z" fill="#F4F8FE"/>
<path d="M801.033 1.63063L796.987 3.96586L801.033 6.3011V1.63063Z" fill="#F4F8FE"/>
<path d="M833.255 3.96588L828.988 1.50986V6.44203L833.255 3.96588Z" fill="#F4F8FE"/>
<path d="M847.263 27.9825L842.755 30.5996L847.263 33.1966V27.9825Z" fill="#F4F8FE"/>
<path d="M879.646 83.8268L874.917 81.089V86.5647L879.646 83.8268Z" fill="#F4F8FE"/>
<path d="M893.453 107.662L888.643 110.44L893.453 113.219V107.662Z" fill="#F4F8FE"/>
<path d="M925.937 163.668L920.905 160.749V166.587L925.937 163.668Z" fill="#F4F8FE"/>
<path d="M939.684 187.302L934.491 190.281L939.684 193.281V187.302Z" fill="#F4F8FE"/>
<path d="M971.685 243.529L967.176 240.911V246.126L971.685 243.529Z" fill="#F4F8FE"/>
<path d="M985.331 267.908L981.466 270.142L985.331 272.357V267.908Z" fill="#F4F8FE"/>
<path d="M1016.28 323.369L1014.01 322.041V324.698L1016.28 323.369Z" fill="#F4F8FE"/>
<path d="M1030.59 349.178L1029.19 349.983L1030.59 350.808V349.178Z" fill="#F4F8FE"/>
<path d="M879.646 30.5996L874.917 27.8416V33.3173L879.646 30.5996Z" fill="#F4F8FE"/>
<path d="M893.433 54.4753L888.703 57.2132L893.433 59.9309V54.4753Z" fill="#F4F8FE"/>
<path d="M925.897 110.44L920.926 107.562V113.319L925.897 110.44Z" fill="#F4F8FE"/>
<path d="M939.623 134.135L934.591 137.054L939.623 139.973V134.135Z" fill="#F4F8FE"/>
<path d="M972.047 190.281L966.995 187.382V193.2L972.047 190.281Z" fill="#F4F8FE"/>
<path d="M985.612 214.177L980.883 216.895L985.612 219.653V214.177Z" fill="#F4F8FE"/>
<path d="M1017.07 270.142L1013.61 268.149V272.135L1017.07 270.142Z" fill="#F4F8FE"/>
<path d="M1031.04 295.186L1028.32 296.756L1031.04 298.326V295.186Z" fill="#F4F8FE"/>
<path d="M893.453 1.18774L888.643 3.96587L893.453 6.74399V1.18774Z" fill="#F4F8FE"/>
<path d="M925.897 57.2132L920.926 54.3344V60.0719L925.897 57.2132Z" fill="#F4F8FE"/>
<path d="M939.603 80.9481L934.632 83.8268L939.603 86.6855V80.9481Z" fill="#F4F8FE"/>
<path d="M972.127 137.054L966.935 134.054V140.054L972.127 137.054Z" fill="#F4F8FE"/>
<path d="M985.713 160.749L980.681 163.668L985.713 166.587V160.749Z" fill="#F4F8FE"/>
<path d="M1017.77 216.895L1013.27 214.298V219.512L1017.77 216.895Z" fill="#F4F8FE"/>
<path d="M1031.44 241.254L1027.52 243.529L1031.44 245.783V241.254Z" fill="#F4F8FE"/>
<path d="M1062.62 296.756L1059.96 295.226V298.286L1062.62 296.756Z" fill="#F4F8FE"/>
<path d="M925.937 3.96587L920.905 1.06696V6.88491L925.937 3.96587Z" fill="#F4F8FE"/>
<path d="M939.684 27.6L934.491 30.5996L939.684 33.579V27.6Z" fill="#F4F8FE"/>
<path d="M972.147 83.8268L966.935 80.8071V86.8264L972.147 83.8268Z" fill="#F4F8FE"/>
<path d="M985.773 107.441L980.56 110.44L985.773 113.44V107.441Z" fill="#F4F8FE"/>
<path d="M1018.14 163.668L1013.08 160.749V166.587L1018.14 163.668Z" fill="#F4F8FE"/>
<path d="M1031.74 187.503L1026.91 190.281L1031.74 193.079V187.503Z" fill="#F4F8FE"/>
<path d="M1063.42 243.529L1059.58 241.294V245.743L1063.42 243.529Z" fill="#F4F8FE"/>
<path d="M972.309 30.5996L966.854 27.439V33.7401L972.309 30.5996Z" fill="#F4F8FE"/>
<path d="M985.854 54.0526L980.399 57.2132L985.854 60.3537V54.0526Z" fill="#F4F8FE"/>
<path d="M1018.4 110.44L1012.94 107.3V113.581L1018.4 110.44Z" fill="#F4F8FE"/>
<path d="M1031.88 134.014L1026.61 137.054L1031.88 140.114V134.014Z" fill="#F4F8FE"/>
<path d="M1064.17 190.281L1059.19 187.423V193.16L1064.17 190.281Z" fill="#F4F8FE"/>
<path d="M985.874 0.785126L980.359 3.96587L985.874 7.16675V0.785126Z" fill="#F4F8FE"/>
<path d="M1018.56 57.2132L1012.86 53.9117V60.4946L1018.56 57.2132Z" fill="#F4F8FE"/>
<path d="M1032.02 80.5454L1026.35 83.8268L1032.02 87.1082V80.5454Z" fill="#F4F8FE"/>
<path d="M1064.49 137.054L1059.03 133.914V140.195L1064.49 137.054Z" fill="#F4F8FE"/>
<path d="M1018.56 3.96587L1012.86 0.684464V7.24727L1018.56 3.96587Z" fill="#F4F8FE"/>
<path d="M1032.1 27.1773L1026.19 30.5996L1032.1 34.0018V27.1773Z" fill="#F4F8FE"/>
<path d="M1064.81 83.8268L1058.87 80.4045V87.2491L1064.81 83.8268Z" fill="#F4F8FE"/>
<path d="M1064.97 30.5996L1058.81 27.0364V34.1427L1064.97 30.5996Z" fill="#F4F8FE"/>
</g>
</svg>
