<svg width="1301" height="264" viewBox="0 0 1301 264" fill="none" xmlns="http://www.w3.org/2000/svg">
<mask id="mask0_210_18506" style="mask-type:alpha" maskUnits="userSpaceOnUse" x="0" y="0" width="1301" height="264">
<rect width="1301" height="264" rx="10" fill="url(#paint0_linear_210_18506)"/>
<path d="M91.712 76.904C91.616 76.744 91.28 76.504 90.704 76.184C90.128 75.832 89.408 75.464 88.544 75.08C87.68 74.696 86.736 74.36 85.712 74.072C84.688 73.784 83.664 73.64 82.64 73.64C81.296 73.64 80.256 73.88 79.52 74.36C78.784 74.808 78.416 75.512 78.416 76.472C78.416 77.24 78.688 77.848 79.232 78.296C79.808 78.744 80.624 79.144 81.68 79.496C82.736 79.816 84.032 80.2 85.568 80.648C87.744 81.224 89.632 81.928 91.232 82.76C92.832 83.56 94.048 84.6 94.88 85.88C95.744 87.16 96.176 88.856 96.176 90.968C96.176 92.888 95.824 94.52 95.12 95.864C94.416 97.176 93.456 98.248 92.24 99.08C91.056 99.88 89.696 100.472 88.16 100.856C86.624 101.208 85.04 101.384 83.408 101.384C81.744 101.384 80.032 101.224 78.272 100.904C76.544 100.552 74.88 100.072 73.28 99.464C71.68 98.824 70.208 98.056 68.864 97.16L72.32 90.296C72.448 90.456 72.864 90.76 73.568 91.208C74.272 91.624 75.136 92.072 76.16 92.552C77.216 93 78.384 93.4 79.664 93.752C80.944 94.104 82.24 94.28 83.552 94.28C84.96 94.28 86 94.056 86.672 93.608C87.376 93.16 87.728 92.536 87.728 91.736C87.728 90.872 87.36 90.2 86.624 89.72C85.92 89.24 84.944 88.808 83.696 88.424C82.48 88.04 81.072 87.608 79.472 87.128C77.392 86.488 75.664 85.768 74.288 84.968C72.944 84.168 71.936 83.192 71.264 82.04C70.624 80.888 70.304 79.448 70.304 77.72C70.304 75.32 70.864 73.304 71.984 71.672C73.136 70.008 74.672 68.76 76.592 67.928C78.512 67.064 80.608 66.632 82.88 66.632C84.48 66.632 86.016 66.824 87.488 67.208C88.992 67.592 90.384 68.072 91.664 68.648C92.976 69.224 94.144 69.8 95.168 70.376L91.712 76.904ZM124.747 94.088V101H100.795V66.92H124.315V73.832H108.667V80.456H122.107V86.84H108.667V94.088H124.747ZM155.498 73.832H145.13V101H137.258V73.832H126.842V66.92H155.498V73.832ZM183.779 101.288C181.059 101.288 178.739 100.84 176.819 99.944C174.899 99.016 173.331 97.768 172.115 96.2C170.931 94.6 170.051 92.792 169.475 90.776C168.931 88.728 168.659 86.584 168.659 84.344V66.92H176.531V84.344C176.531 85.624 176.659 86.872 176.915 88.088C177.171 89.272 177.587 90.328 178.163 91.256C178.739 92.184 179.475 92.92 180.371 93.464C181.299 94.008 182.435 94.28 183.779 94.28C185.155 94.28 186.307 94.008 187.235 93.464C188.163 92.888 188.899 92.136 189.443 91.208C189.987 90.248 190.387 89.176 190.643 87.992C190.899 86.808 191.027 85.592 191.027 84.344V66.92H198.899V84.344C198.899 86.712 198.595 88.92 197.987 90.968C197.411 93.016 196.515 94.824 195.299 96.392C194.083 97.928 192.515 99.128 190.595 99.992C188.707 100.856 186.435 101.288 183.779 101.288ZM204.998 101V66.92H219.542C221.174 66.92 222.662 67.256 224.006 67.928C225.382 68.568 226.566 69.448 227.558 70.568C228.55 71.656 229.318 72.888 229.862 74.264C230.406 75.64 230.678 77.048 230.678 78.488C230.678 80.44 230.214 82.296 229.286 84.056C228.39 85.816 227.126 87.256 225.494 88.376C223.894 89.464 221.99 90.008 219.782 90.008H212.87V101H204.998ZM212.87 83.144H219.302C219.91 83.144 220.47 82.968 220.982 82.616C221.494 82.264 221.91 81.736 222.23 81.032C222.55 80.328 222.71 79.464 222.71 78.44C222.71 77.384 222.518 76.52 222.134 75.848C221.782 75.144 221.318 74.632 220.742 74.312C220.198 73.992 219.622 73.832 219.014 73.832H212.87V83.144ZM251.934 66.92H260.43L272.142 101H264.078L261.438 93.368H250.83L248.238 101H240.174L251.934 66.92ZM260.142 87.944L256.158 74.84L252.078 87.944H260.142ZM305.696 76.904C305.6 76.744 305.264 76.504 304.688 76.184C304.112 75.832 303.392 75.464 302.528 75.08C301.664 74.696 300.72 74.36 299.696 74.072C298.672 73.784 297.648 73.64 296.624 73.64C295.28 73.64 294.24 73.88 293.504 74.36C292.768 74.808 292.4 75.512 292.4 76.472C292.4 77.24 292.672 77.848 293.216 78.296C293.792 78.744 294.608 79.144 295.664 79.496C296.72 79.816 298.016 80.2 299.552 80.648C301.728 81.224 303.616 81.928 305.216 82.76C306.816 83.56 308.032 84.6 308.864 85.88C309.728 87.16 310.16 88.856 310.16 90.968C310.16 92.888 309.808 94.52 309.104 95.864C308.4 97.176 307.44 98.248 306.224 99.08C305.04 99.88 303.68 100.472 302.144 100.856C300.608 101.208 299.024 101.384 297.392 101.384C295.728 101.384 294.016 101.224 292.256 100.904C290.528 100.552 288.864 100.072 287.264 99.464C285.664 98.824 284.192 98.056 282.848 97.16L286.304 90.296C286.432 90.456 286.848 90.76 287.552 91.208C288.256 91.624 289.12 92.072 290.144 92.552C291.2 93 292.368 93.4 293.648 93.752C294.928 94.104 296.224 94.28 297.536 94.28C298.944 94.28 299.984 94.056 300.656 93.608C301.36 93.16 301.712 92.536 301.712 91.736C301.712 90.872 301.344 90.2 300.608 89.72C299.904 89.24 298.928 88.808 297.68 88.424C296.464 88.04 295.056 87.608 293.456 87.128C291.376 86.488 289.648 85.768 288.272 84.968C286.928 84.168 285.92 83.192 285.248 82.04C284.608 80.888 284.288 79.448 284.288 77.72C284.288 75.32 284.848 73.304 285.968 71.672C287.12 70.008 288.656 68.76 290.576 67.928C292.496 67.064 294.592 66.632 296.864 66.632C298.464 66.632 300 66.824 301.472 67.208C302.976 67.592 304.368 68.072 305.648 68.648C306.96 69.224 308.128 69.8 309.152 70.376L305.696 76.904ZM338.732 94.088V101H314.78V66.92H338.3V73.832H322.652V80.456H336.092V86.84H322.652V94.088H338.732ZM340.984 83.672C340.984 81.592 341.368 79.56 342.136 77.576C342.904 75.56 344.024 73.736 345.496 72.104C346.968 70.472 348.76 69.176 350.872 68.216C352.984 67.224 355.384 66.728 358.072 66.728C361.272 66.728 364.04 67.416 366.376 68.792C368.744 70.168 370.504 71.96 371.656 74.168L365.608 78.392C365.096 77.176 364.408 76.232 363.544 75.56C362.712 74.888 361.784 74.424 360.76 74.168C359.768 73.88 358.808 73.736 357.88 73.736C356.376 73.736 355.064 74.04 353.944 74.648C352.824 75.224 351.896 76.008 351.16 77C350.424 77.992 349.88 79.096 349.528 80.312C349.176 81.528 349 82.744 349 83.96C349 85.304 349.208 86.6 349.624 87.848C350.04 89.096 350.632 90.2 351.4 91.16C352.2 92.12 353.16 92.888 354.28 93.464C355.4 94.008 356.632 94.28 357.976 94.28C358.936 94.28 359.912 94.12 360.904 93.8C361.896 93.48 362.808 92.984 363.64 92.312C364.504 91.608 365.16 90.696 365.608 89.576L372.04 93.368C371.368 95.032 370.264 96.456 368.728 97.64C367.192 98.824 365.448 99.736 363.496 100.376C361.576 100.984 359.672 101.288 357.784 101.288C355.32 101.288 353.048 100.792 350.968 99.8C348.92 98.776 347.144 97.432 345.64 95.768C344.168 94.072 343.016 92.184 342.184 90.104C341.384 87.992 340.984 85.848 340.984 83.672ZM390.638 101.288C387.918 101.288 385.598 100.84 383.678 99.944C381.758 99.016 380.19 97.768 378.974 96.2C377.79 94.6 376.91 92.792 376.334 90.776C375.79 88.728 375.518 86.584 375.518 84.344V66.92H383.39V84.344C383.39 85.624 383.518 86.872 383.774 88.088C384.03 89.272 384.446 90.328 385.022 91.256C385.598 92.184 386.334 92.92 387.23 93.464C388.158 94.008 389.294 94.28 390.638 94.28C392.014 94.28 393.166 94.008 394.094 93.464C395.022 92.888 395.758 92.136 396.302 91.208C396.846 90.248 397.246 89.176 397.502 87.992C397.758 86.808 397.886 85.592 397.886 84.344V66.92H405.758V84.344C405.758 86.712 405.454 88.92 404.846 90.968C404.27 93.016 403.374 94.824 402.158 96.392C400.942 97.928 399.374 99.128 397.454 99.992C395.566 100.856 393.294 101.288 390.638 101.288ZM411.858 101V66.92H427.218C428.818 66.92 430.29 67.256 431.634 67.928C433.01 68.568 434.194 69.448 435.186 70.568C436.178 71.656 436.946 72.888 437.49 74.264C438.066 75.64 438.354 77.032 438.354 78.44C438.354 79.848 438.13 81.192 437.682 82.472C437.234 83.72 436.594 84.856 435.762 85.88C434.93 86.872 433.938 87.688 432.786 88.328L440.274 101H431.586L425.058 90.008H419.73V101H411.858ZM419.73 83.144H426.93C427.57 83.144 428.13 82.952 428.61 82.568C429.122 82.152 429.538 81.592 429.858 80.888C430.178 80.184 430.338 79.368 430.338 78.44C430.338 77.512 430.146 76.712 429.762 76.04C429.41 75.336 428.962 74.792 428.418 74.408C427.874 74.024 427.298 73.832 426.69 73.832H419.73V83.144ZM467.966 94.088V101H444.014V66.92H467.534V73.832H451.886V80.456H465.326V86.84H451.886V94.088H467.966ZM487.255 66.92L495.271 91.784L503.191 66.92H511.495L499.111 101H491.383L478.903 66.92H487.255ZM514.655 101V66.92H529.199C530.831 66.92 532.319 67.256 533.663 67.928C535.039 68.568 536.223 69.448 537.215 70.568C538.207 71.656 538.975 72.888 539.519 74.264C540.063 75.64 540.335 77.048 540.335 78.488C540.335 80.44 539.871 82.296 538.943 84.056C538.047 85.816 536.783 87.256 535.151 88.376C533.551 89.464 531.647 90.008 529.439 90.008H522.527V101H514.655ZM522.527 83.144H528.959C529.567 83.144 530.127 82.968 530.639 82.616C531.151 82.264 531.567 81.736 531.887 81.032C532.207 80.328 532.367 79.464 532.367 78.44C532.367 77.384 532.175 76.52 531.791 75.848C531.439 75.144 530.975 74.632 530.399 74.312C529.855 73.992 529.279 73.832 528.671 73.832H522.527V83.144ZM552.433 81.512V101H544.561V66.92H550.801L566.593 86.984V66.92H574.465V101H568.033L552.433 81.512ZM69.296 134.672C69.296 132.592 69.68 130.56 70.448 128.576C71.216 126.56 72.336 124.736 73.808 123.104C75.28 121.472 77.072 120.176 79.184 119.216C81.296 118.224 83.696 117.728 86.384 117.728C89.584 117.728 92.352 118.416 94.688 119.792C97.056 121.168 98.816 122.96 99.968 125.168L93.92 129.392C93.408 128.176 92.72 127.232 91.856 126.56C91.024 125.888 90.096 125.424 89.072 125.168C88.08 124.88 87.12 124.736 86.192 124.736C84.688 124.736 83.376 125.04 82.256 125.648C81.136 126.224 80.208 127.008 79.472 128C78.736 128.992 78.192 130.096 77.84 131.312C77.488 132.528 77.312 133.744 77.312 134.96C77.312 136.304 77.52 137.6 77.936 138.848C78.352 140.096 78.944 141.2 79.712 142.16C80.512 143.12 81.472 143.888 82.592 144.464C83.712 145.008 84.944 145.28 86.288 145.28C87.248 145.28 88.224 145.12 89.216 144.8C90.208 144.48 91.12 143.984 91.952 143.312C92.816 142.608 93.472 141.696 93.92 140.576L100.352 144.368C99.68 146.032 98.576 147.456 97.04 148.64C95.504 149.824 93.76 150.736 91.808 151.376C89.888 151.984 87.984 152.288 86.096 152.288C83.632 152.288 81.36 151.792 79.28 150.8C77.232 149.776 75.456 148.432 73.952 146.768C72.48 145.072 71.328 143.184 70.496 141.104C69.696 138.992 69.296 136.848 69.296 134.672ZM118.77 152.288C116.21 152.288 113.89 151.808 111.81 150.848C109.762 149.856 107.986 148.544 106.482 146.912C105.01 145.248 103.874 143.392 103.074 141.344C102.274 139.264 101.874 137.12 101.874 134.912C101.874 132.64 102.29 130.48 103.122 128.432C103.986 126.384 105.17 124.56 106.674 122.96C108.21 121.328 110.018 120.048 112.098 119.12C114.178 118.192 116.45 117.728 118.914 117.728C121.442 117.728 123.73 118.224 125.778 119.216C127.858 120.176 129.634 121.488 131.106 123.152C132.61 124.816 133.762 126.688 134.562 128.768C135.362 130.816 135.762 132.912 135.762 135.056C135.762 137.328 135.346 139.488 134.514 141.536C133.682 143.584 132.498 145.424 130.962 147.056C129.426 148.656 127.618 149.936 125.538 150.896C123.49 151.824 121.234 152.288 118.77 152.288ZM109.89 135.008C109.89 136.32 110.082 137.6 110.466 138.848C110.85 140.064 111.41 141.152 112.146 142.112C112.914 143.072 113.858 143.84 114.978 144.416C116.098 144.992 117.378 145.28 118.818 145.28C120.322 145.28 121.634 144.992 122.754 144.416C123.874 143.808 124.802 143.008 125.538 142.016C126.274 141.024 126.818 139.92 127.17 138.704C127.554 137.456 127.746 136.192 127.746 134.912C127.746 133.6 127.554 132.336 127.17 131.12C126.786 129.904 126.21 128.816 125.442 127.856C124.674 126.864 123.73 126.096 122.61 125.552C121.49 125.008 120.226 124.736 118.818 124.736C117.314 124.736 116.002 125.024 114.882 125.6C113.794 126.176 112.866 126.96 112.098 127.952C111.362 128.912 110.802 130.016 110.418 131.264C110.066 132.48 109.89 133.728 109.89 135.008ZM148.183 132.512V152H140.311V117.92H146.551L162.343 137.984V117.92H170.215V152H163.783L148.183 132.512ZM184.605 132.512V152H176.733V117.92H182.973L198.765 137.984V117.92H206.637V152H200.205L184.605 132.512ZM237.107 145.088V152H213.155V117.92H236.675V124.832H221.027V131.456H234.467V137.84H221.027V145.088H237.107ZM239.359 134.672C239.359 132.592 239.743 130.56 240.511 128.576C241.279 126.56 242.399 124.736 243.871 123.104C245.343 121.472 247.135 120.176 249.247 119.216C251.359 118.224 253.759 117.728 256.447 117.728C259.647 117.728 262.415 118.416 264.751 119.792C267.119 121.168 268.879 122.96 270.031 125.168L263.983 129.392C263.471 128.176 262.783 127.232 261.919 126.56C261.087 125.888 260.159 125.424 259.135 125.168C258.143 124.88 257.183 124.736 256.255 124.736C254.751 124.736 253.439 125.04 252.319 125.648C251.199 126.224 250.271 127.008 249.535 128C248.799 128.992 248.255 130.096 247.903 131.312C247.551 132.528 247.375 133.744 247.375 134.96C247.375 136.304 247.583 137.6 247.999 138.848C248.415 140.096 249.007 141.2 249.775 142.16C250.575 143.12 251.535 143.888 252.655 144.464C253.775 145.008 255.007 145.28 256.351 145.28C257.311 145.28 258.287 145.12 259.279 144.8C260.271 144.48 261.183 143.984 262.015 143.312C262.879 142.608 263.535 141.696 263.983 140.576L270.415 144.368C269.743 146.032 268.639 147.456 267.103 148.64C265.567 149.824 263.823 150.736 261.871 151.376C259.951 151.984 258.047 152.288 256.159 152.288C253.695 152.288 251.423 151.792 249.343 150.8C247.295 149.776 245.519 148.432 244.015 146.768C242.543 145.072 241.391 143.184 240.559 141.104C239.759 138.992 239.359 136.848 239.359 134.672ZM300.341 124.832H289.973V152H282.101V124.832H271.685V117.92H300.341V124.832ZM304.186 152V117.92H312.058V152H304.186ZM333.505 152.288C330.945 152.288 328.625 151.808 326.545 150.848C324.497 149.856 322.721 148.544 321.217 146.912C319.745 145.248 318.609 143.392 317.809 141.344C317.009 139.264 316.609 137.12 316.609 134.912C316.609 132.64 317.025 130.48 317.857 128.432C318.721 126.384 319.905 124.56 321.409 122.96C322.945 121.328 324.753 120.048 326.833 119.12C328.913 118.192 331.185 117.728 333.649 117.728C336.177 117.728 338.465 118.224 340.513 119.216C342.593 120.176 344.369 121.488 345.841 123.152C347.345 124.816 348.497 126.688 349.297 128.768C350.097 130.816 350.497 132.912 350.497 135.056C350.497 137.328 350.081 139.488 349.249 141.536C348.417 143.584 347.233 145.424 345.697 147.056C344.161 148.656 342.353 149.936 340.273 150.896C338.225 151.824 335.969 152.288 333.505 152.288ZM324.625 135.008C324.625 136.32 324.817 137.6 325.201 138.848C325.585 140.064 326.145 141.152 326.881 142.112C327.649 143.072 328.593 143.84 329.713 144.416C330.833 144.992 332.113 145.28 333.553 145.28C335.057 145.28 336.369 144.992 337.489 144.416C338.609 143.808 339.537 143.008 340.273 142.016C341.009 141.024 341.553 139.92 341.905 138.704C342.289 137.456 342.481 136.192 342.481 134.912C342.481 133.6 342.289 132.336 341.905 131.12C341.521 129.904 340.945 128.816 340.177 127.856C339.409 126.864 338.465 126.096 337.345 125.552C336.225 125.008 334.961 124.736 333.553 124.736C332.049 124.736 330.737 125.024 329.617 125.6C328.529 126.176 327.601 126.96 326.833 127.952C326.097 128.912 325.537 130.016 325.153 131.264C324.801 132.48 324.625 133.728 324.625 135.008ZM362.917 132.512V152H355.045V117.92H361.285L377.077 137.984V117.92H384.949V152H378.517L362.917 132.512ZM417.598 152.288C415.038 152.288 412.718 151.808 410.638 150.848C408.59 149.856 406.814 148.544 405.31 146.912C403.838 145.248 402.702 143.392 401.902 141.344C401.102 139.264 400.702 137.12 400.702 134.912C400.702 132.64 401.118 130.48 401.95 128.432C402.814 126.384 403.998 124.56 405.502 122.96C407.038 121.328 408.846 120.048 410.926 119.12C413.006 118.192 415.278 117.728 417.742 117.728C420.27 117.728 422.558 118.224 424.606 119.216C426.686 120.176 428.462 121.488 429.934 123.152C431.438 124.816 432.59 126.688 433.39 128.768C434.19 130.816 434.59 132.912 434.59 135.056C434.59 137.328 434.174 139.488 433.342 141.536C432.51 143.584 431.326 145.424 429.79 147.056C428.254 148.656 426.446 149.936 424.366 150.896C422.318 151.824 420.062 152.288 417.598 152.288ZM408.718 135.008C408.718 136.32 408.91 137.6 409.294 138.848C409.678 140.064 410.238 141.152 410.974 142.112C411.742 143.072 412.686 143.84 413.806 144.416C414.926 144.992 416.206 145.28 417.646 145.28C419.15 145.28 420.462 144.992 421.582 144.416C422.702 143.808 423.63 143.008 424.366 142.016C425.102 141.024 425.646 139.92 425.998 138.704C426.382 137.456 426.574 136.192 426.574 134.912C426.574 133.6 426.382 132.336 425.998 131.12C425.614 129.904 425.038 128.816 424.27 127.856C423.502 126.864 422.558 126.096 421.438 125.552C420.318 125.008 419.054 124.736 417.646 124.736C416.142 124.736 414.83 125.024 413.71 125.6C412.622 126.176 411.694 126.96 410.926 127.952C410.19 128.912 409.63 130.016 409.246 131.264C408.894 132.48 408.718 133.728 408.718 135.008ZM447.011 132.512V152H439.139V117.92H445.379L461.171 137.984V117.92H469.043V152H462.611L447.011 132.512ZM493.903 117.92H502.399L514.111 152H506.047L503.407 144.368H492.799L490.207 152H482.143L493.903 117.92ZM502.111 138.944L498.127 125.84L494.047 138.944H502.111ZM554.097 152V131.696L546.753 146.48H542.433L535.089 131.696V152H527.217V117.92H535.761L544.593 135.728L553.473 117.92H561.969V152H554.097ZM577.106 117.92H585.602L597.314 152H589.25L586.61 144.368H576.002L573.41 152H565.346L577.106 117.92ZM585.314 138.944L581.33 125.84L577.25 138.944H585.314ZM597.343 134.672C597.343 132.592 597.727 130.56 598.495 128.576C599.263 126.56 600.383 124.736 601.855 123.104C603.327 121.472 605.119 120.176 607.231 119.216C609.343 118.224 611.743 117.728 614.431 117.728C617.631 117.728 620.399 118.416 622.735 119.792C625.103 121.168 626.863 122.96 628.015 125.168L621.967 129.392C621.455 128.176 620.767 127.232 619.903 126.56C619.071 125.888 618.143 125.424 617.119 125.168C616.127 124.88 615.167 124.736 614.239 124.736C612.735 124.736 611.423 125.04 610.303 125.648C609.183 126.224 608.255 127.008 607.519 128C606.783 128.992 606.239 130.096 605.887 131.312C605.535 132.528 605.359 133.744 605.359 134.96C605.359 136.304 605.567 137.6 605.983 138.848C606.399 140.096 606.991 141.2 607.759 142.16C608.559 143.12 609.519 143.888 610.639 144.464C611.759 145.008 612.991 145.28 614.335 145.28C615.295 145.28 616.271 145.12 617.263 144.8C618.255 144.48 619.167 143.984 619.999 143.312C620.863 142.608 621.519 141.696 621.967 140.576L628.399 144.368C627.727 146.032 626.623 147.456 625.087 148.64C623.551 149.824 621.807 150.736 619.855 151.376C617.935 151.984 616.031 152.288 614.143 152.288C611.679 152.288 609.407 151.792 607.327 150.8C605.279 149.776 603.503 148.432 601.999 146.768C600.527 145.072 599.375 143.184 598.543 141.104C597.743 138.992 597.343 136.848 597.343 134.672Z" fill="white"/>
<path d="M79.696 189.664H80.768L77.184 198H76.24L74.496 193.856L72.768 198H71.824L68.24 189.664H69.296L72.336 196.88L73.872 193.12L72.464 189.68H73.44L74.496 192.384L75.568 189.68H76.528L75.136 193.12L76.672 196.88L79.696 189.664ZM82.2156 198V189.664H83.3036V198H82.2156ZM82.2156 187.92V186.32H83.3036V187.92H82.2156ZM89.7 197.6C89.6147 197.632 89.4813 197.691 89.3 197.776C89.1187 197.861 88.9 197.936 88.644 198C88.388 198.064 88.1107 198.096 87.812 198.096C87.5027 198.096 87.2093 198.037 86.932 197.92C86.6653 197.803 86.452 197.627 86.292 197.392C86.132 197.147 86.052 196.848 86.052 196.496V190.528H84.9V189.664H86.052V186.848H87.14V189.664H89.06V190.528H87.14V196.192C87.1613 196.491 87.268 196.715 87.46 196.864C87.6627 197.013 87.892 197.088 88.148 197.088C88.4467 197.088 88.7187 197.04 88.964 196.944C89.2093 196.837 89.3587 196.763 89.412 196.72L89.7 197.6ZM98.0674 198H96.9794V193.344C96.9794 192.405 96.814 191.701 96.4834 191.232C96.1527 190.752 95.678 190.512 95.0594 190.512C94.654 190.512 94.2487 190.619 93.8434 190.832C93.4487 191.035 93.0967 191.317 92.7874 191.68C92.4887 192.032 92.2754 192.437 92.1474 192.896V198H91.0594V186.32H92.1474V191.552C92.478 190.933 92.9367 190.443 93.5234 190.08C94.1207 189.707 94.7554 189.52 95.4274 189.52C95.9074 189.52 96.3127 189.605 96.6434 189.776C96.9847 189.947 97.2567 190.197 97.4594 190.528C97.6727 190.848 97.8274 191.227 97.9234 191.664C98.0194 192.091 98.0674 192.576 98.0674 193.12V198ZM103.794 195.6C103.794 195.077 103.943 194.629 104.242 194.256C104.54 193.872 104.951 193.579 105.474 193.376C106.007 193.163 106.62 193.056 107.314 193.056C107.719 193.056 108.14 193.088 108.578 193.152C109.015 193.216 109.404 193.312 109.746 193.44V192.736C109.746 192.032 109.538 191.472 109.122 191.056C108.706 190.64 108.13 190.432 107.394 190.432C106.946 190.432 106.503 190.517 106.066 190.688C105.639 190.848 105.191 191.088 104.722 191.408L104.306 190.64C104.85 190.267 105.383 189.989 105.906 189.808C106.428 189.616 106.962 189.52 107.506 189.52C108.53 189.52 109.34 189.813 109.938 190.4C110.535 190.987 110.834 191.797 110.834 192.832V196.688C110.834 196.837 110.866 196.949 110.93 197.024C110.994 197.088 111.095 197.125 111.234 197.136V198C111.116 198.011 111.015 198.021 110.93 198.032C110.844 198.043 110.78 198.043 110.738 198.032C110.471 198.021 110.268 197.936 110.13 197.776C109.991 197.616 109.916 197.445 109.906 197.264L109.89 196.656C109.516 197.136 109.031 197.509 108.434 197.776C107.836 198.032 107.228 198.16 106.61 198.16C106.076 198.16 105.591 198.048 105.154 197.824C104.727 197.589 104.391 197.28 104.146 196.896C103.911 196.501 103.794 196.069 103.794 195.6ZM109.378 196.24C109.495 196.091 109.586 195.947 109.65 195.808C109.714 195.669 109.746 195.547 109.746 195.44V194.224C109.383 194.085 109.004 193.979 108.61 193.904C108.226 193.829 107.836 193.792 107.442 193.792C106.663 193.792 106.034 193.947 105.554 194.256C105.074 194.565 104.834 194.987 104.834 195.52C104.834 195.829 104.914 196.123 105.074 196.4C105.234 196.667 105.468 196.891 105.778 197.072C106.087 197.243 106.45 197.328 106.866 197.328C107.388 197.328 107.874 197.227 108.322 197.024C108.78 196.821 109.132 196.56 109.378 196.24ZM121.551 194.224C122.031 194.299 122.441 194.469 122.783 194.736C123.124 195.003 123.391 195.339 123.583 195.744C123.775 196.149 123.871 196.608 123.871 197.12C123.871 197.76 123.716 198.325 123.407 198.816C123.097 199.307 122.665 199.685 122.111 199.952C121.556 200.219 120.911 200.352 120.174 200.352C119.364 200.352 118.655 200.187 118.047 199.856C117.439 199.536 116.98 199.088 116.671 198.512L117.423 197.824C117.657 198.283 118.004 198.651 118.463 198.928C118.921 199.216 119.492 199.36 120.174 199.36C120.964 199.36 121.588 199.163 122.047 198.768C122.516 198.384 122.751 197.829 122.751 197.104C122.751 196.379 122.505 195.803 122.015 195.376C121.535 194.939 120.847 194.72 119.951 194.72H119.551V193.792H119.983C120.804 193.792 121.433 193.6 121.871 193.216C122.308 192.832 122.527 192.341 122.527 191.744C122.527 191.307 122.425 190.944 122.223 190.656C122.02 190.368 121.743 190.149 121.391 190C121.049 189.851 120.655 189.776 120.207 189.776C119.599 189.776 119.06 189.915 118.591 190.192C118.132 190.459 117.785 190.832 117.551 191.312L116.847 190.64C117.028 190.267 117.289 189.941 117.631 189.664C117.972 189.387 118.372 189.173 118.831 189.024C119.289 188.864 119.78 188.784 120.303 188.784C120.964 188.784 121.545 188.907 122.047 189.152C122.548 189.387 122.943 189.717 123.231 190.144C123.519 190.571 123.663 191.072 123.663 191.648C123.663 192.075 123.577 192.469 123.407 192.832C123.236 193.195 122.991 193.499 122.671 193.744C122.361 193.989 121.988 194.149 121.551 194.224ZM133.521 193.312C133.521 194.251 133.345 195.088 132.993 195.824C132.652 196.549 132.177 197.12 131.569 197.536C130.961 197.952 130.273 198.16 129.505 198.16C128.737 198.16 128.049 197.952 127.441 197.536C126.844 197.12 126.369 196.549 126.017 195.824C125.665 195.088 125.489 194.251 125.489 193.312C125.489 192.373 125.665 191.541 126.017 190.816C126.369 190.08 126.844 189.504 127.441 189.088C128.049 188.661 128.737 188.448 129.505 188.448C130.273 188.448 130.961 188.661 131.569 189.088C132.177 189.504 132.652 190.08 132.993 190.816C133.345 191.541 133.521 192.373 133.521 193.312ZM132.417 193.312C132.417 192.555 132.295 191.888 132.049 191.312C131.804 190.736 131.463 190.288 131.025 189.968C130.588 189.637 130.081 189.472 129.505 189.472C128.929 189.472 128.423 189.637 127.985 189.968C127.548 190.288 127.201 190.736 126.945 191.312C126.7 191.888 126.577 192.555 126.577 193.312C126.577 194.069 126.7 194.736 126.945 195.312C127.201 195.888 127.548 196.336 127.985 196.656C128.423 196.976 128.929 197.136 129.505 197.136C130.081 197.136 130.588 196.976 131.025 196.656C131.463 196.325 131.804 195.877 132.049 195.312C132.295 194.736 132.417 194.069 132.417 193.312ZM135.446 194.144V193.136H140.118V194.144H135.446ZM141.796 193.856C141.796 193.067 141.956 192.347 142.276 191.696C142.607 191.035 143.06 190.507 143.636 190.112C144.212 189.717 144.868 189.52 145.604 189.52C146.298 189.52 146.916 189.707 147.46 190.08C148.015 190.443 148.447 190.885 148.756 191.408V186.32H149.844V196.688C149.844 196.837 149.876 196.949 149.94 197.024C150.004 197.088 150.1 197.125 150.228 197.136V198C150.015 198.032 149.85 198.043 149.732 198.032C149.508 198.021 149.311 197.931 149.14 197.76C148.97 197.589 148.884 197.403 148.884 197.2V196.384C148.554 196.928 148.106 197.36 147.54 197.68C146.975 198 146.388 198.16 145.78 198.16C145.204 198.16 144.671 198.043 144.18 197.808C143.7 197.573 143.279 197.253 142.916 196.848C142.564 196.443 142.287 195.984 142.084 195.472C141.892 194.949 141.796 194.411 141.796 193.856ZM148.756 195.136V192.56C148.618 192.176 148.394 191.829 148.084 191.52C147.775 191.2 147.423 190.949 147.028 190.768C146.644 190.576 146.26 190.48 145.876 190.48C145.428 190.48 145.023 190.576 144.66 190.768C144.298 190.949 143.983 191.2 143.716 191.52C143.46 191.84 143.263 192.203 143.124 192.608C142.986 193.013 142.916 193.429 142.916 193.856C142.916 194.304 142.991 194.731 143.14 195.136C143.3 195.541 143.524 195.904 143.812 196.224C144.1 196.533 144.431 196.773 144.804 196.944C145.178 197.115 145.583 197.2 146.02 197.2C146.298 197.2 146.586 197.147 146.884 197.04C147.183 196.933 147.466 196.789 147.732 196.608C148.01 196.416 148.239 196.192 148.42 195.936C148.602 195.68 148.714 195.413 148.756 195.136ZM151.637 195.6C151.637 195.077 151.787 194.629 152.085 194.256C152.384 193.872 152.795 193.579 153.317 193.376C153.851 193.163 154.464 193.056 155.157 193.056C155.563 193.056 155.984 193.088 156.421 193.152C156.859 193.216 157.248 193.312 157.589 193.44V192.736C157.589 192.032 157.381 191.472 156.965 191.056C156.549 190.64 155.973 190.432 155.237 190.432C154.789 190.432 154.347 190.517 153.909 190.688C153.483 190.848 153.035 191.088 152.565 191.408L152.149 190.64C152.693 190.267 153.227 189.989 153.749 189.808C154.272 189.616 154.805 189.52 155.349 189.52C156.373 189.52 157.184 189.813 157.781 190.4C158.379 190.987 158.677 191.797 158.677 192.832V196.688C158.677 196.837 158.709 196.949 158.773 197.024C158.837 197.088 158.939 197.125 159.077 197.136V198C158.96 198.011 158.859 198.021 158.773 198.032C158.688 198.043 158.624 198.043 158.581 198.032C158.315 198.021 158.112 197.936 157.973 197.776C157.835 197.616 157.76 197.445 157.749 197.264L157.733 196.656C157.36 197.136 156.875 197.509 156.277 197.776C155.68 198.032 155.072 198.16 154.453 198.16C153.92 198.16 153.435 198.048 152.997 197.824C152.571 197.589 152.235 197.28 151.989 196.896C151.755 196.501 151.637 196.069 151.637 195.6ZM157.221 196.24C157.339 196.091 157.429 195.947 157.493 195.808C157.557 195.669 157.589 195.547 157.589 195.44V194.224C157.227 194.085 156.848 193.979 156.453 193.904C156.069 193.829 155.68 193.792 155.285 193.792C154.507 193.792 153.877 193.947 153.397 194.256C152.917 194.565 152.677 194.987 152.677 195.52C152.677 195.829 152.757 196.123 152.917 196.4C153.077 196.667 153.312 196.891 153.621 197.072C153.931 197.243 154.293 197.328 154.709 197.328C155.232 197.328 155.717 197.227 156.165 197.024C156.624 196.821 156.976 196.56 157.221 196.24ZM161.258 200.56C161.407 200.571 161.551 200.576 161.69 200.576C161.829 200.587 161.93 200.581 161.994 200.56C162.122 200.539 162.245 200.464 162.362 200.336C162.479 200.208 162.618 199.963 162.778 199.6C162.938 199.237 163.162 198.704 163.45 198L159.818 189.664H160.97L164.026 196.88L166.842 189.664H167.93L163.61 200.416C163.535 200.619 163.423 200.805 163.274 200.976C163.125 201.157 162.938 201.296 162.714 201.392C162.501 201.499 162.234 201.557 161.914 201.568C161.818 201.579 161.717 201.579 161.61 201.568C161.514 201.568 161.397 201.557 161.258 201.536V200.56ZM185.491 198H184.403V193.344C184.403 192.373 184.248 191.659 183.939 191.2C183.629 190.741 183.171 190.512 182.563 190.512C181.933 190.512 181.368 190.736 180.867 191.184C180.376 191.632 180.029 192.208 179.827 192.912V198H178.739V193.344C178.739 192.363 178.589 191.648 178.291 191.2C177.992 190.741 177.533 190.512 176.915 190.512C176.296 190.512 175.736 190.731 175.235 191.168C174.733 191.605 174.381 192.181 174.179 192.896V198H173.091V189.664H174.083V191.552C174.435 190.901 174.883 190.4 175.427 190.048C175.981 189.696 176.595 189.52 177.267 189.52C177.96 189.52 178.52 189.717 178.947 190.112C179.373 190.507 179.635 191.024 179.731 191.664C180.115 190.96 180.573 190.427 181.107 190.064C181.651 189.701 182.264 189.52 182.947 189.52C183.416 189.52 183.811 189.605 184.131 189.776C184.461 189.947 184.723 190.192 184.915 190.512C185.117 190.821 185.261 191.2 185.347 191.648C185.443 192.085 185.491 192.576 185.491 193.12V198ZM191.346 198.16C190.748 198.16 190.194 198.048 189.682 197.824C189.18 197.589 188.743 197.275 188.37 196.88C188.007 196.475 187.724 196.016 187.522 195.504C187.319 194.981 187.218 194.432 187.218 193.856C187.218 193.259 187.319 192.704 187.522 192.192C187.724 191.669 188.012 191.211 188.386 190.816C188.759 190.411 189.196 190.096 189.698 189.872C190.21 189.637 190.764 189.52 191.362 189.52C191.959 189.52 192.508 189.637 193.01 189.872C193.511 190.096 193.948 190.411 194.322 190.816C194.695 191.211 194.983 191.669 195.186 192.192C195.388 192.704 195.49 193.259 195.49 193.856C195.49 194.432 195.388 194.981 195.186 195.504C194.983 196.016 194.695 196.475 194.322 196.88C193.959 197.275 193.522 197.589 193.01 197.824C192.508 198.048 191.954 198.16 191.346 198.16ZM188.322 193.872C188.322 194.491 188.455 195.056 188.722 195.568C188.999 196.069 189.367 196.469 189.826 196.768C190.284 197.056 190.791 197.2 191.346 197.2C191.9 197.2 192.407 197.051 192.866 196.752C193.324 196.453 193.692 196.048 193.97 195.536C194.247 195.013 194.386 194.448 194.386 193.84C194.386 193.221 194.247 192.656 193.97 192.144C193.692 191.632 193.324 191.227 192.866 190.928C192.407 190.629 191.9 190.48 191.346 190.48C190.791 190.48 190.284 190.635 189.826 190.944C189.378 191.253 189.015 191.664 188.738 192.176C188.46 192.677 188.322 193.243 188.322 193.872ZM204.317 198H203.229V193.344C203.229 192.363 203.085 191.648 202.797 191.2C202.509 190.741 202.056 190.512 201.437 190.512C201.011 190.512 200.589 190.619 200.173 190.832C199.757 191.035 199.389 191.317 199.069 191.68C198.76 192.032 198.536 192.437 198.397 192.896V198H197.309V189.664H198.301V191.552C198.525 191.147 198.819 190.795 199.181 190.496C199.544 190.187 199.955 189.947 200.413 189.776C200.872 189.605 201.347 189.52 201.837 189.52C202.296 189.52 202.685 189.605 203.005 189.776C203.325 189.947 203.581 190.192 203.773 190.512C203.965 190.821 204.104 191.2 204.189 191.648C204.275 192.085 204.317 192.576 204.317 193.12V198ZM210.238 198.16C209.64 198.16 209.086 198.048 208.574 197.824C208.062 197.589 207.619 197.275 207.246 196.88C206.872 196.475 206.579 196.011 206.366 195.488C206.163 194.965 206.062 194.405 206.062 193.808C206.062 193.029 206.238 192.315 206.59 191.664C206.952 191.013 207.448 190.496 208.078 190.112C208.707 189.717 209.422 189.52 210.222 189.52C211.043 189.52 211.758 189.717 212.366 190.112C212.984 190.507 213.47 191.029 213.822 191.68C214.174 192.32 214.35 193.024 214.35 193.792C214.35 193.877 214.35 193.963 214.35 194.048C214.35 194.123 214.344 194.181 214.334 194.224H207.198C207.251 194.821 207.416 195.355 207.694 195.824C207.982 196.283 208.35 196.651 208.798 196.928C209.256 197.195 209.752 197.328 210.286 197.328C210.83 197.328 211.342 197.189 211.822 196.912C212.312 196.635 212.654 196.272 212.846 195.824L213.79 196.08C213.619 196.475 213.358 196.832 213.006 197.152C212.654 197.472 212.238 197.723 211.758 197.904C211.288 198.075 210.782 198.16 210.238 198.16ZM207.166 193.44H213.326C213.283 192.832 213.118 192.299 212.83 191.84C212.552 191.381 212.184 191.024 211.726 190.768C211.278 190.501 210.782 190.368 210.238 190.368C209.694 190.368 209.198 190.501 208.75 190.768C208.302 191.024 207.934 191.387 207.646 191.856C207.368 192.315 207.208 192.843 207.166 193.44ZM216.274 200.56C216.423 200.571 216.567 200.576 216.706 200.576C216.844 200.587 216.946 200.581 217.01 200.56C217.138 200.539 217.26 200.464 217.378 200.336C217.495 200.208 217.634 199.963 217.794 199.6C217.954 199.237 218.178 198.704 218.466 198L214.834 189.664H215.986L219.042 196.88L221.858 189.664H222.946L218.626 200.416C218.551 200.619 218.439 200.805 218.29 200.976C218.14 201.157 217.954 201.296 217.73 201.392C217.516 201.499 217.25 201.557 216.93 201.568C216.834 201.579 216.732 201.579 216.626 201.568C216.53 201.568 216.412 201.557 216.274 201.536V200.56ZM224.118 194.144V193.136H228.79V194.144H224.118ZM235.108 198.16C234.457 198.16 233.855 197.995 233.3 197.664C232.745 197.323 232.313 196.896 232.004 196.384V198H231.028V186.32H232.116V191.408C232.489 190.843 232.937 190.389 233.46 190.048C233.983 189.696 234.591 189.52 235.284 189.52C235.871 189.52 236.393 189.643 236.852 189.888C237.321 190.133 237.721 190.464 238.052 190.88C238.383 191.285 238.633 191.749 238.804 192.272C238.975 192.784 239.06 193.312 239.06 193.856C239.06 194.443 238.959 194.992 238.756 195.504C238.564 196.016 238.287 196.475 237.924 196.88C237.561 197.275 237.14 197.589 236.66 197.824C236.191 198.048 235.673 198.16 235.108 198.16ZM234.852 197.2C235.3 197.2 235.716 197.109 236.1 196.928C236.484 196.747 236.815 196.496 237.092 196.176C237.369 195.856 237.583 195.499 237.732 195.104C237.881 194.699 237.956 194.283 237.956 193.856C237.956 193.269 237.828 192.72 237.572 192.208C237.327 191.685 236.98 191.269 236.532 190.96C236.095 190.64 235.577 190.48 234.98 190.48C234.553 190.48 234.153 190.576 233.78 190.768C233.417 190.96 233.092 191.216 232.804 191.536C232.527 191.845 232.297 192.187 232.116 192.56V195.152C232.159 195.44 232.271 195.712 232.452 195.968C232.633 196.213 232.857 196.427 233.124 196.608C233.401 196.789 233.689 196.933 233.988 197.04C234.287 197.147 234.575 197.2 234.852 197.2ZM240.231 195.6C240.231 195.077 240.38 194.629 240.679 194.256C240.978 193.872 241.388 193.579 241.911 193.376C242.444 193.163 243.058 193.056 243.751 193.056C244.156 193.056 244.578 193.088 245.015 193.152C245.452 193.216 245.842 193.312 246.183 193.44V192.736C246.183 192.032 245.975 191.472 245.559 191.056C245.143 190.64 244.567 190.432 243.831 190.432C243.383 190.432 242.94 190.517 242.503 190.688C242.076 190.848 241.628 191.088 241.159 191.408L240.743 190.64C241.287 190.267 241.82 189.989 242.343 189.808C242.866 189.616 243.399 189.52 243.943 189.52C244.967 189.52 245.778 189.813 246.375 190.4C246.972 190.987 247.271 191.797 247.271 192.832V196.688C247.271 196.837 247.303 196.949 247.367 197.024C247.431 197.088 247.532 197.125 247.671 197.136V198C247.554 198.011 247.452 198.021 247.367 198.032C247.282 198.043 247.218 198.043 247.175 198.032C246.908 198.021 246.706 197.936 246.567 197.776C246.428 197.616 246.354 197.445 246.343 197.264L246.327 196.656C245.954 197.136 245.468 197.509 244.871 197.776C244.274 198.032 243.666 198.16 243.047 198.16C242.514 198.16 242.028 198.048 241.591 197.824C241.164 197.589 240.828 197.28 240.583 196.896C240.348 196.501 240.231 196.069 240.231 195.6ZM245.815 196.24C245.932 196.091 246.023 195.947 246.087 195.808C246.151 195.669 246.183 195.547 246.183 195.44V194.224C245.82 194.085 245.442 193.979 245.047 193.904C244.663 193.829 244.274 193.792 243.879 193.792C243.1 193.792 242.471 193.947 241.991 194.256C241.511 194.565 241.271 194.987 241.271 195.52C241.271 195.829 241.351 196.123 241.511 196.4C241.671 196.667 241.906 196.891 242.215 197.072C242.524 197.243 242.887 197.328 243.303 197.328C243.826 197.328 244.311 197.227 244.759 197.024C245.218 196.821 245.57 196.56 245.815 196.24ZM253.238 198.16C252.63 198.16 252.07 198.048 251.558 197.824C251.057 197.589 250.614 197.269 250.23 196.864C249.857 196.459 249.563 195.995 249.35 195.472C249.147 194.949 249.046 194.395 249.046 193.808C249.046 193.019 249.222 192.299 249.574 191.648C249.926 190.997 250.417 190.48 251.046 190.096C251.675 189.712 252.401 189.52 253.222 189.52C254.001 189.52 254.689 189.701 255.286 190.064C255.883 190.416 256.326 190.896 256.614 191.504L255.558 191.84C255.323 191.413 254.993 191.083 254.566 190.848C254.15 190.603 253.686 190.48 253.174 190.48C252.619 190.48 252.113 190.624 251.654 190.912C251.195 191.2 250.827 191.595 250.55 192.096C250.283 192.597 250.15 193.168 250.15 193.808C250.15 194.437 250.289 195.008 250.566 195.52C250.843 196.032 251.211 196.443 251.67 196.752C252.129 197.051 252.635 197.2 253.19 197.2C253.553 197.2 253.899 197.136 254.23 197.008C254.571 196.88 254.865 196.709 255.11 196.496C255.366 196.272 255.537 196.032 255.622 195.776L256.694 196.096C256.545 196.491 256.294 196.848 255.942 197.168C255.601 197.477 255.195 197.723 254.726 197.904C254.267 198.075 253.771 198.16 253.238 198.16ZM264.355 198L261.267 193.728L259.491 195.392V198H258.403V186.32H259.491V194.224L264.211 189.68H265.411L262.003 193.088L265.539 198H264.355ZM274.31 198.112C273.744 198.112 273.222 197.995 272.742 197.76C272.262 197.525 271.846 197.211 271.494 196.816C271.152 196.411 270.886 195.952 270.694 195.44C270.502 194.928 270.406 194.4 270.406 193.856C270.406 193.269 270.496 192.72 270.678 192.208C270.87 191.685 271.136 191.221 271.478 190.816C271.83 190.411 272.24 190.096 272.71 189.872C273.179 189.637 273.702 189.52 274.278 189.52C274.992 189.52 275.611 189.701 276.134 190.064C276.667 190.427 277.115 190.875 277.478 191.408V189.664H278.454V198.032C278.454 198.8 278.267 199.445 277.894 199.968C277.531 200.501 277.035 200.901 276.406 201.168C275.787 201.435 275.11 201.568 274.374 201.568C273.424 201.568 272.656 201.397 272.07 201.056C271.483 200.715 271.003 200.256 270.63 199.68L271.302 199.152C271.632 199.675 272.07 200.064 272.614 200.32C273.168 200.576 273.755 200.704 274.374 200.704C274.918 200.704 275.414 200.603 275.862 200.4C276.32 200.208 276.683 199.915 276.95 199.52C277.227 199.125 277.366 198.629 277.366 198.032V196.384C277.046 196.907 276.608 197.328 276.054 197.648C275.499 197.957 274.918 198.112 274.31 198.112ZM274.614 197.2C274.944 197.2 275.259 197.141 275.558 197.024C275.867 196.907 276.15 196.752 276.406 196.56C276.662 196.357 276.875 196.133 277.046 195.888C277.216 195.643 277.323 195.392 277.366 195.136V192.56C277.206 192.155 276.976 191.797 276.678 191.488C276.379 191.168 276.038 190.923 275.654 190.752C275.28 190.571 274.891 190.48 274.486 190.48C274.016 190.48 273.595 190.581 273.222 190.784C272.859 190.976 272.55 191.237 272.294 191.568C272.048 191.888 271.856 192.251 271.718 192.656C271.579 193.061 271.51 193.467 271.51 193.872C271.51 194.32 271.59 194.747 271.75 195.152C271.91 195.547 272.128 195.904 272.406 196.224C272.694 196.533 273.024 196.773 273.398 196.944C273.782 197.115 274.187 197.2 274.614 197.2ZM280.776 194.56V189.664H281.864V194.368C281.864 195.317 282.024 196.027 282.344 196.496C282.675 196.965 283.16 197.2 283.8 197.2C284.227 197.2 284.638 197.109 285.032 196.928C285.438 196.736 285.795 196.469 286.104 196.128C286.414 195.776 286.648 195.371 286.808 194.912V189.664H287.896V196.688C287.896 196.837 287.928 196.949 287.992 197.024C288.056 197.088 288.152 197.125 288.28 197.136V198C288.152 198.011 288.051 198.016 287.976 198.016C287.902 198.027 287.832 198.032 287.768 198.032C287.555 198.011 287.368 197.925 287.208 197.776C287.059 197.627 286.979 197.445 286.968 197.232L286.936 196.112C286.574 196.752 286.078 197.253 285.448 197.616C284.83 197.979 284.158 198.16 283.432 198.16C282.558 198.16 281.896 197.856 281.448 197.248C281 196.64 280.776 195.744 280.776 194.56ZM289.684 195.6C289.684 195.077 289.834 194.629 290.132 194.256C290.431 193.872 290.842 193.579 291.364 193.376C291.898 193.163 292.511 193.056 293.204 193.056C293.61 193.056 294.031 193.088 294.468 193.152C294.906 193.216 295.295 193.312 295.636 193.44V192.736C295.636 192.032 295.428 191.472 295.012 191.056C294.596 190.64 294.02 190.432 293.284 190.432C292.836 190.432 292.394 190.517 291.956 190.688C291.53 190.848 291.082 191.088 290.612 191.408L290.196 190.64C290.74 190.267 291.274 189.989 291.796 189.808C292.319 189.616 292.852 189.52 293.396 189.52C294.42 189.52 295.231 189.813 295.828 190.4C296.426 190.987 296.724 191.797 296.724 192.832V196.688C296.724 196.837 296.756 196.949 296.82 197.024C296.884 197.088 296.986 197.125 297.124 197.136V198C297.007 198.011 296.906 198.021 296.82 198.032C296.735 198.043 296.671 198.043 296.628 198.032C296.362 198.021 296.159 197.936 296.02 197.776C295.882 197.616 295.807 197.445 295.796 197.264L295.78 196.656C295.407 197.136 294.922 197.509 294.324 197.776C293.727 198.032 293.119 198.16 292.5 198.16C291.967 198.16 291.482 198.048 291.044 197.824C290.618 197.589 290.282 197.28 290.036 196.896C289.802 196.501 289.684 196.069 289.684 195.6ZM295.268 196.24C295.386 196.091 295.476 195.947 295.54 195.808C295.604 195.669 295.636 195.547 295.636 195.44V194.224C295.274 194.085 294.895 193.979 294.5 193.904C294.116 193.829 293.727 193.792 293.332 193.792C292.554 193.792 291.924 193.947 291.444 194.256C290.964 194.565 290.724 194.987 290.724 195.52C290.724 195.829 290.804 196.123 290.964 196.4C291.124 196.667 291.359 196.891 291.668 197.072C291.978 197.243 292.34 197.328 292.756 197.328C293.279 197.328 293.764 197.227 294.212 197.024C294.671 196.821 295.023 196.56 295.268 196.24ZM303.235 190.624C302.51 190.645 301.87 190.848 301.315 191.232C300.771 191.616 300.387 192.144 300.163 192.816V198H299.075V189.664H300.099V191.664C300.387 191.077 300.766 190.603 301.235 190.24C301.715 189.877 302.222 189.675 302.755 189.632C302.862 189.621 302.952 189.616 303.027 189.616C303.112 189.616 303.182 189.621 303.235 189.632V190.624ZM303.981 195.6C303.981 195.077 304.13 194.629 304.429 194.256C304.728 193.872 305.138 193.579 305.661 193.376C306.194 193.163 306.808 193.056 307.501 193.056C307.906 193.056 308.328 193.088 308.765 193.152C309.202 193.216 309.592 193.312 309.933 193.44V192.736C309.933 192.032 309.725 191.472 309.309 191.056C308.893 190.64 308.317 190.432 307.581 190.432C307.133 190.432 306.69 190.517 306.253 190.688C305.826 190.848 305.378 191.088 304.909 191.408L304.493 190.64C305.037 190.267 305.57 189.989 306.093 189.808C306.616 189.616 307.149 189.52 307.693 189.52C308.717 189.52 309.528 189.813 310.125 190.4C310.722 190.987 311.021 191.797 311.021 192.832V196.688C311.021 196.837 311.053 196.949 311.117 197.024C311.181 197.088 311.282 197.125 311.421 197.136V198C311.304 198.011 311.202 198.021 311.117 198.032C311.032 198.043 310.968 198.043 310.925 198.032C310.658 198.021 310.456 197.936 310.317 197.776C310.178 197.616 310.104 197.445 310.093 197.264L310.077 196.656C309.704 197.136 309.218 197.509 308.621 197.776C308.024 198.032 307.416 198.16 306.797 198.16C306.264 198.16 305.778 198.048 305.341 197.824C304.914 197.589 304.578 197.28 304.333 196.896C304.098 196.501 303.981 196.069 303.981 195.6ZM309.565 196.24C309.682 196.091 309.773 195.947 309.837 195.808C309.901 195.669 309.933 195.547 309.933 195.44V194.224C309.57 194.085 309.192 193.979 308.797 193.904C308.413 193.829 308.024 193.792 307.629 193.792C306.85 193.792 306.221 193.947 305.741 194.256C305.261 194.565 305.021 194.987 305.021 195.52C305.021 195.829 305.101 196.123 305.261 196.4C305.421 196.667 305.656 196.891 305.965 197.072C306.274 197.243 306.637 197.328 307.053 197.328C307.576 197.328 308.061 197.227 308.509 197.024C308.968 196.821 309.32 196.56 309.565 196.24ZM320.38 198H319.292V193.344C319.292 192.363 319.148 191.648 318.86 191.2C318.572 190.741 318.119 190.512 317.5 190.512C317.073 190.512 316.652 190.619 316.236 190.832C315.82 191.035 315.452 191.317 315.132 191.68C314.823 192.032 314.599 192.437 314.46 192.896V198H313.372V189.664H314.364V191.552C314.588 191.147 314.881 190.795 315.244 190.496C315.607 190.187 316.017 189.947 316.476 189.776C316.935 189.605 317.409 189.52 317.9 189.52C318.359 189.52 318.748 189.605 319.068 189.776C319.388 189.947 319.644 190.192 319.836 190.512C320.028 190.821 320.167 191.2 320.252 191.648C320.337 192.085 320.38 192.576 320.38 193.12V198ZM326.622 197.6C326.537 197.632 326.403 197.691 326.222 197.776C326.041 197.861 325.822 197.936 325.566 198C325.31 198.064 325.033 198.096 324.734 198.096C324.425 198.096 324.131 198.037 323.854 197.92C323.587 197.803 323.374 197.627 323.214 197.392C323.054 197.147 322.974 196.848 322.974 196.496V190.528H321.822V189.664H322.974V186.848H324.062V189.664H325.982V190.528H324.062V196.192C324.083 196.491 324.19 196.715 324.382 196.864C324.585 197.013 324.814 197.088 325.07 197.088C325.369 197.088 325.641 197.04 325.886 196.944C326.131 196.837 326.281 196.763 326.334 196.72L326.622 197.6ZM331.441 198.16C330.843 198.16 330.289 198.048 329.777 197.824C329.265 197.589 328.822 197.275 328.449 196.88C328.075 196.475 327.782 196.011 327.569 195.488C327.366 194.965 327.265 194.405 327.265 193.808C327.265 193.029 327.441 192.315 327.793 191.664C328.155 191.013 328.651 190.496 329.281 190.112C329.91 189.717 330.625 189.52 331.425 189.52C332.246 189.52 332.961 189.717 333.569 190.112C334.187 190.507 334.673 191.029 335.025 191.68C335.377 192.32 335.553 193.024 335.553 193.792C335.553 193.877 335.553 193.963 335.553 194.048C335.553 194.123 335.547 194.181 335.537 194.224H328.401C328.454 194.821 328.619 195.355 328.897 195.824C329.185 196.283 329.553 196.651 330.001 196.928C330.459 197.195 330.955 197.328 331.489 197.328C332.033 197.328 332.545 197.189 333.025 196.912C333.515 196.635 333.857 196.272 334.049 195.824L334.993 196.08C334.822 196.475 334.561 196.832 334.209 197.152C333.857 197.472 333.441 197.723 332.961 197.904C332.491 198.075 331.985 198.16 331.441 198.16ZM328.369 193.44H334.529C334.486 192.832 334.321 192.299 334.033 191.84C333.755 191.381 333.387 191.024 332.929 190.768C332.481 190.501 331.985 190.368 331.441 190.368C330.897 190.368 330.401 190.501 329.953 190.768C329.505 191.024 329.137 191.387 328.849 191.856C328.571 192.315 328.411 192.843 328.369 193.44ZM340.831 198.16C340.234 198.16 339.679 198.048 339.167 197.824C338.655 197.589 338.213 197.275 337.839 196.88C337.466 196.475 337.173 196.011 336.959 195.488C336.757 194.965 336.655 194.405 336.655 193.808C336.655 193.029 336.831 192.315 337.183 191.664C337.546 191.013 338.042 190.496 338.671 190.112C339.301 189.717 340.015 189.52 340.815 189.52C341.637 189.52 342.351 189.717 342.959 190.112C343.578 190.507 344.063 191.029 344.415 191.68C344.767 192.32 344.943 193.024 344.943 193.792C344.943 193.877 344.943 193.963 344.943 194.048C344.943 194.123 344.938 194.181 344.927 194.224H337.791C337.845 194.821 338.01 195.355 338.287 195.824C338.575 196.283 338.943 196.651 339.391 196.928C339.85 197.195 340.346 197.328 340.879 197.328C341.423 197.328 341.935 197.189 342.415 196.912C342.906 196.635 343.247 196.272 343.439 195.824L344.383 196.08C344.213 196.475 343.951 196.832 343.599 197.152C343.247 197.472 342.831 197.723 342.351 197.904C341.882 198.075 341.375 198.16 340.831 198.16ZM337.759 193.44H343.919C343.877 192.832 343.711 192.299 343.423 191.84C343.146 191.381 342.778 191.024 342.319 190.768C341.871 190.501 341.375 190.368 340.831 190.368C340.287 190.368 339.791 190.501 339.343 190.768C338.895 191.024 338.527 191.387 338.239 191.856C337.962 192.315 337.802 192.843 337.759 193.44Z" fill="white"/>
<rect x="855" y="100.205" width="346.5" height="64.4318" rx="7.15909" fill="#0060B4"/>
<path d="M947.341 140.42V123.38H953.125C954.933 123.38 956.437 123.764 957.637 124.532C958.853 125.284 959.765 126.308 960.373 127.604C960.981 128.884 961.285 130.308 961.285 131.876C961.285 133.604 960.949 135.108 960.277 136.388C959.621 137.668 958.677 138.66 957.445 139.364C956.229 140.068 954.789 140.42 953.125 140.42H947.341ZM959.605 131.876C959.605 130.516 959.349 129.308 958.837 128.252C958.341 127.196 957.613 126.372 956.653 125.78C955.693 125.172 954.517 124.868 953.125 124.868H949.021V138.932H953.125C954.533 138.932 955.717 138.62 956.677 137.996C957.637 137.372 958.365 136.532 958.861 135.476C959.357 134.404 959.605 133.204 959.605 131.876ZM969.489 140.66C968.593 140.66 967.761 140.492 966.993 140.156C966.241 139.804 965.585 139.332 965.025 138.74C964.481 138.132 964.057 137.444 963.753 136.676C963.449 135.892 963.297 135.068 963.297 134.204C963.297 133.308 963.449 132.476 963.753 131.708C964.057 130.924 964.489 130.236 965.049 129.644C965.609 129.036 966.265 128.564 967.017 128.228C967.785 127.876 968.617 127.7 969.513 127.7C970.409 127.7 971.233 127.876 971.985 128.228C972.737 128.564 973.393 129.036 973.953 129.644C974.513 130.236 974.945 130.924 975.249 131.708C975.553 132.476 975.705 133.308 975.705 134.204C975.705 135.068 975.553 135.892 975.249 136.676C974.945 137.444 974.513 138.132 973.953 138.74C973.409 139.332 972.753 139.804 971.985 140.156C971.233 140.492 970.401 140.66 969.489 140.66ZM964.953 134.228C964.953 135.156 965.153 136.004 965.553 136.772C965.969 137.524 966.521 138.124 967.209 138.572C967.897 139.004 968.657 139.22 969.489 139.22C970.321 139.22 971.081 138.996 971.769 138.548C972.457 138.1 973.009 137.492 973.425 136.724C973.841 135.94 974.049 135.092 974.049 134.18C974.049 133.252 973.841 132.404 973.425 131.636C973.009 130.868 972.457 130.26 971.769 129.812C971.081 129.364 970.321 129.14 969.489 129.14C968.657 129.14 967.897 129.372 967.209 129.836C966.537 130.3 965.993 130.916 965.577 131.684C965.161 132.436 964.953 133.284 964.953 134.228ZM993.756 127.916H995.364L989.988 140.42H988.572L985.956 134.204L983.364 140.42H981.948L976.572 127.916H978.156L982.716 138.74L985.02 133.1L982.908 127.94H984.372L985.956 131.996L987.564 127.94H989.004L986.916 133.1L989.22 138.74L993.756 127.916ZM1008.05 140.42H1006.42V133.436C1006.42 131.964 1006.2 130.892 1005.77 130.22C1005.34 129.532 1004.66 129.188 1003.73 129.188C1003.09 129.188 1002.46 129.348 1001.83 129.668C1001.21 129.972 1000.66 130.396 1000.18 130.94C999.712 131.468 999.376 132.076 999.168 132.764V140.42H997.536V127.916H999.024V130.748C999.36 130.14 999.8 129.612 1000.34 129.164C1000.89 128.7 1001.5 128.34 1002.19 128.084C1002.88 127.828 1003.59 127.7 1004.33 127.7C1005.02 127.7 1005.6 127.828 1006.08 128.084C1006.56 128.34 1006.94 128.708 1007.23 129.188C1007.52 129.652 1007.73 130.22 1007.86 130.892C1007.98 131.548 1008.05 132.284 1008.05 133.1V140.42ZM1011.6 122.9H1013.23V137.588C1013.23 138.212 1013.34 138.62 1013.57 138.812C1013.79 139.004 1014.06 139.1 1014.38 139.1C1014.67 139.1 1014.96 139.068 1015.25 139.004C1015.54 138.94 1015.78 138.876 1015.99 138.812L1016.28 140.132C1015.98 140.26 1015.6 140.364 1015.15 140.444C1014.72 140.524 1014.34 140.564 1014.02 140.564C1013.29 140.564 1012.7 140.348 1012.25 139.916C1011.82 139.484 1011.6 138.892 1011.6 138.14V122.9ZM1023.4 140.66C1022.5 140.66 1021.67 140.492 1020.9 140.156C1020.15 139.804 1019.49 139.332 1018.93 138.74C1018.39 138.132 1017.96 137.444 1017.66 136.676C1017.36 135.892 1017.2 135.068 1017.2 134.204C1017.2 133.308 1017.36 132.476 1017.66 131.708C1017.96 130.924 1018.4 130.236 1018.96 129.644C1019.52 129.036 1020.17 128.564 1020.92 128.228C1021.69 127.876 1022.52 127.7 1023.42 127.7C1024.32 127.7 1025.14 127.876 1025.89 128.228C1026.64 128.564 1027.3 129.036 1027.86 129.644C1028.42 130.236 1028.85 130.924 1029.16 131.708C1029.46 132.476 1029.61 133.308 1029.61 134.204C1029.61 135.068 1029.46 135.892 1029.16 136.676C1028.85 137.444 1028.42 138.132 1027.86 138.74C1027.32 139.332 1026.66 139.804 1025.89 140.156C1025.14 140.492 1024.31 140.66 1023.4 140.66ZM1018.86 134.228C1018.86 135.156 1019.06 136.004 1019.46 136.772C1019.88 137.524 1020.43 138.124 1021.12 138.572C1021.8 139.004 1022.56 139.22 1023.4 139.22C1024.23 139.22 1024.99 138.996 1025.68 138.548C1026.36 138.1 1026.92 137.492 1027.33 136.724C1027.75 135.94 1027.96 135.092 1027.96 134.18C1027.96 133.252 1027.75 132.404 1027.33 131.636C1026.92 130.868 1026.36 130.26 1025.68 129.812C1024.99 129.364 1024.23 129.14 1023.4 129.14C1022.56 129.14 1021.8 129.372 1021.12 129.836C1020.44 130.3 1019.9 130.916 1019.48 131.684C1019.07 132.436 1018.86 133.284 1018.86 134.228ZM1031.33 136.82C1031.33 136.036 1031.56 135.364 1032 134.804C1032.45 134.228 1033.07 133.788 1033.85 133.484C1034.65 133.164 1035.57 133.004 1036.61 133.004C1037.22 133.004 1037.85 133.052 1038.51 133.148C1039.16 133.244 1039.75 133.388 1040.26 133.58V132.524C1040.26 131.468 1039.95 130.628 1039.32 130.004C1038.7 129.38 1037.84 129.068 1036.73 129.068C1036.06 129.068 1035.4 129.196 1034.74 129.452C1034.1 129.692 1033.43 130.052 1032.72 130.532L1032.1 129.38C1032.92 128.82 1033.72 128.404 1034.5 128.132C1035.28 127.844 1036.08 127.7 1036.9 127.7C1038.44 127.7 1039.65 128.14 1040.55 129.02C1041.44 129.9 1041.89 131.116 1041.89 132.668V138.452C1041.89 138.676 1041.94 138.844 1042.04 138.956C1042.13 139.052 1042.28 139.108 1042.49 139.124V140.42C1042.32 140.436 1042.16 140.452 1042.04 140.468C1041.91 140.484 1041.81 140.484 1041.75 140.468C1041.35 140.452 1041.04 140.324 1040.84 140.084C1040.63 139.844 1040.52 139.588 1040.5 139.316L1040.48 138.404C1039.92 139.124 1039.19 139.684 1038.29 140.084C1037.4 140.468 1036.48 140.66 1035.56 140.66C1034.76 140.66 1034.03 140.492 1033.37 140.156C1032.73 139.804 1032.23 139.34 1031.86 138.764C1031.51 138.172 1031.33 137.524 1031.33 136.82ZM1039.71 137.78C1039.88 137.556 1040.02 137.34 1040.12 137.132C1040.21 136.924 1040.26 136.74 1040.26 136.58V134.756C1039.72 134.548 1039.15 134.388 1038.56 134.276C1037.98 134.164 1037.4 134.108 1036.8 134.108C1035.64 134.108 1034.69 134.34 1033.97 134.804C1033.25 135.268 1032.89 135.9 1032.89 136.7C1032.89 137.164 1033.01 137.604 1033.25 138.02C1033.49 138.42 1033.84 138.756 1034.31 139.028C1034.77 139.284 1035.32 139.412 1035.94 139.412C1036.72 139.412 1037.45 139.26 1038.12 138.956C1038.81 138.652 1039.34 138.26 1039.71 137.78ZM1044.58 134.204C1044.58 133.02 1044.82 131.94 1045.3 130.964C1045.79 129.972 1046.47 129.18 1047.34 128.588C1048.2 127.996 1049.19 127.7 1050.29 127.7C1051.33 127.7 1052.26 127.98 1053.07 128.54C1053.91 129.084 1054.55 129.748 1055.02 130.532V122.9H1056.65V138.452C1056.65 138.676 1056.7 138.844 1056.79 138.956C1056.89 139.052 1057.03 139.108 1057.23 139.124V140.42C1056.91 140.468 1056.66 140.484 1056.48 140.468C1056.15 140.452 1055.85 140.316 1055.59 140.06C1055.34 139.804 1055.21 139.524 1055.21 139.22V137.996C1054.71 138.812 1054.04 139.46 1053.19 139.94C1052.35 140.42 1051.47 140.66 1050.55 140.66C1049.69 140.66 1048.89 140.484 1048.15 140.132C1047.43 139.78 1046.8 139.3 1046.26 138.692C1045.73 138.084 1045.31 137.396 1045.01 136.628C1044.72 135.844 1044.58 135.036 1044.58 134.204ZM1055.02 136.124V132.26C1054.81 131.684 1054.47 131.164 1054.01 130.7C1053.55 130.22 1053.02 129.844 1052.43 129.572C1051.85 129.284 1051.27 129.14 1050.7 129.14C1050.03 129.14 1049.42 129.284 1048.87 129.572C1048.33 129.844 1047.86 130.22 1047.46 130.7C1047.07 131.18 1046.78 131.724 1046.57 132.332C1046.36 132.94 1046.26 133.564 1046.26 134.204C1046.26 134.876 1046.37 135.516 1046.59 136.124C1046.83 136.732 1047.17 137.276 1047.6 137.756C1048.03 138.22 1048.53 138.58 1049.09 138.836C1049.65 139.092 1050.26 139.22 1050.91 139.22C1051.33 139.22 1051.76 139.14 1052.21 138.98C1052.66 138.82 1053.08 138.604 1053.48 138.332C1053.9 138.044 1054.24 137.708 1054.51 137.324C1054.79 136.94 1054.95 136.54 1055.02 136.124ZM1065.91 123.38L1072.01 138.332L1078.08 123.38H1079.83L1072.77 140.42H1071.24L1064.16 123.38H1065.91ZM1082.27 140.42V123.38H1089.33C1090.06 123.38 1090.73 123.532 1091.34 123.836C1091.97 124.14 1092.5 124.556 1092.95 125.084C1093.4 125.596 1093.75 126.172 1094.01 126.812C1094.26 127.436 1094.39 128.076 1094.39 128.732C1094.39 129.66 1094.18 130.54 1093.77 131.372C1093.37 132.188 1092.8 132.852 1092.06 133.364C1091.33 133.876 1090.46 134.132 1089.47 134.132H1083.95V140.42H1082.27ZM1083.95 132.644H1089.4C1090.07 132.644 1090.65 132.46 1091.15 132.092C1091.65 131.724 1092.03 131.244 1092.3 130.652C1092.57 130.06 1092.71 129.42 1092.71 128.732C1092.71 128.028 1092.55 127.38 1092.23 126.788C1091.91 126.196 1091.49 125.732 1090.96 125.396C1090.45 125.044 1089.88 124.868 1089.25 124.868H1083.95V132.644ZM1098.88 126.476V140.42H1097.2V123.38H1098.59L1109.78 137.588V123.404H1111.46V140.42H1109.9L1098.88 126.476Z" fill="white"/>
<path d="M903.649 132.566C903.634 130.087 904.758 128.218 907.026 126.84C905.757 125.023 903.838 124.023 901.308 123.83C898.912 123.641 896.291 125.226 895.331 125.226C894.317 125.226 891.997 123.896 890.172 123.896C886.406 123.954 882.403 126.899 882.403 132.89C882.403 134.66 882.727 136.489 883.374 138.372C884.239 140.851 887.358 146.926 890.612 146.828C892.313 146.788 893.517 145.621 895.731 145.621C897.879 145.621 898.992 146.828 900.889 146.828C904.172 146.781 906.993 141.259 907.815 138.772C903.413 136.696 903.649 132.693 903.649 132.566V132.566ZM899.828 121.478C901.671 119.289 901.504 117.297 901.449 116.581C899.821 116.676 897.937 117.69 896.865 118.937C895.683 120.275 894.989 121.929 895.138 123.794C896.898 123.928 898.505 123.023 899.828 121.478V121.478Z" fill="white" fill-opacity="0.47"/>
</mask>
<g mask="url(#mask0_210_18506)">
<g style="mix-blend-mode:overlay">
<path fill-rule="evenodd" clip-rule="evenodd" d="M1117.97 -221V-137.136L865.134 5.41905V51.2298L1005.48 133.045L1117.97 68.2075V152.95L1005.48 217.641L791.66 93.5278V-36.879L1117.97 -221ZM1241 -18.1656V225.257L1005.31 362.072L682 169.827L754.577 128.328L1005.16 277.167L1167.84 182.878V24.2133L1126.66 0.31102L1005.16 69.5251L931.564 27.4394L1126.37 -84.5935L1241 -18.1656Z" fill="white" fill-opacity="0.11"/>
</g>
</g>
<defs>
<linearGradient id="paint0_linear_210_18506" x1="1301" y1="0.000194978" x2="-5.11018" y2="163.07" gradientUnits="userSpaceOnUse">
<stop stop-color="#00327C"/>
<stop offset="1" stop-color="#005DB3"/>
</linearGradient>
</defs>
</svg>
