<svg width="26" height="26" viewBox="0 0 26 26" fill="none" xmlns="http://www.w3.org/2000/svg">
<path d="M18.977 13.6018C18.9668 11.8701 19.7514 10.565 21.3357 9.60273C20.4496 8.3332 19.109 7.63496 17.3418 7.50039C15.6686 7.36836 13.8379 8.47539 13.1676 8.47539C12.4592 8.47539 10.8393 7.54609 9.56465 7.54609C6.93418 7.58672 4.13867 9.64336 4.13867 13.8277C4.13867 15.0643 4.36465 16.3414 4.8166 17.6566C5.4209 19.3883 7.59941 23.6311 9.87187 23.5625C11.0602 23.5346 11.9006 22.7195 13.4469 22.7195C14.9475 22.7195 15.7244 23.5625 17.0498 23.5625C19.3426 23.5295 21.3129 19.6727 21.8867 17.9359C18.8119 16.4861 18.977 13.6906 18.977 13.6018ZM16.3084 5.85762C17.5957 4.3291 17.4789 2.9377 17.4408 2.4375C16.3033 2.50352 14.9881 3.21191 14.2391 4.08281C13.4139 5.01719 12.9289 6.17246 13.033 7.475C14.2619 7.56894 15.3842 6.93672 16.3084 5.85762Z" fill="white" fill-opacity="0.47"/>
</svg>
