<svg width="206" height="40" viewBox="0 0 206 40" fill="none" xmlns="http://www.w3.org/2000/svg">
<g clip-path="url(#clip0_202_51857)">
<path d="M29.8827 5.74724V0L7.57092 12.6179V21.5547L22.1914 30.0602L29.8827 25.6269V19.8195L22.1914 24.2628L12.5948 18.656V15.5165L29.8827 5.74724Z" fill="url(#paint0_linear_202_51857)"/>
<path d="M38.3862 30.6419V13.992L30.5144 9.44833L17.1374 17.1113L22.1914 19.99L30.5345 15.2558L33.3623 16.8907V27.7432L22.1914 34.1926L4.98379 24.012L0 26.8505L22.2014 40L38.3862 30.6419Z" fill="url(#paint1_linear_202_51857)"/>
<path d="M86.74 23.661C87.5723 22.6479 87.9935 21.4343 87.9935 20.02C87.9935 17.9538 87.2815 16.3892 85.8476 15.326C84.5941 14.3932 82.9596 13.9218 80.9239 13.9218H69.5926V30.7121H72.3402V25.998H79.9011L84.3133 30.7121H88.3846L83.6014 25.6469C84.925 25.2658 85.9779 24.6038 86.7501 23.6509L86.74 23.661ZM72.3302 23.0993V16.8606H81.3451C83.842 16.8606 85.0955 17.9137 85.0955 20.01C85.0955 21.0431 84.7044 21.8355 83.9122 22.3972C83.2203 22.8686 82.3679 23.1093 81.3451 23.1093H72.3302V23.0993Z" fill="white"/>
<path d="M90.9216 30.7121H104.569V27.7833H93.6793V23.661H101.812V20.7322H93.6793V16.8505H104.569V13.9218H90.9216V30.7121Z" fill="white"/>
<path d="M118.648 14.4132C118.217 14.0522 117.796 13.8716 117.395 13.8716C117.024 13.8716 116.613 14.0622 116.141 14.4333C115.76 14.7643 115.46 15.1254 115.239 15.5165L106.655 30.682H110.195L112.882 25.988H121.707L124.364 30.682L127.904 30.7021L119.531 15.5165C119.3 15.0953 118.999 14.7242 118.628 14.4132H118.648ZM114.557 23.0893L117.335 18.2447L120.082 23.0893H114.557Z" fill="white"/>
<path d="M125.437 16.8505H131.684V30.7121H134.412V16.8505H140.629V13.9218H125.437V16.8505Z" fill="white"/>
<path d="M158.9 26.3892L151.85 13.9318H148.31L157.145 29.338C157.777 30.4313 158.338 30.9829 158.83 30.9829C159.321 30.9829 159.913 30.4313 160.544 29.338L169.559 13.9318H166.019L158.9 26.3892Z" fill="white"/>
<path d="M186.366 15.5266C185.192 14.4634 183.718 13.9318 181.953 13.9318H170.622V30.7121H173.37V25.998H181.953C183.728 25.998 185.202 25.4764 186.366 24.4233C187.629 23.2899 188.261 21.8054 188.261 19.9699C188.261 18.1344 187.629 16.6399 186.366 15.5165V15.5266ZM184.681 22.2367C184.069 22.8084 183.297 23.0993 182.395 23.0993H173.38V16.8606H182.395C183.307 16.8606 184.069 17.1414 184.681 17.6931C185.293 18.2447 185.604 19.007 185.604 19.9498C185.604 20.8927 185.293 21.665 184.681 22.2367Z" fill="white"/>
<path d="M203.252 13.9218V25.5767L193.124 14.7843C192.583 14.2126 192.061 13.9218 191.55 13.9218C191.179 13.9218 190.898 14.0622 190.698 14.353C190.497 14.6439 190.397 14.9749 190.397 15.3761V30.7121H193.124V19.0672L203.252 29.8796C203.884 30.5516 204.456 30.8927 204.967 30.8927C205.659 30.8927 206.01 30.351 206.01 29.2678V13.9218H203.262H203.252Z" fill="white"/>
<path d="M51.5928 16.8804H64.6088L67.0455 13.9416H50.8808C49.2563 13.9416 47.9427 15.2556 47.9427 16.8804V27.7731C47.9427 29.398 49.2563 30.7119 50.8808 30.7119H64.1074C65.7319 30.7119 67.0455 29.398 67.0455 27.7731V20.8323H61.3297L58.9331 23.7711H64.1174V27.061C64.1174 27.4522 63.7966 27.7731 63.4055 27.7731H51.6128C51.2117 27.7731 50.8908 27.4522 50.8908 27.0509V17.5926C50.8908 17.1914 51.2117 16.8704 51.6128 16.8704L51.5928 16.8804Z" fill="white"/>
</g>
<defs>
<linearGradient id="paint0_linear_202_51857" x1="29.8827" y1="2.2201e-05" x2="7.14217" y2="0.427645" gradientUnits="userSpaceOnUse">
<stop stop-color="#006BB8"/>
<stop offset="1" stop-color="#00F0FF"/>
</linearGradient>
<linearGradient id="paint1_linear_202_51857" x1="38.3862" y1="9.44836" x2="-0.711867" y2="10.6929" gradientUnits="userSpaceOnUse">
<stop stop-color="#006BB8"/>
<stop offset="1" stop-color="#00F0FF"/>
</linearGradient>
<clipPath id="clip0_202_51857">
<rect width="206" height="40" fill="white"/>
</clipPath>
</defs>
</svg>
