<svg width="1078" height="1149" viewBox="0 0 1078 1149" fill="none" xmlns="http://www.w3.org/2000/svg">
<g style="mix-blend-mode:multiply">
<path d="M739.158 346.098L739.279 346.017L739.158 345.937V346.098Z" fill="#F4F8FE"/>
<path d="M708.002 346.017L708.706 346.42V345.614L708.002 346.017Z" fill="#F4F8FE"/>
<path d="M753.811 372.631L754.917 373.275V371.986L753.811 372.631Z" fill="#F4F8FE"/>
<path d="M692.203 374.181L694.88 372.631L692.203 371.08V374.181Z" fill="#F4F8FE"/>
<path d="M662.175 319.403L662.477 319.585V319.222L662.175 319.403Z" fill="#F4F8FE"/>
<path d="M738.132 401.096L741.312 399.244L738.132 397.412V401.096Z" fill="#F4F8FE"/>
<path d="M705.688 399.244L709.854 401.66V396.849L705.688 399.244Z" fill="#F4F8FE"/>
<path d="M660.021 372.631L663.543 374.684V370.597L660.021 372.631Z" fill="#F4F8FE"/>
<path d="M646.234 347.346L648.549 346.017L646.234 344.688V347.346Z" fill="#F4F8FE"/>
<path d="M785.167 372.832L785.509 372.631L785.167 372.45V372.832Z" fill="#F4F8FE"/>
<path d="M784.201 427.75L787.462 425.858L784.201 423.986V427.75Z" fill="#F4F8FE"/>
<path d="M751.415 425.858L756.125 428.596V423.14L751.415 425.858Z" fill="#F4F8FE"/>
<path d="M690.693 430.045L697.919 425.858L690.693 421.691V430.045Z" fill="#F4F8FE"/>
<path d="M656.7 425.858L665.214 430.79V420.946L656.7 425.858Z" fill="#F4F8FE"/>
<path d="M644.846 402.989L651.326 399.244L644.846 395.52V402.989Z" fill="#F4F8FE"/>
<path d="M613.71 346.017L617.574 348.251V343.782L613.71 346.017Z" fill="#F4F8FE"/>
<path d="M599.964 321.054L602.842 319.403L599.964 317.753V321.054Z" fill="#F4F8FE"/>
<path d="M615.984 292.79L616.427 293.031V292.528L615.984 292.79Z" fill="#F4F8FE"/>
<path d="M800 399.244L800.966 399.808V398.681L800 399.244Z" fill="#F4F8FE"/>
<path d="M797.867 452.492L802.033 454.907V450.076L797.867 452.492Z" fill="#F4F8FE"/>
<path d="M736.582 457.021L744.431 452.492L736.582 447.942V457.021Z" fill="#F4F8FE"/>
<path d="M702.125 452.492L711.645 457.967V446.996L702.125 452.492Z" fill="#F4F8FE"/>
<path d="M642.913 459.578L655.21 452.492L642.913 445.385V459.578Z" fill="#F4F8FE"/>
<path d="M611.013 399.244L618.922 403.814V394.674L611.013 399.244Z" fill="#F4F8FE"/>
<path d="M598.756 376.395L605.257 372.631L598.756 368.886V376.395Z" fill="#F4F8FE"/>
<path d="M566.977 319.403L571.807 322.182V316.605L566.977 319.403Z" fill="#F4F8FE"/>
<path d="M831.357 399.264L831.378 399.244H831.357V399.264Z" fill="#F4F8FE"/>
<path d="M782.974 483.111L789.917 479.105L782.974 475.099V483.111Z" fill="#F4F8FE"/>
<path d="M748.437 479.105L757.614 484.4V473.79L748.437 479.105Z" fill="#F4F8FE"/>
<path d="M688.842 486.493L701.642 479.105L688.842 471.697V486.493Z" fill="#F4F8FE"/>
<path d="M652.956 479.105L667.085 487.258V470.932L652.956 479.105Z" fill="#F4F8FE"/>
<path d="M607.048 452.492L620.895 460.484V444.479L607.048 452.492Z" fill="#F4F8FE"/>
<path d="M597.025 432.622L608.719 425.858L597.025 419.114V432.622Z" fill="#F4F8FE"/>
<path d="M564.42 372.631L573.074 377.643V367.618L564.42 372.631Z" fill="#F4F8FE"/>
<path d="M552.123 350.728L560.254 346.017L552.123 341.306V350.728Z" fill="#F4F8FE"/>
<path d="M553.411 295.266L557.698 292.79L553.411 290.314V295.266Z" fill="#F4F8FE"/>
<path d="M569.251 266.176L570.66 266.981V265.351L569.251 266.176Z" fill="#F4F8FE"/>
<path d="M846.312 425.858L846.956 426.24V425.495L846.312 425.858Z" fill="#F4F8FE"/>
<path d="M830.532 453.941L833.048 452.491L830.532 451.022V453.941Z" fill="#F4F8FE"/>
<path d="M829.546 508.879L835.02 505.719L829.546 502.558V508.879Z" fill="#F4F8FE"/>
<path d="M795.693 505.719L803.12 510.007V501.431L795.693 505.719Z" fill="#F4F8FE"/>
<path d="M735.133 512.745L747.309 505.719L735.133 498.693V512.745Z" fill="#F4F8FE"/>
<path d="M699.066 505.719L713.175 513.872V497.566L699.066 505.719Z" fill="#F4F8FE"/>
<path d="M641.344 515.543L658.351 505.719L641.344 495.895V515.543Z" fill="#F4F8FE"/>
<path d="M604.17 505.719L622.344 516.227V495.21L604.17 505.719Z" fill="#F4F8FE"/>
<path d="M595.294 488.849L612.18 479.105L595.294 469.362V488.849Z" fill="#F4F8FE"/>
<path d="M561.079 425.858L574.765 433.769V417.966L561.079 425.858Z" fill="#F4F8FE"/>
<path d="M550.714 406.371L563.051 399.244L550.714 392.118V406.371Z" fill="#F4F8FE"/>
<path d="M516.52 346.017L527.911 352.6V339.434L516.52 346.017Z" fill="#F4F8FE"/>
<path d="M505.027 325.845L516.177 319.403L505.027 312.961V325.845Z" fill="#F4F8FE"/>
<path d="M519.176 292.79L526.562 297.058V288.522L519.176 292.79Z" fill="#F4F8FE"/>
<path d="M554.478 240.167L555.524 239.542L554.478 238.939V240.167Z" fill="#F4F8FE"/>
<path d="M844.601 479.105L847.801 480.957V477.253L844.601 479.105Z" fill="#F4F8FE"/>
<path d="M842.869 532.332L848.666 535.674V528.991L842.869 532.332Z" fill="#F4F8FE"/>
<path d="M781.826 538.311L792.191 532.332L781.826 526.353V538.311Z" fill="#F4F8FE"/>
<path d="M746.041 532.332L758.821 539.7V524.964L746.041 532.332Z" fill="#F4F8FE"/>
<path d="M687.554 541.955L704.198 532.332L687.554 522.73V541.955Z" fill="#F4F8FE"/>
<path d="M650.34 532.332L668.393 542.76V521.904L650.34 532.332Z" fill="#F4F8FE"/>
<path d="M594.308 543.807L614.172 532.332L594.308 520.858V543.807Z" fill="#F4F8FE"/>
<path d="M557.96 479.105L576.315 489.694V468.516L557.96 479.105Z" fill="#F4F8FE"/>
<path d="M549.044 462.517L566.413 452.491L549.044 442.446V462.517Z" fill="#F4F8FE"/>
<path d="M513.843 399.244L529.24 408.142V390.366L513.843 399.244Z" fill="#F4F8FE"/>
<path d="M503.759 381.247L518.693 372.631L503.759 364.014V381.247Z" fill="#F4F8FE"/>
<path d="M467.874 319.403L483.09 328.181V310.626L467.874 319.403Z" fill="#F4F8FE"/>
<path d="M506.416 270.202L513.4 266.176L506.416 262.13V270.202Z" fill="#F4F8FE"/>
<path d="M521.752 239.542L525.274 241.576V237.509L521.752 239.542Z" fill="#F4F8FE"/>
<path d="M876.943 480.011L878.513 479.105L876.943 478.199V480.011Z" fill="#F4F8FE"/>
<path d="M828.681 563.616L836.751 558.946L828.681 554.296V563.616Z" fill="#F4F8FE"/>
<path d="M793.781 558.946L804.086 564.905V553.007L793.781 558.946Z" fill="#F4F8FE"/>
<path d="M734.146 567.683L749.261 558.946L734.146 550.229V567.683Z" fill="#F4F8FE"/>
<path d="M697.094 558.946L714.141 568.81V549.102L697.094 558.946Z" fill="#F4F8FE"/>
<path d="M640.498 570.24L660.061 558.946L640.498 547.652V570.24Z" fill="#F4F8FE"/>
<path d="M602.802 558.946L623.029 570.642V547.27L602.802 558.946Z" fill="#F4F8FE"/>
<path d="M556.27 532.332L577.161 544.391V520.274L556.27 532.332Z" fill="#F4F8FE"/>
<path d="M547.997 517.556L568.506 505.719L547.997 493.881V517.556Z" fill="#F4F8FE"/>
<path d="M511.045 452.492L530.628 463.805V441.178L511.045 452.492Z" fill="#F4F8FE"/>
<path d="M502.37 436.91L521.49 425.858L502.37 414.826V436.91Z" fill="#F4F8FE"/>
<path d="M465.459 372.631L484.297 383.501V361.76L465.459 372.631Z" fill="#F4F8FE"/>
<path d="M456.2 357.19L475.542 346.017L456.2 334.864V357.19Z" fill="#F4F8FE"/>
<path d="M457.529 301.648L472.886 292.79L457.529 283.912V301.648Z" fill="#F4F8FE"/>
<path d="M470.893 266.176L481.58 272.336V259.996L470.893 266.176Z" fill="#F4F8FE"/>
<path d="M507.704 214.721L510.804 212.929L507.704 211.157V214.721Z" fill="#F4F8FE"/>
<path d="M523.685 186.315L524.308 186.678V185.953L523.685 186.315Z" fill="#F4F8FE"/>
<path d="M891.516 505.719L893.488 506.846V504.591L891.516 505.719Z" fill="#F4F8FE"/>
<path d="M876.139 534.647L880.124 532.332L876.139 530.017V534.647Z" fill="#F4F8FE"/>
<path d="M875.414 589.103L881.553 585.56L875.414 582.037V589.103Z" fill="#F4F8FE"/>
<path d="M841.279 585.56L849.471 590.291V580.829L841.279 585.56Z" fill="#F4F8FE"/>
<path d="M781.062 592.867L793.721 585.56L781.062 578.272V592.867Z" fill="#F4F8FE"/>
<path d="M744.531 585.56L759.566 594.256V576.883L744.531 585.56Z" fill="#F4F8FE"/>
<path d="M686.97 596.189L705.365 585.56L686.97 574.95V596.189Z" fill="#F4F8FE"/>
<path d="M649.294 585.56L668.917 596.894V574.246L649.294 585.56Z" fill="#F4F8FE"/>
<path d="M593.986 597.598L614.797 585.56L593.986 573.541V597.598Z" fill="#F4F8FE"/>
<path d="M556.067 585.56L577.261 597.799V573.34L556.067 585.56Z" fill="#F4F8FE"/>
<path d="M547.655 571.407L569.211 558.946L547.655 546.505V571.407Z" fill="#F4F8FE"/>
<path d="M509.616 505.719L531.353 518.26V493.177L509.616 505.719Z" fill="#F4F8FE"/>
<path d="M501.485 491.687L523.262 479.105L501.485 466.523V491.687Z" fill="#F4F8FE"/>
<path d="M463.084 425.858L485.485 438.802V412.933L463.084 425.858Z" fill="#F4F8FE"/>
<path d="M455.053 412.39L477.836 399.244L455.053 386.098V412.39Z" fill="#F4F8FE"/>
<path d="M416.391 346.017L439.697 359.485V332.569L416.391 346.017Z" fill="#F4F8FE"/>
<path d="M408.682 333.052L432.31 319.403L408.682 305.754V333.052Z" fill="#F4F8FE"/>
<path d="M418.946 292.79L438.409 304.023V281.536L418.946 292.79Z" fill="#F4F8FE"/>
<path d="M459.239 245.461L469.464 239.542L459.239 233.644V245.461Z" fill="#F4F8FE"/>
<path d="M473.932 212.929L480.05 216.472V209.406L473.932 212.929Z" fill="#F4F8FE"/>
<path d="M508.609 159.943L509.012 159.702L508.609 159.46V159.943Z" fill="#F4F8FE"/>
<path d="M923.295 506.162L924.06 505.719L923.295 505.296V506.162Z" fill="#F4F8FE"/>
<path d="M890.086 558.946L894.212 561.342V556.57L890.086 558.946Z" fill="#F4F8FE"/>
<path d="M888.678 612.193L894.897 615.777V608.59L888.678 612.193Z" fill="#F4F8FE"/>
<path d="M827.936 618.152L838.26 612.193L827.936 606.214V618.152Z" fill="#F4F8FE"/>
<path d="M792.412 612.193L804.77 619.32V605.047L792.412 612.193Z" fill="#F4F8FE"/>
<path d="M733.663 621.776L750.267 612.193L733.663 602.591V621.776Z" fill="#F4F8FE"/>
<path d="M696.248 612.193L714.563 622.762V601.604L696.248 612.193Z" fill="#F4F8FE"/>
<path d="M640.277 623.849L660.464 612.193L640.277 600.537V623.849Z" fill="#F4F8FE"/>
<path d="M602.601 612.193L623.13 624.051V600.316L602.601 612.193Z" fill="#F4F8FE"/>
<path d="M547.856 624.272L568.788 612.193L547.856 600.094V624.272Z" fill="#F4F8FE"/>
<path d="M509.415 558.946L531.453 571.669V546.243L509.415 558.946Z" fill="#F4F8FE"/>
<path d="M501.224 545.357L523.785 532.332L501.224 519.307V545.357Z" fill="#F4F8FE"/>
<path d="M462.138 479.105L485.947 492.855V465.335L462.138 479.105Z" fill="#F4F8FE"/>
<path d="M454.389 466.785L479.164 452.492L454.389 438.178V466.785Z" fill="#F4F8FE"/>
<path d="M414.498 399.244L440.642 414.363V384.146L414.498 399.244Z" fill="#F4F8FE"/>
<path d="M407.695 387.991L434.282 372.631L407.695 357.27V387.991Z" fill="#F4F8FE"/>
<path d="M367.544 319.403L394.976 335.247V303.56L367.544 319.403Z" fill="#F4F8FE"/>
<path d="M410.292 277.007L429.09 266.176L410.292 255.325V277.007Z" fill="#F4F8FE"/>
<path d="M422.589 239.542L436.597 247.635V231.47L422.589 239.542Z" fill="#F4F8FE"/>
<path d="M460.85 189.456L466.264 186.315L460.85 183.175V189.456Z" fill="#F4F8FE"/>
<path d="M476.407 159.702L478.822 161.091V158.313L476.407 159.702Z" fill="#F4F8FE"/>
<path d="M938.088 532.332L939.336 533.057V531.608L938.088 532.332Z" fill="#F4F8FE"/>
<path d="M922.65 560.536L925.388 558.946L922.65 557.376V560.536Z" fill="#F4F8FE"/>
<path d="M874.71 643.598L883.002 638.807L874.71 634.016V643.598Z" fill="#F4F8FE"/>
<path d="M839.83 638.807L850.195 644.786V632.828L839.83 638.807Z" fill="#F4F8FE"/>
<path d="M780.518 647.061L794.807 638.807L780.518 630.553V647.061Z" fill="#F4F8FE"/>
<path d="M743.687 638.807L759.989 648.208V629.406L743.687 638.807Z" fill="#F4F8FE"/>
<path d="M686.89 649.577L705.547 638.807L686.89 628.016V649.577Z" fill="#F4F8FE"/>
<path d="M649.395 638.807L668.857 650.04V627.554L649.395 638.807Z" fill="#F4F8FE"/>
<path d="M594.389 650.101L613.972 638.807L594.389 627.513V650.101Z" fill="#F4F8FE"/>
<path d="M557.255 638.807L576.657 650.02V627.594L557.255 638.807Z" fill="#F4F8FE"/>
<path d="M510.32 612.193L530.99 624.111V600.256L510.32 612.193Z" fill="#F4F8FE"/>
<path d="M501.525 598.061L523.161 585.56L501.525 573.078V598.061Z" fill="#F4F8FE"/>
<path d="M462.379 532.332L485.826 545.881V518.784L462.379 532.332Z" fill="#F4F8FE"/>
<path d="M454.489 519.871L478.983 505.719L454.489 491.566V519.871Z" fill="#F4F8FE"/>
<path d="M413.653 452.492L441.065 468.315V436.648L413.653 452.492Z" fill="#F4F8FE"/>
<path d="M407.052 442.345L435.591 425.858L407.052 409.39V442.345Z" fill="#F4F8FE"/>
<path d="M365.994 372.631L395.741 389.823V355.459L365.994 372.631Z" fill="#F4F8FE"/>
<path d="M360.278 363.692L390.871 346.017L360.278 328.342V363.692Z" fill="#F4F8FE"/>
<path d="M361.364 308.552L388.656 292.79L361.364 277.027V308.552Z" fill="#F4F8FE"/>
<path d="M370.724 266.176L393.386 279.241V253.091L370.724 266.176Z" fill="#F4F8FE"/>
<path d="M412.305 220.297L425.065 212.929L412.305 205.561V220.297Z" fill="#F4F8FE"/>
<path d="M426.413 186.315L434.685 191.106V181.544L426.413 186.315Z" fill="#F4F8FE"/>
<path d="M461.937 134.336L464.09 133.088L461.937 131.84V134.336Z" fill="#F4F8FE"/>
<path d="M969.505 532.574L969.927 532.332L969.505 532.091V532.574Z" fill="#F4F8FE"/>
<path d="M936.88 585.56L939.939 587.331V583.808L936.88 585.56Z" fill="#F4F8FE"/>
<path d="M921.986 614.891L926.676 612.193L921.986 609.476V614.891Z" fill="#F4F8FE"/>
<path d="M921.383 669.165L927.884 665.42L921.383 661.656V669.165Z" fill="#F4F8FE"/>
<path d="M887.39 665.421L895.541 670.131V660.71L887.39 665.421Z" fill="#F4F8FE"/>
<path d="M827.433 672.245L839.267 665.421L827.433 658.596V672.245Z" fill="#F4F8FE"/>
<path d="M791.647 665.421L805.152 673.211V657.63L791.647 665.421Z" fill="#F4F8FE"/>
<path d="M733.684 674.983L750.228 665.421L733.684 655.858V674.983Z" fill="#F4F8FE"/>
<path d="M696.832 665.421L714.282 675.486V655.355L696.832 665.421Z" fill="#F4F8FE"/>
<path d="M641.001 675.849L659.054 665.421L641.001 654.993V675.849Z" fill="#F4F8FE"/>
<path d="M604.392 665.421L622.224 675.728V655.113L604.392 665.421Z" fill="#F4F8FE"/>
<path d="M549.084 675.365L566.312 665.421L549.084 655.476V675.365Z" fill="#F4F8FE"/>
<path d="M513.037 665.421L529.641 675.003V655.838L513.037 665.421Z" fill="#F4F8FE"/>
<path d="M502.512 649.577L521.189 638.807L502.512 628.016V649.577Z" fill="#F4F8FE"/>
<path d="M463.405 585.56L485.323 598.222V572.917L463.405 585.56Z" fill="#F4F8FE"/>
<path d="M454.973 572.253L477.997 558.946L454.973 545.659V572.253Z" fill="#F4F8FE"/>
<path d="M414.619 505.719L440.582 520.717V490.721L414.619 505.719Z" fill="#F4F8FE"/>
<path d="M407.313 495.13L435.068 479.105L407.313 463.081V495.13Z" fill="#F4F8FE"/>
<path d="M365.169 425.858L396.164 443.775V407.961L365.169 425.858Z" fill="#F4F8FE"/>
<path d="M359.734 417.866L391.957 399.244L359.734 380.643V417.866Z" fill="#F4F8FE"/>
<path d="M317.63 346.017L350.798 365.182V326.852L317.63 346.017Z" fill="#F4F8FE"/>
<path d="M313.242 338.709L346.672 319.403L313.242 300.097V338.709Z" fill="#F4F8FE"/>
<path d="M319.28 292.79L349.973 310.525V275.054L319.28 292.79Z" fill="#F4F8FE"/>
<path d="M363.257 252.044L384.893 239.542L363.257 227.061V252.044Z" fill="#F4F8FE"/>
<path d="M374.95 212.929L391.273 222.35V203.507L374.95 212.929Z" fill="#F4F8FE"/>
<path d="M414.116 163.929L421.462 159.702L414.116 155.454V163.929Z" fill="#F4F8FE"/>
<path d="M429.09 133.088L433.336 135.544V130.632L429.09 133.088Z" fill="#F4F8FE"/>
<path d="M984.439 558.946L985.285 559.429V558.463L984.439 558.946Z" fill="#F4F8FE"/>
<path d="M969.002 586.687L970.934 585.56L969.002 584.452V586.687Z" fill="#F4F8FE"/>
<path d="M935.531 638.807L940.603 641.726V635.868L935.531 638.807Z" fill="#F4F8FE"/>
<path d="M934.687 692.034L941.046 695.698V688.37L934.687 692.034Z" fill="#F4F8FE"/>
<path d="M874.348 697.429L883.686 692.034L874.348 686.639V697.429Z" fill="#F4F8FE"/>
<path d="M839.448 692.034L850.377 698.355V685.713L839.448 692.034Z" fill="#F4F8FE"/>
<path d="M780.719 699.926L794.405 692.034L780.719 684.143V699.926Z" fill="#F4F8FE"/>
<path d="M744.692 692.034L759.485 700.57V683.498L744.692 692.034Z" fill="#F4F8FE"/>
<path d="M687.896 701.073L703.535 692.034L687.896 682.995V701.073Z" fill="#F4F8FE"/>
<path d="M651.749 692.034L667.689 701.234V682.834L651.749 692.034Z" fill="#F4F8FE"/>
<path d="M595.878 700.771L611.013 692.034L595.878 683.297V700.771Z" fill="#F4F8FE"/>
<path d="M560.254 692.034L575.168 700.65V683.438L560.254 692.034Z" fill="#F4F8FE"/>
<path d="M504.182 699.926L517.848 692.034L504.182 684.143V699.926Z" fill="#F4F8FE"/>
<path d="M465.861 638.807L484.096 649.336V628.278L465.861 638.807Z" fill="#F4F8FE"/>
<path d="M455.818 624.031L476.327 612.193L455.818 600.336V624.031Z" fill="#F4F8FE"/>
<path d="M416.27 558.946L439.757 572.515V545.377L416.27 558.946Z" fill="#F4F8FE"/>
<path d="M408.158 546.887L433.357 532.332L408.158 517.777V546.887Z" fill="#F4F8FE"/>
<path d="M366.296 479.105L395.6 496.036V462.175L366.296 479.105Z" fill="#F4F8FE"/>
<path d="M360.017 470.59L391.374 452.492L360.017 434.393V470.59Z" fill="#F4F8FE"/>
<path d="M316.905 399.244L351.16 419.033V379.475L316.905 399.244Z" fill="#F4F8FE"/>
<path d="M312.84 392.641L347.477 372.631L312.84 352.64V392.641Z" fill="#F4F8FE"/>
<path d="M270.353 319.404L305.312 339.595V299.212L270.353 319.404Z" fill="#F4F8FE"/>
<path d="M314.57 283.147L343.995 266.176L314.57 249.185V283.147Z" fill="#F4F8FE"/>
<path d="M323.064 239.542L348.082 253.997V225.108L323.064 239.542Z" fill="#F4F8FE"/>
<path d="M365.551 194.831L380.303 186.315L365.551 177.8V194.831Z" fill="#F4F8FE"/>
<path d="M379.016 159.702L389.24 165.6V153.803L379.016 159.702Z" fill="#F4F8FE"/>
<path d="M415.465 108.387L418.766 106.474L415.465 104.542V108.387Z" fill="#F4F8FE"/>
<path d="M431.364 79.8607L432.21 80.3439V79.3575L431.364 79.8607Z" fill="#F4F8FE"/>
<path d="M1015.59 559.188L1016 558.946L1015.59 558.704V559.188Z" fill="#F4F8FE"/>
<path d="M983.473 612.193L985.767 613.522V610.844L983.473 612.193Z" fill="#F4F8FE"/>
<path d="M968.418 640.941L972.101 638.807L968.418 636.673V640.941Z" fill="#F4F8FE"/>
<path d="M921.142 722.815L928.367 718.648L921.142 714.481V722.815Z" fill="#F4F8FE"/>
<path d="M887.229 718.648L895.621 723.499V713.796L887.229 718.648Z" fill="#F4F8FE"/>
<path d="M827.734 724.969L838.663 718.648L827.734 712.327V724.969Z" fill="#F4F8FE"/>
<path d="M792.715 718.648L804.61 725.533V711.783L792.715 718.648Z" fill="#F4F8FE"/>
<path d="M734.73 726.398L748.115 718.648L734.73 710.917V726.398Z" fill="#F4F8FE"/>
<path d="M699.389 718.648L713.014 726.519V710.796L699.389 718.648Z" fill="#F4F8FE"/>
<path d="M642.551 726.398L655.955 718.648L642.551 710.917V726.398Z" fill="#F4F8FE"/>
<path d="M607.652 718.648L620.594 726.137V711.179L607.652 718.648Z" fill="#F4F8FE"/>
<path d="M550.814 725.613L562.87 718.648L550.814 711.682V725.613Z" fill="#F4F8FE"/>
<path d="M516.52 718.648L527.891 725.231V712.085L516.52 718.648Z" fill="#F4F8FE"/>
<path d="M469.102 692.034L482.486 699.765V684.304L469.102 692.034Z" fill="#F4F8FE"/>
<path d="M457.388 674.52L473.167 665.421L457.388 656.321V674.52Z" fill="#F4F8FE"/>
<path d="M418.343 612.193L438.731 623.95V600.416L418.343 612.193Z" fill="#F4F8FE"/>
<path d="M409.145 598.403L431.384 585.56L409.145 572.736V598.403Z" fill="#F4F8FE"/>
<path d="M368.57 532.332L394.473 547.29V517.375L368.57 532.332Z" fill="#F4F8FE"/>
<path d="M361.123 521.925L389.179 505.719L361.123 489.513V521.925Z" fill="#F4F8FE"/>
<path d="M318.133 452.492L350.557 471.194V433.769L318.133 452.492Z" fill="#F4F8FE"/>
<path d="M312.961 445.647L347.216 425.858L312.961 406.089V445.647Z" fill="#F4F8FE"/>
<path d="M269.87 372.631L305.534 393.225V352.036L269.87 372.631Z" fill="#F4F8FE"/>
<path d="M266.308 366.772L302.233 346.017L266.308 325.262V366.772Z" fill="#F4F8FE"/>
<path d="M266.992 312.357L300.885 292.79L266.992 273.222V312.357Z" fill="#F4F8FE"/>
<path d="M272.889 266.176L304.044 284.153V248.179L272.889 266.176Z" fill="#F4F8FE"/>
<path d="M316.825 226.034L339.508 212.929L316.825 199.843V226.034Z" fill="#F4F8FE"/>
<path d="M327.874 186.315L345.686 196.602V176.028L327.874 186.315Z" fill="#F4F8FE"/>
<path d="M367.362 138.483L376.701 133.088L367.362 127.693V138.483Z" fill="#F4F8FE"/>
<path d="M382.155 106.474L387.67 109.635V103.294L382.155 106.474Z" fill="#F4F8FE"/>
<path d="M416.552 53.2472L416.572 53.227H416.552V53.2472Z" fill="#F4F8FE"/>
<path d="M1030.61 585.56L1031.35 586.002V585.137L1030.61 585.56Z" fill="#F4F8FE"/>
<path d="M1015.23 613.039L1016.74 612.193L1015.23 611.328V613.039Z" fill="#F4F8FE"/>
<path d="M982.507 665.421L986.25 667.595V663.246L982.507 665.421Z" fill="#F4F8FE"/>
<path d="M967.996 694.893L972.947 692.034L967.996 689.176V694.893Z" fill="#F4F8FE"/>
<path d="M967.875 748.341L973.208 745.261L967.875 742.181V748.341Z" fill="#F4F8FE"/>
<path d="M934.687 745.261L941.046 748.945V741.597L934.687 745.261Z" fill="#F4F8FE"/>
<path d="M874.669 750.113L883.062 745.261L874.669 740.43V750.113Z" fill="#F4F8FE"/>
<path d="M840.495 745.261L849.854 750.677V739.866L840.495 745.261Z" fill="#F4F8FE"/>
<path d="M781.686 751.482L792.473 745.261L781.686 739.041V751.482Z" fill="#F4F8FE"/>
<path d="M747.108 745.261L758.279 751.724V738.819L747.108 745.261Z" fill="#F4F8FE"/>
<path d="M689.345 751.764L700.616 745.261L689.345 738.779V751.764Z" fill="#F4F8FE"/>
<path d="M655.029 745.261L666.059 751.643V738.9L655.029 745.261Z" fill="#F4F8FE"/>
<path d="M597.488 751.22L607.793 745.261L597.488 739.323V751.22Z" fill="#F4F8FE"/>
<path d="M563.655 745.261L573.457 750.938V739.604L563.655 745.261Z" fill="#F4F8FE"/>
<path d="M505.752 750.435L514.708 745.261L505.752 740.088V750.435Z" fill="#F4F8FE"/>
<path d="M472.02 745.261L481.016 750.455V740.067L472.02 745.261Z" fill="#F4F8FE"/>
<path d="M458.958 725.05L470.048 718.648L458.958 712.246V725.05Z" fill="#F4F8FE"/>
<path d="M421.562 665.42L437.1 674.399V656.442L421.562 665.42Z" fill="#F4F8FE"/>
<path d="M410.614 649.114L428.466 638.807L410.614 628.48V649.114Z" fill="#F4F8FE"/>
<path d="M370.864 585.56L393.305 598.524V572.615L370.864 585.56Z" fill="#F4F8FE"/>
<path d="M362.411 572.897L386.563 558.946L362.411 544.995V572.897Z" fill="#F4F8FE"/>
<path d="M320.77 505.719L349.228 522.166V489.271L320.77 505.719Z" fill="#F4F8FE"/>
<path d="M314.148 496.821L344.841 479.105L314.148 461.39V496.821Z" fill="#F4F8FE"/>
<path d="M270.574 425.858L305.192 445.868V405.867L270.574 425.858Z" fill="#F4F8FE"/>
<path d="M266.368 419.899L302.133 399.244L266.368 378.61V419.899Z" fill="#F4F8FE"/>
<path d="M223.6 346.017L259.545 366.772V325.262L223.6 346.017Z" fill="#F4F8FE"/>
<path d="M220.459 339.736L255.68 319.403L220.459 299.051V339.736Z" fill="#F4F8FE"/>
<path d="M224.767 292.79L258.961 312.518V273.041L224.767 292.79Z" fill="#F4F8FE"/>
<path d="M268.783 256.01L297.282 239.543L268.783 223.095V256.01Z" fill="#F4F8FE"/>
<path d="M277.457 212.929L301.75 226.96V198.918L277.457 212.929Z" fill="#F4F8FE"/>
<path d="M319.22 168.64L334.697 159.702L319.22 150.763V168.64Z" fill="#F4F8FE"/>
<path d="M331.899 133.088L343.673 139.892V126.284L331.899 133.088Z" fill="#F4F8FE"/>
<path d="M369.134 82.176L373.159 79.8609L369.134 77.5257V82.176Z" fill="#F4F8FE"/>
<path d="M384.993 53.2271L386.261 53.9719V52.5024L384.993 53.2271Z" fill="#F4F8FE"/>
<path d="M1077.18 558.946L1077.2 558.966V558.946H1077.18Z" fill="#F4F8FE"/>
<path d="M1061.68 585.801L1062.11 585.56L1061.68 585.338V585.801Z" fill="#F4F8FE"/>
<path d="M1029.86 638.807L1031.72 639.874V637.74L1029.86 638.807Z" fill="#F4F8FE"/>
<path d="M1014.81 667.011L1017.57 665.42L1014.81 663.81V667.011Z" fill="#F4F8FE"/>
<path d="M981.923 718.648L986.552 721.325V715.99L981.923 718.648Z" fill="#F4F8FE"/>
<path d="M981.863 771.875L986.593 774.613V769.157L981.863 771.875Z" fill="#F4F8FE"/>
<path d="M921.443 775.559L927.783 771.875L921.443 768.211V775.559Z" fill="#F4F8FE"/>
<path d="M888.134 771.875L895.178 775.962V767.808L888.134 771.875Z" fill="#F4F8FE"/>
<path d="M828.56 776.767L837.013 771.875L828.56 767.003V776.767Z" fill="#F4F8FE"/>
<path d="M794.687 771.875L803.623 777.029V766.741L794.687 771.875Z" fill="#F4F8FE"/>
<path d="M736.038 777.351L745.497 771.875L736.038 766.419V777.351Z" fill="#F4F8FE"/>
<path d="M702.286 771.875L711.564 777.25V766.52L702.286 771.875Z" fill="#F4F8FE"/>
<path d="M644.041 777.049L652.977 771.875L644.041 766.721V777.049Z" fill="#F4F8FE"/>
<path d="M610.61 771.875L619.124 776.807V766.963L610.61 771.875Z" fill="#F4F8FE"/>
<path d="M552.244 776.364L559.993 771.875L552.244 767.406V776.364Z" fill="#F4F8FE"/>
<path d="M519.257 771.875L526.523 776.082V767.688L519.257 771.875Z" fill="#F4F8FE"/>
<path d="M460.165 776.203L467.632 771.875L460.165 767.567V776.203Z" fill="#F4F8FE"/>
<path d="M424.562 718.648L435.611 725.029V712.266L424.562 718.648Z" fill="#F4F8FE"/>
<path d="M412.144 699.704L425.407 692.034L412.144 684.384V699.704Z" fill="#F4F8FE"/>
<path d="M374.044 638.807L391.735 649.014V628.6L374.044 638.807Z" fill="#F4F8FE"/>
<path d="M363.739 623.829L383.926 612.193L363.739 600.537V623.829Z" fill="#F4F8FE"/>
<path d="M323.869 558.946L347.679 572.716V545.196L323.869 558.946Z" fill="#F4F8FE"/>
<path d="M315.839 547.129L341.46 532.332L315.839 517.536V547.129Z" fill="#F4F8FE"/>
<path d="M273.392 479.105L303.783 496.64V461.551L273.392 479.105Z" fill="#F4F8FE"/>
<path d="M267.435 471.314L300.019 452.492L267.435 433.669V471.314Z" fill="#F4F8FE"/>
<path d="M223.901 399.244L259.384 419.738V378.751L223.901 399.244Z" fill="#F4F8FE"/>
<path d="M220.339 393.185L255.902 372.631L220.339 352.097V393.185Z" fill="#F4F8FE"/>
<path d="M178.616 319.403L212.912 339.213V299.594L178.616 319.403Z" fill="#F4F8FE"/>
<path d="M221.707 284.355L253.185 266.176L221.707 247.998V284.355Z" fill="#F4F8FE"/>
<path d="M228.49 239.542L257.09 256.07V223.035L228.49 239.542Z" fill="#F4F8FE"/>
<path d="M271.48 198.092L291.889 186.315L271.48 174.538V198.092Z" fill="#F4F8FE"/>
<path d="M282.489 159.702L299.234 169.365V150.039L282.489 159.702Z" fill="#F4F8FE"/>
<path d="M321.213 111.95L330.713 106.475L321.213 100.979V111.95Z" fill="#F4F8FE"/>
<path d="M335.965 79.8608L341.64 83.1221V76.5794L335.965 79.8608Z" fill="#F4F8FE"/>
<path d="M370.381 26.7745L370.642 26.6135L370.381 26.4726V26.7745Z" fill="#F4F8FE"/>
<path d="M1076.7 612.193L1077.44 612.616V611.75L1076.7 612.193Z" fill="#F4F8FE"/>
<path d="M1061.4 639.532L1062.67 638.807L1061.4 638.062V639.532Z" fill="#F4F8FE"/>
<path d="M1029.2 692.034L1032.06 693.685V690.383L1029.2 692.034Z" fill="#F4F8FE"/>
<path d="M1014.55 720.701L1018.11 718.648L1014.55 716.594V720.701Z" fill="#F4F8FE"/>
<path d="M968.016 801.307L972.886 798.509L968.016 795.69V801.307Z" fill="#F4F8FE"/>
<path d="M935.311 798.509L940.725 801.629V795.388L935.311 798.509Z" fill="#F4F8FE"/>
<path d="M875.354 802.152L881.673 798.509L875.354 794.845V802.152Z" fill="#F4F8FE"/>
<path d="M842.205 798.509L849.008 802.434V794.583L842.205 798.509Z" fill="#F4F8FE"/>
<path d="M782.812 802.777L790.219 798.509L782.812 794.221V802.777Z" fill="#F4F8FE"/>
<path d="M749.584 798.509L757.051 802.817V794.18L749.584 798.509Z" fill="#F4F8FE"/>
<path d="M690.653 802.756L698.02 798.509L690.653 794.241V802.756Z" fill="#F4F8FE"/>
<path d="M657.626 798.509L664.751 802.615V794.382L657.626 798.509Z" fill="#F4F8FE"/>
<path d="M598.716 802.334L605.358 798.509L598.716 794.664V802.334Z" fill="#F4F8FE"/>
<path d="M566.07 798.509L572.249 802.072V794.925L566.07 798.509Z" fill="#F4F8FE"/>
<path d="M506.839 801.81L512.555 798.509L506.839 795.207V801.81Z" fill="#F4F8FE"/>
<path d="M474.133 798.509L479.949 801.871V795.127L474.133 798.509Z" fill="#F4F8FE"/>
<path d="M426.715 771.875L434.524 776.405V767.366L426.715 771.875Z" fill="#F4F8FE"/>
<path d="M413.472 750.636L422.75 745.261L413.472 739.906V750.636Z" fill="#F4F8FE"/>
<path d="M377.043 692.034L390.226 699.664V684.425L377.043 692.034Z" fill="#F4F8FE"/>
<path d="M365.431 674.137L380.546 665.421L365.431 656.704V674.137Z" fill="#F4F8FE"/>
<path d="M326.768 612.193L346.23 623.427V600.94L326.768 612.193Z" fill="#F4F8FE"/>
<path d="M317.308 597.84L338.541 585.56L317.308 573.3V597.84Z" fill="#F4F8FE"/>
<path d="M277.115 532.332L301.931 546.666V518.019L277.115 532.332Z" fill="#F4F8FE"/>
<path d="M269.206 521.461L296.457 505.719L269.206 489.976V521.461Z" fill="#F4F8FE"/>
<path d="M226.276 452.492L258.197 470.932V434.051L226.276 452.492Z" fill="#F4F8FE"/>
<path d="M220.963 445.345L254.675 425.858L220.963 406.391V445.345Z" fill="#F4F8FE"/>
<path d="M178.476 372.631L212.972 392.561V352.721L178.476 372.631Z" fill="#F4F8FE"/>
<path d="M174.672 365.826L208.967 346.017L174.672 326.208V365.826Z" fill="#F4F8FE"/>
<path d="M175.416 311.311L207.498 292.79L175.416 274.269V311.311Z" fill="#F4F8FE"/>
<path d="M181.112 266.176L211.644 283.791V248.541L181.112 266.176Z" fill="#F4F8FE"/>
<path d="M224.002 227.142L248.617 212.929L224.002 198.716V227.142Z" fill="#F4F8FE"/>
<path d="M233.804 186.315L254.453 198.253V174.398L233.804 186.315Z" fill="#F4F8FE"/>
<path d="M273.714 141.02L287.46 133.088L273.714 125.156V141.02Z" fill="#F4F8FE"/>
<path d="M286.938 106.474L297.021 112.292V100.636L286.938 106.474Z" fill="#F4F8FE"/>
<path d="M323.205 55.2805L326.747 53.2271L323.205 51.1736V55.2805Z" fill="#F4F8FE"/>
<path d="M338.903 26.6134L340.171 27.3584V25.8887L338.903 26.6134Z" fill="#F4F8FE"/>
<path d="M1076.2 665.42L1077.68 666.286V664.555L1076.2 665.42Z" fill="#F4F8FE"/>
<path d="M1061.12 693.242L1063.23 692.034L1061.12 690.826V693.242Z" fill="#F4F8FE"/>
<path d="M1028.88 745.261L1032.2 747.194V743.349L1028.88 745.261Z" fill="#F4F8FE"/>
<path d="M1014.47 774.069L1018.25 771.875L1014.47 769.701V774.069Z" fill="#F4F8FE"/>
<path d="M1014.63 827.035L1017.95 825.122L1014.63 823.21V827.035Z" fill="#F4F8FE"/>
<path d="M982.326 825.122L986.351 827.437V822.807L982.326 825.122Z" fill="#F4F8FE"/>
<path d="M921.986 827.84L926.676 825.122L921.986 822.405V827.84Z" fill="#F4F8FE"/>
<path d="M889.543 825.122L894.474 827.961V822.284L889.543 825.122Z" fill="#F4F8FE"/>
<path d="M829.586 828.223L834.96 825.122L829.586 822.022V828.223Z" fill="#F4F8FE"/>
<path d="M796.921 825.122L802.516 828.343V821.901L796.921 825.122Z" fill="#F4F8FE"/>
<path d="M737.326 828.343L742.921 825.122L737.326 821.901V828.343Z" fill="#F4F8FE"/>
<path d="M704.762 825.122L710.317 828.343V821.901L704.762 825.122Z" fill="#F4F8FE"/>
<path d="M645.248 828.202L650.561 825.122L645.248 822.042V828.202Z" fill="#F4F8FE"/>
<path d="M612.805 825.122L618.017 828.142V822.103L612.805 825.122Z" fill="#F4F8FE"/>
<path d="M553.29 827.8L557.919 825.122L553.29 822.445V827.8Z" fill="#F4F8FE"/>
<path d="M521.169 825.122L525.577 827.659V822.566L521.169 825.122Z" fill="#F4F8FE"/>
<path d="M461.011 827.961L465.922 825.122L461.011 822.284V827.961Z" fill="#F4F8FE"/>
<path d="M428.285 825.122L433.739 828.263V821.962L428.285 825.122Z" fill="#F4F8FE"/>
<path d="M414.257 802.475L421.14 798.509L414.257 794.523V802.475Z" fill="#F4F8FE"/>
<path d="M379.438 745.261L389.039 750.818V739.725L379.438 745.261Z" fill="#F4F8FE"/>
<path d="M366.738 725.11L377.929 718.648L366.738 712.206V725.11Z" fill="#F4F8FE"/>
<path d="M330.027 665.421L344.599 673.835V657.006L330.027 665.421Z" fill="#F4F8FE"/>
<path d="M318.938 648.228L335.261 638.807L318.938 629.386V648.228Z" fill="#F4F8FE"/>
<path d="M280.154 585.56L300.401 597.256V573.883L280.154 585.56Z" fill="#F4F8FE"/>
<path d="M271.037 571.528L292.814 558.946L271.037 546.364V571.528Z" fill="#F4F8FE"/>
<path d="M230.08 505.719L256.305 520.878V490.56L230.08 505.719Z" fill="#F4F8FE"/>
<path d="M222.633 495.673L251.333 479.105L222.633 462.537V495.673Z" fill="#F4F8FE"/>
<path d="M179.744 425.858L212.349 444.701V407.035L179.744 425.858Z" fill="#F4F8FE"/>
<path d="M174.953 418.59L208.423 399.244L174.953 379.918V418.59Z" fill="#F4F8FE"/>
<path d="M133.473 346.017L166.339 365.001V327.033L133.473 346.017Z" fill="#F4F8FE"/>
<path d="M129.508 337.622L161.066 319.403L129.508 301.165V337.622Z" fill="#F4F8FE"/>
<path d="M135.083 292.79L165.534 310.365V275.195L135.083 292.79Z" fill="#F4F8FE"/>
<path d="M177.269 254.862L203.795 239.542L177.269 224.243V254.862Z" fill="#F4F8FE"/>
<path d="M185.741 212.929L209.329 226.558V199.3L185.741 212.929Z" fill="#F4F8FE"/>
<path d="M226.598 169.405L243.403 159.702L226.598 149.998V169.405Z" fill="#F4F8FE"/>
<path d="M238.493 133.088L252.099 140.939V125.237L238.493 133.088Z" fill="#F4F8FE"/>
<path d="M276.049 83.7059L282.751 79.8608L276.049 75.9956V83.7059Z" fill="#F4F8FE"/>
<path d="M290.982 53.2271L294.988 55.5422V50.9321L290.982 53.2271Z" fill="#F4F8FE"/>
<path d="M1075.79 718.648L1077.89 719.856V717.46L1075.79 718.648Z" fill="#F4F8FE"/>
<path d="M1060.98 746.751L1063.54 745.261L1060.98 743.792V746.751Z" fill="#F4F8FE"/>
<path d="M1028.88 798.509L1032.2 800.421V796.576L1028.88 798.509Z" fill="#F4F8FE"/>
<path d="M1029.34 851.736L1031.98 853.246V850.226L1029.34 851.736Z" fill="#F4F8FE"/>
<path d="M968.539 853.648L971.86 851.736L968.539 849.823V853.648Z" fill="#F4F8FE"/>
<path d="M936.559 851.736L940.101 853.769V849.703L936.559 851.736Z" fill="#F4F8FE"/>
<path d="M876.279 853.769L879.822 851.736L876.279 849.703V853.769Z" fill="#F4F8FE"/>
<path d="M844.299 851.736L847.962 853.85V849.622L844.299 851.736Z" fill="#F4F8FE"/>
<path d="M784.04 853.89L787.763 851.736L784.04 849.582V853.89Z" fill="#F4F8FE"/>
<path d="M752.079 851.736L755.782 853.87V849.602L752.079 851.736Z" fill="#F4F8FE"/>
<path d="M691.861 853.87L695.585 851.736L691.861 849.602V853.87Z" fill="#F4F8FE"/>
<path d="M660.062 851.736L663.523 853.749V849.723L660.062 851.736Z" fill="#F4F8FE"/>
<path d="M599.763 853.749L603.245 851.736L599.763 849.723V853.749Z" fill="#F4F8FE"/>
<path d="M568.043 851.736L571.263 853.608V849.864L568.043 851.736Z" fill="#F4F8FE"/>
<path d="M507.664 853.608L510.904 851.736L507.664 849.864V853.608Z" fill="#F4F8FE"/>
<path d="M475.643 851.736L479.205 853.789V849.683L475.643 851.736Z" fill="#F4F8FE"/>
<path d="M414.941 854.534L419.792 851.736L414.941 848.938V854.534Z" fill="#F4F8FE"/>
<path d="M381.028 798.509L388.234 802.676V794.342L381.028 798.509Z" fill="#F4F8FE"/>
<path d="M367.584 776.868L376.238 771.875L367.584 766.903V776.868Z" fill="#F4F8FE"/>
<path d="M332.402 718.648L343.412 725.009V712.306L332.402 718.648Z" fill="#F4F8FE"/>
<path d="M320.267 699.161L332.604 692.034L320.267 684.908V699.161Z" fill="#F4F8FE"/>
<path d="M283.495 638.807L298.731 647.604V629.989L283.495 638.807Z" fill="#F4F8FE"/>
<path d="M272.587 622.058L289.694 612.193L272.587 602.309V622.058Z" fill="#F4F8FE"/>
<path d="M234.024 558.946L254.332 570.683V547.23L234.024 558.946Z" fill="#F4F8FE"/>
<path d="M224.767 545.237L247.087 532.332L224.767 519.448V545.237Z" fill="#F4F8FE"/>
<path d="M183.226 479.105L210.598 494.908V463.302L183.226 479.105Z" fill="#F4F8FE"/>
<path d="M176.222 469.603L205.868 452.492L176.222 435.36V469.603Z" fill="#F4F8FE"/>
<path d="M133.896 399.244L166.118 417.866V380.643L133.896 399.244Z" fill="#F4F8FE"/>
<path d="M129.267 391.272L161.529 372.631L129.267 354.009V391.272Z" fill="#F4F8FE"/>
<path d="M89.3154 319.403L119.284 336.716V302.09L89.3154 319.403Z" fill="#F4F8FE"/>
<path d="M131.118 281.597L157.826 266.176L131.118 250.735V281.597Z" fill="#F4F8FE"/>
<path d="M139.188 239.542L163.481 253.574V225.531L139.188 239.542Z" fill="#F4F8FE"/>
<path d="M179.904 197.085L198.541 186.315L179.904 175.545V197.085Z" fill="#F4F8FE"/>
<path d="M190.773 159.702L206.834 168.982V150.421L190.773 159.702Z" fill="#F4F8FE"/>
<path d="M228.853 112.272L238.896 106.475L228.853 100.657V112.272Z" fill="#F4F8FE"/>
<path d="M243.142 79.8608L249.763 83.6858V76.0158L243.142 79.8608Z" fill="#F4F8FE"/>
<path d="M277.719 27.62L279.43 26.6134L277.719 25.627V27.62Z" fill="#F4F8FE"/>
<path d="M1075.65 771.875L1077.97 773.224V770.566L1075.65 771.875Z" fill="#F4F8FE"/>
<path d="M1060.96 800.019L1063.58 798.509L1060.96 796.979V800.019Z" fill="#F4F8FE"/>
<path d="M1015.01 879.598L1017.18 878.35L1015.01 877.101V879.598Z" fill="#F4F8FE"/>
<path d="M983.412 878.349L985.807 879.739V876.96L983.412 878.349Z" fill="#F4F8FE"/>
<path d="M922.751 879.739L925.166 878.349L922.751 876.96V879.739Z" fill="#F4F8FE"/>
<path d="M891.254 878.35L893.629 879.719V876.981L891.254 878.35Z" fill="#F4F8FE"/>
<path d="M830.652 879.598L832.806 878.35L830.652 877.122V879.598Z" fill="#F4F8FE"/>
<path d="M799.215 878.35L801.368 879.598V877.122L799.215 878.35Z" fill="#F4F8FE"/>
<path d="M738.494 879.578L740.607 878.35L738.494 877.121V879.578Z" fill="#F4F8FE"/>
<path d="M707.057 878.35L709.17 879.578V877.121L707.057 878.35Z" fill="#F4F8FE"/>
<path d="M646.234 879.698L648.569 878.349L646.234 877.021V879.698Z" fill="#F4F8FE"/>
<path d="M614.716 878.349L617.071 879.698V877.001L614.716 878.349Z" fill="#F4F8FE"/>
<path d="M554.055 879.698L556.389 878.349L554.055 877.001V879.698Z" fill="#F4F8FE"/>
<path d="M522.497 878.349L524.912 879.739V876.96L522.497 878.349Z" fill="#F4F8FE"/>
<path d="M461.534 880.282L464.875 878.349L461.534 876.437V880.282Z" fill="#F4F8FE"/>
<path d="M429.231 878.35L433.277 880.685V876.014L429.231 878.35Z" fill="#F4F8FE"/>
<path d="M382.155 851.736L387.67 854.917V848.555L382.155 851.736Z" fill="#F4F8FE"/>
<path d="M368.309 828.867L374.809 825.122L368.309 821.378V828.867Z" fill="#F4F8FE"/>
<path d="M333.872 771.875L342.687 776.968V766.802L333.872 771.875Z" fill="#F4F8FE"/>
<path d="M321.111 750.938L330.913 745.261L321.111 739.604V750.938Z" fill="#F4F8FE"/>
<path d="M285.951 692.034L297.504 698.718V685.371L285.951 692.034Z" fill="#F4F8FE"/>
<path d="M274.137 672.628L286.595 665.421L274.137 658.214V672.628Z" fill="#F4F8FE"/>
<path d="M237.265 612.193L252.722 621.112V603.255L237.265 612.193Z" fill="#F4F8FE"/>
<path d="M226.518 595.424L243.565 585.56L226.518 575.715V595.424Z" fill="#F4F8FE"/>
<path d="M187.794 532.332L208.303 544.17V520.495L187.794 532.332Z" fill="#F4F8FE"/>
<path d="M178.375 519.106L201.581 505.719L178.375 492.331V519.106Z" fill="#F4F8FE"/>
<path d="M136.553 452.491L164.79 468.798V436.165L136.553 452.491Z" fill="#F4F8FE"/>
<path d="M129.991 443.251L160.1 425.858L129.991 408.484V443.251Z" fill="#F4F8FE"/>
<path d="M88.6113 372.631L119.626 390.568V354.714L88.6113 372.631Z" fill="#F4F8FE"/>
<path d="M83.8408 363.491L114.111 346.017L83.8408 328.543V363.491Z" fill="#F4F8FE"/>
<path d="M85.0488 308.19L111.696 292.79L85.0488 277.389V308.19Z" fill="#F4F8FE"/>
<path d="M92.999 266.176L117.433 280.288V252.064L92.999 266.176Z" fill="#F4F8FE"/>
<path d="M133.493 224.223L153.056 212.929L133.493 201.655V224.223Z" fill="#F4F8FE"/>
<path d="M144.301 186.315L160.925 195.918V176.713L144.301 186.315Z" fill="#F4F8FE"/>
<path d="M182.159 139.933L194.034 133.088L182.159 126.223V139.933Z" fill="#F4F8FE"/>
<path d="M195.361 106.474L204.539 111.769V101.16L195.361 106.474Z" fill="#F4F8FE"/>
<path d="M230.945 55.4014L234.709 53.2272L230.945 51.0731V55.4014Z" fill="#F4F8FE"/>
<path d="M246.523 26.6134L248.093 27.5193V25.7075L246.523 26.6134Z" fill="#F4F8FE"/>
<path d="M1075.73 825.122L1077.91 826.37V823.854L1075.73 825.122Z" fill="#F4F8FE"/>
<path d="M1061.14 852.944L1063.21 851.736L1061.14 850.528V852.944Z" fill="#F4F8FE"/>
<path d="M1061.48 905.587L1062.53 904.963L1061.48 904.359V905.587Z" fill="#F4F8FE"/>
<path d="M1030.25 904.963L1031.52 905.708V904.238L1030.25 904.963Z" fill="#F4F8FE"/>
<path d="M969.103 905.909L970.733 904.963L969.103 904.037V905.909Z" fill="#F4F8FE"/>
<path d="M937.927 904.963L939.416 905.829V904.098L937.927 904.963Z" fill="#F4F8FE"/>
<path d="M877.104 905.587L878.171 904.963L877.104 904.359V905.587Z" fill="#F4F8FE"/>
<path d="M846.05 904.963L847.076 905.567V904.379L846.05 904.963Z" fill="#F4F8FE"/>
<path d="M784.945 905.547L785.952 904.963L784.945 904.379V905.547Z" fill="#F4F8FE"/>
<path d="M753.891 904.963L754.897 905.547V904.379L753.891 904.963Z" fill="#F4F8FE"/>
<path d="M692.687 905.668L693.914 904.963L692.687 904.259V905.668Z" fill="#F4F8FE"/>
<path d="M661.409 904.963L662.858 905.809V904.138L661.409 904.963Z" fill="#F4F8FE"/>
<path d="M600.346 905.97L602.077 904.963L600.346 903.957V905.97Z" fill="#F4F8FE"/>
<path d="M568.929 904.963L570.821 906.07V903.876L568.929 904.963Z" fill="#F4F8FE"/>
<path d="M507.966 906.332L510.3 904.963L507.966 903.614V906.332Z" fill="#F4F8FE"/>
<path d="M476.105 904.963L478.963 906.634V903.312L476.105 904.963Z" fill="#F4F8FE"/>
<path d="M415.203 907.339L419.309 904.963L415.203 902.608V907.339Z" fill="#F4F8FE"/>
<path d="M382.639 904.963L387.429 907.741V902.185L382.639 904.963Z" fill="#F4F8FE"/>
<path d="M368.65 881.49L374.105 878.35L368.65 875.209V881.49Z" fill="#F4F8FE"/>
<path d="M334.938 825.122L342.144 829.269V820.975L334.938 825.122Z" fill="#F4F8FE"/>
<path d="M321.695 803.179L329.766 798.509L321.695 793.838V803.179Z" fill="#F4F8FE"/>
<path d="M287.219 745.261L296.859 750.838V739.705L287.219 745.261Z" fill="#F4F8FE"/>
<path d="M275.002 724.345L284.844 718.648L275.002 712.971V724.345Z" fill="#F4F8FE"/>
<path d="M240.264 665.42L251.212 671.742V659.099L240.264 665.42Z" fill="#F4F8FE"/>
<path d="M228.168 645.792L240.264 638.807L228.168 631.801V645.792Z" fill="#F4F8FE"/>
<path d="M191.356 585.56L206.532 594.337V576.802L191.356 585.56Z" fill="#F4F8FE"/>
<path d="M180.568 568.549L197.193 558.946L180.568 549.363V568.549Z" fill="#F4F8FE"/>
<path d="M140.92 505.719L162.616 518.26V493.177L140.92 505.719Z" fill="#F4F8FE"/>
<path d="M131.863 493.257L156.357 479.105L131.863 464.953V493.257Z" fill="#F4F8FE"/>
<path d="M89.8994 425.858L118.982 442.667V409.068L89.8994 425.858Z" fill="#F4F8FE"/>
<path d="M83.8818 416.638L114.011 399.244L83.8818 381.871V416.638Z" fill="#F4F8FE"/>
<path d="M43.5879 346.017L73.0127 363.008V329.026L43.5879 346.017Z" fill="#F4F8FE"/>
<path d="M38.5771 335.448L66.3718 319.403L38.5771 303.359V335.448Z" fill="#F4F8FE"/>
<path d="M46.2852 292.79L71.6646 307.445V278.134L46.2852 292.79Z" fill="#F4F8FE"/>
<path d="M87.3838 250.896L107.027 239.542L87.3838 228.208V250.896Z" fill="#F4F8FE"/>
<path d="M97.9092 212.929L114.976 222.793V203.085L97.9092 212.929Z" fill="#F4F8FE"/>
<path d="M135.908 166.848L148.266 159.702L135.908 152.555V166.848Z" fill="#F4F8FE"/>
<path d="M148.608 133.088L158.772 138.946V127.21L148.608 133.088Z" fill="#F4F8FE"/>
<path d="M184.353 82.8805L189.626 79.8608L184.353 76.8009V82.8805Z" fill="#F4F8FE"/>
<path d="M199.267 53.2271L202.587 55.1598V51.3146L199.267 53.2271Z" fill="#F4F8FE"/>
<path d="M1076.26 878.35L1077.66 879.155V877.544L1076.26 878.35Z" fill="#F4F8FE"/>
<path d="M1077.06 931.597L1077.26 931.698V931.476L1077.06 931.597Z" fill="#F4F8FE"/>
<path d="M1015.47 932.06L1016.28 931.597L1015.47 931.114V932.06Z" fill="#F4F8FE"/>
<path d="M984.439 931.597L985.285 932.06V931.114L984.439 931.597Z" fill="#F4F8FE"/>
<path d="M923.355 931.939L923.959 931.597L923.355 931.234V931.939Z" fill="#F4F8FE"/>
<path d="M892.562 931.597L892.964 931.798V931.355L892.562 931.597Z" fill="#F4F8FE"/>
<path d="M831.317 931.698L831.499 931.597L831.317 931.476V931.698Z" fill="#F4F8FE"/>
<path d="M800.523 931.597L800.705 931.698V931.476L800.523 931.597Z" fill="#F4F8FE"/>
<path d="M739.037 931.838L739.5 931.597L739.037 931.335V931.838Z" fill="#F4F8FE"/>
<path d="M708.043 931.597L708.687 931.959V931.214L708.043 931.597Z" fill="#F4F8FE"/>
<path d="M646.657 932.221L647.744 931.597L646.657 930.953V932.221Z" fill="#F4F8FE"/>
<path d="M615.32 931.597L616.769 932.422V930.751L615.32 931.597Z" fill="#F4F8FE"/>
<path d="M554.196 932.684L556.088 931.597L554.196 930.49V932.684Z" fill="#F4F8FE"/>
<path d="M522.638 931.597L524.832 932.845V930.329L522.638 931.597Z" fill="#F4F8FE"/>
<path d="M461.614 933.368L464.714 931.597L461.614 929.785V933.368Z" fill="#F4F8FE"/>
<path d="M429.392 931.597L433.196 933.791V929.382L429.392 931.597Z" fill="#F4F8FE"/>
<path d="M368.812 934.456L373.763 931.597L368.812 928.718V934.456Z" fill="#F4F8FE"/>
<path d="M335.744 878.35L341.742 881.812V874.887L335.744 878.35Z" fill="#F4F8FE"/>
<path d="M322.139 855.621L328.861 851.736L322.139 847.851V855.621Z" fill="#F4F8FE"/>
<path d="M288.104 798.509L296.437 803.32V793.697L288.104 798.509Z" fill="#F4F8FE"/>
<path d="M275.364 776.968L284.16 771.875L275.364 766.802V776.968Z" fill="#F4F8FE"/>
<path d="M241.794 718.648L250.448 723.64V713.655L241.794 718.648Z" fill="#F4F8FE"/>
<path d="M229.255 697.127L238.09 692.034L229.255 686.941V697.127Z" fill="#F4F8FE"/>
<path d="M194.638 638.807L204.882 644.726V632.888L194.638 638.807Z" fill="#F4F8FE"/>
<path d="M182.239 618.897L193.852 612.193L182.239 605.49V618.897Z" fill="#F4F8FE"/>
<path d="M145.549 558.946L160.302 567.462V550.43L145.549 558.946Z" fill="#F4F8FE"/>
<path d="M134.339 542.197L151.406 532.332L134.339 522.488V542.197Z" fill="#F4F8FE"/>
<path d="M93.7031 479.105L117.09 492.613V465.577L93.7031 479.105Z" fill="#F4F8FE"/>
<path d="M85.2295 467.55L111.333 452.492L85.2295 437.413V467.55Z" fill="#F4F8FE"/>
<path d="M43.5684 399.244L73.0133 416.255V382.253L43.5684 399.244Z" fill="#F4F8FE"/>
<path d="M37.9932 389.682L67.5187 372.631L37.9932 355.579V389.682Z" fill="#F4F8FE"/>
<path d="M-1.19336 319.403L26.2591 335.267V303.54L-1.19336 319.403Z" fill="#F4F8FE"/>
<path d="M40.7305 278.497L62.0645 266.176L40.7305 253.836V278.497Z" fill="#F4F8FE"/>
<path d="M51.2568 239.542L69.1694 249.89V229.195L51.2568 239.542Z" fill="#F4F8FE"/>
<path d="M89.8594 193.361L102.056 186.315L89.8594 179.269V193.361Z" fill="#F4F8FE"/>
<path d="M102.519 159.702L112.682 165.56V153.843L102.519 159.702Z" fill="#F4F8FE"/>
<path d="M137.941 110.058L144.16 106.474L137.941 102.871V110.058Z" fill="#F4F8FE"/>
<path d="M152.653 79.8607L156.739 82.2162V77.4853L152.653 79.8607Z" fill="#F4F8FE"/>
<path d="M185.762 27.2377L186.808 26.6135L185.762 26.0096V27.2377Z" fill="#F4F8FE"/>
<path d="M1031.09 958.21H1031.11V958.19L1031.09 958.21Z" fill="#F4F8FE"/>
<path d="M969.586 958.311L969.767 958.21L969.586 958.09V958.311Z" fill="#F4F8FE"/>
<path d="M692.968 958.452L693.39 958.211L692.968 957.949V958.452Z" fill="#F4F8FE"/>
<path d="M661.853 958.21L662.637 958.653V957.747L661.853 958.21Z" fill="#F4F8FE"/>
<path d="M600.446 959.036L601.895 958.211L600.446 957.365V959.036Z" fill="#F4F8FE"/>
<path d="M569.029 958.21L570.78 959.197V957.204L569.029 958.21Z" fill="#F4F8FE"/>
<path d="M507.945 959.579L510.34 958.21L507.945 956.821V959.579Z" fill="#F4F8FE"/>
<path d="M476.105 958.211L478.963 959.861V956.54L476.105 958.211Z" fill="#F4F8FE"/>
<path d="M415.264 960.445L419.148 958.211L415.264 955.956V960.445Z" fill="#F4F8FE"/>
<path d="M382.94 958.211L387.288 960.707V955.694L382.94 958.211Z" fill="#F4F8FE"/>
<path d="M336.065 931.597L341.58 934.778V928.396L336.065 931.597Z" fill="#F4F8FE"/>
<path d="M322.38 908.426L328.378 904.963L322.38 901.501V908.426Z" fill="#F4F8FE"/>
<path d="M288.869 851.736L296.054 855.883V847.589L288.869 851.736Z" fill="#F4F8FE"/>
<path d="M275.707 829.612L283.476 825.122L275.707 820.633V829.612Z" fill="#F4F8FE"/>
<path d="M242.316 771.875L250.186 776.425V767.345L242.316 771.875Z" fill="#F4F8FE"/>
<path d="M229.678 749.65L237.265 745.261L229.678 740.893V749.65Z" fill="#F4F8FE"/>
<path d="M196.69 692.034L203.855 696.181V687.907L196.69 692.034Z" fill="#F4F8FE"/>
<path d="M183.648 669.668L191.015 665.421L183.648 661.173V669.668Z" fill="#F4F8FE"/>
<path d="M148.99 612.193L158.591 617.729V606.637L148.99 612.193Z" fill="#F4F8FE"/>
<path d="M136.271 592.062L147.521 585.56L136.271 579.077V592.062Z" fill="#F4F8FE"/>
<path d="M98.9355 532.332L114.473 541.311V523.374L98.9355 532.332Z" fill="#F4F8FE"/>
<path d="M87.585 516.69L106.604 505.719L87.585 494.747V516.69Z" fill="#F4F8FE"/>
<path d="M46.2656 452.492L71.6652 467.147V437.816L46.2656 452.492Z" fill="#F4F8FE"/>
<path d="M38.6377 441.802L66.2512 425.858L38.6377 409.934V441.802Z" fill="#F4F8FE"/>
<path d="M-2.46094 372.631L26.9035 389.601V355.68L-2.46094 372.631Z" fill="#F4F8FE"/>
<path d="M-7.95508 362.827L21.1477 346.017L-7.95508 329.207V362.827Z" fill="#F4F8FE"/>
<path d="M-6.3252 306.781L17.907 292.79L-6.3252 278.778V306.781Z" fill="#F4F8FE"/>
<path d="M3.43652 266.176L23.9454 278.013V254.319L3.43652 266.176Z" fill="#F4F8FE"/>
<path d="M43.2861 220.841L56.952 212.929L43.2861 205.037V220.841Z" fill="#F4F8FE"/>
<path d="M56.1074 186.315L66.7543 192.455V180.175L56.1074 186.315Z" fill="#F4F8FE"/>
<path d="M91.7715 136.812L98.2321 133.088L91.7715 129.364V136.812Z" fill="#F4F8FE"/>
<path d="M106.262 106.474L110.81 109.091V103.837L106.262 106.474Z" fill="#F4F8FE"/>
<path d="M139.511 54.0928L141.02 53.2271L139.511 52.3615V54.0928Z" fill="#F4F8FE"/>
<path d="M155.109 26.6134L155.512 26.8551V26.3718L155.109 26.6134Z" fill="#F4F8FE"/>
<path d="M708.364 984.824L708.525 984.905V984.723L708.364 984.824Z" fill="#F4F8FE"/>
<path d="M646.758 985.267L647.543 984.824L646.758 984.361V985.267Z" fill="#F4F8FE"/>
<path d="M615.562 984.824L616.648 985.428V984.2L615.562 984.824Z" fill="#F4F8FE"/>
<path d="M554.257 985.811L555.988 984.824L554.257 983.818V985.811Z" fill="#F4F8FE"/>
<path d="M522.759 984.824L524.771 985.992V983.656L522.759 984.824Z" fill="#F4F8FE"/>
<path d="M461.695 986.475L464.573 984.824L461.695 983.153V986.475Z" fill="#F4F8FE"/>
<path d="M429.653 984.824L433.055 986.797V982.851L429.653 984.824Z" fill="#F4F8FE"/>
<path d="M369.053 987.28L373.32 984.824L369.053 982.348V987.28Z" fill="#F4F8FE"/>
<path d="M336.689 984.824L341.278 987.461V982.187L336.689 984.824Z" fill="#F4F8FE"/>
<path d="M322.621 961.25L327.894 958.21L322.621 955.15V961.25Z" fill="#F4F8FE"/>
<path d="M289.332 904.963L295.813 908.708V901.239L289.332 904.963Z" fill="#F4F8FE"/>
<path d="M275.968 882.376L282.932 878.349L275.968 874.343V882.376Z" fill="#F4F8FE"/>
<path d="M242.699 825.122L249.985 829.33V820.915L242.699 825.122Z" fill="#F4F8FE"/>
<path d="M229.839 802.595L236.923 798.509L229.839 794.422V802.595Z" fill="#F4F8FE"/>
<path d="M197.415 745.261L203.493 748.784V741.758L197.415 745.261Z" fill="#F4F8FE"/>
<path d="M184.252 721.869L189.807 718.648L184.252 715.447V721.869Z" fill="#F4F8FE"/>
<path d="M151.627 665.421L157.262 668.682V662.159L151.627 665.421Z" fill="#F4F8FE"/>
<path d="M137.881 642.491L144.281 638.807L137.881 635.103V642.491Z" fill="#F4F8FE"/>
<path d="M102.981 585.56L112.441 591.035V580.104L102.981 585.56Z" fill="#F4F8FE"/>
<path d="M90.0801 565.609L101.613 558.946L90.0801 552.303V565.609Z" fill="#F4F8FE"/>
<path d="M51.1357 505.719L69.2294 516.167V495.271L51.1357 505.719Z" fill="#F4F8FE"/>
<path d="M40.5693 491.707L62.3864 479.105L40.5693 466.503V491.707Z" fill="#F4F8FE"/>
<path d="M-1.13281 425.858L26.2391 441.681V410.055L-1.13281 425.858Z" fill="#F4F8FE"/>
<path d="M-7.95508 416.074L21.1679 399.244L-7.95508 382.435V416.074Z" fill="#F4F8FE"/>
<path d="M-3.66895 248.944L12.5932 239.542L-3.66895 230.161V248.944Z" fill="#F4F8FE"/>
<path d="M8.62891 212.929L21.3488 220.277V205.601L8.62891 212.929Z" fill="#F4F8FE"/>
<path d="M45.4404 163.849L52.6256 159.702L45.4404 155.555V163.849Z" fill="#F4F8FE"/>
<path d="M59.8506 133.088L64.8822 135.987V130.169L59.8506 133.088Z" fill="#F4F8FE"/>
<path d="M93.4014 80.7667L94.9712 79.8608L93.4014 78.9549V80.7667Z" fill="#F4F8FE"/>
<path d="M108.879 53.2271L109.503 53.5895V52.8849L108.879 53.2271Z" fill="#F4F8FE"/>
<path d="M693.028 1011.56L693.25 1011.44L693.028 1011.32V1011.56Z" fill="#F4F8FE"/>
<path d="M662.094 1011.44L662.516 1011.68V1011.2L662.094 1011.44Z" fill="#F4F8FE"/>
<path d="M600.567 1012.06L601.634 1011.44L600.567 1010.81V1012.06Z" fill="#F4F8FE"/>
<path d="M569.19 1011.44L570.7 1012.3V1010.57L569.19 1011.44Z" fill="#F4F8FE"/>
<path d="M508.006 1012.71L510.2 1011.44L508.006 1010.17V1012.71Z" fill="#F4F8FE"/>
<path d="M476.267 1011.44L478.883 1012.95V1009.93L476.267 1011.44Z" fill="#F4F8FE"/>
<path d="M415.444 1013.37L418.785 1011.44L415.444 1009.51V1013.37Z" fill="#F4F8FE"/>
<path d="M383.322 1011.44L387.086 1013.61V1009.26L383.322 1011.44Z" fill="#F4F8FE"/>
<path d="M322.883 1014.01L327.371 1011.44L322.883 1008.86V1014.01Z" fill="#F4F8FE"/>
<path d="M289.835 958.21L295.571 961.512V954.889L289.835 958.21Z" fill="#F4F8FE"/>
<path d="M276.21 935.18L282.449 931.597L276.21 927.993V935.18Z" fill="#F4F8FE"/>
<path d="M243.082 878.35L249.804 882.235V874.484L243.082 878.35Z" fill="#F4F8FE"/>
<path d="M229.999 855.521L236.58 851.736L229.999 847.951V855.521Z" fill="#F4F8FE"/>
<path d="M197.556 798.509L203.433 801.891V795.107L197.556 798.509Z" fill="#F4F8FE"/>
<path d="M184.353 774.955L189.646 771.875L184.353 768.835V774.955Z" fill="#F4F8FE"/>
<path d="M152.734 718.648L156.699 720.943V716.373L152.734 718.648Z" fill="#F4F8FE"/>
<path d="M138.767 694.208L142.53 692.034L138.767 689.86V694.208Z" fill="#F4F8FE"/>
<path d="M106.161 638.807L110.851 641.505V636.089L106.161 638.807Z" fill="#F4F8FE"/>
<path d="M91.9121 615.676L97.95 612.193L91.9121 608.69V615.676Z" fill="#F4F8FE"/>
<path d="M56.4287 558.946L66.5926 564.804V553.088L56.4287 558.946Z" fill="#F4F8FE"/>
<path d="M43.4473 539.942L56.61 532.332L43.4473 524.723V539.942Z" fill="#F4F8FE"/>
<path d="M2.89258 479.105L24.2266 491.405V466.785L2.89258 479.105Z" fill="#F4F8FE"/>
<path d="M-6.50684 466.785L18.2688 452.492L-6.50684 438.178V466.785Z" fill="#F4F8FE"/>
<path d="M-1.15234 191.348L7.5624 186.315L-1.15234 181.282V191.348Z" fill="#F4F8FE"/>
<path d="M12.9756 159.702L19.1745 163.285V156.118L12.9756 159.702Z" fill="#F4F8FE"/>
<path d="M47.0303 107.843L49.4454 106.474L47.0303 105.085V107.843Z" fill="#F4F8FE"/>
<path d="M62.6484 79.8607L63.4736 80.3439V79.3575L62.6484 79.8607Z" fill="#F4F8FE"/>
<path d="M708.445 1038.05L708.465 1038.07V1038.05H708.445Z" fill="#F4F8FE"/>
<path d="M646.798 1038.41L647.442 1038.05L646.798 1037.69V1038.41Z" fill="#F4F8FE"/>
<path d="M615.723 1038.05L616.568 1038.55V1037.57L615.723 1038.05Z" fill="#F4F8FE"/>
<path d="M554.337 1038.94L555.846 1038.05L554.337 1037.19V1038.94Z" fill="#F4F8FE"/>
<path d="M522.799 1038.05L524.751 1039.18V1036.92L522.799 1038.05Z" fill="#F4F8FE"/>
<path d="M461.775 1039.58L464.412 1038.05L461.775 1036.52V1039.58Z" fill="#F4F8FE"/>
<path d="M429.875 1038.05L432.954 1039.84V1036.28L429.875 1038.05Z" fill="#F4F8FE"/>
<path d="M369.214 1040.23L372.978 1038.05L369.214 1035.88V1040.23Z" fill="#F4F8FE"/>
<path d="M337.052 1038.05L341.097 1040.39V1035.74L337.052 1038.05Z" fill="#F4F8FE"/>
<path d="M290.52 1011.44L295.229 1014.16V1008.72L290.52 1011.44Z" fill="#F4F8FE"/>
<path d="M276.531 987.864L281.804 984.824L276.531 981.784V987.864Z" fill="#F4F8FE"/>
<path d="M243.424 931.597L249.623 935.18V928.013L243.424 931.597Z" fill="#F4F8FE"/>
<path d="M230.12 908.567L236.359 904.963L230.12 901.36V908.567Z" fill="#F4F8FE"/>
<path d="M197.576 851.736L203.433 855.118V848.354L197.576 851.736Z" fill="#F4F8FE"/>
<path d="M184.312 828.243L189.706 825.122L184.312 822.002V828.243Z" fill="#F4F8FE"/>
<path d="M152.693 771.875L156.739 774.23V769.56L152.693 771.875Z" fill="#F4F8FE"/>
<path d="M138.947 747.134L142.188 745.261L138.947 743.389V747.134Z" fill="#F4F8FE"/>
<path d="M107.832 692.034L110.006 693.282V690.786L107.832 692.034Z" fill="#F4F8FE"/>
<path d="M93.0996 666.87L95.5953 665.421L93.0996 663.971V666.87Z" fill="#F4F8FE"/>
<path d="M60.0518 612.193L64.7815 614.911V609.456L60.0518 612.193Z" fill="#F4F8FE"/>
<path d="M45.5811 589.485L52.3637 585.56L45.5811 581.654V589.485Z" fill="#F4F8FE"/>
<path d="M8.83008 532.332L21.2481 539.519V525.166L8.83008 532.332Z" fill="#F4F8FE"/>
<path d="M-3.87012 515.442L12.9757 505.719L-3.87012 495.995V515.442Z" fill="#F4F8FE"/>
<path d="M0.618164 135.061L4.01953 133.088L0.618164 131.115V135.061Z" fill="#F4F8FE"/>
<path d="M15.9551 106.474L17.686 107.461V105.468L15.9551 106.474Z" fill="#F4F8FE"/>
<path d="M693.028 1064.79L693.25 1064.66L693.028 1064.54V1064.79Z" fill="#F4F8FE"/>
<path d="M662.094 1064.66L662.516 1064.91V1064.42L662.094 1064.66Z" fill="#F4F8FE"/>
<path d="M600.567 1065.29L601.634 1064.66L600.567 1064.06V1065.29Z" fill="#F4F8FE"/>
<path d="M569.331 1064.66L570.619 1065.41V1063.92L569.331 1064.66Z" fill="#F4F8FE"/>
<path d="M508.086 1065.79L510.058 1064.66L508.086 1063.54V1065.79Z" fill="#F4F8FE"/>
<path d="M476.407 1064.66L478.822 1066.07V1063.28L476.407 1064.66Z" fill="#F4F8FE"/>
<path d="M415.525 1066.46L418.625 1064.66L415.525 1062.87V1066.46Z" fill="#F4F8FE"/>
<path d="M383.604 1064.66L386.945 1066.6V1062.73L383.604 1064.66Z" fill="#F4F8FE"/>
<path d="M323.084 1066.9L326.968 1064.66L323.084 1062.43V1066.9Z" fill="#F4F8FE"/>
<path d="M290.922 1064.66L295.028 1067.04V1062.31L290.922 1064.66Z" fill="#F4F8FE"/>
<path d="M276.793 1040.65L281.301 1038.05L276.793 1035.45V1040.65Z" fill="#F4F8FE"/>
<path d="M244.048 984.824L249.321 987.864V981.764L244.048 984.824Z" fill="#F4F8FE"/>
<path d="M230.281 961.532L236.037 958.211L230.281 954.889V961.532Z" fill="#F4F8FE"/>
<path d="M197.636 904.963L203.392 908.285V901.641L197.636 904.963Z" fill="#F4F8FE"/>
<path d="M184.272 881.53L189.787 878.35L184.272 875.169V881.53Z" fill="#F4F8FE"/>
<path d="M152.452 825.122L156.84 827.659V822.586L152.452 825.122Z" fill="#F4F8FE"/>
<path d="M138.786 800.643L142.489 798.509L138.786 796.355V800.643Z" fill="#F4F8FE"/>
<path d="M107.953 745.261L109.966 746.449V744.094L107.953 745.261Z" fill="#F4F8FE"/>
<path d="M93.502 719.393L94.7699 718.648L93.502 717.923V719.393Z" fill="#F4F8FE"/>
<path d="M62.3262 665.421L63.6545 666.186V664.656L62.3262 665.421Z" fill="#F4F8FE"/>
<path d="M47.1504 640.015L49.2234 638.807L47.1504 637.599V640.015Z" fill="#F4F8FE"/>
<path d="M13.2373 585.56L19.0539 588.942V582.198L13.2373 585.56Z" fill="#F4F8FE"/>
<path d="M-1.07227 563.818L7.38083 558.946L-1.07227 554.074V563.818Z" fill="#F4F8FE"/>
<path d="M739.178 1091.3L739.218 1091.28H739.178V1091.3Z" fill="#F4F8FE"/>
<path d="M708.324 1091.28L708.546 1091.42V1091.16L708.324 1091.28Z" fill="#F4F8FE"/>
<path d="M646.798 1091.66L647.462 1091.28L646.798 1090.9V1091.66Z" fill="#F4F8FE"/>
<path d="M615.562 1091.28L616.648 1091.9V1090.67L615.562 1091.28Z" fill="#F4F8FE"/>
<path d="M554.337 1092.16L555.846 1091.28L554.337 1090.41V1092.16Z" fill="#F4F8FE"/>
<path d="M522.799 1091.28L524.751 1092.43V1090.15L522.799 1091.28Z" fill="#F4F8FE"/>
<path d="M461.815 1092.73L464.311 1091.28L461.815 1089.85V1092.73Z" fill="#F4F8FE"/>
<path d="M430.016 1091.28L432.874 1092.95V1089.63L430.016 1091.28Z" fill="#F4F8FE"/>
<path d="M369.335 1093.25L372.736 1091.28L369.335 1089.33V1093.25Z" fill="#F4F8FE"/>
<path d="M337.313 1091.28L340.956 1093.39V1089.18L337.313 1091.28Z" fill="#F4F8FE"/>
<path d="M276.914 1093.65L281.02 1091.28L276.914 1088.92V1093.65Z" fill="#F4F8FE"/>
<path d="M244.511 1038.05L249.1 1040.69V1035.41L244.511 1038.05Z" fill="#F4F8FE"/>
<path d="M230.543 1014.3L235.494 1011.44L230.543 1008.58V1014.3Z" fill="#F4F8FE"/>
<path d="M197.797 958.21L203.311 961.391V955.009L197.797 958.21Z" fill="#F4F8FE"/>
<path d="M184.272 934.778L189.787 931.597L184.272 928.396V934.778Z" fill="#F4F8FE"/>
<path d="M152.15 878.349L157.001 881.148V875.571L152.15 878.349Z" fill="#F4F8FE"/>
<path d="M138.565 854.272L142.953 851.736L138.565 849.199V854.272Z" fill="#F4F8FE"/>
<path d="M107.409 798.509L110.227 800.119V796.878L107.409 798.509Z" fill="#F4F8FE"/>
<path d="M93.2803 773.002L95.2124 771.875L93.2803 770.768V773.002Z" fill="#F4F8FE"/>
<path d="M62.9697 718.648L63.3119 718.849V718.447L62.9697 718.648Z" fill="#F4F8FE"/>
<path d="M47.7549 692.175L47.9964 692.034L47.7549 691.893V692.175Z" fill="#F4F8FE"/>
<path d="M16.2568 638.807L17.5449 639.552V638.062L16.2568 638.807Z" fill="#F4F8FE"/>
<path d="M0.779297 613.884L3.69763 612.193L0.779297 610.482V613.884Z" fill="#F4F8FE"/>
<path d="M754.534 1117.89L754.554 1117.91V1117.89H754.534Z" fill="#F4F8FE"/>
<path d="M692.968 1118.15L693.39 1117.89L692.968 1117.65V1118.15Z" fill="#F4F8FE"/>
<path d="M661.953 1117.89L662.597 1118.27V1117.53L661.953 1117.89Z" fill="#F4F8FE"/>
<path d="M600.567 1118.52L601.634 1117.89L600.567 1117.29V1118.52Z" fill="#F4F8FE"/>
<path d="M569.19 1117.89L570.7 1118.78V1117.03L569.19 1117.89Z" fill="#F4F8FE"/>
<path d="M508.026 1119.16L510.18 1117.89L508.026 1116.64V1119.16Z" fill="#F4F8FE"/>
<path d="M476.407 1117.89L478.822 1119.3V1116.5L476.407 1117.89Z" fill="#F4F8FE"/>
<path d="M415.605 1119.56L418.484 1117.89L415.605 1116.24V1119.56Z" fill="#F4F8FE"/>
<path d="M383.726 1117.89L386.885 1119.74V1116.08L383.726 1117.89Z" fill="#F4F8FE"/>
<path d="M323.124 1120.11L326.908 1117.89L323.124 1115.7V1120.11Z" fill="#F4F8FE"/>
<path d="M290.962 1117.89L295.007 1120.23V1115.58L290.962 1117.89Z" fill="#F4F8FE"/>
<path d="M244.712 1091.28L248.979 1093.75V1088.82L244.712 1091.28Z" fill="#F4F8FE"/>
<path d="M230.704 1067.26L235.212 1064.66L230.704 1062.07V1067.26Z" fill="#F4F8FE"/>
<path d="M198.159 1011.44L203.13 1014.32V1008.56L198.159 1011.44Z" fill="#F4F8FE"/>
<path d="M184.373 987.803L189.566 984.824L184.373 981.824V987.803Z" fill="#F4F8FE"/>
<path d="M151.868 931.597L157.141 934.637V928.537L151.868 931.597Z" fill="#F4F8FE"/>
<path d="M138.404 907.761L143.235 904.963L138.404 902.185V907.761Z" fill="#F4F8FE"/>
<path d="M106.825 851.736L110.528 853.87V849.602L106.825 851.736Z" fill="#F4F8FE"/>
<path d="M92.999 826.753L95.8167 825.122L92.999 823.492V826.753Z" fill="#F4F8FE"/>
<path d="M62.4873 771.875L63.554 772.499V771.271L62.4873 771.875Z" fill="#F4F8FE"/>
<path d="M47.7139 745.483L48.0963 745.261L47.7139 745.04V745.483Z" fill="#F4F8FE"/>
<path d="M1.74512 665.421H1.76525L1.74512 665.4V665.421Z" fill="#F4F8FE"/>
<path d="M739.178 1144.55L739.218 1144.53L739.178 1144.49V1144.55Z" fill="#F4F8FE"/>
<path d="M708.304 1144.53L708.545 1144.67V1144.38L708.304 1144.53Z" fill="#F4F8FE"/>
<path d="M646.718 1145.01L647.583 1144.53L646.718 1144.02V1145.01Z" fill="#F4F8FE"/>
<path d="M615.562 1144.53L616.648 1145.15V1143.9L615.562 1144.53Z" fill="#F4F8FE"/>
<path d="M554.257 1145.53L555.988 1144.53L554.257 1143.52V1145.53Z" fill="#F4F8FE"/>
<path d="M522.799 1144.53L524.751 1145.65V1143.38L522.799 1144.53Z" fill="#F4F8FE"/>
<path d="M461.836 1145.91L464.271 1144.53L461.836 1143.12V1145.91Z" fill="#F4F8FE"/>
<path d="M430.016 1144.53L432.874 1146.18V1142.85L430.016 1144.53Z" fill="#F4F8FE"/>
<path d="M369.354 1146.44L372.695 1144.53L369.354 1142.59V1146.44Z" fill="#F4F8FE"/>
<path d="M337.374 1144.53L340.936 1146.58V1142.45L337.374 1144.53Z" fill="#F4F8FE"/>
<path d="M276.935 1146.86L280.98 1144.53L276.935 1142.19V1146.86Z" fill="#F4F8FE"/>
<path d="M244.712 1144.53L248.979 1146.98V1142.05L244.712 1144.53Z" fill="#F4F8FE"/>
<path d="M230.704 1120.51L235.212 1117.89L230.704 1115.3V1120.51Z" fill="#F4F8FE"/>
<path d="M198.32 1064.66L203.05 1067.4V1061.93L198.32 1064.66Z" fill="#F4F8FE"/>
<path d="M184.514 1040.83L189.324 1038.05L184.514 1035.27V1040.83Z" fill="#F4F8FE"/>
<path d="M152.029 984.824L157.061 987.743V981.905L152.029 984.824Z" fill="#F4F8FE"/>
<path d="M138.283 961.19L143.476 958.211L138.283 955.211V961.19Z" fill="#F4F8FE"/>
<path d="M106.282 904.963L110.791 907.58V902.366L106.282 904.963Z" fill="#F4F8FE"/>
<path d="M92.6367 880.584L96.501 878.35L92.6367 876.135V880.584Z" fill="#F4F8FE"/>
<path d="M61.6816 825.122L63.9559 826.451V823.794L61.6816 825.122Z" fill="#F4F8FE"/>
<path d="M47.3721 799.314L48.7809 798.509L47.3721 797.683V799.314Z" fill="#F4F8FE"/>
<path d="M198.32 1117.89L203.05 1120.65V1115.17L198.32 1117.89Z" fill="#F4F8FE"/>
<path d="M184.534 1094.02L189.264 1091.28L184.534 1088.56V1094.02Z" fill="#F4F8FE"/>
<path d="M152.07 1038.05L157.042 1040.93V1035.17L152.07 1038.05Z" fill="#F4F8FE"/>
<path d="M138.344 1014.36L143.375 1011.44L138.344 1008.52V1014.36Z" fill="#F4F8FE"/>
<path d="M105.92 958.21L110.972 961.109V955.291L105.92 958.21Z" fill="#F4F8FE"/>
<path d="M92.3545 934.314L97.0842 931.597L92.3545 928.839V934.314Z" fill="#F4F8FE"/>
<path d="M60.8975 878.35L64.3592 880.343V876.357L60.8975 878.35Z" fill="#F4F8FE"/>
<path d="M46.9297 853.306L49.6468 851.736L46.9297 850.166V853.306Z" fill="#F4F8FE"/>
<path d="M16.2969 798.509L17.5246 799.213V797.804L16.2969 798.509Z" fill="#F4F8FE"/>
<path d="M1.56445 772.197L2.10787 771.875L1.56445 771.573V772.197Z" fill="#F4F8FE"/>
<path d="M184.514 1147.3L189.324 1144.53L184.514 1141.75V1147.3Z" fill="#F4F8FE"/>
<path d="M152.07 1091.28L157.042 1094.16V1088.42L152.07 1091.28Z" fill="#F4F8FE"/>
<path d="M138.363 1067.54L143.335 1064.66L138.363 1061.81V1067.54Z" fill="#F4F8FE"/>
<path d="M105.84 1011.44L111.032 1014.44V1008.44L105.84 1011.44Z" fill="#F4F8FE"/>
<path d="M92.2539 987.743L97.2855 984.824L92.2539 981.905V987.743Z" fill="#F4F8FE"/>
<path d="M60.1924 931.597L64.7007 934.194V928.98L60.1924 931.597Z" fill="#F4F8FE"/>
<path d="M46.5264 907.238L50.451 904.963L46.5264 902.708V907.238Z" fill="#F4F8FE"/>
<path d="M15.3506 851.736L18.0073 853.266V850.206L15.3506 851.736Z" fill="#F4F8FE"/>
<path d="M1.08105 826.27L3.07357 825.122L1.08105 823.975V826.27Z" fill="#F4F8FE"/>
<path d="M152.029 1144.53L157.061 1147.42V1141.61L152.029 1144.53Z" fill="#F4F8FE"/>
<path d="M138.283 1120.89L143.476 1117.89L138.283 1114.91V1120.89Z" fill="#F4F8FE"/>
<path d="M105.819 1064.66L111.032 1067.68V1061.67L105.819 1064.66Z" fill="#F4F8FE"/>
<path d="M92.1934 1041.05L97.4061 1038.05L92.1934 1035.05V1041.05Z" fill="#F4F8FE"/>
<path d="M59.8301 984.824L64.8818 987.743V981.905L59.8301 984.824Z" fill="#F4F8FE"/>
<path d="M46.2246 960.989L51.055 958.21L46.2246 955.412V960.989Z" fill="#F4F8FE"/>
<path d="M14.5459 904.963L18.39 907.198V902.749L14.5459 904.963Z" fill="#F4F8FE"/>
<path d="M0.618164 880.302L3.9994 878.35L0.618164 876.397V880.302Z" fill="#F4F8FE"/>
<path d="M105.658 1117.89L111.112 1121.05V1114.75L105.658 1117.89Z" fill="#F4F8FE"/>
<path d="M92.1133 1094.44L97.5676 1091.28L92.1133 1088.14V1094.44Z" fill="#F4F8FE"/>
<path d="M59.5684 1038.05L65.0226 1041.19V1034.91L59.5684 1038.05Z" fill="#F4F8FE"/>
<path d="M46.084 1014.48L51.3571 1011.44L46.084 1008.38V1014.48Z" fill="#F4F8FE"/>
<path d="M13.8008 958.21L18.772 961.069V955.332L13.8008 958.21Z" fill="#F4F8FE"/>
<path d="M0.236328 934.214L4.76478 931.597L0.236328 928.98V934.214Z" fill="#F4F8FE"/>
<path d="M92.0928 1147.71L97.6074 1144.53L92.0928 1141.32V1147.71Z" fill="#F4F8FE"/>
<path d="M59.4072 1091.28L65.103 1094.58V1088L59.4072 1091.28Z" fill="#F4F8FE"/>
<path d="M45.9434 1067.95L51.619 1064.66L45.9434 1061.38V1067.95Z" fill="#F4F8FE"/>
<path d="M13.4795 1011.44L18.9338 1014.58V1008.3L13.4795 1011.44Z" fill="#F4F8FE"/>
<path d="M-0.0253906 987.884L5.288 984.824L-0.0253906 981.744V987.884Z" fill="#F4F8FE"/>
<path d="M59.4072 1144.53L65.103 1147.81V1141.24L59.4072 1144.53Z" fill="#F4F8FE"/>
<path d="M45.8623 1121.31L51.7795 1117.89L45.8623 1114.49V1121.31Z" fill="#F4F8FE"/>
<path d="M13.1572 1064.66L19.0945 1068.09V1061.24L13.1572 1064.66Z" fill="#F4F8FE"/>
<path d="M-0.146484 1041.33L5.54929 1038.05L-0.146484 1034.77V1041.33Z" fill="#F4F8FE"/>
<path d="M12.9961 1117.89L19.1548 1121.46V1114.35L12.9961 1117.89Z" fill="#F4F8FE"/>
<path d="M-0.307617 1094.84L5.85108 1091.28L-0.307617 1087.74V1094.84Z" fill="#F4F8FE"/>
<path d="M-0.307617 1148.07L5.85108 1144.53L-0.307617 1140.96V1148.07Z" fill="#F4F8FE"/>
</g>
</svg>
