<svg width="1283" height="938" viewBox="0 0 1283 938" fill="none" xmlns="http://www.w3.org/2000/svg">
<g style="mix-blend-mode:overlay" opacity="0.1" clip-path="url(#clip0_203_99999)">
<path d="M107.697 266.077L107.274 266.298L107.697 266.54V266.077Z" fill="white"/>
<path d="M92.6017 239.685L91.9778 239.322V240.047L92.6017 239.685Z" fill="white"/>
<path d="M107.898 212.467L106.851 213.071L107.898 213.675V212.467Z" fill="white"/>
<path d="M61.5264 239.564L61.3252 239.685L61.5264 239.806V239.564Z" fill="white"/>
<path d="M92.8834 186.458L91.8368 185.854V187.061L92.8834 186.458Z" fill="white"/>
<path d="M108.059 158.978L106.549 159.844L108.059 160.71V158.978Z" fill="white"/>
<path d="M46.3109 213.071L45.9889 212.89V213.252L46.3109 213.071Z" fill="white"/>
<path d="M61.6674 186.095L61.0434 186.458L61.6674 186.82V186.095Z" fill="white"/>
<path d="M93.0444 133.23L91.7765 132.485V133.955L93.0444 133.23Z" fill="white"/>
<path d="M108.099 105.65L106.449 106.617L108.099 107.563V105.65Z" fill="white"/>
<path d="M46.3712 159.844L45.9687 159.602V160.065L46.3712 159.844Z" fill="white"/>
<path d="M61.6674 132.868L61.0434 133.23L61.6674 133.573V132.868Z" fill="white"/>
<path d="M93.0444 79.983L91.7765 79.2583V80.7279L93.0444 79.983Z" fill="white"/>
<path d="M108.059 52.5038L106.549 53.3694L108.059 54.235V52.5038Z" fill="white"/>
<path d="M46.2303 106.617L46.0291 106.496V106.717L46.2303 106.617Z" fill="white"/>
<path d="M61.6071 79.7616L61.1844 79.983L61.6071 80.2246V79.7616Z" fill="white"/>
<path d="M92.7426 26.7558L91.9174 26.2726V27.2389L92.7426 26.7558Z" fill="white"/>
<path d="M107.837 -0.340942L106.992 0.14222L107.837 0.625352V-0.340942Z" fill="white"/>
<path d="M61.5065 26.6753L61.3656 26.7558L61.5065 26.8363V26.6753Z" fill="white"/>
<path d="M442.842 532.394L442.721 532.475L442.842 532.555V532.394Z" fill="white"/>
<path d="M473.998 532.475L473.293 532.072V532.877L473.998 532.475Z" fill="white"/>
<path d="M428.19 505.861L427.083 505.217V506.505L428.19 505.861Z" fill="white"/>
<path d="M489.797 504.311L487.12 505.861L489.797 507.411V504.311Z" fill="white"/>
<path d="M519.826 559.088L519.524 558.907V559.269L519.826 559.088Z" fill="white"/>
<path d="M443.868 477.395L440.688 479.247L443.868 481.079V477.395Z" fill="white"/>
<path d="M476.312 479.248L472.146 476.832V481.643L476.312 479.248Z" fill="white"/>
<path d="M521.979 505.861L518.457 503.808V507.894L521.979 505.861Z" fill="white"/>
<path d="M535.766 531.146L533.451 532.475L535.766 533.803V531.146Z" fill="white"/>
<path d="M396.833 505.66L396.491 505.861L396.833 506.042V505.66Z" fill="white"/>
<path d="M397.799 450.742L394.538 452.634L397.799 454.506V450.742Z" fill="white"/>
<path d="M430.585 452.634L425.875 449.896V455.352L430.585 452.634Z" fill="white"/>
<path d="M491.306 448.447L484.081 452.634L491.306 456.801V448.447Z" fill="white"/>
<path d="M525.3 452.634L516.786 447.702V457.546L525.3 452.634Z" fill="white"/>
<path d="M537.154 475.503L530.674 479.247L537.154 482.972V475.503Z" fill="white"/>
<path d="M568.29 532.475L564.426 530.24V534.709L568.29 532.475Z" fill="white"/>
<path d="M582.036 557.438L579.158 559.088L582.036 560.739V557.438Z" fill="white"/>
<path d="M566.016 585.702L565.573 585.46V585.964L566.016 585.702Z" fill="white"/>
<path d="M382 479.247L381.034 478.684V479.811L382 479.247Z" fill="white"/>
<path d="M384.133 426L379.967 423.584V428.416L384.133 426Z" fill="white"/>
<path d="M445.418 421.471L437.569 426L445.418 430.55V421.471Z" fill="white"/>
<path d="M479.875 426L470.355 420.524V431.496L479.875 426Z" fill="white"/>
<path d="M539.087 418.914L526.789 426L539.087 433.106V418.914Z" fill="white"/>
<path d="M570.987 479.247L563.077 474.678V483.817L570.987 479.247Z" fill="white"/>
<path d="M583.244 502.097L576.743 505.861L583.244 509.606V502.097Z" fill="white"/>
<path d="M615.024 559.088L610.193 556.31V561.887L615.024 559.088Z" fill="white"/>
<path d="M350.643 479.227L350.623 479.247H350.643V479.227Z" fill="white"/>
<path d="M399.027 395.38L392.083 399.387L399.027 403.393V395.38Z" fill="white"/>
<path d="M433.564 399.387L424.386 394.092V404.701L433.564 399.387Z" fill="white"/>
<path d="M493.158 391.998L480.358 399.387L493.158 406.795V391.998Z" fill="white"/>
<path d="M529.044 399.387L514.915 391.233V407.56L529.044 399.387Z" fill="white"/>
<path d="M574.952 426L561.105 418.008V434.012L574.952 426Z" fill="white"/>
<path d="M584.975 445.87L573.281 452.634L584.975 459.378V445.87Z" fill="white"/>
<path d="M617.58 505.861L608.925 500.848V510.874L617.58 505.861Z" fill="white"/>
<path d="M629.877 527.764L621.746 532.475L629.877 537.185V527.764Z" fill="white"/>
<path d="M628.589 583.226L624.302 585.702L628.589 588.178V583.226Z" fill="white"/>
<path d="M612.749 612.315L611.341 611.51V613.141L612.749 612.315Z" fill="white"/>
<path d="M335.689 452.634L335.045 452.251V452.996L335.689 452.634Z" fill="white"/>
<path d="M351.468 424.551L348.952 426L351.468 427.47V424.551Z" fill="white"/>
<path d="M352.454 369.612L346.98 372.773L352.454 375.934V369.612Z" fill="white"/>
<path d="M386.307 372.773L378.88 368.485V377.061L386.307 372.773Z" fill="white"/>
<path d="M446.867 365.747L434.691 372.773L446.867 379.799V365.747Z" fill="white"/>
<path d="M482.934 372.773L468.825 364.62V380.926L482.934 372.773Z" fill="white"/>
<path d="M540.656 362.949L523.65 372.773L540.656 382.597V362.949Z" fill="white"/>
<path d="M577.83 372.773L559.656 362.264V383.282L577.83 372.773Z" fill="white"/>
<path d="M586.706 389.643L569.82 399.387L586.706 409.13V389.643Z" fill="white"/>
<path d="M620.921 452.634L607.235 444.722V460.525L620.921 452.634Z" fill="white"/>
<path d="M631.286 472.121L618.948 479.247L631.286 486.374V472.121Z" fill="white"/>
<path d="M665.481 532.475L654.089 525.892V539.058L665.481 532.475Z" fill="white"/>
<path d="M676.973 552.646L665.823 559.088L676.973 565.53V552.646Z" fill="white"/>
<path d="M662.824 585.702L655.438 581.434V589.97L662.824 585.702Z" fill="white"/>
<path d="M627.522 638.325L626.476 638.949L627.522 639.553V638.325Z" fill="white"/>
<path d="M337.4 399.387L334.199 397.534V401.239L337.4 399.387Z" fill="white"/>
<path d="M339.13 346.159L333.334 342.818V349.501L339.13 346.159Z" fill="white"/>
<path d="M400.174 340.18L389.809 346.159L400.174 352.138V340.18Z" fill="white"/>
<path d="M435.959 346.159L423.178 338.791V353.527L435.959 346.159Z" fill="white"/>
<path d="M494.446 336.537L477.802 346.159L494.446 355.762V336.537Z" fill="white"/>
<path d="M531.66 346.159L513.607 335.731V356.587L531.66 346.159Z" fill="white"/>
<path d="M587.692 334.684L567.827 346.159L587.692 357.634V334.684Z" fill="white"/>
<path d="M624.04 399.387L605.685 388.797V409.976L624.04 399.387Z" fill="white"/>
<path d="M632.956 415.975L615.587 426L632.956 436.046V415.975Z" fill="white"/>
<path d="M668.157 479.247L652.761 470.349V488.125L668.157 479.247Z" fill="white"/>
<path d="M678.241 497.245L663.307 505.861L678.241 514.477V497.245Z" fill="white"/>
<path d="M714.126 559.088L698.911 550.311V567.866L714.126 559.088Z" fill="white"/>
<path d="M675.584 608.289L668.6 612.316L675.584 616.362V608.289Z" fill="white"/>
<path d="M660.248 638.949L656.726 636.916V640.982L660.248 638.949Z" fill="white"/>
<path d="M305.056 398.481L303.487 399.387L305.056 400.292V398.481Z" fill="white"/>
<path d="M353.32 314.875L345.249 319.546L353.32 324.196V314.875Z" fill="white"/>
<path d="M388.219 319.546L377.914 313.587V325.484L388.219 319.546Z" fill="white"/>
<path d="M447.853 310.809L432.738 319.546L447.853 328.263V310.809Z" fill="white"/>
<path d="M484.906 319.546L467.859 309.681V329.39L484.906 319.546Z" fill="white"/>
<path d="M541.502 308.252L521.939 319.546L541.502 330.839V308.252Z" fill="white"/>
<path d="M579.199 319.546L558.972 307.849V331.222L579.199 319.546Z" fill="white"/>
<path d="M625.731 346.159L604.84 334.101V358.218L625.731 346.159Z" fill="white"/>
<path d="M634.003 360.936L613.494 372.773L634.003 384.61V360.936Z" fill="white"/>
<path d="M670.955 426L651.372 414.686V437.314L670.955 426Z" fill="white"/>
<path d="M679.629 441.582L660.509 452.634L679.629 463.666V441.582Z" fill="white"/>
<path d="M716.541 505.861L697.703 494.99V516.732L716.541 505.861Z" fill="white"/>
<path d="M725.8 521.302L706.458 532.475L725.8 543.628V521.302Z" fill="white"/>
<path d="M724.471 576.844L709.115 585.702L724.471 594.58V576.844Z" fill="white"/>
<path d="M711.107 612.315L700.42 606.155V618.496L711.107 612.315Z" fill="white"/>
<path d="M674.296 663.771L671.197 665.563L674.296 667.334V663.771Z" fill="white"/>
<path d="M658.316 692.176L657.692 691.814V692.539L658.316 692.176Z" fill="white"/>
<path d="M290.485 372.773L288.512 371.646V373.9L290.485 372.773Z" fill="white"/>
<path d="M305.861 343.844L301.876 346.159L305.861 348.474V343.844Z" fill="white"/>
<path d="M306.586 289.389L300.447 292.932L306.586 296.455V289.389Z" fill="white"/>
<path d="M340.72 292.932L332.529 288.201V297.663L340.72 292.932Z" fill="white"/>
<path d="M400.939 285.624L388.279 292.932L400.939 300.22V285.624Z" fill="white"/>
<path d="M437.468 292.932L422.434 284.235V301.609L437.468 292.932Z" fill="white"/>
<path d="M495.03 282.303L476.634 292.932L495.03 303.541V282.303Z" fill="white"/>
<path d="M532.706 292.932L513.083 281.598V304.246L532.706 292.932Z" fill="white"/>
<path d="M588.014 280.894L567.203 292.932L588.014 304.951V280.894Z" fill="white"/>
<path d="M625.932 292.932L604.739 280.692V305.152L625.932 292.932Z" fill="white"/>
<path d="M634.345 307.084L612.79 319.546L634.345 331.987V307.084Z" fill="white"/>
<path d="M672.384 372.773L650.647 360.231V385.315L672.384 372.773Z" fill="white"/>
<path d="M680.515 386.804L658.738 399.387L680.515 411.969V386.804Z" fill="white"/>
<path d="M718.916 452.634L696.516 439.689V465.558L718.916 452.634Z" fill="white"/>
<path d="M726.947 466.102L704.164 479.247L726.947 492.393V466.102Z" fill="white"/>
<path d="M765.61 532.475L742.303 519.007V545.922L765.61 532.475Z" fill="white"/>
<path d="M773.318 545.439L749.69 559.088L773.318 572.737V545.439Z" fill="white"/>
<path d="M763.054 585.702L743.591 574.469V596.955L763.054 585.702Z" fill="white"/>
<path d="M722.76 633.031L712.536 638.949L722.76 644.848V633.031Z" fill="white"/>
<path d="M708.068 665.563L701.95 662.02V669.086L708.068 665.563Z" fill="white"/>
<path d="M673.39 718.548L672.988 718.79L673.39 719.032V718.548Z" fill="white"/>
<path d="M258.705 372.33L257.94 372.773L258.705 373.196V372.33Z" fill="white"/>
<path d="M291.914 319.546L287.788 317.15V321.921L291.914 319.546Z" fill="white"/>
<path d="M293.323 266.298L287.104 262.715V269.902L293.323 266.298Z" fill="white"/>
<path d="M354.064 260.34L343.739 266.298L354.064 272.277V260.34Z" fill="white"/>
<path d="M389.587 266.298L377.23 259.172V273.445L389.587 266.298Z" fill="white"/>
<path d="M448.336 256.716L431.732 266.298L448.336 275.901V256.716Z" fill="white"/>
<path d="M485.752 266.298L467.436 255.729V276.887L485.752 266.298Z" fill="white"/>
<path d="M541.723 254.642L521.536 266.298L541.723 277.954V254.642Z" fill="white"/>
<path d="M579.4 266.298L558.871 254.441V278.176L579.4 266.298Z" fill="white"/>
<path d="M634.144 254.22L613.212 266.298L634.144 278.397V254.22Z" fill="white"/>
<path d="M672.585 319.546L650.547 306.823V332.249L672.585 319.546Z" fill="white"/>
<path d="M680.777 333.134L658.215 346.159L680.777 359.184V333.134Z" fill="white"/>
<path d="M719.862 399.387L696.053 385.637V413.156L719.862 399.387Z" fill="white"/>
<path d="M727.611 411.707L702.835 426L727.611 440.313V411.707Z" fill="white"/>
<path d="M767.502 479.247L741.357 464.129V494.346L767.502 479.247Z" fill="white"/>
<path d="M774.304 490.501L747.717 505.861L774.304 521.221V490.501Z" fill="white"/>
<path d="M814.457 559.088L787.024 543.245V574.932L814.457 559.088Z" fill="white"/>
<path d="M771.708 601.485L752.91 612.316L771.708 623.166V601.485Z" fill="white"/>
<path d="M759.411 638.949L745.403 630.856V647.022L759.411 638.949Z" fill="white"/>
<path d="M721.15 689.036L715.736 692.176L721.15 695.317V689.036Z" fill="white"/>
<path d="M705.593 718.79L703.177 717.401V720.179L705.593 718.79Z" fill="white"/>
<path d="M243.912 346.159L242.664 345.435V346.884L243.912 346.159Z" fill="white"/>
<path d="M259.349 317.955L256.612 319.546L259.349 321.116V317.955Z" fill="white"/>
<path d="M307.29 234.894L298.998 239.685L307.29 244.476V234.894Z" fill="white"/>
<path d="M342.17 239.685L331.804 233.706V245.664L342.17 239.685Z" fill="white"/>
<path d="M401.482 231.431L387.192 239.685L401.482 247.939V231.431Z" fill="white"/>
<path d="M438.314 239.685L422.011 230.283V249.086L438.314 239.685Z" fill="white"/>
<path d="M495.11 228.915L476.453 239.685L495.11 250.475V228.915Z" fill="white"/>
<path d="M532.606 239.685L513.144 228.452V250.938L532.606 239.685Z" fill="white"/>
<path d="M587.611 228.391L568.028 239.685L587.611 250.978V228.391Z" fill="white"/>
<path d="M624.745 239.685L605.343 228.472V250.898L624.745 239.685Z" fill="white"/>
<path d="M671.68 266.298L651.01 254.381V278.236L671.68 266.298Z" fill="white"/>
<path d="M680.475 280.431L658.839 292.932L680.475 305.413V280.431Z" fill="white"/>
<path d="M719.621 346.159L696.173 332.611V359.708L719.621 346.159Z" fill="white"/>
<path d="M727.51 358.621L703.016 372.773L727.51 386.925V358.621Z" fill="white"/>
<path d="M768.347 426L740.935 410.177V441.843L768.347 426Z" fill="white"/>
<path d="M774.948 436.146L746.409 452.634L774.948 469.101V436.146Z" fill="white"/>
<path d="M816.006 505.861L786.259 488.669V523.033L816.006 505.861Z" fill="white"/>
<path d="M821.722 514.799L791.13 532.475L821.722 550.15V514.799Z" fill="white"/>
<path d="M820.635 569.939L793.344 585.702L820.635 601.465V569.939Z" fill="white"/>
<path d="M811.277 612.316L788.614 599.25V625.401L811.277 612.316Z" fill="white"/>
<path d="M769.695 658.195L756.935 665.563L769.695 672.931V658.195Z" fill="white"/>
<path d="M755.587 692.176L747.315 687.385V696.948L755.587 692.176Z" fill="white"/>
<path d="M720.064 744.156L717.91 745.404L720.064 746.652V744.156Z" fill="white"/>
<path d="M212.495 345.918L212.072 346.159L212.495 346.401V345.918Z" fill="white"/>
<path d="M245.12 292.932L242.061 291.161V294.684L245.12 292.932Z" fill="white"/>
<path d="M260.013 263.601L255.324 266.298L260.013 269.016V263.601Z" fill="white"/>
<path d="M260.617 209.327L254.116 213.071L260.617 216.836V209.327Z" fill="white"/>
<path d="M294.611 213.071L286.459 208.36V217.782L294.611 213.071Z" fill="white"/>
<path d="M354.567 206.247L342.733 213.071L354.567 219.896V206.247Z" fill="white"/>
<path d="M390.352 213.071L376.847 205.28V220.862L390.352 213.071Z" fill="white"/>
<path d="M448.316 203.509L431.772 213.071L448.316 222.634V203.509Z" fill="white"/>
<path d="M485.168 213.071L467.718 203.006V223.137L485.168 213.071Z" fill="white"/>
<path d="M540.999 202.643L522.945 213.071L540.999 223.499V202.643Z" fill="white"/>
<path d="M577.609 213.071L559.777 202.764V223.378L577.609 213.071Z" fill="white"/>
<path d="M632.916 203.126L615.688 213.071L632.916 223.016V203.126Z" fill="white"/>
<path d="M668.963 213.071L652.358 203.489V222.654L668.963 213.071Z" fill="white"/>
<path d="M679.489 228.915L660.811 239.685L679.489 250.475V228.915Z" fill="white"/>
<path d="M718.594 292.932L696.677 280.269V305.575L718.594 292.932Z" fill="white"/>
<path d="M727.027 306.239L704.003 319.546L727.027 332.832V306.239Z" fill="white"/>
<path d="M767.381 372.773L741.418 357.775V387.771L767.381 372.773Z" fill="white"/>
<path d="M774.687 383.362L746.932 399.387L774.687 415.411V383.362Z" fill="white"/>
<path d="M816.831 452.634L785.837 434.717V470.531L816.831 452.634Z" fill="white"/>
<path d="M822.266 460.626L790.043 479.247L822.266 497.849V460.626Z" fill="white"/>
<path d="M864.37 532.475L831.202 513.31V551.64L864.37 532.475Z" fill="white"/>
<path d="M868.758 539.782L835.328 559.088L868.758 578.394V539.782Z" fill="white"/>
<path d="M862.72 585.702L832.027 567.966V603.438L862.72 585.702Z" fill="white"/>
<path d="M818.743 626.448L797.108 638.949L818.743 651.431V626.448Z" fill="white"/>
<path d="M807.05 665.563L790.727 656.141V674.984L807.05 665.563Z" fill="white"/>
<path d="M767.884 714.562L760.538 718.79L767.884 723.038V714.562Z" fill="white"/>
<path d="M752.91 745.404L748.663 742.948V747.86L752.91 745.404Z" fill="white"/>
<path d="M197.561 319.546L196.716 319.063V320.029L197.561 319.546Z" fill="white"/>
<path d="M212.998 291.805L211.066 292.932L212.998 294.039V291.805Z" fill="white"/>
<path d="M246.468 239.685L241.396 236.766V242.624L246.468 239.685Z" fill="white"/>
<path d="M247.314 186.458L240.954 182.794V190.121L247.314 186.458Z" fill="white"/>
<path d="M307.653 181.062L298.314 186.458L307.653 191.853V181.062Z" fill="white"/>
<path d="M342.552 186.458L331.623 180.136V192.779L342.552 186.458Z" fill="white"/>
<path d="M401.281 178.566L387.595 186.458L401.281 194.349V178.566Z" fill="white"/>
<path d="M437.307 186.458L422.514 177.922V194.993L437.307 186.458Z" fill="white"/>
<path d="M494.104 177.419L478.466 186.458L494.104 195.497V177.419Z" fill="white"/>
<path d="M530.251 186.458L514.311 177.258V195.658L530.251 186.458Z" fill="white"/>
<path d="M586.122 177.721L570.987 186.458L586.122 195.195V177.721Z" fill="white"/>
<path d="M621.746 186.458L606.832 177.841V195.054L621.746 186.458Z" fill="white"/>
<path d="M677.818 178.566L664.152 186.458L677.818 194.349V178.566Z" fill="white"/>
<path d="M716.139 239.685L697.904 229.156V250.213L716.139 239.685Z" fill="white"/>
<path d="M726.182 254.461L705.673 266.298L726.182 278.156V254.461Z" fill="white"/>
<path d="M765.73 319.546L742.243 305.977V333.114L765.73 319.546Z" fill="white"/>
<path d="M773.841 331.604L748.643 346.159L773.841 360.714V331.604Z" fill="white"/>
<path d="M815.704 399.387L786.4 382.456V416.317L815.704 399.387Z" fill="white"/>
<path d="M821.984 407.902L790.627 426L821.984 444.098V407.902Z" fill="white"/>
<path d="M865.095 479.247L830.839 459.458V499.016L865.095 479.247Z" fill="white"/>
<path d="M869.16 485.851L834.523 505.861L869.16 525.851V485.851Z" fill="white"/>
<path d="M911.647 559.088L876.687 538.897V579.28L911.647 559.088Z" fill="white"/>
<path d="M867.429 595.345L838.004 612.315L867.429 629.306V595.345Z" fill="white"/>
<path d="M858.936 638.949L833.919 624.495V653.383L858.936 638.949Z" fill="white"/>
<path d="M816.449 683.661L801.696 692.176L816.449 700.692V683.661Z" fill="white"/>
<path d="M802.984 718.79L792.76 712.892V724.689L802.984 718.79Z" fill="white"/>
<path d="M766.536 770.105L763.235 772.017L766.536 773.95V770.105Z" fill="white"/>
<path d="M750.636 798.631L749.79 798.148V799.134L750.636 798.631Z" fill="white"/>
<path d="M166.405 319.304L166.003 319.546L166.405 319.787V319.304Z" fill="white"/>
<path d="M198.527 266.298L196.233 264.97V267.647L198.527 266.298Z" fill="white"/>
<path d="M213.582 237.551L209.899 239.685L213.582 241.819V237.551Z" fill="white"/>
<path d="M260.859 155.677L253.633 159.844L260.859 164.011V155.677Z" fill="white"/>
<path d="M294.772 159.844L286.379 154.992V164.696L294.772 159.844Z" fill="white"/>
<path d="M354.266 153.523L343.337 159.844L354.266 166.165V153.523Z" fill="white"/>
<path d="M389.286 159.844L377.391 152.959V166.709L389.286 159.844Z" fill="white"/>
<path d="M447.27 152.093L433.886 159.844L447.27 167.574V152.093Z" fill="white"/>
<path d="M482.612 159.844L468.986 151.973V167.695L482.612 159.844Z" fill="white"/>
<path d="M539.449 152.093L526.045 159.844L539.449 167.574V152.093Z" fill="white"/>
<path d="M574.348 159.844L561.407 152.355V167.313L574.348 159.844Z" fill="white"/>
<path d="M631.185 152.879L619.129 159.844L631.185 166.809V152.879Z" fill="white"/>
<path d="M665.481 159.844L654.109 153.261V166.407L665.481 159.844Z" fill="white"/>
<path d="M712.898 186.458L699.514 178.727V194.188L712.898 186.458Z" fill="white"/>
<path d="M724.612 203.972L708.833 213.071L724.612 222.171V203.972Z" fill="white"/>
<path d="M763.657 266.298L743.269 254.542V278.075L763.657 266.298Z" fill="white"/>
<path d="M772.855 280.088L750.615 292.932L772.855 305.756V280.088Z" fill="white"/>
<path d="M813.43 346.159L787.527 331.202V361.117L813.43 346.159Z" fill="white"/>
<path d="M820.877 356.567L792.821 372.773L820.877 388.979V356.567Z" fill="white"/>
<path d="M863.867 426L831.443 407.298V444.722L863.867 426Z" fill="white"/>
<path d="M869.039 432.845L834.784 452.634L869.039 472.403V432.845Z" fill="white"/>
<path d="M912.13 505.861L876.466 485.267V526.455L912.13 505.861Z" fill="white"/>
<path d="M915.693 511.719L879.767 532.475L915.693 553.23V511.719Z" fill="white"/>
<path d="M915.008 566.134L881.115 585.702L915.008 605.27V566.134Z" fill="white"/>
<path d="M909.111 612.316L877.955 594.338V630.313L909.111 612.316Z" fill="white"/>
<path d="M865.175 652.457L842.493 665.563L865.175 678.648V652.457Z" fill="white"/>
<path d="M854.126 692.176L836.314 681.889V702.464L854.126 692.176Z" fill="white"/>
<path d="M814.638 740.008L805.299 745.404L814.638 750.799V740.008Z" fill="white"/>
<path d="M799.845 772.017L794.33 768.857V775.198L799.845 772.017Z" fill="white"/>
<path d="M765.449 825.245L765.429 825.265H765.449V825.245Z" fill="white"/>
<path d="M151.391 292.932L150.646 292.489V293.355L151.391 292.932Z" fill="white"/>
<path d="M166.768 265.453L165.258 266.298L166.768 267.164V265.453Z" fill="white"/>
<path d="M199.493 213.071L195.75 210.897V215.245L199.493 213.071Z" fill="white"/>
<path d="M214.004 183.599L209.053 186.458L214.004 189.316V183.599Z" fill="white"/>
<path d="M214.125 130.15L208.792 133.23L214.125 136.31V130.15Z" fill="white"/>
<path d="M247.314 133.23L240.954 129.546V136.894L247.314 133.23Z" fill="white"/>
<path d="M307.331 128.379L298.938 133.23L307.331 138.062V128.379Z" fill="white"/>
<path d="M341.505 133.23L332.147 127.815V138.626L341.505 133.23Z" fill="white"/>
<path d="M400.315 127.01L389.527 133.23L400.315 139.451V127.01Z" fill="white"/>
<path d="M434.892 133.23L423.722 126.768V139.672L434.892 133.23Z" fill="white"/>
<path d="M492.655 126.728L481.384 133.23L492.655 139.713V126.728Z" fill="white"/>
<path d="M526.97 133.23L515.941 126.849V139.592L526.97 133.23Z" fill="white"/>
<path d="M584.512 127.271L574.207 133.23L584.512 139.169V127.271Z" fill="white"/>
<path d="M618.344 133.23L608.543 127.553V138.887L618.344 133.23Z" fill="white"/>
<path d="M676.248 128.057L667.292 133.23L676.248 138.404V128.057Z" fill="white"/>
<path d="M709.98 133.23L700.984 128.036V138.424L709.98 133.23Z" fill="white"/>
<path d="M723.042 153.442L711.953 159.844L723.042 166.246V153.442Z" fill="white"/>
<path d="M760.437 213.071L744.9 204.093V222.05L760.437 213.071Z" fill="white"/>
<path d="M771.386 229.378L753.534 239.685L771.386 250.012V229.378Z" fill="white"/>
<path d="M811.136 292.932L788.695 279.968V305.877L811.136 292.932Z" fill="white"/>
<path d="M819.589 305.595L795.437 319.546L819.589 333.497V305.595Z" fill="white"/>
<path d="M861.23 372.773L832.772 356.326V389.22L861.23 372.773Z" fill="white"/>
<path d="M867.852 381.671L837.159 399.386L867.852 417.102V381.671Z" fill="white"/>
<path d="M911.426 452.634L876.808 432.623V472.624L911.426 452.634Z" fill="white"/>
<path d="M915.632 458.593L879.867 479.247L915.632 499.882V458.593Z" fill="white"/>
<path d="M958.401 532.475L922.455 511.719V553.23L958.401 532.475Z" fill="white"/>
<path d="M961.541 538.756L926.319 559.088L961.541 579.441V538.756Z" fill="white"/>
<path d="M957.233 585.702L923.039 565.973V605.451L957.233 585.702Z" fill="white"/>
<path d="M913.217 622.482L884.718 638.949L913.217 655.396V622.482Z" fill="white"/>
<path d="M904.542 665.563L880.25 651.531V679.574L904.542 665.563Z" fill="white"/>
<path d="M862.78 709.852L847.303 718.79L862.78 727.728V709.852Z" fill="white"/>
<path d="M850.1 745.404L838.326 738.599V752.208L850.1 745.404Z" fill="white"/>
<path d="M812.867 796.316L808.841 798.631L812.867 800.966V796.316Z" fill="white"/>
<path d="M797.007 825.265L795.739 824.52V825.989L797.007 825.265Z" fill="white"/>
<path d="M104.818 319.546L104.798 319.526V319.546H104.818Z" fill="white"/>
<path d="M120.316 292.691L119.893 292.932L120.316 293.154V292.691Z" fill="white"/>
<path d="M152.136 239.685L150.284 238.618V240.752L152.136 239.685Z" fill="white"/>
<path d="M167.19 211.481L164.433 213.071L167.19 214.682V211.481Z" fill="white"/>
<path d="M200.077 159.844L195.448 157.167V162.501L200.077 159.844Z" fill="white"/>
<path d="M200.137 106.617L195.408 103.879V109.334L200.137 106.617Z" fill="white"/>
<path d="M260.557 102.933L254.217 106.617L260.557 110.281V102.933Z" fill="white"/>
<path d="M293.866 106.617L286.822 102.53V110.683L293.866 106.617Z" fill="white"/>
<path d="M353.44 101.725L344.987 106.617L353.44 111.489V101.725Z" fill="white"/>
<path d="M387.313 106.617L378.377 101.463V111.75L387.313 106.617Z" fill="white"/>
<path d="M445.962 101.141L436.502 106.617L445.962 112.072V101.141Z" fill="white"/>
<path d="M479.714 106.617L470.435 101.242V111.972L479.714 106.617Z" fill="white"/>
<path d="M537.959 101.443L529.023 106.617L537.959 111.77V101.443Z" fill="white"/>
<path d="M571.389 106.617L562.876 101.685V111.529L571.389 106.617Z" fill="white"/>
<path d="M629.756 102.127L622.007 106.617L629.756 111.086V102.127Z" fill="white"/>
<path d="M662.743 106.617L655.478 102.409V110.804L662.743 106.617Z" fill="white"/>
<path d="M721.835 102.288L714.368 106.617L721.835 110.925V102.288Z" fill="white"/>
<path d="M757.438 159.844L746.389 153.462V166.226L757.438 159.844Z" fill="white"/>
<path d="M769.856 178.788L756.593 186.458L769.856 194.107V178.788Z" fill="white"/>
<path d="M807.956 239.685L790.265 229.478V249.891L807.956 239.685Z" fill="white"/>
<path d="M818.26 254.662L798.074 266.298L818.26 277.954V254.662Z" fill="white"/>
<path d="M858.131 319.546L834.321 305.776V333.295L858.131 319.546Z" fill="white"/>
<path d="M866.161 331.363L840.54 346.159L866.161 360.956V331.363Z" fill="white"/>
<path d="M908.608 399.387L878.217 381.852V416.941L908.608 399.387Z" fill="white"/>
<path d="M914.565 407.177L881.981 426L914.565 444.823V407.177Z" fill="white"/>
<path d="M958.099 479.247L922.616 458.754V499.741L958.099 479.247Z" fill="white"/>
<path d="M961.661 485.307L926.098 505.861L961.661 526.395V485.307Z" fill="white"/>
<path d="M1003.38 559.088L969.088 539.279V578.897L1003.38 559.088Z" fill="white"/>
<path d="M960.293 594.137L928.815 612.316L960.293 630.494V594.137Z" fill="white"/>
<path d="M953.51 638.949L924.91 622.421V655.457L953.51 638.949Z" fill="white"/>
<path d="M910.52 680.4L890.112 692.176L910.52 703.953V680.4Z" fill="white"/>
<path d="M899.511 718.79L882.766 709.127V728.453L899.511 718.79Z" fill="white"/>
<path d="M860.788 766.542L851.288 772.017L860.788 777.513V766.542Z" fill="white"/>
<path d="M846.035 798.631L840.359 795.37V801.912L846.035 798.631Z" fill="white"/>
<path d="M811.619 851.717L811.357 851.878L811.619 852.019V851.717Z" fill="white"/>
<path d="M105.301 266.298L104.557 265.876V266.741L105.301 266.298Z" fill="white"/>
<path d="M120.598 238.96L119.33 239.685L120.598 240.43V238.96Z" fill="white"/>
<path d="M152.8 186.458L149.942 184.807V188.108L152.8 186.458Z" fill="white"/>
<path d="M167.452 157.791L163.89 159.844L167.452 161.897V157.791Z" fill="white"/>
<path d="M213.984 77.1848L209.114 79.983L213.984 82.8014V77.1848Z" fill="white"/>
<path d="M246.69 79.983L241.276 76.8626V83.1033L246.69 79.983Z" fill="white"/>
<path d="M306.646 76.3392L300.327 79.983L306.646 83.6469V76.3392Z" fill="white"/>
<path d="M339.795 79.983L332.992 76.0574V83.9086L339.795 79.983Z" fill="white"/>
<path d="M399.188 75.7151L391.781 79.983L399.188 84.271V75.7151Z" fill="white"/>
<path d="M432.417 79.983L424.95 75.6749V84.3112L432.417 79.983Z" fill="white"/>
<path d="M491.347 75.7353L483.98 79.983L491.347 84.2508V75.7353Z" fill="white"/>
<path d="M524.374 79.983L517.249 75.8762V84.1099L524.374 79.983Z" fill="white"/>
<path d="M583.284 76.1581L576.643 79.983L583.284 83.8281V76.1581Z" fill="white"/>
<path d="M615.929 79.983L609.75 76.4198V83.5664L615.929 79.983Z" fill="white"/>
<path d="M675.161 76.6815L669.446 79.983L675.161 83.2846V76.6815Z" fill="white"/>
<path d="M707.867 79.983L702.05 76.6211V83.3651L707.867 79.983Z" fill="white"/>
<path d="M755.285 106.617L747.476 102.087V111.126L755.285 106.617Z" fill="white"/>
<path d="M768.528 127.855L759.25 133.23L768.528 138.585V127.855Z" fill="white"/>
<path d="M804.957 186.458L791.774 178.828V194.067L804.957 186.458Z" fill="white"/>
<path d="M816.57 204.354L801.455 213.071L816.57 221.788V204.354Z" fill="white"/>
<path d="M855.233 266.298L835.77 255.065V277.552L855.233 266.298Z" fill="white"/>
<path d="M864.692 280.652L843.459 292.932L864.692 305.192V280.652Z" fill="white"/>
<path d="M904.885 346.159L880.069 331.826V360.473L904.885 346.159Z" fill="white"/>
<path d="M912.794 357.03L885.543 372.773L912.794 388.516V357.03Z" fill="white"/>
<path d="M955.724 426L923.803 407.56V444.44L955.724 426Z" fill="white"/>
<path d="M961.037 433.147L927.326 452.634L961.037 472.101V433.147Z" fill="white"/>
<path d="M1003.52 505.861L969.028 485.931V525.771L1003.52 505.861Z" fill="white"/>
<path d="M1007.33 512.665L973.033 532.475L1007.33 552.284V512.665Z" fill="white"/>
<path d="M1006.58 567.181L974.502 585.702L1006.58 604.223V567.181Z" fill="white"/>
<path d="M1000.89 612.316L970.356 594.701V629.951L1000.89 612.316Z" fill="white"/>
<path d="M957.998 651.35L933.384 665.563L957.998 679.776V651.35Z" fill="white"/>
<path d="M948.197 692.177L927.547 680.239V704.094L948.197 692.177Z" fill="white"/>
<path d="M908.286 737.472L894.54 745.404L908.286 753.335V737.472Z" fill="white"/>
<path d="M895.063 772.017L884.98 766.199V777.855L895.063 772.017Z" fill="white"/>
<path d="M858.795 823.211L855.253 825.265L858.795 827.318V823.211Z" fill="white"/>
<path d="M843.096 851.878L841.828 851.133V852.603L843.096 851.878Z" fill="white"/>
<path d="M105.805 213.071L104.315 212.206V213.937L105.805 213.071Z" fill="white"/>
<path d="M120.879 185.25L118.766 186.458L120.879 187.665V185.25Z" fill="white"/>
<path d="M153.122 133.23L149.801 131.298V135.143L153.122 133.23Z" fill="white"/>
<path d="M167.532 104.422L163.749 106.617L167.532 108.791V104.422Z" fill="white"/>
<path d="M167.371 51.4569L164.05 53.3694L167.371 55.2819V51.4569Z" fill="white"/>
<path d="M199.674 53.3694L195.649 51.0543V55.6845L199.674 53.3694Z" fill="white"/>
<path d="M260.013 50.6516L255.324 53.3694L260.013 56.0871V50.6516Z" fill="white"/>
<path d="M292.457 53.3694L287.526 50.5309V56.2079L292.457 53.3694Z" fill="white"/>
<path d="M352.414 50.2692L347.04 53.3694L352.414 56.4696V50.2692Z" fill="white"/>
<path d="M385.079 53.3694L379.484 50.1484V56.5904L385.079 53.3694Z" fill="white"/>
<path d="M444.673 50.1484L439.078 53.3694L444.673 56.5904V50.1484Z" fill="white"/>
<path d="M477.238 53.3694L471.683 50.1484V56.5904L477.238 53.3694Z" fill="white"/>
<path d="M536.752 50.2893L531.438 53.3694L536.752 56.4495V50.2893Z" fill="white"/>
<path d="M569.196 53.3694L563.983 50.3497V56.3891L569.196 53.3694Z" fill="white"/>
<path d="M628.71 50.692L624.08 53.3694L628.71 56.0469V50.692Z" fill="white"/>
<path d="M660.831 53.3694L656.424 50.8328V55.926L660.831 53.3694Z" fill="white"/>
<path d="M720.989 50.5309L716.078 53.3694L720.989 56.2079V50.5309Z" fill="white"/>
<path d="M753.715 53.3694L748.261 50.2289V56.53L753.715 53.3694Z" fill="white"/>
<path d="M767.743 76.0171L760.86 79.983L767.743 83.969V76.0171Z" fill="white"/>
<path d="M802.562 133.23L792.961 127.674V138.766L802.562 133.23Z" fill="white"/>
<path d="M815.262 153.382L804.071 159.844L815.262 166.286V153.382Z" fill="white"/>
<path d="M851.972 213.071L837.401 204.656V221.486L851.972 213.071Z" fill="white"/>
<path d="M863.062 230.263L846.739 239.685L863.062 249.106V230.263Z" fill="white"/>
<path d="M901.846 292.932L881.598 281.236V304.608L901.846 292.932Z" fill="white"/>
<path d="M910.963 306.964L889.186 319.546L910.963 332.128V306.964Z" fill="white"/>
<path d="M951.92 372.773L925.695 357.614V387.932L951.92 372.773Z" fill="white"/>
<path d="M959.367 382.818L930.667 399.387L959.367 415.955V382.818Z" fill="white"/>
<path d="M1002.26 452.634L969.651 433.791V471.457L1002.26 452.634Z" fill="white"/>
<path d="M1007.05 459.901L973.576 479.247L1007.05 498.574V459.901Z" fill="white"/>
<path d="M1048.53 532.475L1015.66 513.491V551.459L1048.53 532.475Z" fill="white"/>
<path d="M1052.49 540.869L1020.93 559.088L1052.49 577.327V540.869Z" fill="white"/>
<path d="M1046.92 585.702L1016.47 568.127V603.297L1046.92 585.702Z" fill="white"/>
<path d="M1004.73 623.629L978.205 638.949L1004.73 654.249V623.629Z" fill="white"/>
<path d="M996.259 665.563L972.67 651.934V679.192L996.259 665.563Z" fill="white"/>
<path d="M955.402 709.087L938.596 718.79L955.402 728.493V709.087Z" fill="white"/>
<path d="M943.507 745.404L929.902 737.552V753.255L943.507 745.404Z" fill="white"/>
<path d="M905.951 794.786L899.249 798.631L905.951 802.496V794.786Z" fill="white"/>
<path d="M891.017 825.265L887.012 822.949V827.56L891.017 825.265Z" fill="white"/>
<path d="M106.207 159.844L104.114 158.636V161.032L106.207 159.844Z" fill="white"/>
<path d="M121.02 131.741L118.464 133.23L121.02 134.7V131.741Z" fill="white"/>
<path d="M153.122 79.983L149.801 78.0705V81.9156L153.122 79.983Z" fill="white"/>
<path d="M152.659 26.7558L150.022 25.246V28.2657L152.659 26.7558Z" fill="white"/>
<path d="M213.461 24.8433L210.14 26.7558L213.461 28.6683V24.8433Z" fill="white"/>
<path d="M245.442 26.7558L241.899 24.7225V28.7891L245.442 26.7558Z" fill="white"/>
<path d="M305.721 24.7225L302.178 26.7558L305.721 28.7891V24.7225Z" fill="white"/>
<path d="M337.701 26.7558L334.038 24.642V28.8696L337.701 26.7558Z" fill="white"/>
<path d="M397.96 24.6017L394.237 26.7558L397.96 28.9098V24.6017Z" fill="white"/>
<path d="M429.921 26.7558L426.218 24.6219V28.8897L429.921 26.7558Z" fill="white"/>
<path d="M490.139 24.6219L486.416 26.7558L490.139 28.8897V24.6219Z" fill="white"/>
<path d="M521.939 26.7558L518.477 24.7427V28.7689L521.939 26.7558Z" fill="white"/>
<path d="M582.238 24.7427L578.756 26.7558L582.238 28.7689V24.7427Z" fill="white"/>
<path d="M613.957 26.7558L610.737 24.8835V28.628L613.957 26.7558Z" fill="white"/>
<path d="M674.336 24.8835L671.096 26.7558L674.336 28.628V24.8835Z" fill="white"/>
<path d="M706.357 26.7558L702.795 24.7024V28.8092L706.357 26.7558Z" fill="white"/>
<path d="M767.059 23.9575L762.208 26.7558L767.059 29.554V23.9575Z" fill="white"/>
<path d="M800.972 79.983L793.767 75.8158V84.1502L800.972 79.983Z" fill="white"/>
<path d="M814.416 101.624L805.762 106.617L814.416 111.589V101.624Z" fill="white"/>
<path d="M849.597 159.844L838.588 153.482V166.185L849.597 159.844Z" fill="white"/>
<path d="M861.734 179.331L849.396 186.458L861.734 193.584V179.331Z" fill="white"/>
<path d="M898.505 239.685L883.269 230.887V248.502L898.505 239.685Z" fill="white"/>
<path d="M909.413 256.434L892.306 266.298L909.413 276.183V256.434Z" fill="white"/>
<path d="M947.975 319.546L927.668 307.809V331.262L947.975 319.546Z" fill="white"/>
<path d="M957.233 333.255L934.913 346.159L957.233 359.043V333.255Z" fill="white"/>
<path d="M998.774 399.387L971.402 383.583V415.19L998.774 399.387Z" fill="white"/>
<path d="M1005.78 408.888L976.132 426L1005.78 443.132V408.888Z" fill="white"/>
<path d="M1048.1 479.247L1015.88 460.626V497.849L1048.1 479.247Z" fill="white"/>
<path d="M1052.73 487.219L1020.47 505.861L1052.73 524.483V487.219Z" fill="white"/>
<path d="M1092.68 559.088L1062.72 541.775V576.401L1092.68 559.088Z" fill="white"/>
<path d="M1050.88 596.895L1024.17 612.315L1050.88 627.756V596.895Z" fill="white"/>
<path d="M1042.81 638.949L1018.52 624.918V652.961L1042.81 638.949Z" fill="white"/>
<path d="M1002.1 681.406L983.458 692.177L1002.1 702.947V681.406Z" fill="white"/>
<path d="M991.227 718.79L975.166 709.509V728.071L991.227 718.79Z" fill="white"/>
<path d="M953.148 766.219L943.105 772.017L953.148 777.835V766.219Z" fill="white"/>
<path d="M938.858 798.631L932.236 794.806V802.476L938.858 798.631Z" fill="white"/>
<path d="M904.281 850.872L902.57 851.878L904.281 852.865V850.872Z" fill="white"/>
<path d="M106.348 106.617L104.033 105.268V107.925L106.348 106.617Z" fill="white"/>
<path d="M121.04 78.4731L118.424 79.983L121.04 81.513V78.4731Z" fill="white"/>
<path d="M166.989 -1.10596L164.815 0.142175L166.989 1.39031V-1.10596Z" fill="white"/>
<path d="M198.588 0.14224L196.192 -1.24683V1.53131L198.588 0.14224Z" fill="white"/>
<path d="M259.249 -1.24683L256.833 0.14224L259.249 1.53131V-1.24683Z" fill="white"/>
<path d="M290.746 0.1422L288.372 -1.22675V1.51112L290.746 0.1422Z" fill="white"/>
<path d="M351.347 -1.10596L349.194 0.142175L351.347 1.37019V-1.10596Z" fill="white"/>
<path d="M382.785 0.142175L380.631 -1.10596V1.37019L382.785 0.142175Z" fill="white"/>
<path d="M443.506 -1.08582L441.393 0.142196L443.506 1.37021V-1.08582Z" fill="white"/>
<path d="M474.944 0.142196L472.83 -1.08582V1.37021L474.944 0.142196Z" fill="white"/>
<path d="M535.766 -1.2066L533.431 0.142191L535.766 1.47087V-1.2066Z" fill="white"/>
<path d="M567.284 0.142191L564.929 -1.2066V1.49099L567.284 0.142191Z" fill="white"/>
<path d="M627.945 -1.2066L625.61 0.142191L627.945 1.49099V-1.2066Z" fill="white"/>
<path d="M659.503 0.14224L657.088 -1.24683V1.53131L659.503 0.14224Z" fill="white"/>
<path d="M720.466 -1.79041L717.125 0.142215L720.466 2.05468V-1.79041Z" fill="white"/>
<path d="M752.769 0.142186L748.724 -2.19305V2.47743L752.769 0.142186Z" fill="white"/>
<path d="M799.845 26.7558L794.33 23.5751V29.9366L799.845 26.7558Z" fill="white"/>
<path d="M813.692 49.625L807.191 53.3694L813.692 57.1138V49.625Z" fill="white"/>
<path d="M848.128 106.617L839.313 101.524V111.69L848.128 106.617Z" fill="white"/>
<path d="M860.888 127.553L851.087 133.23L860.888 138.887V127.553Z" fill="white"/>
<path d="M896.049 186.458L884.497 179.774V193.121L896.049 186.458Z" fill="white"/>
<path d="M907.863 205.864L895.405 213.071L907.863 220.278V205.864Z" fill="white"/>
<path d="M944.735 266.298L929.278 257.38V275.237L944.735 266.298Z" fill="white"/>
<path d="M955.482 283.068L938.435 292.932L955.482 302.776V283.068Z" fill="white"/>
<path d="M994.206 346.159L973.697 334.322V357.997L994.206 346.159Z" fill="white"/>
<path d="M1003.62 359.386L980.419 372.773L1003.62 386.16V359.386Z" fill="white"/>
<path d="M1045.45 426L1017.21 409.694V442.327L1045.45 426Z" fill="white"/>
<path d="M1052.01 435.24L1021.9 452.634L1052.01 470.007V435.24Z" fill="white"/>
<path d="M1093.39 505.861L1062.37 487.924V523.778L1093.39 505.861Z" fill="white"/>
<path d="M1098.16 515.001L1067.89 532.475L1098.16 549.949V515.001Z" fill="white"/>
<path d="M1096.95 570.301L1070.3 585.702L1096.95 601.102V570.301Z" fill="white"/>
<path d="M1089 612.316L1064.57 598.203V626.428L1089 612.316Z" fill="white"/>
<path d="M1048.51 654.269L1028.94 665.563L1048.51 676.836V654.269Z" fill="white"/>
<path d="M1037.7 692.176L1021.07 682.574V701.779L1037.7 692.176Z" fill="white"/>
<path d="M999.841 738.559L987.967 745.404L999.841 752.268V738.559Z" fill="white"/>
<path d="M986.638 772.017L977.461 766.723V777.332L986.638 772.017Z" fill="white"/>
<path d="M951.055 823.09L947.291 825.265L951.055 827.419V823.09Z" fill="white"/>
<path d="M935.477 851.878L933.907 850.972V852.784L935.477 851.878Z" fill="white"/>
<path d="M106.268 53.3694L104.094 52.1212V54.6377L106.268 53.3694Z" fill="white"/>
<path d="M120.859 25.5479L118.786 26.7558L120.859 27.9637V25.5479Z" fill="white"/>
<path d="M813.35 -2.99829L807.895 0.14219L813.35 3.28267V-2.99829Z" fill="white"/>
<path d="M847.061 53.3694L839.856 49.2224V57.5164L847.061 53.3694Z" fill="white"/>
<path d="M860.305 75.3126L852.234 79.983L860.305 84.6535V75.3126Z" fill="white"/>
<path d="M894.781 133.23L885.141 127.654V138.787L894.781 133.23Z" fill="white"/>
<path d="M906.998 154.147L897.156 159.844L906.998 165.521V154.147Z" fill="white"/>
<path d="M941.736 213.071L930.787 206.75V219.392L941.736 213.071Z" fill="white"/>
<path d="M953.832 232.699L941.736 239.685L953.832 246.69V232.699Z" fill="white"/>
<path d="M990.643 292.932L975.468 284.155V301.689L990.643 292.932Z" fill="white"/>
<path d="M1001.43 309.943L984.807 319.546L1001.43 329.128V309.943Z" fill="white"/>
<path d="M1041.08 372.773L1019.38 360.231V385.315L1041.08 372.773Z" fill="white"/>
<path d="M1050.14 385.234L1025.64 399.387L1050.14 413.539V385.234Z" fill="white"/>
<path d="M1092.1 452.634L1063.02 435.824V469.423L1092.1 452.634Z" fill="white"/>
<path d="M1098.12 461.854L1067.99 479.247L1098.12 496.621V461.854Z" fill="white"/>
<path d="M1138.41 532.475L1108.99 515.484V549.466L1138.41 532.475Z" fill="white"/>
<path d="M1143.42 543.044L1115.63 559.088L1143.42 575.133V543.044Z" fill="white"/>
<path d="M1135.71 585.702L1110.34 571.046V600.357L1135.71 585.702Z" fill="white"/>
<path d="M1094.62 627.595L1074.97 638.949L1094.62 650.283V627.595Z" fill="white"/>
<path d="M1084.09 665.563L1067.02 655.698V675.407L1084.09 665.563Z" fill="white"/>
<path d="M1046.09 711.643L1033.73 718.79L1046.09 725.937V711.643Z" fill="white"/>
<path d="M1033.39 745.404L1023.23 739.545V751.282L1033.39 745.404Z" fill="white"/>
<path d="M997.647 795.611L992.374 798.631L997.647 801.691V795.611Z" fill="white"/>
<path d="M982.734 825.265L979.413 823.332V827.177L982.734 825.265Z" fill="white"/>
<path d="M105.744 0.142185L104.335 -0.663086V0.947426L105.744 0.142185Z" fill="white"/>
<path d="M846.256 0.142155L840.259 -3.32043V3.60474L846.256 0.142155Z" fill="white"/>
<path d="M859.862 22.8705L853.14 26.7558L859.862 30.6412V22.8705Z" fill="white"/>
<path d="M893.896 79.983L885.563 75.1716V84.7944L893.896 79.983Z" fill="white"/>
<path d="M906.636 101.524L897.84 106.617L906.636 111.69V101.524Z" fill="white"/>
<path d="M940.206 159.844L931.552 154.851V164.837L940.206 159.844Z" fill="white"/>
<path d="M952.745 181.364L943.91 186.458L952.745 191.551V181.364Z" fill="white"/>
<path d="M987.363 239.685L977.118 233.766V245.603L987.363 239.685Z" fill="white"/>
<path d="M999.761 259.595L988.148 266.298L999.761 273.002V259.595Z" fill="white"/>
<path d="M1036.45 319.546L1021.7 311.03V328.061L1036.45 319.546Z" fill="white"/>
<path d="M1047.66 336.295L1030.59 346.159L1047.66 356.004V336.295Z" fill="white"/>
<path d="M1088.3 399.387L1064.91 385.878V412.915L1088.3 399.387Z" fill="white"/>
<path d="M1096.77 410.942L1070.67 426L1096.77 441.078V410.942Z" fill="white"/>
<path d="M1138.43 479.247L1108.99 462.237V496.238L1138.43 479.247Z" fill="white"/>
<path d="M1144.01 488.81L1114.48 505.861L1144.01 522.912V488.81Z" fill="white"/>
<path d="M1183.19 559.088L1155.74 543.225V574.952L1183.19 559.088Z" fill="white"/>
<path d="M1141.27 599.995L1119.94 612.315L1141.27 624.656V599.995Z" fill="white"/>
<path d="M1130.74 638.949L1112.83 628.602V649.297L1130.74 638.949Z" fill="white"/>
<path d="M1092.14 685.131L1079.94 692.177L1092.14 699.222V685.131Z" fill="white"/>
<path d="M1079.48 718.79L1069.32 712.932V724.648L1079.48 718.79Z" fill="white"/>
<path d="M1044.06 768.434L1037.84 772.017L1044.06 775.621V768.434Z" fill="white"/>
<path d="M1029.35 798.631L1025.26 796.276V801.006L1029.35 798.631Z" fill="white"/>
<path d="M996.239 851.254L995.192 851.878L996.239 852.482V851.254Z" fill="white"/>
<path d="M893.131 26.7558L885.946 22.6088V30.9029L893.131 26.7558Z" fill="white"/>
<path d="M906.293 48.8801L898.525 53.3694L906.293 57.8587V48.8801Z" fill="white"/>
<path d="M939.683 106.617L931.814 102.067V111.146L939.683 106.617Z" fill="white"/>
<path d="M952.323 128.842L944.735 133.23L952.323 137.599V128.842Z" fill="white"/>
<path d="M985.31 186.458L978.145 182.31V190.584L985.31 186.458Z" fill="white"/>
<path d="M998.352 208.823L990.986 213.071L998.352 217.319V208.823Z" fill="white"/>
<path d="M1033.01 266.298L1023.41 260.762V271.855L1033.01 266.298Z" fill="white"/>
<path d="M1045.73 286.43L1034.48 292.932L1045.73 299.414V286.43Z" fill="white"/>
<path d="M1083.06 346.159L1067.53 337.181V355.118L1083.06 346.159Z" fill="white"/>
<path d="M1094.42 361.801L1075.4 372.773L1094.42 383.744V361.801Z" fill="white"/>
<path d="M1135.73 426L1110.34 411.345V440.676L1135.73 426Z" fill="white"/>
<path d="M1143.36 436.69L1115.75 452.634L1143.36 468.558V436.69Z" fill="white"/>
<path d="M1184.46 505.861L1155.1 488.89V522.812L1184.46 505.861Z" fill="white"/>
<path d="M1189.96 515.665L1160.85 532.475L1189.96 549.284V515.665Z" fill="white"/>
<path d="M1188.33 571.711L1164.09 585.702L1188.33 599.713V571.711Z" fill="white"/>
<path d="M1178.56 612.315L1158.06 600.478V624.173L1178.56 612.315Z" fill="white"/>
<path d="M1138.71 657.651L1125.05 665.563L1138.71 673.454V657.651Z" fill="white"/>
<path d="M1125.89 692.176L1115.25 686.036V698.316L1125.89 692.176Z" fill="white"/>
<path d="M1090.23 741.679L1083.77 745.404L1090.23 749.128V741.679Z" fill="white"/>
<path d="M1075.74 772.017L1071.19 769.4V774.655L1075.74 772.017Z" fill="white"/>
<path d="M1042.49 824.399L1040.98 825.265L1042.49 826.13V824.399Z" fill="white"/>
<path d="M1026.89 851.878L1026.49 851.637V852.12L1026.89 851.878Z" fill="white"/>
<path d="M906.032 -3.88403L899.068 0.142231L906.032 4.14834V-3.88403Z" fill="white"/>
<path d="M939.301 53.3694L932.015 49.1619V57.5768L939.301 53.3694Z" fill="white"/>
<path d="M952.162 75.8964L945.077 79.983L952.162 84.0697V75.8964Z" fill="white"/>
<path d="M984.585 133.23L978.507 129.707V136.733L984.585 133.23Z" fill="white"/>
<path d="M997.748 156.623L992.193 159.844L997.748 163.045V156.623Z" fill="white"/>
<path d="M1030.37 213.071L1024.74 209.81V216.332L1030.37 213.071Z" fill="white"/>
<path d="M1044.12 236.001L1037.72 239.685L1044.12 243.389V236.001Z" fill="white"/>
<path d="M1079.02 292.932L1069.56 287.456V298.388L1079.02 292.932Z" fill="white"/>
<path d="M1091.92 312.882L1080.39 319.546L1091.92 326.189V312.882Z" fill="white"/>
<path d="M1130.86 372.773L1112.77 362.325V383.221L1130.86 372.773Z" fill="white"/>
<path d="M1141.43 386.784L1119.61 399.387L1141.43 411.989V386.784Z" fill="white"/>
<path d="M1183.13 452.634L1155.76 436.811V468.437L1183.13 452.634Z" fill="white"/>
<path d="M1189.96 462.418L1160.83 479.247L1189.96 496.057V462.418Z" fill="white"/>
<path d="M1230.83 532.475L1201.05 515.262V549.687L1230.83 532.475Z" fill="white"/>
<path d="M1235.8 542.722L1207.43 559.088L1235.8 575.475V542.722Z" fill="white"/>
<path d="M1227.43 585.702L1202.76 571.449V599.955L1227.43 585.702Z" fill="white"/>
<path d="M1185.67 629.548L1169.41 638.949L1185.67 648.33V629.548Z" fill="white"/>
<path d="M1173.37 665.563L1160.65 658.215V672.891L1173.37 665.563Z" fill="white"/>
<path d="M1136.56 714.643L1129.37 718.79L1136.56 722.937V714.643Z" fill="white"/>
<path d="M1122.15 745.404L1117.12 742.505V748.323L1122.15 745.404Z" fill="white"/>
<path d="M1088.6 797.725L1087.03 798.631L1088.6 799.537V797.725Z" fill="white"/>
<path d="M1073.12 825.265L1072.5 824.902V825.607L1073.12 825.265Z" fill="white"/>
<path d="M938.918 0.142197L932.196 -3.74316V4.00741L938.918 0.142197Z" fill="white"/>
<path d="M952.001 22.9711L945.419 26.7558L952.001 30.5404V22.9711Z" fill="white"/>
<path d="M984.444 79.983L978.567 76.601V83.3852L984.444 79.983Z" fill="white"/>
<path d="M997.647 103.537L992.354 106.617L997.647 109.657V103.537Z" fill="white"/>
<path d="M1029.27 159.844L1025.3 157.549V162.119L1029.27 159.844Z" fill="white"/>
<path d="M1043.23 184.283L1039.47 186.458L1043.23 188.632V184.283Z" fill="white"/>
<path d="M1075.84 239.685L1071.15 236.987V242.402L1075.84 239.685Z" fill="white"/>
<path d="M1090.09 262.816L1084.05 266.298L1090.09 269.801V262.816Z" fill="white"/>
<path d="M1125.57 319.546L1115.41 313.688V325.404L1125.57 319.546Z" fill="white"/>
<path d="M1138.55 338.55L1125.39 346.159L1138.55 353.769V338.55Z" fill="white"/>
<path d="M1179.11 399.387L1157.77 387.086V411.707L1179.11 399.387Z" fill="white"/>
<path d="M1188.51 411.707L1163.73 426L1188.51 440.313V411.707Z" fill="white"/>
<path d="M1230.87 479.247L1201.05 462.015V496.46L1230.87 479.247Z" fill="white"/>
<path d="M1236.57 488.146L1205.9 505.861L1236.57 523.577V488.146Z" fill="white"/>
<path d="M1276.62 559.088L1247.3 542.158V576.019L1276.62 559.088Z" fill="white"/>
<path d="M1233.29 600.277L1212.44 612.316L1233.29 624.374V600.277Z" fill="white"/>
<path d="M1221.82 638.949L1205.55 629.548V648.33L1221.82 638.949Z" fill="white"/>
<path d="M1183.15 687.144L1174.44 692.176L1183.15 697.209V687.144Z" fill="white"/>
<path d="M1169.02 718.79L1162.83 715.207V722.373L1169.02 718.79Z" fill="white"/>
<path d="M1134.97 770.648L1132.55 772.017L1134.97 773.406V770.648Z" fill="white"/>
<path d="M1119.35 798.631L1118.53 798.148V799.134L1119.35 798.631Z" fill="white"/>
<path d="M984.424 26.7558L978.568 23.3737V30.1378L984.424 26.7558Z" fill="white"/>
<path d="M997.688 50.249L992.294 53.3694L997.688 56.4897V50.249Z" fill="white"/>
<path d="M1029.31 106.617L1025.26 104.261V108.932L1029.31 106.617Z" fill="white"/>
<path d="M1043.05 131.358L1039.81 133.23L1043.05 135.103V131.358Z" fill="white"/>
<path d="M1074.17 186.458L1071.99 185.209V187.706L1074.17 186.458Z" fill="white"/>
<path d="M1088.9 211.622L1086.4 213.071L1088.9 214.521V211.622Z" fill="white"/>
<path d="M1121.95 266.298L1117.22 263.581V269.036L1121.95 266.298Z" fill="white"/>
<path d="M1136.42 289.006L1129.64 292.932L1136.42 296.838V289.006Z" fill="white"/>
<path d="M1173.17 346.159L1160.75 338.972V353.326L1173.17 346.159Z" fill="white"/>
<path d="M1185.87 363.049L1169.02 372.773L1185.87 382.496V363.049Z" fill="white"/>
<path d="M1227.73 426L1202.59 411.485V440.515L1227.73 426Z" fill="white"/>
<path d="M1235.78 436.267L1207.47 452.634L1235.78 468.98V436.267Z" fill="white"/>
<path d="M1278.15 505.861L1246.53 487.582V524.12L1278.15 505.861Z" fill="white"/>
<path d="M1283 514.155L1251.3 532.475L1283 550.774V514.155Z" fill="white"/>
<path d="M1281.29 570.362L1254.72 585.702L1281.29 601.042V570.362Z" fill="white"/>
<path d="M1271.51 612.315L1249.85 599.814V624.837L1271.51 612.315Z" fill="white"/>
<path d="M1230.41 658.497L1218.19 665.563L1230.41 672.609V658.497Z" fill="white"/>
<path d="M1216.62 692.176L1208.15 687.284V697.068L1216.62 692.176Z" fill="white"/>
<path d="M1181.38 743.431L1177.98 745.404L1181.38 747.377V743.431Z" fill="white"/>
<path d="M1166.05 772.017L1164.31 771.031V773.024L1166.05 772.017Z" fill="white"/>
<path d="M997.728 -3.03857L992.213 0.142178L997.728 3.32293V-3.03857Z" fill="white"/>
<path d="M1029.55 53.3694L1025.16 50.8328V55.9059L1029.55 53.3694Z" fill="white"/>
<path d="M1043.21 77.8491L1039.51 79.983L1043.21 82.137V77.8491Z" fill="white"/>
<path d="M1074.05 133.23L1072.03 132.043V134.398L1074.05 133.23Z" fill="white"/>
<path d="M1088.5 159.099L1087.23 159.844L1088.5 160.569V159.099Z" fill="white"/>
<path d="M1119.67 213.071L1118.35 212.306V213.836L1119.67 213.071Z" fill="white"/>
<path d="M1134.85 238.477L1132.78 239.685L1134.85 240.893V238.477Z" fill="white"/>
<path d="M1168.76 292.932L1162.95 289.55V296.294L1168.76 292.932Z" fill="white"/>
<path d="M1183.07 314.674L1174.62 319.546L1183.07 324.417V314.674Z" fill="white"/>
<path d="M1222.12 372.773L1205.41 363.13V382.416L1222.12 372.773Z" fill="white"/>
<path d="M1233.49 387.026L1212.07 399.387L1233.49 411.767V387.026Z" fill="white"/>
<path d="M1276.36 452.634L1247.42 435.925V469.323L1276.36 452.634Z" fill="white"/>
<path d="M1282.94 461.009L1251.4 479.248L1282.94 497.466V461.009Z" fill="white"/>
<path d="M1278.25 628.863L1260.8 638.949L1278.25 649.015V628.863Z" fill="white"/>
<path d="M1265.55 665.563L1252.83 658.215V672.891L1265.55 665.563Z" fill="white"/>
<path d="M1228.18 715.589L1222.66 718.79L1228.18 721.991V715.589Z" fill="white"/>
<path d="M1213.04 745.404L1209.94 743.632V747.195L1213.04 745.404Z" fill="white"/>
<path d="M1029.85 0.142185L1025 -2.65607V2.92032L1029.85 0.142185Z" fill="white"/>
<path d="M1043.43 24.2192L1039.05 26.7558L1043.43 29.2923V24.2192Z" fill="white"/>
<path d="M1074.59 79.983L1071.77 78.3725V81.6136L1074.59 79.983Z" fill="white"/>
<path d="M1088.72 105.489L1086.79 106.617L1088.72 107.724V105.489Z" fill="white"/>
<path d="M1119.03 159.844L1118.69 159.643V160.045L1119.03 159.844Z" fill="white"/>
<path d="M1134.25 186.317L1134 186.458L1134.25 186.598V186.317Z" fill="white"/>
<path d="M1165.74 239.685L1164.46 238.94V240.43L1165.74 239.685Z" fill="white"/>
<path d="M1181.22 264.607L1178.3 266.298L1181.22 268.01V264.607Z" fill="white"/>
<path d="M1216.34 319.546L1208.29 314.895V324.196L1216.34 319.546Z" fill="white"/>
<path d="M1230.27 339.375L1218.51 346.159L1230.27 352.944V339.375Z" fill="white"/>
<path d="M1271.59 399.387L1249.81 386.804V411.969L1271.59 399.387Z" fill="white"/>
<path d="M1281.19 410.821L1254.9 426L1281.19 441.199V410.821Z" fill="white"/>
<path d="M1275.41 687.003L1266.46 692.177L1275.41 697.35V687.003Z" fill="white"/>
<path d="M1260.9 718.79L1255.17 715.468V722.112L1260.9 718.79Z" fill="white"/>
<path d="M1226.73 771.353L1225.58 772.017L1226.73 772.682V771.353Z" fill="white"/>
<path d="M1075.17 26.7558L1071.47 24.6219V28.8897L1075.17 26.7558Z" fill="white"/>
<path d="M1089 51.7388L1086.18 53.3694L1089 55.0001V51.7388Z" fill="white"/>
<path d="M1119.51 106.617L1118.45 105.993V107.221L1119.51 106.617Z" fill="white"/>
<path d="M1134.29 133.009L1133.9 133.23L1134.29 133.452V133.009Z" fill="white"/>
<path d="M1180.25 213.071H1180.23L1180.25 213.091V213.071Z" fill="white"/>
<path d="M1212.7 266.298L1210.12 264.829V267.788L1212.7 266.298Z" fill="white"/>
<path d="M1227.91 290.194L1223.18 292.932L1227.91 295.65V290.194Z" fill="white"/>
<path d="M1264.95 346.159L1253.13 339.335V352.984L1264.95 346.159Z" fill="white"/>
<path d="M1278.09 362.969L1261.1 372.773L1278.09 382.577V362.969Z" fill="white"/>
<path d="M1273.54 743.491L1270.22 745.404L1273.54 747.316V743.491Z" fill="white"/>
<path d="M1257.92 772.017L1256.63 771.292V772.762L1257.92 772.017Z" fill="white"/>
<path d="M1089.36 -2.09241L1085.5 0.142171L1089.36 2.3566V-2.09241Z" fill="white"/>
<path d="M1120.32 53.3694L1118.04 52.0407V54.6981L1120.32 53.3694Z" fill="white"/>
<path d="M1134.63 79.1777L1133.22 79.983L1134.63 80.8084V79.1777Z" fill="white"/>
<path d="M1226.48 239.443L1226.04 239.685L1226.48 239.946V239.443Z" fill="white"/>
<path d="M1260.12 292.932L1255.55 290.295V295.549L1260.12 292.932Z" fill="white"/>
<path d="M1275.01 315.077L1267.3 319.546L1275.01 323.995V315.077Z" fill="white"/>
<path d="M1121.1 0.142182L1117.64 -1.85083V2.13516L1121.1 0.142182Z" fill="white"/>
<path d="M1135.07 25.1855L1132.35 26.7558L1135.07 28.326V25.1855Z" fill="white"/>
<path d="M1165.7 79.983L1164.48 79.2784V80.6876L1165.7 79.983Z" fill="white"/>
<path d="M1180.44 106.295L1179.89 106.617L1180.44 106.919V106.295Z" fill="white"/>
<path d="M1257.26 239.685L1256.98 239.524V239.866L1257.26 239.685Z" fill="white"/>
<path d="M1273.14 265.09L1271.02 266.298L1273.14 267.526V265.09Z" fill="white"/>
<path d="M1166.65 26.7558L1163.99 25.2258V28.2858L1166.65 26.7558Z" fill="white"/>
<path d="M1180.92 52.2219L1178.93 53.3694L1180.92 54.5169V52.2219Z" fill="white"/>
<path d="M1211.33 106.617L1210.81 106.295V106.919L1211.33 106.617Z" fill="white"/>
<path d="M1181.38 -1.81055L1178 0.142193L1181.38 2.09493V-1.81055Z" fill="white"/>
<path d="M1212.34 53.3694L1210.3 52.2018V54.537L1212.34 53.3694Z" fill="white"/>
<path d="M1226.79 79.2381L1225.46 79.983L1226.79 80.748V79.2381Z" fill="white"/>
<path d="M1213.34 0.14221L1209.8 -1.91119V2.19561L1213.34 0.14221Z" fill="white"/>
<path d="M1227.31 25.0648L1224.41 26.7558L1227.31 28.4468V25.0648Z" fill="white"/>
<path d="M1257.96 79.983L1256.63 79.218V80.7681L1257.96 79.983Z" fill="white"/>
<path d="M1272.68 106.194L1271.97 106.617L1272.68 107.019V106.194Z" fill="white"/>
<path d="M1259.17 26.7558L1256.03 24.944V28.5676L1259.17 26.7558Z" fill="white"/>
<path d="M1273.2 52.0609L1270.92 53.3694L1273.2 54.6779V52.0609Z" fill="white"/>
<path d="M1273.7 -2.07227L1269.9 0.142192L1273.7 2.3365V-2.07227Z" fill="white"/>
<path d="M541.864 854.334L541.663 854.214V854.435L541.864 854.334Z" fill="white"/>
<path d="M511.211 853.972L510.608 854.334L511.211 854.676V853.972Z" fill="white"/>
<path d="M496.036 827.701L495.453 827.358V828.043L496.036 827.701Z" fill="white"/>
<path d="M465.041 774.252L464.659 774.473L465.041 774.695V774.252Z" fill="white"/>
<path d="M449.685 747.86L449.484 747.739V747.981L449.685 747.86Z" fill="white"/>
<path d="M557.16 880.827L556.959 880.948L557.16 881.049V880.827Z" fill="white"/>
<path d="M496.338 880.948L495.312 880.344V881.532L496.338 880.948Z" fill="white"/>
<path d="M465.223 827.197L464.317 827.701L465.223 828.224V827.197Z" fill="white"/>
<path d="M450.087 801.087L449.282 800.624V801.57L450.087 801.087Z" fill="white"/>
<path d="M419.032 747.517L418.429 747.86L419.032 748.202V747.517Z" fill="white"/>
<path d="M403.777 721.246L403.314 720.964V721.508L403.777 721.246Z" fill="white"/>
<path d="M372.802 667.898L372.601 667.999L372.802 668.12V667.898Z" fill="white"/>
<path d="M357.486 641.385L357.325 641.285V641.506L357.486 641.385Z" fill="white"/>
<path d="M542.146 907.561L541.522 907.199V907.924L542.146 907.561Z" fill="white"/>
<path d="M511.352 906.958L510.326 907.561L511.352 908.145V906.958Z" fill="white"/>
<path d="M465.404 880.102L463.934 880.948L465.404 881.793V880.102Z" fill="white"/>
<path d="M450.53 854.334L449.061 853.469V855.18L450.53 854.334Z" fill="white"/>
<path d="M419.254 800.362L418.006 801.087L419.254 801.812V800.362Z" fill="white"/>
<path d="M404.219 774.473L403.092 773.829V775.118L404.219 774.473Z" fill="white"/>
<path d="M373.023 720.763L372.178 721.246L373.023 721.729V720.763Z" fill="white"/>
<path d="M357.908 694.632L357.103 694.149V695.095L357.908 694.632Z" fill="white"/>
<path d="M326.813 641.123L326.33 641.385L326.813 641.667V641.123Z" fill="white"/>
<path d="M311.537 614.772L311.155 614.55V614.993L311.537 614.772Z" fill="white"/>
<path d="M280.623 561.444L280.442 561.544L280.623 561.645V561.444Z" fill="white"/>
<path d="M265.206 534.931L265.186 534.911V534.931H265.206Z" fill="white"/>
<path d="M587.954 934.175L587.752 934.054V934.296L587.954 934.175Z" fill="white"/>
<path d="M557.301 933.833L556.697 934.175L557.301 934.517V933.833Z" fill="white"/>
<path d="M496.62 934.175L495.151 933.329V935.021L496.62 934.175Z" fill="white"/>
<path d="M465.545 933.088L463.653 934.175L465.545 935.262V933.088Z" fill="white"/>
<path d="M450.832 907.561L448.92 906.454V908.669L450.832 907.561Z" fill="white"/>
<path d="M419.415 853.307L417.644 854.334L419.415 855.341V853.307Z" fill="white"/>
<path d="M404.602 827.701L402.891 826.734V828.687L404.602 827.701Z" fill="white"/>
<path d="M373.245 773.588L371.715 774.473L373.245 775.359V773.588Z" fill="white"/>
<path d="M358.351 747.86L356.882 747.014V748.705L358.351 747.86Z" fill="white"/>
<path d="M327.014 693.988L325.907 694.632L327.014 695.277V693.988Z" fill="white"/>
<path d="M311.98 667.999L310.933 667.415V668.603L311.98 667.999Z" fill="white"/>
<path d="M280.824 614.308L280.019 614.772L280.824 615.235V614.308Z" fill="white"/>
<path d="M265.588 588.158L264.985 587.816V588.5L265.588 588.158Z" fill="white"/>
<path d="M234.594 534.709L234.211 534.931L234.594 535.152V534.709Z" fill="white"/>
<path d="M219.237 508.317L219.036 508.196V508.418L219.237 508.317Z" fill="white"/>
<path d="M419.616 906.193L417.261 907.561L419.616 908.91V906.193Z" fill="white"/>
<path d="M405.024 880.948L402.69 879.579V882.297L405.024 880.948Z" fill="white"/>
<path d="M373.446 826.472L371.313 827.701L373.446 828.949V826.472Z" fill="white"/>
<path d="M358.814 801.087L356.661 799.859V802.335L358.814 801.087Z" fill="white"/>
<path d="M327.296 746.752L325.364 747.86L327.296 748.967V746.752Z" fill="white"/>
<path d="M312.423 721.246L310.712 720.26V722.212L312.423 721.246Z" fill="white"/>
<path d="M281.046 667.153L279.576 667.999L281.046 668.864V667.153Z" fill="white"/>
<path d="M266.031 641.385L264.783 640.66V642.11L266.031 641.385Z" fill="white"/>
<path d="M234.815 587.554L233.789 588.158L234.815 588.762V587.554Z" fill="white"/>
<path d="M219.64 561.544L218.835 561.081V562.007L219.64 561.544Z" fill="white"/>
<path d="M188.524 508.035L188.061 508.317L188.524 508.579V508.035Z" fill="white"/>
<path d="M173.268 481.683L172.886 481.462V481.905L173.268 481.683Z" fill="white"/>
<path d="M405.326 934.175L402.529 932.564V935.806L405.326 934.175Z" fill="white"/>
<path d="M373.667 879.317L370.87 880.948L373.667 882.558V879.317Z" fill="white"/>
<path d="M359.156 854.334L356.479 852.784V855.864L359.156 854.334Z" fill="white"/>
<path d="M327.517 799.597L324.921 801.087L327.517 802.577V799.597Z" fill="white"/>
<path d="M312.906 774.473L310.47 773.064V775.883L312.906 774.473Z" fill="white"/>
<path d="M281.267 719.998L279.134 721.246L281.267 722.474V719.998Z" fill="white"/>
<path d="M266.474 694.633L264.542 693.525V695.74L266.474 694.633Z" fill="white"/>
<path d="M235.036 640.419L233.346 641.385L235.036 642.372V640.419Z" fill="white"/>
<path d="M220.083 614.772L218.613 613.926V615.617L220.083 614.772Z" fill="white"/>
<path d="M188.786 560.82L187.538 561.544L188.786 562.269V560.82Z" fill="white"/>
<path d="M173.711 534.931L172.665 534.327V535.515L173.711 534.931Z" fill="white"/>
<path d="M142.495 481.341L141.891 481.683L142.495 482.026V481.341Z" fill="white"/>
<path d="M127.199 455.07L126.797 454.828V455.311L127.199 455.07Z" fill="white"/>
<path d="M373.828 932.283L370.568 934.175L373.828 936.067V932.283Z" fill="white"/>
<path d="M359.559 907.561L356.278 905.669V909.454L359.559 907.561Z" fill="white"/>
<path d="M327.699 852.522L324.559 854.334L327.699 856.126V852.522Z" fill="white"/>
<path d="M313.328 827.701L310.269 825.949V829.472L313.328 827.701Z" fill="white"/>
<path d="M281.508 772.843L278.671 774.473L281.508 776.104V772.843Z" fill="white"/>
<path d="M266.977 747.86L264.3 746.31V749.41L266.977 747.86Z" fill="white"/>
<path d="M235.258 693.264L232.883 694.633L235.258 696.001V693.264Z" fill="white"/>
<path d="M220.586 667.999L218.372 666.73V669.287L220.586 667.999Z" fill="white"/>
<path d="M189.007 613.664L187.095 614.772L189.007 615.879V613.664Z" fill="white"/>
<path d="M174.134 588.158L172.443 587.172V589.144L174.134 588.158Z" fill="white"/>
<path d="M142.696 534.206L141.449 534.931L142.696 535.656V534.206Z" fill="white"/>
<path d="M127.602 508.317L126.575 507.713V508.901L127.602 508.317Z" fill="white"/>
<path d="M327.9 905.407L324.156 907.561L327.9 909.715V905.407Z" fill="white"/>
<path d="M313.771 880.948L310.048 878.794V883.102L313.771 880.948Z" fill="white"/>
<path d="M281.73 825.687L278.228 827.701L281.73 829.734V825.687Z" fill="white"/>
<path d="M267.44 801.087L264.079 799.154V803.04L267.44 801.087Z" fill="white"/>
<path d="M235.52 746.048L232.38 747.86L235.52 749.671V746.048Z" fill="white"/>
<path d="M221.028 721.246L218.13 719.575V722.917L221.028 721.246Z" fill="white"/>
<path d="M189.249 666.509L186.653 667.999L189.249 669.509V666.509Z" fill="white"/>
<path d="M174.597 641.385L172.222 640.016V642.754L174.597 641.385Z" fill="white"/>
<path d="M142.918 587.051L141.006 588.158L142.918 589.265V587.051Z" fill="white"/>
<path d="M128.044 561.544L126.354 560.558V562.531L128.044 561.544Z" fill="white"/>
<path d="M314.073 934.175L309.887 931.759V936.591L314.073 934.175Z" fill="white"/>
<path d="M281.951 878.512L277.765 880.948L281.951 883.364V878.512Z" fill="white"/>
<path d="M267.883 854.334L263.858 851.999V856.649L267.883 854.334Z" fill="white"/>
<path d="M235.741 798.893L231.917 801.087L235.741 803.301V798.893Z" fill="white"/>
<path d="M221.592 774.473L217.869 772.319V776.627L221.592 774.473Z" fill="white"/>
<path d="M189.47 719.354L186.19 721.246L189.47 723.138V719.354Z" fill="white"/>
<path d="M175.1 694.632L171.96 692.821V696.424L175.1 694.632Z" fill="white"/>
<path d="M143.179 639.855L140.503 641.385L143.179 642.935V639.855Z" fill="white"/>
<path d="M128.507 614.772L126.132 613.403V616.14L128.507 614.772Z" fill="white"/>
<path d="M282.112 931.477L277.443 934.175L282.112 936.873V931.477Z" fill="white"/>
<path d="M268.305 907.561L263.636 904.864V910.259L268.305 907.561Z" fill="white"/>
<path d="M235.962 851.717L231.474 854.334L235.962 856.931V851.717Z" fill="white"/>
<path d="M222.055 827.701L217.627 825.144V830.277L222.055 827.701Z" fill="white"/>
<path d="M189.732 772.138L185.666 774.473L189.732 776.809V772.138Z" fill="white"/>
<path d="M175.563 747.86L171.739 745.645V750.074L175.563 747.86Z" fill="white"/>
<path d="M143.461 692.599L139.959 694.633L143.461 696.646V692.599Z" fill="white"/>
<path d="M129.01 667.999L125.871 666.207V669.81L129.01 667.999Z" fill="white"/>
<path d="M236.123 904.683L231.152 907.561L236.123 910.44V904.683Z" fill="white"/>
<path d="M222.417 880.948L217.446 878.069V883.806L222.417 880.948Z" fill="white"/>
<path d="M189.953 824.963L185.223 827.7L189.953 830.438V824.963Z" fill="white"/>
<path d="M176.026 801.087L171.497 798.47V803.704L176.026 801.087Z" fill="white"/>
<path d="M143.683 745.424L139.496 747.86L143.683 750.275V745.424Z" fill="white"/>
<path d="M129.574 721.246L125.609 718.951V723.541L129.574 721.246Z" fill="white"/>
<path d="M222.739 934.175L217.285 931.035V937.316L222.739 934.175Z" fill="white"/>
<path d="M190.195 877.807L184.741 880.948L190.195 884.088V877.807Z" fill="white"/>
<path d="M176.489 854.334L171.276 851.315V857.334L176.489 854.334Z" fill="white"/>
<path d="M143.944 798.228L138.973 801.087L143.944 803.966V798.228Z" fill="white"/>
<path d="M130.077 774.473L125.347 771.735V777.211L130.077 774.473Z" fill="white"/>
<path d="M190.356 930.753L184.439 934.175L190.356 937.597V930.753Z" fill="white"/>
<path d="M176.952 907.562L171.034 904.139V910.984L176.952 907.562Z" fill="white"/>
<path d="M144.166 851.093L138.55 854.334L144.166 857.575V851.093Z" fill="white"/>
<path d="M130.56 827.701L125.106 824.56V830.861L130.56 827.701Z" fill="white"/>
<path d="M144.347 903.998L138.188 907.561L144.347 911.125V903.998Z" fill="white"/>
<path d="M130.983 880.948L124.885 877.425V884.451L130.983 880.948Z" fill="white"/>
<path d="M131.345 934.175L124.703 930.35V938L131.345 934.175Z" fill="white"/>
</g>
<defs>
<clipPath id="clip0_203_99999">
<rect width="1283" height="1208" fill="white" transform="matrix(-1 0 0 1 1283 -270)"/>
</clipPath>
</defs>
</svg>
