<svg width="375" height="808" viewBox="0 0 375 808" fill="none" xmlns="http://www.w3.org/2000/svg">
<g style="mix-blend-mode:overlay" opacity="0.1">
<path d="M44.2263 564.187L44.1414 564.244L44.2263 564.3V564.187Z" fill="#F4F8FE"/>
<path d="M66.1328 564.244L65.6375 563.961V564.527L66.1328 564.244Z" fill="#F4F8FE"/>
<path d="M33.9241 545.531L33.1458 545.078V545.984L33.9241 545.531Z" fill="#F4F8FE"/>
<path d="M77.2419 544.441L75.3598 545.531L77.2419 546.621V544.441Z" fill="#F4F8FE"/>
<path d="M98.356 582.957L98.1437 582.829V583.084L98.356 582.957Z" fill="#F4F8FE"/>
<path d="M44.9481 525.516L42.7122 526.818L44.9481 528.106V525.516Z" fill="#F4F8FE"/>
<path d="M67.7603 526.818L64.8309 525.12V528.503L67.7603 526.818Z" fill="#F4F8FE"/>
<path d="M99.8701 545.531L97.3936 544.087V546.961L99.8701 545.531Z" fill="#F4F8FE"/>
<path d="M109.564 563.31L107.936 564.244L109.564 565.178V563.31Z" fill="#F4F8FE"/>
<path d="M11.876 545.389L11.6354 545.531L11.876 545.658V545.389Z" fill="#F4F8FE"/>
<path d="M12.5553 506.775L10.2628 508.105L12.5553 509.422V506.775Z" fill="#F4F8FE"/>
<path d="M35.6082 508.105L32.2967 506.18V510.016L35.6082 508.105Z" fill="#F4F8FE"/>
<path d="M78.3032 505.161L73.2228 508.105L78.3032 511.035V505.161Z" fill="#F4F8FE"/>
<path d="M102.205 508.105L96.219 504.637V511.559L102.205 508.105Z" fill="#F4F8FE"/>
<path d="M110.54 524.185L105.983 526.818L110.54 529.437V524.185Z" fill="#F4F8FE"/>
<path d="M132.433 564.244L129.716 562.673V565.815L132.433 564.244Z" fill="#F4F8FE"/>
<path d="M142.098 581.796L140.074 582.957L142.098 584.117V581.796Z" fill="#F4F8FE"/>
<path d="M130.834 601.67L130.522 601.5V601.854L130.834 601.67Z" fill="#F4F8FE"/>
<path d="M1.44641 526.818L0.767167 526.422V527.215L1.44641 526.818Z" fill="#F4F8FE"/>
<path d="M2.94653 489.378L0.0171623 487.68V491.077L2.94653 489.378Z" fill="#F4F8FE"/>
<path d="M46.0378 486.194L40.5188 489.378L46.0378 492.577V486.194Z" fill="#F4F8FE"/>
<path d="M70.2651 489.378L63.5715 485.528V493.243L70.2651 489.378Z" fill="#F4F8FE"/>
<path d="M111.899 484.396L103.252 489.378L111.899 494.375V484.396Z" fill="#F4F8FE"/>
<path d="M134.329 526.818L128.767 523.605V530.032L134.329 526.818Z" fill="#F4F8FE"/>
<path d="M142.947 542.884L138.376 545.531L142.947 548.164V542.884Z" fill="#F4F8FE"/>
<path d="M165.292 582.957L161.896 581.003V584.924L165.292 582.957Z" fill="#F4F8FE"/>
<path d="M13.4185 467.849L8.53617 470.666L13.4185 473.482V467.849Z" fill="#F4F8FE"/>
<path d="M37.7025 470.666L31.2494 466.943V474.403L37.7025 470.666Z" fill="#F4F8FE"/>
<path d="M79.6052 465.471L70.6049 470.666L79.6052 475.875V465.471Z" fill="#F4F8FE"/>
<path d="M104.837 470.666L94.9029 464.933V476.413L104.837 470.666Z" fill="#F4F8FE"/>
<path d="M137.117 489.378L127.381 483.759V495.012L137.117 489.378Z" fill="#F4F8FE"/>
<path d="M144.164 503.349L135.942 508.106L144.164 512.847V503.349Z" fill="#F4F8FE"/>
<path d="M167.09 545.531L161.005 542.007V549.056L167.09 545.531Z" fill="#F4F8FE"/>
<path d="M175.736 560.932L170.019 564.244L175.736 567.556V560.932Z" fill="#F4F8FE"/>
<path d="M174.831 599.929L171.816 601.67L174.831 603.411V599.929Z" fill="#F4F8FE"/>
<path d="M163.693 620.382L162.703 619.816V620.963L163.693 620.382Z" fill="#F4F8FE"/>
<path d="M4.47485 451.953L-0.747054 448.938V454.968L4.47485 451.953Z" fill="#F4F8FE"/>
<path d="M47.0566 447.013L38.495 451.953L47.0566 456.893V447.013Z" fill="#F4F8FE"/>
<path d="M72.4161 451.953L62.4959 446.22V457.686L72.4161 451.953Z" fill="#F4F8FE"/>
<path d="M113.003 445.045L101.045 451.953L113.003 458.86V445.045Z" fill="#F4F8FE"/>
<path d="M139.141 451.953L126.362 444.564V459.342L139.141 451.953Z" fill="#F4F8FE"/>
<path d="M145.381 463.815L133.508 470.666L145.381 477.517V463.815Z" fill="#F4F8FE"/>
<path d="M169.439 508.105L159.816 502.543V513.654L169.439 508.105Z" fill="#F4F8FE"/>
<path d="M176.727 521.807L168.052 526.818L176.727 531.829V521.807Z" fill="#F4F8FE"/>
<path d="M200.77 564.244L192.761 559.615V568.873L200.77 564.244Z" fill="#F4F8FE"/>
<path d="M208.851 578.427L201.011 582.957L208.851 587.486V578.427Z" fill="#F4F8FE"/>
<path d="M198.902 601.67L193.709 598.669V604.67L198.902 601.67Z" fill="#F4F8FE"/>
<path d="M174.081 638.671L173.345 639.109L174.081 639.534V638.671Z" fill="#F4F8FE"/>
<path d="M14.2251 429.036L6.93708 433.24L14.2251 437.444V429.036Z" fill="#F4F8FE"/>
<path d="M39.3866 433.24L30.4004 428.059V438.421L39.3866 433.24Z" fill="#F4F8FE"/>
<path d="M80.5107 426.474L68.8074 433.24L80.5107 439.992V426.474Z" fill="#F4F8FE"/>
<path d="M106.677 433.24L93.9831 425.908V440.572L106.677 433.24Z" fill="#F4F8FE"/>
<path d="M146.075 425.172L132.107 433.24L146.075 441.308V425.172Z" fill="#F4F8FE"/>
<path d="M171.632 470.666L158.726 463.22V478.111L171.632 470.666Z" fill="#F4F8FE"/>
<path d="M177.901 482.329L165.689 489.379L177.901 496.442V482.329Z" fill="#F4F8FE"/>
<path d="M202.652 526.818L191.826 520.562V533.061L202.652 526.818Z" fill="#F4F8FE"/>
<path d="M209.742 539.473L199.242 545.531L209.742 551.589V539.473Z" fill="#F4F8FE"/>
<path d="M234.974 582.957L224.276 576.785V589.128L234.974 582.957Z" fill="#F4F8FE"/>
<path d="M207.874 617.551L202.964 620.382L207.874 623.228V617.551Z" fill="#F4F8FE"/>
<path d="M197.091 639.109L194.614 637.68V640.539L197.091 639.109Z" fill="#F4F8FE"/>
<path d="M5.81921 414.527L-1.42639 410.337V418.703L5.81921 414.527Z" fill="#F4F8FE"/>
<path d="M47.75 408.384L37.1223 414.527L47.75 420.656V408.384Z" fill="#F4F8FE"/>
<path d="M73.803 414.527L61.8167 407.591V421.449L73.803 414.527Z" fill="#F4F8FE"/>
<path d="M113.597 406.586L99.8418 414.527L113.597 422.468V406.586Z" fill="#F4F8FE"/>
<path d="M140.103 414.527L125.881 406.303V422.737L140.103 414.527Z" fill="#F4F8FE"/>
<path d="M172.821 433.24L158.132 424.761V441.719L172.821 433.24Z" fill="#F4F8FE"/>
<path d="M178.637 443.63L164.217 451.953L178.637 460.276V443.63Z" fill="#F4F8FE"/>
<path d="M204.62 489.378L190.85 481.423V497.334L204.62 489.378Z" fill="#F4F8FE"/>
<path d="M210.719 500.334L197.275 508.105L210.719 515.862V500.334Z" fill="#F4F8FE"/>
<path d="M236.673 545.531L223.427 537.887V553.175L236.673 545.531Z" fill="#F4F8FE"/>
<path d="M243.182 556.388L229.583 564.244L243.182 572.086V556.388Z" fill="#F4F8FE"/>
<path d="M242.248 595.441L231.451 601.67L242.248 607.912V595.441Z" fill="#F4F8FE"/>
<path d="M232.852 620.382L225.337 616.051V624.728L232.852 620.382Z" fill="#F4F8FE"/>
<path d="M206.969 656.562L204.789 657.822L206.969 659.068V656.562Z" fill="#F4F8FE"/>
<path d="M195.732 676.535L195.294 676.28V676.79L195.732 676.535Z" fill="#F4F8FE"/>
<path d="M14.7629 390.676L5.86168 395.814L14.7629 400.938V390.676Z" fill="#F4F8FE"/>
<path d="M40.448 395.814L29.8768 389.699V401.915L40.448 395.814Z" fill="#F4F8FE"/>
<path d="M80.9211 388.341L67.9867 395.814L80.9211 403.274V388.341Z" fill="#F4F8FE"/>
<path d="M107.413 395.814L93.6151 387.845V403.769L107.413 395.814Z" fill="#F4F8FE"/>
<path d="M146.301 387.35L131.669 395.814L146.301 404.265V387.35Z" fill="#F4F8FE"/>
<path d="M172.963 395.814L158.061 387.208V404.406L172.963 395.814Z" fill="#F4F8FE"/>
<path d="M178.878 405.765L163.722 414.527L178.878 423.275V405.765Z" fill="#F4F8FE"/>
<path d="M205.624 451.953L190.341 443.134V460.771L205.624 451.953Z" fill="#F4F8FE"/>
<path d="M211.341 461.819L196.029 470.666L211.341 479.512V461.819Z" fill="#F4F8FE"/>
<path d="M238.343 508.105L222.592 499.004V517.193L238.343 508.105Z" fill="#F4F8FE"/>
<path d="M243.989 517.575L227.97 526.818L243.989 536.061V517.575Z" fill="#F4F8FE"/>
<path d="M271.174 564.244L254.787 554.774V573.699L271.174 564.244Z" fill="#F4F8FE"/>
<path d="M276.594 573.36L259.98 582.957L276.594 592.554V573.36Z" fill="#F4F8FE"/>
<path d="M269.377 601.67L255.692 593.771V609.582L269.377 601.67Z" fill="#F4F8FE"/>
<path d="M241.045 634.948L233.856 639.109L241.045 643.257V634.948Z" fill="#F4F8FE"/>
<path d="M230.715 657.822L226.413 655.331V660.299L230.715 657.822Z" fill="#F4F8FE"/>
<path d="M206.332 695.078L206.049 695.248L206.332 695.418V695.078Z" fill="#F4F8FE"/>
<path d="M6.78149 377.087L-1.90755 372.077V382.112L6.78149 377.087Z" fill="#F4F8FE"/>
<path d="M48.0897 370.35L36.4147 377.087L48.0897 383.839V370.35Z" fill="#F4F8FE"/>
<path d="M74.3973 377.087L61.5195 369.656V384.533L74.3973 377.087Z" fill="#F4F8FE"/>
<path d="M113.753 368.892L99.5587 377.087L113.753 385.283V368.892Z" fill="#F4F8FE"/>
<path d="M140.244 377.087L125.81 368.75V385.439L140.244 377.087Z" fill="#F4F8FE"/>
<path d="M178.736 368.594L164.019 377.087L178.736 385.594V368.594Z" fill="#F4F8FE"/>
<path d="M205.766 414.527L190.27 405.581V423.459L205.766 414.527Z" fill="#F4F8FE"/>
<path d="M211.525 424.082L195.662 433.24L211.525 442.398V424.082Z" fill="#F4F8FE"/>
<path d="M239.008 470.666L222.266 460.998V480.348L239.008 470.666Z" fill="#F4F8FE"/>
<path d="M244.456 479.328L227.035 489.378L244.456 499.443V479.328Z" fill="#F4F8FE"/>
<path d="M272.504 526.818L254.121 516.188V537.434L272.504 526.818Z" fill="#F4F8FE"/>
<path d="M277.287 534.731L258.593 545.531L277.287 556.331V534.731Z" fill="#F4F8FE"/>
<path d="M305.52 582.957L286.231 571.817V594.097L305.52 582.957Z" fill="#F4F8FE"/>
<path d="M275.462 612.767L262.244 620.382L275.462 628.012V612.767Z" fill="#F4F8FE"/>
<path d="M266.815 639.109L256.966 633.419V644.785L266.815 639.109Z" fill="#F4F8FE"/>
<path d="M239.913 674.327L236.107 676.535L239.913 678.743V674.327Z" fill="#F4F8FE"/>
<path d="M228.974 695.248L227.276 694.271V696.224L228.974 695.248Z" fill="#F4F8FE"/>
<path d="M15.145 352.571L5.09745 358.375L15.145 364.178V352.571Z" fill="#F4F8FE"/>
<path d="M41.0422 358.375L29.5795 351.764V364.985L41.0422 358.375Z" fill="#F4F8FE"/>
<path d="M80.9778 350.802L67.8594 358.375L80.9778 365.962V350.802Z" fill="#F4F8FE"/>
<path d="M107.342 358.375L93.6575 350.476V366.287L107.342 358.375Z" fill="#F4F8FE"/>
<path d="M146.018 350.434L132.249 358.375L146.018 366.315V350.434Z" fill="#F4F8FE"/>
<path d="M172.128 358.375L158.485 350.49V366.259L172.128 358.375Z" fill="#F4F8FE"/>
<path d="M205.129 377.087L190.595 368.708V385.481L205.129 377.087Z" fill="#F4F8FE"/>
<path d="M211.313 387.024L196.1 395.814L211.313 404.59V387.024Z" fill="#F4F8FE"/>
<path d="M238.838 433.24L222.351 423.714V442.766L238.838 433.24Z" fill="#F4F8FE"/>
<path d="M244.385 442.002L227.163 451.953L244.385 461.904V442.002Z" fill="#F4F8FE"/>
<path d="M273.099 489.378L253.824 478.253V500.518L273.099 489.378Z" fill="#F4F8FE"/>
<path d="M277.74 496.512L257.673 508.105L277.74 519.684V496.512Z" fill="#F4F8FE"/>
<path d="M306.609 545.531L285.693 533.443V557.605L306.609 545.531Z" fill="#F4F8FE"/>
<path d="M310.628 551.816L289.118 564.244L310.628 576.672V551.816Z" fill="#F4F8FE"/>
<path d="M309.864 590.586L290.675 601.67L309.864 612.753V590.586Z" fill="#F4F8FE"/>
<path d="M303.284 620.382L287.349 611.196V629.583L303.284 620.382Z" fill="#F4F8FE"/>
<path d="M274.047 652.641L265.075 657.822L274.047 663.003V652.641Z" fill="#F4F8FE"/>
<path d="M264.126 676.535L258.31 673.166V679.89L264.126 676.535Z" fill="#F4F8FE"/>
<path d="M239.149 713.083L237.635 713.961L239.149 714.838V713.083Z" fill="#F4F8FE"/>
<path d="M7.31934 339.662L-2.17635 334.184V345.14L7.31934 339.662Z" fill="#F4F8FE"/>
<path d="M48.0757 332.938L36.4432 339.662L48.0757 346.385V332.938Z" fill="#F4F8FE"/>
<path d="M73.9869 339.662L61.7176 332.584V346.739L73.9869 339.662Z" fill="#F4F8FE"/>
<path d="M113.243 332.329L100.549 339.662L113.243 346.994V332.329Z" fill="#F4F8FE"/>
<path d="M138.985 339.662L126.447 332.414V346.909L138.985 339.662Z" fill="#F4F8FE"/>
<path d="M177.873 332.669L165.759 339.662L177.873 346.654V332.669Z" fill="#F4F8FE"/>
<path d="M203.219 339.662L191.544 332.924V346.399L203.219 339.662Z" fill="#F4F8FE"/>
<path d="M210.62 350.802L197.487 358.375L210.62 365.962V350.802Z" fill="#F4F8FE"/>
<path d="M238.116 395.814L222.705 386.911V404.704L238.116 395.814Z" fill="#F4F8FE"/>
<path d="M244.046 405.171L227.856 414.527L244.046 423.869V405.171Z" fill="#F4F8FE"/>
<path d="M272.419 451.953L254.164 441.407V462.498L272.419 451.953Z" fill="#F4F8FE"/>
<path d="M277.556 459.398L258.041 470.666L277.556 481.933V459.398Z" fill="#F4F8FE"/>
<path d="M307.189 508.105L285.396 495.508V520.689L307.189 508.105Z" fill="#F4F8FE"/>
<path d="M311.01 513.725L288.354 526.818L311.01 539.897V513.725Z" fill="#F4F8FE"/>
<path d="M340.615 564.244L317.294 550.768V577.719L340.615 564.244Z" fill="#F4F8FE"/>
<path d="M343.7 569.382L320.195 582.957L343.7 596.531V569.382Z" fill="#F4F8FE"/>
<path d="M339.455 601.67L317.874 589.199V614.14L339.455 601.67Z" fill="#F4F8FE"/>
<path d="M308.534 630.319L293.321 639.109L308.534 647.885V630.319Z" fill="#F4F8FE"/>
<path d="M300.312 657.822L288.835 651.198V664.447L300.312 657.822Z" fill="#F4F8FE"/>
<path d="M272.773 692.275L267.608 695.248L272.773 698.234V692.275Z" fill="#F4F8FE"/>
<path d="M262.244 713.961L259.258 712.234V715.687L262.244 713.961Z" fill="#F4F8FE"/>
<path d="M15.0035 315.4L5.38049 320.949L15.0035 326.498V315.4Z" fill="#F4F8FE"/>
<path d="M40.3347 320.949L29.9334 314.947V326.951L40.3347 320.949Z" fill="#F4F8FE"/>
<path d="M80.2703 314.593L69.2746 320.949L80.2703 327.304V314.593Z" fill="#F4F8FE"/>
<path d="M105.686 320.949L94.4783 314.48V327.418L105.686 320.949Z" fill="#F4F8FE"/>
<path d="M144.971 314.806L134.329 320.949L144.971 327.092V314.806Z" fill="#F4F8FE"/>
<path d="M170.019 320.949L159.533 314.891V326.993L170.019 320.949Z" fill="#F4F8FE"/>
<path d="M209.445 315.4L199.836 320.949L209.445 326.498V315.4Z" fill="#F4F8FE"/>
<path d="M236.39 358.375L223.568 350.972V365.778L236.39 358.375Z" fill="#F4F8FE"/>
<path d="M243.451 368.764L229.031 377.087L243.451 385.425V368.764Z" fill="#F4F8FE"/>
<path d="M271.259 414.527L254.744 404.987V424.068L271.259 414.527Z" fill="#F4F8FE"/>
<path d="M276.962 423.006L259.244 433.24L276.962 443.474V423.006Z" fill="#F4F8FE"/>
<path d="M306.397 470.666L285.792 458.761V482.57L306.397 470.666Z" fill="#F4F8FE"/>
<path d="M310.812 476.653L288.764 489.378L310.812 502.104V476.653Z" fill="#F4F8FE"/>
<path d="M341.125 526.818L317.039 512.904V540.718L341.125 526.818Z" fill="#F4F8FE"/>
<path d="M343.983 531.461L319.629 545.531L343.983 559.587V531.461Z" fill="#F4F8FE"/>
<path d="M373.857 582.957L349.276 568.759V597.154L373.857 582.957Z" fill="#F4F8FE"/>
<path d="M342.766 608.45L322.077 620.382L342.766 632.329V608.45Z" fill="#F4F8FE"/>
<path d="M336.795 639.109L319.204 628.946V649.258L336.795 639.109Z" fill="#F4F8FE"/>
<path d="M306.921 670.547L296.548 676.535L306.921 682.522V670.547Z" fill="#F4F8FE"/>
<path d="M297.453 695.248L290.264 691.1V699.395L297.453 695.248Z" fill="#F4F8FE"/>
<path d="M271.825 731.329L269.504 732.673L271.825 734.032V731.329Z" fill="#F4F8FE"/>
<path d="M260.645 751.386L260.051 751.047V751.74L260.645 751.386Z" fill="#F4F8FE"/>
<path d="M6.56921 302.236L-1.79433 297.395V307.063L6.56921 302.236Z" fill="#F4F8FE"/>
<path d="M47.3397 296.786L37.9289 302.236L47.3397 307.672V296.786Z" fill="#F4F8FE"/>
<path d="M72.1897 302.236L62.6091 296.702V307.757L72.1897 302.236Z" fill="#F4F8FE"/>
<path d="M112.154 296.786L102.729 302.236L112.154 307.672V296.786Z" fill="#F4F8FE"/>
<path d="M136.692 302.236L127.593 296.97V307.488L136.692 302.236Z" fill="#F4F8FE"/>
<path d="M176.656 297.339L168.179 302.236L176.656 307.134V297.339Z" fill="#F4F8FE"/>
<path d="M200.77 302.236L192.775 297.607V306.851L200.77 302.236Z" fill="#F4F8FE"/>
<path d="M234.111 320.949L224.7 315.513V326.384L234.111 320.949Z" fill="#F4F8FE"/>
<path d="M242.347 333.264L231.253 339.662L242.347 346.06V333.264Z" fill="#F4F8FE"/>
<path d="M269.801 377.087L255.466 368.821V385.368L269.801 377.087Z" fill="#F4F8FE"/>
<path d="M276.269 386.784L260.631 395.814L276.269 404.831V386.784Z" fill="#F4F8FE"/>
<path d="M304.798 433.24L286.585 422.723V443.757L304.798 433.24Z" fill="#F4F8FE"/>
<path d="M310.034 440.558L290.307 451.953L310.034 463.347V440.558Z" fill="#F4F8FE"/>
<path d="M340.262 489.378L317.464 476.228V502.542L340.262 489.378Z" fill="#F4F8FE"/>
<path d="M343.899 494.191L319.813 508.105L343.899 522.006V494.191Z" fill="#F4F8FE"/>
<path d="M374.197 545.531L349.12 531.051V560.012L374.197 545.531Z" fill="#F4F8FE"/>
<path d="M376.702 549.65L351.441 564.244L376.702 578.838V549.65Z" fill="#F4F8FE"/>
<path d="M376.22 587.911L352.389 601.67L376.22 615.428V587.911Z" fill="#F4F8FE"/>
<path d="M372.074 620.382L350.168 607.742V633.037L372.074 620.382Z" fill="#F4F8FE"/>
<path d="M341.181 648.607L325.233 657.822L341.181 667.023V648.607Z" fill="#F4F8FE"/>
<path d="M333.412 676.535L320.888 669.302V683.768L333.412 676.535Z" fill="#F4F8FE"/>
<path d="M305.647 710.167L299.081 713.961L305.647 717.754V710.167Z" fill="#F4F8FE"/>
<path d="M295.246 732.673L291.368 730.451V734.91L295.246 732.673Z" fill="#F4F8FE"/>
<path d="M271.061 770.099L271.047 770.113H271.061V770.099Z" fill="#F4F8FE"/>
<path d="M14.3242 279.149L6.73904 283.523L14.3242 287.897V279.149Z" fill="#F4F8FE"/>
<path d="M38.6365 283.523L30.7824 278.98V288.053L38.6365 283.523Z" fill="#F4F8FE"/>
<path d="M79.2513 278.951L71.3265 283.523L79.2513 288.081V278.951Z" fill="#F4F8FE"/>
<path d="M103.38 283.523L95.6246 279.036V287.996L103.38 283.523Z" fill="#F4F8FE"/>
<path d="M143.839 279.333L136.593 283.523L143.839 287.699V279.333Z" fill="#F4F8FE"/>
<path d="M167.627 283.523L160.736 279.532V287.501L167.627 283.523Z" fill="#F4F8FE"/>
<path d="M208.341 279.885L202.044 283.523L208.341 287.161V279.885Z" fill="#F4F8FE"/>
<path d="M232.059 283.523L225.733 279.871V287.175L232.059 283.523Z" fill="#F4F8FE"/>
<path d="M241.244 297.735L233.446 302.236L241.244 306.737V297.735Z" fill="#F4F8FE"/>
<path d="M267.537 339.662L256.612 333.349V345.975L267.537 339.662Z" fill="#F4F8FE"/>
<path d="M275.235 351.127L262.683 358.375L275.235 365.636V351.127Z" fill="#F4F8FE"/>
<path d="M303.185 395.814L287.406 386.699V404.916L303.185 395.814Z" fill="#F4F8FE"/>
<path d="M309.128 404.718L292.146 414.527L309.128 424.337V404.718Z" fill="#F4F8FE"/>
<path d="M338.408 451.953L318.397 440.388V463.517L338.408 451.953Z" fill="#F4F8FE"/>
<path d="M343.064 458.209L321.483 470.666L343.064 483.122V458.209Z" fill="#F4F8FE"/>
<path d="M373.702 508.105L349.361 494.035V522.161L373.702 508.105Z" fill="#F4F8FE"/>
<path d="M376.659 512.295L351.512 526.818L376.659 541.327V512.295Z" fill="#F4F8FE"/>
<path d="M374.961 627.531L354.923 639.109L374.961 650.674V627.531Z" fill="#F4F8FE"/>
<path d="M368.862 657.822L351.781 647.956V667.674L368.862 657.822Z" fill="#F4F8FE"/>
<path d="M339.497 688.963L328.615 695.248L339.497 701.533V688.963Z" fill="#F4F8FE"/>
<path d="M330.582 713.961L322.303 709.176V718.745L330.582 713.961Z" fill="#F4F8FE"/>
<path d="M304.402 749.758L301.571 751.386L304.402 753.028V749.758Z" fill="#F4F8FE"/>
<path d="M293.25 770.113L292.359 769.59V770.623L293.25 770.113Z" fill="#F4F8FE"/>
<path d="M5.18237 264.81L-1.1009 261.187V268.42L5.18237 264.81Z" fill="#F4F8FE"/>
<path d="M46.4199 260.96L39.7687 264.81L46.4199 268.646V260.96Z" fill="#F4F8FE"/>
<path d="M70.1519 264.81L63.628 261.031V268.576L70.1519 264.81Z" fill="#F4F8FE"/>
<path d="M111.106 261.173L104.823 264.81L111.106 268.434V261.173Z" fill="#F4F8FE"/>
<path d="M134.612 264.81L128.626 261.342V268.264L134.612 264.81Z" fill="#F4F8FE"/>
<path d="M175.651 261.654L170.203 264.81L175.651 267.953V261.654Z" fill="#F4F8FE"/>
<path d="M198.846 264.81L193.737 261.852V267.755L198.846 264.81Z" fill="#F4F8FE"/>
<path d="M240.395 261.767L235.144 264.81L240.395 267.84V261.767Z" fill="#F4F8FE"/>
<path d="M265.428 302.236L257.659 297.749V306.723L265.428 302.236Z" fill="#F4F8FE"/>
<path d="M274.16 315.556L264.834 320.949L274.16 326.328V315.556Z" fill="#F4F8FE"/>
<path d="M300.949 358.375L288.51 351.198V365.551L300.949 358.375Z" fill="#F4F8FE"/>
<path d="M308.194 368.906L294 377.087L308.194 385.283V368.906Z" fill="#F4F8FE"/>
<path d="M336.228 414.527L319.487 404.845V424.195L336.228 414.527Z" fill="#F4F8FE"/>
<path d="M341.875 422.836L323.86 433.24L341.875 443.644V422.836Z" fill="#F4F8FE"/>
<path d="M371.72 470.666L350.352 458.337V483.009L371.72 470.666Z" fill="#F4F8FE"/>
<path d="M375.909 476.144L352.998 489.378L375.909 502.613V476.144Z" fill="#F4F8FE"/>
<path d="M373.065 668.254L358.715 676.535L373.065 684.816V668.254Z" fill="#F4F8FE"/>
<path d="M365.324 695.248L353.55 688.453V702.042L365.324 695.248Z" fill="#F4F8FE"/>
<path d="M338.096 728.823L331.417 732.673L338.096 736.538V728.823Z" fill="#F4F8FE"/>
<path d="M327.723 751.386L323.733 749.093V753.694L327.723 751.386Z" fill="#F4F8FE"/>
<path d="M303.524 788.713L303.34 788.826L303.524 788.925V788.713Z" fill="#F4F8FE"/>
<path d="M13.5317 243.083L8.324 246.084L13.5317 249.098V243.083Z" fill="#F4F8FE"/>
<path d="M36.896 246.084L31.6458 243.054V249.127L36.896 246.084Z" fill="#F4F8FE"/>
<path d="M78.3315 243.097L73.1521 246.083L78.3315 249.084V243.097Z" fill="#F4F8FE"/>
<path d="M101.554 246.084L96.5446 243.196V248.985L101.554 246.084Z" fill="#F4F8FE"/>
<path d="M142.976 243.394L138.306 246.084L142.976 248.787V243.394Z" fill="#F4F8FE"/>
<path d="M165.929 246.084L161.585 243.578V248.603L165.929 246.084Z" fill="#F4F8FE"/>
<path d="M207.577 243.762L203.558 246.084L207.577 248.405V243.762Z" fill="#F4F8FE"/>
<path d="M230.573 246.084L226.483 243.72V248.462L230.573 246.084Z" fill="#F4F8FE"/>
<path d="M263.914 264.81L258.423 261.626V267.981L263.914 264.81Z" fill="#F4F8FE"/>
<path d="M273.226 279.744L266.702 283.523L273.226 287.289V279.744Z" fill="#F4F8FE"/>
<path d="M298.84 320.949L289.571 315.584V326.299L298.84 320.949Z" fill="#F4F8FE"/>
<path d="M307.006 333.533L296.378 339.662L307.006 345.791V333.533Z" fill="#F4F8FE"/>
<path d="M334.191 377.087L320.506 369.189V385L334.191 377.087Z" fill="#F4F8FE"/>
<path d="M340.842 387.18L325.912 395.814L340.842 404.435V387.18Z" fill="#F4F8FE"/>
<path d="M369.102 433.24L351.653 423.162V443.304L369.102 433.24Z" fill="#F4F8FE"/>
<path d="M374.664 440.884L355.503 451.953L374.664 463.022V440.884Z" fill="#F4F8FE"/>
<path d="M371.494 708.384L361.828 713.961L371.494 719.538V708.384Z" fill="#F4F8FE"/>
<path d="M362.197 732.673L355.107 728.583V736.778L362.197 732.673Z" fill="#F4F8FE"/>
<path d="M336.695 768.669L334.205 770.113L336.695 771.557V768.669Z" fill="#F4F8FE"/>
<path d="M325.657 788.826L324.766 788.302V789.336L325.657 788.826Z" fill="#F4F8FE"/>
<path d="M3.61157 227.371L-0.322543 225.106V229.635L3.61157 227.371Z" fill="#F4F8FE"/>
<path d="M45.5142 225.106L41.58 227.371L45.5142 229.635V225.106Z" fill="#F4F8FE"/>
<path d="M68.4113 227.371L64.5055 225.106V229.635L68.4113 227.371Z" fill="#F4F8FE"/>
<path d="M110.257 225.205L106.521 227.371L110.257 229.536V225.205Z" fill="#F4F8FE"/>
<path d="M133.069 227.371L129.404 225.247V229.494L133.069 227.371Z" fill="#F4F8FE"/>
<path d="M174.915 225.488L171.661 227.371L174.915 229.253V225.488Z" fill="#F4F8FE"/>
<path d="M197.501 227.371L194.402 225.587V229.168L197.501 227.371Z" fill="#F4F8FE"/>
<path d="M239.8 225.375L236.347 227.371L239.8 229.366V225.375Z" fill="#F4F8FE"/>
<path d="M262.81 227.371L258.975 225.163V229.593L262.81 227.371Z" fill="#F4F8FE"/>
<path d="M272.674 243.295L267.834 246.083L272.674 248.886V243.295Z" fill="#F4F8FE"/>
<path d="M297.156 283.523L290.406 279.616V287.416L297.156 283.523Z" fill="#F4F8FE"/>
<path d="M306.086 297.692L298.217 302.236L306.086 306.766V297.692Z" fill="#F4F8FE"/>
<path d="M331.898 339.662L321.652 333.745V345.578L331.898 339.662Z" fill="#F4F8FE"/>
<path d="M339.696 351.75L328.219 358.375L339.696 364.999V351.75Z" fill="#F4F8FE"/>
<path d="M366.965 395.814L352.729 387.59V404.024L366.965 395.814Z" fill="#F4F8FE"/>
<path d="M373.376 405.68L358.064 414.527L373.376 423.374V405.68Z" fill="#F4F8FE"/>
<path d="M369.852 748.683L365.14 751.386L369.852 754.104V748.683Z" fill="#F4F8FE"/>
<path d="M359.352 770.113L356.536 768.485V771.727L359.352 770.113Z" fill="#F4F8FE"/>
<path d="M12.6685 207.143L10.0504 208.658L12.6685 210.172V207.143Z" fill="#F4F8FE"/>
<path d="M35.1411 208.658L32.5372 207.157V210.158L35.1411 208.658Z" fill="#F4F8FE"/>
<path d="M77.4824 207.157L74.8644 208.658L77.4824 210.158V207.157Z" fill="#F4F8FE"/>
<path d="M99.8418 208.658L97.4078 207.242V210.073L99.8418 208.658Z" fill="#F4F8FE"/>
<path d="M142.24 207.242L139.791 208.658L142.24 210.073V207.242Z" fill="#F4F8FE"/>
<path d="M164.542 208.658L162.278 207.341V209.974L164.542 208.658Z" fill="#F4F8FE"/>
<path d="M206.997 207.341L204.718 208.658L206.997 209.974V207.341Z" fill="#F4F8FE"/>
<path d="M229.512 208.658L227.007 207.214V210.102L229.512 208.658Z" fill="#F4F8FE"/>
<path d="M272.193 206.69L268.782 208.658L272.193 210.625V206.69Z" fill="#F4F8FE"/>
<path d="M296.038 246.083L290.972 243.153V249.014L296.038 246.083Z" fill="#F4F8FE"/>
<path d="M305.491 261.3L299.406 264.81L305.491 268.307V261.3Z" fill="#F4F8FE"/>
<path d="M330.228 302.236L322.487 297.763V306.695L330.228 302.236Z" fill="#F4F8FE"/>
<path d="M338.761 315.938L330.087 320.949L338.761 325.96V315.938Z" fill="#F4F8FE"/>
<path d="M364.616 358.375L353.904 352.189V364.574L364.616 358.375Z" fill="#F4F8FE"/>
<path d="M372.286 370.151L360.258 377.087L372.286 384.037V370.151Z" fill="#F4F8FE"/>
<path d="M368.678 788.118L367.475 788.826L368.678 789.52V788.118Z" fill="#F4F8FE"/>
<path d="M1.99829 189.945L0.48407 189.067V190.808L1.99829 189.945Z" fill="#F4F8FE"/>
<path d="M44.6934 189.082L43.2074 189.945L44.6934 190.809V189.082Z" fill="#F4F8FE"/>
<path d="M66.7981 189.945L65.3122 189.082V190.809L66.7981 189.945Z" fill="#F4F8FE"/>
<path d="M109.564 188.997L107.922 189.945L109.564 190.879V188.997Z" fill="#F4F8FE"/>
<path d="M131.725 189.945L130.069 188.997V190.893L131.725 189.945Z" fill="#F4F8FE"/>
<path d="M174.378 188.997L172.736 189.945L174.378 190.893V188.997Z" fill="#F4F8FE"/>
<path d="M196.567 189.945L194.869 188.968V190.922L196.567 189.945Z" fill="#F4F8FE"/>
<path d="M239.432 188.586L237.083 189.945L239.432 191.29V188.586Z" fill="#F4F8FE"/>
<path d="M262.145 189.945L259.301 188.303V191.587L262.145 189.945Z" fill="#F4F8FE"/>
<path d="M295.246 208.658L291.368 206.421V210.894L295.246 208.658Z" fill="#F4F8FE"/>
<path d="M304.982 224.738L300.411 227.371L304.982 230.003V224.738Z" fill="#F4F8FE"/>
<path d="M329.195 264.81L322.997 261.229V268.378L329.195 264.81Z" fill="#F4F8FE"/>
<path d="M338.167 279.532L331.275 283.523L338.167 287.501V279.532Z" fill="#F4F8FE"/>
<path d="M362.89 320.949L354.767 316.249V325.634L362.89 320.949Z" fill="#F4F8FE"/>
<path d="M371.197 334.594L362.437 339.662L371.197 344.729V334.594Z" fill="#F4F8FE"/>
<path d="M12.0317 170.822L11.3242 171.232L12.0317 171.643V170.822Z" fill="#F4F8FE"/>
<path d="M33.8674 171.232L33.1599 170.822V171.643L33.8674 171.232Z" fill="#F4F8FE"/>
<path d="M76.9021 170.737L76.0389 171.232L76.9021 171.728V170.737Z" fill="#F4F8FE"/>
<path d="M98.8936 171.232L97.8746 170.638V171.813L98.8936 171.232Z" fill="#F4F8FE"/>
<path d="M141.829 170.524L140.612 171.232L141.829 171.94V170.524Z" fill="#F4F8FE"/>
<path d="M163.92 171.232L162.59 170.454V171.997L163.92 171.232Z" fill="#F4F8FE"/>
<path d="M206.785 170.27L205.143 171.232L206.785 172.181V170.27Z" fill="#F4F8FE"/>
<path d="M229.187 171.232L227.177 170.057V172.393L229.187 171.232Z" fill="#F4F8FE"/>
<path d="M272.009 169.562L269.122 171.232L272.009 172.888V169.562Z" fill="#F4F8FE"/>
<path d="M294.906 171.232L291.538 169.279V173.186L294.906 171.232Z" fill="#F4F8FE"/>
<path d="M304.741 187.737L300.906 189.945L304.741 192.153V187.737Z" fill="#F4F8FE"/>
<path d="M328.445 227.371L323.379 224.455V230.287L328.445 227.371Z" fill="#F4F8FE"/>
<path d="M337.757 242.8L332.082 246.084L337.757 249.367V242.8Z" fill="#F4F8FE"/>
<path d="M361.998 283.523L355.22 279.602V287.43L361.998 283.523Z" fill="#F4F8FE"/>
<path d="M370.588 298.23L363.668 302.236L370.588 306.228V298.23Z" fill="#F4F8FE"/>
<path d="M1.07849 152.505L0.951133 152.434V152.59L1.07849 152.505Z" fill="#F4F8FE"/>
<path d="M44.3113 152.335L43.9858 152.505L44.3113 152.689V152.335Z" fill="#F4F8FE"/>
<path d="M66.1046 152.505L65.6518 152.25V152.774L66.1046 152.505Z" fill="#F4F8FE"/>
<path d="M109.267 152.066L108.502 152.505L109.267 152.958V152.066Z" fill="#F4F8FE"/>
<path d="M131.301 152.505L130.282 151.925V153.1L131.301 152.505Z" fill="#F4F8FE"/>
<path d="M174.279 151.741L172.948 152.505L174.279 153.284V151.741Z" fill="#F4F8FE"/>
<path d="M196.468 152.505L194.926 151.628V153.397L196.468 152.505Z" fill="#F4F8FE"/>
<path d="M239.375 151.26L237.196 152.505L239.375 153.779V151.26Z" fill="#F4F8FE"/>
<path d="M262.032 152.505L259.357 150.962V154.062L262.032 152.505Z" fill="#F4F8FE"/>
<path d="M304.628 150.495L301.147 152.505L304.628 154.529V150.495Z" fill="#F4F8FE"/>
<path d="M327.879 189.945L323.662 187.51V192.38L327.879 189.945Z" fill="#F4F8FE"/>
<path d="M337.445 205.926L332.719 208.658L337.445 211.39V205.926Z" fill="#F4F8FE"/>
<path d="M361.376 246.083L355.517 242.7V249.467L361.376 246.083Z" fill="#F4F8FE"/>
<path d="M370.333 261.229L364.149 264.81L370.333 268.378V261.229Z" fill="#F4F8FE"/>
<path d="M76.7041 133.623L76.4069 133.792L76.7041 133.976V133.623Z" fill="#F4F8FE"/>
<path d="M98.5823 133.792L98.0303 133.481V134.118L98.5823 133.792Z" fill="#F4F8FE"/>
<path d="M141.759 133.212L140.74 133.792L141.759 134.387V133.212Z" fill="#F4F8FE"/>
<path d="M163.849 133.792L162.618 133.099V134.5L163.849 133.792Z" fill="#F4F8FE"/>
<path d="M206.799 132.83L205.115 133.792L206.799 134.769V132.83Z" fill="#F4F8FE"/>
<path d="M229.187 133.792L227.177 132.632V134.967L229.187 133.792Z" fill="#F4F8FE"/>
<path d="M271.966 132.221L269.235 133.792L271.966 135.378V132.221Z" fill="#F4F8FE"/>
<path d="M294.694 133.792L291.637 132.037V135.562L294.694 133.792Z" fill="#F4F8FE"/>
<path d="M327.653 152.505L323.775 150.269V154.756L327.653 152.505Z" fill="#F4F8FE"/>
<path d="M337.276 168.798L333.058 171.232L337.276 173.667V168.798Z" fill="#F4F8FE"/>
<path d="M360.838 208.658L355.786 205.742V211.574L360.838 208.658Z" fill="#F4F8FE"/>
<path d="M370.093 224.214L364.631 227.371L370.093 230.527V224.214Z" fill="#F4F8FE"/>
<path d="M65.8782 115.08L65.765 115.023V115.15L65.8782 115.08Z" fill="#F4F8FE"/>
<path d="M109.196 114.768L108.644 115.08L109.196 115.405V114.768Z" fill="#F4F8FE"/>
<path d="M131.131 115.08L130.367 114.655V115.518L131.131 115.08Z" fill="#F4F8FE"/>
<path d="M174.236 114.386L173.019 115.08L174.236 115.787V114.386Z" fill="#F4F8FE"/>
<path d="M196.383 115.08L194.968 114.259V115.901L196.383 115.08Z" fill="#F4F8FE"/>
<path d="M239.319 113.919L237.295 115.08L239.319 116.254V113.919Z" fill="#F4F8FE"/>
<path d="M261.848 115.08L259.457 113.692V116.467L261.848 115.08Z" fill="#F4F8FE"/>
<path d="M304.458 113.353L301.458 115.08L304.458 116.821V113.353Z" fill="#F4F8FE"/>
<path d="M327.214 115.08L323.987 113.225V116.934L327.214 115.08Z" fill="#F4F8FE"/>
<path d="M337.106 131.655L333.398 133.792L337.106 135.944V131.655Z" fill="#F4F8FE"/>
<path d="M360.512 171.232L355.956 168.599V173.851L360.512 171.232Z" fill="#F4F8FE"/>
<path d="M369.909 187.114L365.013 189.945L369.909 192.762V187.114Z" fill="#F4F8FE"/>
<path d="M76.6616 96.2818L76.5059 96.3668L76.6616 96.4517V96.2818Z" fill="#F4F8FE"/>
<path d="M98.4125 96.3668L98.1153 96.1969V96.5366L98.4125 96.3668Z" fill="#F4F8FE"/>
<path d="M141.674 95.9279L140.924 96.3668L141.674 96.8056V95.9279Z" fill="#F4F8FE"/>
<path d="M163.736 96.3667L162.674 95.7581V96.9754L163.736 96.3667Z" fill="#F4F8FE"/>
<path d="M206.756 95.475L205.214 96.3668L206.756 97.2586V95.475Z" fill="#F4F8FE"/>
<path d="M229.073 96.3668L227.234 95.3052V97.4284L229.073 96.3668Z" fill="#F4F8FE"/>
<path d="M271.839 95.0079L269.49 96.3668L271.839 97.7257V95.0079Z" fill="#F4F8FE"/>
<path d="M294.425 96.3668L291.778 94.8381V97.8955L294.425 96.3668Z" fill="#F4F8FE"/>
<path d="M336.922 94.555L333.766 96.3668L336.922 98.1786V94.555Z" fill="#F4F8FE"/>
<path d="M360.159 133.792L356.125 131.471V136.128L360.159 133.792Z" fill="#F4F8FE"/>
<path d="M369.739 149.986L365.352 152.505L369.739 155.039V149.986Z" fill="#F4F8FE"/>
<path d="M65.8215 77.654L65.8074 77.6398V77.654H65.8215Z" fill="#F4F8FE"/>
<path d="M109.168 77.3992L108.715 77.654L109.168 77.9087V77.3992Z" fill="#F4F8FE"/>
<path d="M131.018 77.654L130.423 77.3001V77.9937L131.018 77.654Z" fill="#F4F8FE"/>
<path d="M174.18 77.0311L173.118 77.6539L174.18 78.2626V77.0311Z" fill="#F4F8FE"/>
<path d="M196.355 77.6539L194.982 76.8613V78.4466L196.355 77.6539Z" fill="#F4F8FE"/>
<path d="M239.262 76.5782L237.408 77.654L239.262 78.7297V76.5782Z" fill="#F4F8FE"/>
<path d="M261.693 77.654L259.527 76.3942V78.8996L261.693 77.654Z" fill="#F4F8FE"/>
<path d="M304.345 76.1252L301.699 77.6539L304.345 79.1827V76.1252Z" fill="#F4F8FE"/>
<path d="M326.959 77.654L324.115 76.012V79.2818L326.959 77.654Z" fill="#F4F8FE"/>
<path d="M359.677 96.3668L356.366 94.4559V98.2777L359.677 96.3668Z" fill="#F4F8FE"/>
<path d="M369.513 112.942L365.805 115.08L369.513 117.217V112.942Z" fill="#F4F8FE"/>
<path d="M76.6616 58.8562L76.5059 58.9412L76.6616 59.0261V58.8562Z" fill="#F4F8FE"/>
<path d="M98.4125 58.9412L98.1153 58.7713V59.111L98.4125 58.9412Z" fill="#F4F8FE"/>
<path d="M141.674 58.5023L140.924 58.9411L141.674 59.3658V58.5023Z" fill="#F4F8FE"/>
<path d="M163.637 58.9412L162.731 58.4174V59.4649L163.637 58.9412Z" fill="#F4F8FE"/>
<path d="M206.7 58.1485L205.313 58.9411L206.7 59.7338V58.1485Z" fill="#F4F8FE"/>
<path d="M228.974 58.9411L227.276 57.9503V59.9178L228.974 58.9411Z" fill="#F4F8FE"/>
<path d="M271.782 57.6814L269.603 58.9412L271.782 60.2009V57.6814Z" fill="#F4F8FE"/>
<path d="M294.227 58.9411L291.878 57.5823V60.3L294.227 58.9411Z" fill="#F4F8FE"/>
<path d="M336.78 57.3699L334.049 58.9411L336.78 60.5123V57.3699Z" fill="#F4F8FE"/>
<path d="M359.394 58.9411L356.507 57.2708V60.5973L359.394 58.9411Z" fill="#F4F8FE"/>
<path d="M369.329 75.828L366.159 77.654L369.329 79.4799V75.828Z" fill="#F4F8FE"/>
<path d="M44.2122 40.2142L44.1839 40.2283H44.2122V40.2142Z" fill="#F4F8FE"/>
<path d="M65.9065 40.2283L65.7508 40.1292V40.3132L65.9065 40.2283Z" fill="#F4F8FE"/>
<path d="M109.168 39.9594L108.701 40.2283L109.168 40.4972V39.9594Z" fill="#F4F8FE"/>
<path d="M131.131 40.2283L130.367 39.7895V40.6529L131.131 40.2283Z" fill="#F4F8FE"/>
<path d="M174.18 39.6055L173.118 40.2283L174.18 40.837V39.6055Z" fill="#F4F8FE"/>
<path d="M196.355 40.2283L194.982 39.4215V41.021L196.355 40.2283Z" fill="#F4F8FE"/>
<path d="M239.234 39.2091L237.479 40.2283L239.234 41.2333V39.2091Z" fill="#F4F8FE"/>
<path d="M261.593 40.2283L259.584 39.0535V41.389L261.593 40.2283Z" fill="#F4F8FE"/>
<path d="M304.26 38.8411L301.869 40.2283L304.26 41.6013V38.8411Z" fill="#F4F8FE"/>
<path d="M326.775 40.2283L324.214 38.7421V41.7004L326.775 40.2283Z" fill="#F4F8FE"/>
<path d="M369.244 38.558L366.357 40.2283L369.244 41.8845V38.558Z" fill="#F4F8FE"/>
<path d="M33.4147 21.5155L33.4005 21.5013V21.5155H33.4147Z" fill="#F4F8FE"/>
<path d="M76.7041 21.3315L76.4069 21.5155L76.7041 21.6854V21.3315Z" fill="#F4F8FE"/>
<path d="M98.5116 21.5155L98.0587 21.2466V21.7703L98.5116 21.5155Z" fill="#F4F8FE"/>
<path d="M141.674 21.0767L140.924 21.5155L141.674 21.9401V21.0767Z" fill="#F4F8FE"/>
<path d="M163.736 21.5155L162.674 20.8927V22.1241L163.736 21.5155Z" fill="#F4F8FE"/>
<path d="M206.742 20.6237L205.228 21.5155L206.742 22.3931V20.6237Z" fill="#F4F8FE"/>
<path d="M228.974 21.5155L227.276 20.5247V22.4922L228.974 21.5155Z" fill="#F4F8FE"/>
<path d="M271.726 20.3406L269.702 21.5155L271.726 22.6762V20.3406Z" fill="#F4F8FE"/>
<path d="M294.142 21.5155L291.92 20.2132V22.7894L294.142 21.5155Z" fill="#F4F8FE"/>
<path d="M336.752 19.9584L334.092 21.5155L336.752 23.0584V19.9584Z" fill="#F4F8FE"/>
<path d="M359.366 21.5155L356.522 19.8735V23.1433L359.366 21.5155Z" fill="#F4F8FE"/>
<path d="M44.2122 2.77435L44.1839 2.78851L44.2122 2.81682V2.77435Z" fill="#F4F8FE"/>
<path d="M65.9207 2.78854L65.7508 2.68945V2.88762L65.9207 2.78854Z" fill="#F4F8FE"/>
<path d="M109.224 2.44882L108.616 2.78854L109.224 3.14241V2.44882Z" fill="#F4F8FE"/>
<path d="M131.131 2.78853L130.367 2.34973V3.22734L131.131 2.78853Z" fill="#F4F8FE"/>
<path d="M174.236 2.08075L173.019 2.7885L174.236 3.49624V2.08075Z" fill="#F4F8FE"/>
<path d="M196.355 2.78853L194.982 1.99585V3.59536L196.355 2.78853Z" fill="#F4F8FE"/>
<path d="M239.22 1.81183L237.508 2.78852L239.22 3.77936V1.81183Z" fill="#F4F8FE"/>
<path d="M261.593 2.78854L259.584 1.62784V3.9634L261.593 2.78854Z" fill="#F4F8FE"/>
<path d="M304.246 1.44382L301.897 2.78854L304.246 4.14741V1.44382Z" fill="#F4F8FE"/>
<path d="M326.733 2.78853L324.228 1.34473V4.24649L326.733 2.78853Z" fill="#F4F8FE"/>
<path d="M369.23 1.14655L366.385 2.78852L369.23 4.43049V1.14655Z" fill="#F4F8FE"/>
</g>
</svg>
