<svg width="206" height="40" viewBox="0 0 206 40" fill="none" xmlns="http://www.w3.org/2000/svg">
<g clip-path="url(#clip0_302_204)">
<path d="M29.8827 5.74724V0L7.57092 12.6179V21.5547L22.1914 30.0602L29.8827 25.6269V19.8195L22.1914 24.2628L12.5948 18.656V15.5165L29.8827 5.74724Z" fill="url(#paint0_linear_302_204)"/>
<path d="M38.3862 30.6418V13.9919L30.5144 9.44824L17.1374 17.1112L22.1914 19.9899L30.5345 15.2557L33.3623 16.8906V27.7431L22.1914 34.1925L4.98379 24.0119L0 26.8504L22.2014 39.9999L38.3862 30.6418Z" fill="url(#paint1_linear_302_204)"/>
<path d="M86.74 23.6611C87.5723 22.6481 87.9935 21.4344 87.9935 20.0202C87.9935 17.954 87.2815 16.3893 85.8476 15.3261C84.5941 14.3933 82.9596 13.9219 80.9239 13.9219H69.5926V30.7122H72.3402V25.9981H79.9011L84.3133 30.7122H88.3846L83.6014 25.6471C84.925 25.2659 85.9779 24.6039 86.7501 23.6511L86.74 23.6611ZM72.3302 23.0994V16.8607H81.3451C83.842 16.8607 85.0955 17.9139 85.0955 20.0101C85.0955 21.0432 84.7044 21.8356 83.9122 22.3973C83.2203 22.8687 82.3679 23.1094 81.3451 23.1094H72.3302V23.0994Z" fill="white"/>
<path d="M90.9216 30.7122H104.569V27.7835H93.6793V23.6611H101.812V20.7323H93.6793V16.8507H104.569V13.9219H90.9216V30.7122Z" fill="white"/>
<path d="M118.648 14.4132C118.217 14.0521 117.796 13.8716 117.395 13.8716C117.024 13.8716 116.613 14.0622 116.141 14.4333C115.76 14.7643 115.46 15.1253 115.239 15.5165L106.655 30.682H110.195L112.882 25.9879H121.707L124.364 30.682L127.904 30.7021L119.531 15.5165C119.3 15.0953 118.999 14.7241 118.628 14.4132H118.648ZM114.557 23.0892L117.335 18.2447L120.082 23.0892H114.557Z" fill="white"/>
<path d="M125.437 16.8507H131.684V30.7122H134.412V16.8507H140.629V13.9219H125.437V16.8507Z" fill="white"/>
<path d="M158.9 26.389L151.85 13.9316H148.31L157.145 29.3379C157.777 30.4311 158.338 30.9828 158.83 30.9828C159.321 30.9828 159.913 30.4311 160.544 29.3379L169.559 13.9316H166.019L158.9 26.389Z" fill="white"/>
<path d="M186.366 15.5264C185.192 14.4632 183.718 13.9316 181.953 13.9316H170.622V30.712H173.37V25.9978H181.953C183.728 25.9978 185.202 25.4763 186.366 24.4231C187.629 23.2897 188.261 21.8053 188.261 19.9698C188.261 18.1342 187.629 16.6398 186.366 15.5164V15.5264ZM184.681 22.2366C184.069 22.8083 183.297 23.0991 182.395 23.0991H173.38V16.8604H182.395C183.307 16.8604 184.069 17.1413 184.681 17.6929C185.293 18.2446 185.604 19.0069 185.604 19.9497C185.604 20.8925 185.293 21.6648 184.681 22.2366Z" fill="white"/>
<path d="M203.252 13.9219V25.5768L193.124 14.7845C192.583 14.2127 192.061 13.9219 191.55 13.9219C191.179 13.9219 190.898 14.0623 190.698 14.3532C190.497 14.644 190.397 14.975 190.397 15.3762V30.7122H193.124V19.0673L203.252 29.8798C203.884 30.5518 204.456 30.8928 204.967 30.8928C205.659 30.8928 206.01 30.3512 206.01 29.2679V13.9219H203.262H203.252Z" fill="white"/>
<path d="M51.5928 16.8802H64.6088L67.0455 13.9414H50.8808C49.2563 13.9414 47.9427 15.2553 47.9427 16.8802V27.7729C47.9427 29.3978 49.2563 30.7117 50.8808 30.7117H64.1074C65.7319 30.7117 67.0455 29.3978 67.0455 27.7729V20.8321H61.3297L58.9331 23.7709H64.1174V27.0608C64.1174 27.4519 63.7966 27.7729 63.4055 27.7729H51.6128C51.2117 27.7729 50.8908 27.4519 50.8908 27.0507V17.5924C50.8908 17.1912 51.2117 16.8702 51.6128 16.8702L51.5928 16.8802Z" fill="white"/>
</g>
<defs>
<linearGradient id="paint0_linear_302_204" x1="29.8827" y1="2.2201e-05" x2="7.14217" y2="0.427645" gradientUnits="userSpaceOnUse">
<stop stop-color="#006BB8"/>
<stop offset="1" stop-color="#00F0FF"/>
</linearGradient>
<linearGradient id="paint1_linear_302_204" x1="38.3862" y1="9.44826" x2="-0.711867" y2="10.6928" gradientUnits="userSpaceOnUse">
<stop stop-color="#006BB8"/>
<stop offset="1" stop-color="#00F0FF"/>
</linearGradient>
<clipPath id="clip0_302_204">
<rect width="206" height="40" fill="white"/>
</clipPath>
</defs>
</svg>
