<svg width="44" height="44" viewBox="0 0 44 44" fill="none" xmlns="http://www.w3.org/2000/svg">
<g opacity="0.4">
<path d="M22 0C15.4931 0 10.1538 5.33923 10.1538 11.8462V13.5385H8.46153C6.6 13.5385 5.07692 15.0615 5.07692 16.9231V37.2308C5.07692 39.0923 6.6 40.6154 8.46153 40.6154H35.5385C37.4 40.6154 38.9231 39.0923 38.9231 37.2308V16.9231C38.9231 15.0615 37.4 13.5385 35.5385 13.5385H33.8462V11.8462C33.8462 5.33923 28.5069 0 22 0ZM22 3.38462C26.6623 3.38462 30.4615 7.18385 30.4615 11.8462V13.5385H13.5385V11.8462C13.5385 7.18385 17.3377 3.38462 22 3.38462ZM22 18.6154C26.7385 18.6154 30.4615 22.3385 30.4615 27.0769C30.4615 31.8154 26.7385 35.5385 22 35.5385C17.2615 35.5385 13.5385 31.8154 13.5385 27.0769C13.5385 22.3385 17.2615 18.6154 22 18.6154ZM22 22C19.1231 22 16.9231 24.2 16.9231 27.0769C16.9231 29.9538 19.1231 32.1538 22 32.1538C24.8769 32.1538 27.0769 29.9538 27.0769 27.0769C27.0769 26.5692 26.9178 26.0514 26.9178 25.5437C26.4102 26.3898 25.5538 27.0769 24.5385 27.0769C23.1846 27.0769 22 25.8923 22 24.5385C22 23.5231 22.6871 22.6668 23.5332 22.1591C23.0255 22.1591 22.5077 22 22 22Z" fill="white"/>
</g>
</svg>
