<svg width="44" height="44" viewBox="0 0 44 44" fill="none" xmlns="http://www.w3.org/2000/svg">
<g opacity="0.4" clip-path="url(#clip0_302_36)">
<path d="M37.7178 25.5933C38.5219 25.6922 39.2964 25.9587 39.9911 26.3756H40.0522C40.774 22.9635 40.5155 19.4169 39.3067 16.1456C39.2614 15.9828 39.1829 15.8311 39.076 15.7002C38.9692 15.5693 38.8364 15.462 38.686 15.385C38.5356 15.308 38.3708 15.2631 38.2021 15.253C38.0335 15.2429 37.8646 15.2679 37.706 15.3264C37.5475 15.3849 37.4028 15.4756 37.2812 15.5928C37.1595 15.71 37.0634 15.8512 36.9991 16.0075C36.9347 16.1637 36.9034 16.3316 36.9072 16.5005C36.911 16.6694 36.9498 16.8357 37.0211 16.9889C38.0312 19.7404 38.2721 22.7152 37.7178 25.5933ZM32.1811 34.9311C30.0514 36.7078 27.4936 37.8961 24.7622 38.3778C24.6017 38.3914 24.4455 38.4365 24.3024 38.5106C24.1593 38.5846 24.0323 38.6861 23.9284 38.8092C23.8246 38.9324 23.746 39.0748 23.6972 39.2283C23.6484 39.3818 23.6302 39.5434 23.6439 39.7039C23.6575 39.8644 23.7027 40.0206 23.7767 40.1637C23.8507 40.3068 23.9522 40.4339 24.0753 40.5377C24.1985 40.6415 24.3409 40.7201 24.4944 40.7689C24.6479 40.8178 24.8095 40.8359 24.97 40.8222H25.19C28.4455 40.2479 31.4881 38.8132 34.0022 36.6667V36.5811C33.2833 36.1689 32.662 35.606 32.1811 34.9311ZM19.0911 38.3044C17.2425 37.9575 15.4682 37.2917 13.8478 36.3367C13.1548 35.9284 12.4893 35.4752 11.8556 34.98C11.3896 35.6645 10.7808 36.2399 10.0711 36.6667C10.8648 37.3363 11.7108 37.9412 12.6011 38.4756C14.4679 39.5752 16.5105 40.3442 18.6389 40.7489H18.8711C19.1953 40.7781 19.5177 40.6773 19.7676 40.4687C20.0174 40.2601 20.1742 39.9608 20.2033 39.6367C20.2325 39.3125 20.1317 38.99 19.9231 38.7402C19.7146 38.4904 19.4153 38.3336 19.0911 38.3044ZM5.57334 25.85C5.81778 25.85 6.06222 25.8133 6.30667 25.74C5.72404 22.858 5.95251 19.8709 6.96667 17.1111C7.0785 16.8064 7.06471 16.4698 6.92833 16.1752C6.79195 15.8807 6.54415 15.6524 6.23945 15.5406C5.93474 15.4287 5.59809 15.4425 5.30356 15.5789C5.00902 15.7153 4.78072 15.9631 4.66889 16.2678C3.45827 19.5657 3.2207 23.142 3.98445 26.5711C4.4749 26.2524 5.01053 26.0093 5.57334 25.85Z" fill="white"/>
<path d="M38.9889 28.1111C38.5524 27.8334 38.0651 27.645 37.5553 27.5569C37.0455 27.4687 36.5233 27.4827 36.0189 27.5978C35.3806 27.768 34.7933 28.091 34.3078 28.5389L29.5778 25.8011C30.3227 23.9607 30.3914 21.9158 29.7716 20.0295C29.1518 18.1433 27.8836 16.5377 26.1922 15.4978L26.0578 15.4122C25.144 14.8966 24.1401 14.5606 23.1 14.4222V9.77778C24.0734 9.48525 24.8964 8.82856 25.3978 7.94445C25.9377 7.03042 26.0955 5.94038 25.837 4.91076C25.5784 3.88114 24.9244 2.99496 24.0167 2.44445C23.5745 2.18574 23.0851 2.01789 22.5772 1.95073C22.0693 1.88358 21.5531 1.91846 21.0589 2.05334C20.5493 2.18324 20.0707 2.41335 19.651 2.73021C19.2313 3.04708 18.8789 3.44437 18.6145 3.89889C18.0898 4.80851 17.9405 5.88689 18.1984 6.90482C18.4563 7.92276 19.101 8.79997 19.9956 9.35C20.2761 9.53325 20.5804 9.67719 20.9 9.77778V14.4222C19.6688 14.5903 18.4928 15.0392 17.4628 15.7344C16.4328 16.4295 15.5765 17.3522 14.96 18.4311C14.3222 19.5339 13.9444 20.7676 13.8554 22.0384C13.7665 23.3092 13.9687 24.5836 14.4467 25.7644L9.55779 28.5633C9.38633 28.3987 9.20245 28.2475 9.00779 28.1111C8.56023 27.8565 8.06681 27.6927 7.55582 27.6293C7.04483 27.5658 6.52633 27.6039 6.03009 27.7413C5.53384 27.8787 5.06962 28.1127 4.66404 28.43C4.25847 28.7472 3.91953 29.1414 3.66668 29.59C3.1387 30.4952 2.98378 31.5704 3.23473 32.5879C3.48567 33.6054 4.12277 34.4852 5.01112 35.0411C5.62001 35.4077 6.31705 35.6021 7.02779 35.6033C7.34961 35.6056 7.67028 35.5645 7.98112 35.4811C8.99726 35.219 9.86839 34.5654 10.4043 33.6632C10.9401 32.7609 11.0972 31.6832 10.8411 30.6656V30.4578L15.5833 27.72C16.219 28.5522 17.0019 29.2606 17.8933 29.81C19.6021 30.8874 21.6574 31.2723 23.6402 30.8862C25.623 30.5001 27.3838 29.3721 28.5633 27.7322L33.2445 30.4333C33.0238 31.2669 33.077 32.1493 33.3961 32.9504C33.7152 33.7514 34.2833 34.4287 35.0167 34.8822C35.905 35.4035 36.9639 35.5508 37.9608 35.2918C38.9577 35.0329 39.811 34.3888 40.3333 33.5011C40.8427 32.6016 40.9871 31.5408 40.737 30.5378C40.4868 29.5348 39.861 28.6661 38.9889 28.1111ZM9.8389 12.2222C11.5899 10.1538 13.8409 8.56759 16.3778 7.61445C16.1322 6.79496 16.0614 5.93303 16.17 5.08445C12.9919 6.14701 10.1617 8.05212 7.98112 10.5967C7.76556 10.843 7.65669 11.1649 7.67847 11.4916C7.70024 11.8182 7.85088 12.1228 8.09723 12.3383C8.34359 12.5539 8.66549 12.6628 8.99211 12.641C9.31874 12.6192 9.62334 12.4686 9.8389 12.2222Z" fill="white"/>
<path d="M30.1522 8.83668C31.6568 9.73943 33.0028 10.8832 34.1367 12.2222C34.241 12.3442 34.3683 12.4445 34.5114 12.5172C34.6545 12.59 34.8105 12.6339 34.9705 12.6464C35.1305 12.6589 35.2914 12.6397 35.4441 12.59C35.5967 12.5403 35.738 12.461 35.86 12.3567C35.982 12.2524 36.0822 12.125 36.155 11.982C36.2278 11.8389 36.2717 11.6829 36.2841 11.5229C36.2966 11.3628 36.2775 11.2019 36.2278 11.0493C36.1781 10.8967 36.0988 10.7553 35.9944 10.6333C34.6891 9.08475 33.1363 7.76315 31.3989 6.72224C30.2595 6.0597 29.0555 5.51504 27.8056 5.09668C27.9283 5.93928 27.8657 6.79852 27.6222 7.61446C28.4974 7.95232 29.3436 8.36109 30.1522 8.83668Z" fill="white"/>
</g>
<defs>
<clipPath id="clip0_302_36">
<rect width="44" height="44" fill="white"/>
</clipPath>
</defs>
</svg>
