<svg width="44" height="44" viewBox="0 0 44 44" fill="none" xmlns="http://www.w3.org/2000/svg">
<g opacity="0.4">
<path d="M19.6433 5.61551C20.141 5.27451 20.5013 4.99126 20.7268 4.79876L21.0292 4.53201C21.2851 4.27408 21.6325 4.12786 21.9958 4.12528C22.359 4.1227 22.7086 4.26398 22.968 4.51826C23.4131 4.91067 23.8835 5.27353 24.376 5.60451C25.3798 6.28101 26.9417 7.18301 29.1143 8.02451C31.4815 8.92845 33.9737 9.4627 36.5035 9.60851C36.707 9.61951 36.861 9.62226 36.9655 9.62501H37.103C37.2854 9.62209 37.4666 9.6555 37.6359 9.72329C37.8053 9.79108 37.9595 9.8919 38.0895 10.0199C38.2195 10.1478 38.3228 10.3004 38.3933 10.4687C38.4637 10.637 38.5 10.8176 38.5 11V18.579C38.5002 22.164 37.5659 25.6871 35.7893 28.8009C34.0128 31.9147 31.4553 34.5117 28.369 36.3358L22.704 39.6825C22.4921 39.8078 22.2504 39.874 22.0041 39.874C21.7579 39.874 21.5162 39.8078 21.3043 39.6825L15.6337 36.333C12.547 34.5093 9.98892 31.9125 8.21185 28.7986C6.43479 25.6848 5.50011 22.1615 5.5 18.5763V11C5.49999 10.8183 5.53601 10.6383 5.60597 10.4706C5.67592 10.3029 5.77844 10.1507 5.90758 10.0228C6.03672 9.89498 6.18992 9.79399 6.35834 9.7257C6.52675 9.65741 6.70703 9.62319 6.88875 9.62501H7.029L7.4965 9.60576C10.0369 9.45065 12.5396 8.9158 14.9215 8.01901C16.5833 7.40369 18.1679 6.5971 19.6433 5.61551ZM25.4375 19.9375C25.4373 19.3178 25.2696 18.7097 24.9522 18.1775C24.6347 17.6453 24.1792 17.2088 23.634 16.9142C23.0888 16.6196 22.4741 16.4779 21.8549 16.504C21.2358 16.5302 20.6352 16.7232 20.1168 17.0627C19.5984 17.4022 19.1813 17.8756 18.9099 18.4327C18.6384 18.9897 18.5226 19.6098 18.5747 20.2274C18.6267 20.8449 18.8448 21.4368 19.2057 21.9406C19.5666 22.4443 20.057 22.8411 20.625 23.089V26.136C20.625 26.5007 20.7699 26.8504 21.0277 27.1083C21.2856 27.3661 21.6353 27.511 22 27.511C22.3647 27.511 22.7144 27.3661 22.9723 27.1083C23.2301 26.8504 23.375 26.5007 23.375 26.136V23.089C23.9882 22.8214 24.5099 22.3807 24.8763 21.8209C25.2426 21.2611 25.4377 20.6065 25.4375 19.9375Z" fill="white"/>
</g>
</svg>
