<svg width="40" height="40" viewBox="0 0 40 40" fill="none" xmlns="http://www.w3.org/2000/svg">
<g clip-path="url(#clip0_302_584)">
<path d="M33.25 9.07879C30.984 8.45567 28.7702 7.646 26.63 6.65758C24.5244 5.71651 22.4918 4.61086 20.55 3.3503L20 3L19.46 3.36061C17.5182 4.62117 15.4856 5.72682 13.38 6.66788C11.2363 7.6533 9.01915 8.45954 6.75 9.07879L6 9.27455V17.8673C6 31.663 19.53 36.8248 19.66 36.8764L20 37L20.34 36.8764C20.48 36.8764 34 31.6733 34 17.8673V9.27455L33.25 9.07879ZM28.68 15.9303L17.51 27.1091L11.19 20.5873C10.9248 20.314 10.7758 19.9434 10.7758 19.557C10.7758 19.1705 10.9248 18.7999 11.19 18.5267C11.4552 18.2534 11.8149 18.0999 12.19 18.0999C12.5651 18.0999 12.9248 18.2534 13.19 18.5267L17.54 23.0909L26.73 13.8182C26.8613 13.6829 27.0172 13.5756 27.1888 13.5023C27.3604 13.4291 27.5443 13.3914 27.73 13.3914C27.9157 13.3914 28.0996 13.4291 28.2712 13.5023C28.4428 13.5756 28.5987 13.6829 28.73 13.8182C28.8613 13.9535 28.9655 14.1141 29.0366 14.2909C29.1076 14.4677 29.1442 14.6571 29.1442 14.8485C29.1442 15.0398 29.1076 15.2293 29.0366 15.4061C28.9655 15.5829 28.8613 15.7435 28.73 15.8788L28.68 15.9303Z" fill="#00CFFD"/>
</g>
<defs>
<clipPath id="clip0_302_584">
<rect width="40" height="40" fill="white"/>
</clipPath>
</defs>
</svg>
