<svg width="40" height="40" viewBox="0 0 40 40" fill="none" xmlns="http://www.w3.org/2000/svg">
<path d="M8.96251 11.0349L3.53501 16.4624C3.0705 16.9268 2.70202 17.478 2.45062 18.0848C2.19922 18.6916 2.06982 19.3419 2.06982 19.9987C2.06982 20.6555 2.19922 21.3058 2.45062 21.9126C2.70202 22.5193 3.0705 23.0706 3.53501 23.5349L8.96251 28.9624C9.42683 29.427 9.97811 29.7954 10.5849 30.0468C11.1916 30.2982 11.842 30.4276 12.4988 30.4276C13.1555 30.4276 13.8059 30.2982 14.4126 30.0468C15.0194 29.7954 15.5707 29.427 16.035 28.9624L21.4625 23.5349C21.927 23.0706 22.2955 22.5193 22.5469 21.9126C22.7983 21.3058 22.9277 20.6555 22.9277 19.9987C22.9277 19.3419 22.7983 18.6916 22.5469 18.0848C22.2955 17.478 21.927 16.9268 21.4625 16.4624L16.035 11.0349C15.5707 10.5704 15.0194 10.202 14.4126 9.95056C13.8059 9.69916 13.1555 9.56976 12.4988 9.56976C11.842 9.56976 11.1916 9.69916 10.5849 9.95056C9.97811 10.202 9.42683 10.5704 8.96251 11.0349ZM23.9625 28.9624L21.7675 26.7674L23.2325 25.3024C23.9291 24.606 24.4816 23.7791 24.8586 22.8691C25.2356 21.9591 25.4297 20.9837 25.4297 19.9987C25.4297 19.0137 25.2356 18.0383 24.8586 17.1283C24.4816 16.2182 23.9291 15.3914 23.2325 14.6949L21.7675 13.2324L23.9625 11.0324C24.4268 10.5679 24.9781 10.1995 25.5849 9.94806C26.1916 9.69666 26.842 9.56726 27.4988 9.56726C28.1555 9.56726 28.8059 9.69666 29.4126 9.94806C30.0194 10.1995 30.5707 10.5679 31.035 11.0324L36.4625 16.4624C36.927 16.9268 37.2955 17.478 37.5469 18.0848C37.7983 18.6916 37.9277 19.3419 37.9277 19.9987C37.9277 20.6555 37.7983 21.3058 37.5469 21.9126C37.2955 22.5193 36.927 23.0706 36.4625 23.5349L31.035 28.9624C30.5707 29.427 30.0194 29.7954 29.4126 30.0468C28.8059 30.2982 28.1555 30.4276 27.4988 30.4276C26.842 30.4276 26.1916 30.2982 25.5849 30.0468C24.9781 29.7954 24.4268 29.427 23.9625 28.9624Z" fill="#00CFFD"/>
</svg>
