<svg width="40" height="41" viewBox="0 0 40 41" fill="none" xmlns="http://www.w3.org/2000/svg">
<path d="M20 9.30005C6.878 9.30005 0 18.964 0 20.5C0 22.032 6.878 31.7 20 31.7C33.12 31.7 40 22.032 40 20.5C40 18.964 33.12 9.30005 20 9.30005ZM20 29.114C15.09 29.114 11.11 25.258 11.11 20.5C11.11 15.742 15.09 11.882 20 11.882C24.91 11.882 28.888 15.742 28.888 20.5C28.888 25.258 24.91 29.114 20 29.114ZM20 20.5C19.186 19.606 21.326 16.192 20 16.192C17.544 16.192 15.554 18.122 15.554 20.5C15.554 22.878 17.544 24.808 20 24.808C22.454 24.808 24.446 22.878 24.446 20.5C24.446 19.406 20.692 21.258 20 20.5Z" fill="#00CFFD"/>
</svg>
