<svg width="40" height="40" viewBox="0 0 40 40" fill="none" xmlns="http://www.w3.org/2000/svg">
<path d="M31.7846 13.0004C30.3545 12.9769 29.1838 14.0041 29.1838 15.2307V20H28.6736V10.3635C28.6736 9.13689 27.5029 8.10974 26.0728 8.13321C24.6868 8.15596 23.5715 9.12644 23.5715 10.3203V20H23.0613V8.23071C23.0613 7.00407 21.8907 5.97693 20.4605 6.00039C19.0746 6.02314 17.9593 6.99363 17.9593 8.18751V20H17.4491V10.4182C17.4491 9.19157 16.2784 8.16443 14.8482 8.18789C13.4623 8.21064 12.347 9.18113 12.347 10.375V23.2808L10.3287 20.9009C9.50002 19.9238 7.9046 19.7078 6.76506 20.4184C5.62571 21.129 5.3738 22.497 6.20243 23.4741L14.2127 32.9189C14.4967 33.2538 14.869 33.5263 15.2993 33.7142C15.7296 33.9021 16.2056 34 16.6884 34H29.2899C30.7104 34 31.9443 33.162 32.2697 31.9762L33.9603 25.8151C34.1765 25.027 34.2858 24.22 34.2858 23.4103V15.1875C34.2858 13.9936 33.1705 13.0231 31.7846 13.0004Z" fill="#00CFFD"/>
</svg>
