<svg width="40" height="40" viewBox="0 0 40 40" fill="none" xmlns="http://www.w3.org/2000/svg">
<path d="M17.4167 25.8333C18.0834 26.5 18.9445 26.8261 20 26.8116C21.0556 26.7983 21.8334 26.4166 22.3334 25.6666L29.375 15.125C29.625 14.7361 29.59 14.3822 29.27 14.0633C28.9512 13.7433 28.5973 13.7083 28.2084 13.9583L17.6667 21C16.9167 21.5 16.5212 22.2638 16.48 23.2916C16.4378 24.3194 16.75 25.1666 17.4167 25.8333ZM8.50004 33.3333C7.91671 33.3333 7.36115 33.1944 6.83337 32.9166C6.3056 32.6388 5.88893 32.25 5.58337 31.75C4.86115 30.5 4.3056 29.1738 3.91671 27.7716C3.52782 26.3683 3.33337 24.8888 3.33337 23.3333C3.33337 21.0277 3.77115 18.8677 4.64671 16.8533C5.52115 14.84 6.7156 13.0761 8.23004 11.5616C9.74337 10.0483 11.5139 8.85385 13.5417 7.97829C15.5695 7.10385 17.7223 6.66663 20 6.66663C22.3056 6.66663 24.465 7.10385 26.4784 7.97829C28.4928 8.85385 30.2567 10.0483 31.77 11.5616C33.2845 13.0761 34.4789 14.84 35.3534 16.8533C36.2289 18.8677 36.6667 21.0277 36.6667 23.3333C36.6667 24.8888 36.4795 26.3538 36.105 27.7283C35.7295 29.1038 35.1667 30.4444 34.4167 31.75C34.1112 32.25 33.6945 32.6388 33.1667 32.9166C32.6389 33.1944 32.0834 33.3333 31.5 33.3333H8.50004Z" fill="#00CFFD"/>
</svg>
