<svg width="40" height="40" viewBox="0 0 40 40" fill="none" xmlns="http://www.w3.org/2000/svg">
<path d="M34 14H6C4.89544 14 4 13.1046 4 12V8C4 6.89544 4.89544 6 6 6H34C35.1046 6 36 6.89544 36 8V12C36 13.1046 35.1046 14 34 14ZM31 8.5C30.1716 8.5 29.5 9.17156 29.5 10C29.5 10.8284 30.1716 11.5 31 11.5C31.8284 11.5 32.5 10.8284 32.5 10C32.5 9.17156 31.8284 8.5 31 8.5ZM27 8.5C26.1716 8.5 25.5 9.17156 25.5 10C25.5 10.8284 26.1716 11.5 27 11.5C27.8284 11.5 28.5 10.8284 28.5 10C28.5 9.17156 27.8284 8.5 27 8.5ZM34 24H6C4.89544 24 4 23.1046 4 22V18C4 16.8954 4.89544 16 6 16H34C35.1046 16 36 16.8954 36 18V22C36 23.1046 35.1046 24 34 24ZM31 18.5C30.1716 18.5 29.5 19.1716 29.5 20C29.5 20.8284 30.1716 21.5 31 21.5C31.8284 21.5 32.5 20.8284 32.5 20C32.5 19.1716 31.8284 18.5 31 18.5ZM27 18.5C26.1716 18.5 25.5 19.1716 25.5 20C25.5 20.8284 26.1716 21.5 27 21.5C27.8284 21.5 28.5 20.8284 28.5 20C28.5 19.1716 27.8284 18.5 27 18.5ZM34 34H6C4.89544 34 4 33.1046 4 32V28C4 26.8954 4.89544 26 6 26H34C35.1046 26 36 26.8954 36 28V32C36 33.1046 35.1046 34 34 34ZM31 28.5C30.1716 28.5 29.5 29.1716 29.5 30C29.5 30.8284 30.1716 31.5 31 31.5C31.8284 31.5 32.5 30.8284 32.5 30C32.5 29.1716 31.8284 28.5 31 28.5ZM27 28.5C26.1716 28.5 25.5 29.1716 25.5 30C25.5 30.8284 26.1716 31.5 27 31.5C27.8284 31.5 28.5 30.8284 28.5 30C28.5 29.1716 27.8284 28.5 27 28.5Z" fill="#00CFFD"/>
</svg>
