<svg width="40" height="41" viewBox="0 0 40 41" fill="none" xmlns="http://www.w3.org/2000/svg">
<path d="M7.5 8C7.5 6.67392 8.02678 5.40215 8.96447 4.46447C9.90215 3.52678 11.1739 3 12.5 3C13.8261 3 15.0979 3.52678 16.0355 4.46447C16.9732 5.40215 17.5 6.67392 17.5 8C17.5 9.32608 16.9732 10.5979 16.0355 11.5355C15.0979 12.4732 13.8261 13 12.5 13C11.1739 13 9.90215 12.4732 8.96447 11.5355C8.02678 10.5979 7.5 9.32608 7.5 8ZM24.4475 11.96L24.5525 12.04C25.6132 12.8263 26.9419 13.161 28.2486 12.9713C29.5552 12.7815 30.7338 12.0826 31.527 11.0271C32.3203 9.97157 32.6638 8.64513 32.4827 7.33725C32.3015 6.02937 31.6104 4.84623 30.5602 4.04603C29.5099 3.24583 28.1858 2.89354 26.8767 3.06604C25.5677 3.23854 24.38 3.92183 23.5729 4.96679C22.7658 6.01174 22.4047 7.33353 22.5686 8.64369C22.7325 9.95385 23.4079 11.146 24.4475 11.96ZM15.67 15.5C15.984 14.9054 16.4147 14.3803 16.9364 13.956C17.458 13.5317 18.0599 13.217 18.706 13.0307C19.3521 12.8444 20.0291 12.7903 20.6965 12.8717C21.364 12.9531 22.0082 13.1683 22.5906 13.5044C23.173 13.8405 23.6816 14.2906 24.086 14.8278C24.4904 15.365 24.7823 15.9783 24.9442 16.6309C25.1061 17.2835 25.1347 17.9621 25.0283 18.626C24.922 19.29 24.6827 19.9256 24.325 20.495C23.6368 21.5903 22.5509 22.3763 21.2953 22.6878C20.0398 22.9993 18.7125 22.8121 17.5921 22.1655C16.4717 21.5189 15.6455 20.4632 15.2871 19.2203C14.9287 17.9773 15.0659 16.6439 15.67 15.5ZM6.25 15.5H12.925C12.4807 16.7689 12.3841 18.1336 12.6452 19.4524C12.9063 20.7712 13.5157 21.9962 14.41 23H13.75C12.4611 22.9998 11.2036 23.398 10.1497 24.14C9.0958 24.882 8.29695 25.9315 7.8625 27.145C7.02333 26.8079 6.23762 26.3506 5.53 25.7875C3.65 24.275 2.5 22.04 2.5 19.25C2.5 18.2554 2.89509 17.3016 3.59835 16.5983C4.30161 15.8951 5.25544 15.5 6.25 15.5ZM26.25 23C27.5386 23 28.7956 23.3982 29.8491 24.1402C30.9026 24.8822 31.701 25.9317 32.135 27.145C32.985 26.7975 33.7725 26.345 34.47 25.7875C36.35 24.275 37.5 22.04 37.5 19.25C37.5 18.2554 37.1049 17.3016 36.4016 16.5983C35.6984 15.8951 34.7446 15.5 33.75 15.5H27.075C27.35 16.2825 27.5 17.125 27.5 18C27.5023 19.8453 26.822 21.6262 25.59 23H26.25ZM29.7175 27.82C29.9 28.26 30 28.745 30 29.25C30 32.04 28.8525 34.275 26.97 35.7875C25.1175 37.275 22.6325 38 20 38C17.3675 38 14.8825 37.275 13.03 35.7875C11.15 34.275 10 32.04 10 29.25C9.99868 28.7572 10.0948 28.2689 10.2828 27.8134C10.4708 27.3578 10.7469 26.9439 11.0954 26.5954C11.4439 26.2469 11.8578 25.9708 12.3134 25.7828C12.7689 25.5948 13.2572 25.4987 13.75 25.5H26.25C26.9928 25.4998 27.7188 25.7202 28.3362 26.1333C28.9535 26.5463 29.4343 27.1334 29.7175 27.82Z" fill="#00CFFD"/>
</svg>
