<svg width="40" height="40" viewBox="0 0 40 40" fill="none" xmlns="http://www.w3.org/2000/svg">
<path d="M17.8938 13.5926C17.9626 14.0132 18.0001 14.4461 18.0001 14.8296C18.0001 15.3244 17.9626 15.7573 17.8938 16.1779L19.2813 17.4025C19.7188 17.7922 19.9001 18.355 19.6688 18.9487C19.5251 19.2209 19.3688 19.5981 19.1938 19.9074L19.0001 20.2414C18.7563 20.5506 18.6063 20.8475 18.3876 21.1382C18.0313 21.6082 17.4063 21.7629 16.8438 21.5773L15.0751 21.0021C14.4063 21.5526 13.6438 21.9917 12.8126 22.3009L12.3813 24.0946C12.3126 24.6698 11.8626 25.1274 11.2751 25.2017C10.8563 25.2511 10.4313 25.2759 10.0001 25.2759C9.56882 25.2759 9.14382 25.2511 8.72507 25.2017C8.13757 25.1274 7.63132 24.6698 7.56257 24.0946L7.13132 22.3009C6.35632 21.9917 5.59382 21.5526 4.92195 21.0021L3.1582 21.5773C2.59632 21.7629 1.97007 21.6082 1.61382 21.1382C1.39257 20.8475 1.18632 20.5444 0.996324 20.2352L0.807574 19.9074C0.633199 19.5981 0.474574 19.2765 0.332824 18.9487C0.101324 18.355 0.278699 17.7922 0.720074 17.4025L2.10632 16.1779C2.03632 15.7573 1.94382 15.3244 1.94382 14.8296C1.94382 14.4461 2.03632 14.0132 2.10632 13.5926L0.720074 12.368C0.278699 11.9227 0.101324 11.3599 0.332824 10.8218C0.474574 10.4383 0.633199 10.1717 0.806949 9.86064L0.996949 9.53594C1.18632 9.2236 1.39257 8.92178 1.61382 8.63171C1.97007 8.16475 2.59632 8.00951 3.1582 8.19258L4.92195 8.76777C5.59382 8.22103 6.35632 7.78066 7.13132 7.47266L7.56257 5.67471C7.63132 5.10075 8.13757 4.64121 8.72507 4.57077C9.14813 4.51999 9.57391 4.49456 10.0001 4.49463C10.4313 4.49463 10.8563 4.52048 11.2751 4.5707C11.8626 4.64121 12.3126 5.10075 12.3813 5.67471L12.8126 7.47266C13.6438 7.78066 14.4063 8.22103 15.0751 8.76777L16.8438 8.19258C17.4063 8.00951 18.0313 8.16475 18.3876 8.63171C18.6063 8.92054 18.7563 9.22113 19.0001 9.53161L19.1938 9.86497C19.3688 10.1748 19.5251 10.494 19.6688 10.8218C19.9001 11.3599 19.7188 11.9227 19.2813 12.368L17.8938 13.5926ZM10.0001 11.8608C8.34382 11.8608 7.00007 13.2463 7.00007 14.8296C7.00007 16.5243 8.34382 17.7983 10.0001 17.7983C11.6563 17.7983 13.0001 16.5243 13.0001 14.8296C13.0001 13.2463 11.6563 11.8608 10.0001 11.8608ZM30.3063 33.5822C29.8813 33.6502 29.4438 33.6873 29.0001 33.6873C28.5563 33.6873 28.1188 33.6502 27.6938 33.5822L26.4563 34.9552C26.0063 35.3882 25.4376 35.5675 24.8938 35.3387C24.5626 35.1964 24.2376 35.0418 23.9251 34.8687L23.5876 34.6769C23.2751 34.4357 22.9751 34.2873 22.6813 34.0708C22.2063 33.7183 22.0501 33.0998 22.2376 32.5431L22.8188 30.7928C22.2626 30.131 21.8188 29.3765 21.5063 28.5539L19.6938 28.1271C19.1126 28.0591 18.6501 27.6138 18.5751 27.0324C18.5251 26.618 18.5001 26.1974 18.5001 25.7707C18.5001 25.3439 18.5251 24.9233 18.5751 24.509C18.6501 23.9276 19.1126 23.4266 19.6938 23.3586L21.5063 22.9318C21.8188 22.1649 22.2626 21.4103 22.8188 20.7485L22.2376 18.9982C22.0501 18.4416 22.2063 17.8231 22.6813 17.4705C22.9751 17.2541 23.2813 16.9943 23.5938 16.8582L23.9251 16.6727C24.2376 16.4995 24.5063 16.3449 24.8938 16.2026C25.4376 15.9738 26.0063 16.1532 26.4563 16.5861L27.6938 17.9591C28.1188 17.8911 28.5563 17.854 29.0001 17.854C29.4438 17.854 29.8813 17.8911 30.3063 17.9591L31.5438 16.5861C31.9376 16.1532 32.5063 15.9738 33.1063 16.2026C33.4376 16.3449 33.7626 16.4995 34.0751 16.6727L34.4063 16.8582C34.7188 16.9943 35.0251 17.2541 35.3188 17.4705C35.7938 17.8231 35.9501 18.4416 35.7626 18.9982L35.1813 20.7485C35.7376 21.4103 36.1813 22.1649 36.4938 22.9318L38.3063 23.3586C38.8876 23.4266 39.3501 23.9276 39.4251 24.509C39.4751 24.9233 39.5001 25.3439 39.5001 25.7707C39.5001 26.1974 39.4751 26.618 39.4251 27.0324C39.3501 27.6138 38.8876 28.0591 38.3063 28.1271L36.4938 28.5539C36.1813 29.3765 35.7376 30.131 35.1813 30.7928L35.7626 32.5431C35.9501 33.0998 35.7938 33.7183 35.3188 34.0708C35.0251 34.2873 34.7251 34.4357 34.4126 34.6769L34.0751 34.8687C33.7626 35.0418 33.3813 35.1964 33.1063 35.3387C32.5063 35.5675 31.9376 35.3882 31.5438 34.9552L30.3063 33.5822ZM32.0001 25.7707C32.0001 24.1317 30.6563 22.8019 29.0001 22.8019C27.3438 22.8019 26.0001 24.1317 26.0001 25.7707C26.0001 27.4097 27.3438 28.7394 29.0001 28.7394C30.6563 28.7394 32.0001 27.4097 32.0001 25.7707Z" fill="#00CFFD"/>
</svg>
